<?xml version="1.0" encoding="utf-8"?>
<!-- Generator: Adobe Illustrator 20.0.0, SVG Export Plug-In . SVG Version: 6.00 Build 0)  -->
<!DOCTYPE svg PUBLIC "-//W3C//DTD SVG 1.1//EN" "http://www.w3.org/Graphics/SVG/1.1/DTD/svg11.dtd">
<svg version="1.1" id="Ebene_1" xmlns="http://www.w3.org/2000/svg" xmlns:xlink="http://www.w3.org/1999/xlink" x="0px" y="0px"
	 viewBox="0 0 283.5 89.6" style="enable-background:new 0 0 283.5 89.6;" xml:space="preserve">
<style type="text/css">
	.st0{fill:#010202;}
	.st1{fill:#FFFFFF;}
	.st2{fill:#FABB03;}
</style>
<g>
	<rect x="0.4" y="0.1" class="st0" width="283.5" height="89.3"/>
	<g>
		<path class="st1" d="M76.3,17.7V7.3C63.9,7.9,54.1,18.8,54,30.9C54,45,65.3,54.6,76.2,55l0-10.3c-8.1-1.3-11.9-7.9-11.9-13.4
			C64.4,23.7,70.3,18.4,76.3,17.7"/>
		<path class="st1" d="M7.4,55c0,0,0.3-38.9,43.5-47.8l0,47.8H22.2c0,0,0.3-6.4,2.1-10.1h16.2v-24c0,0-19.7,6.9-22.3,34.1H7.4z"/>
		<path class="st1" d="M79.7,54.9c0,0,0.3-38.9,43.5-47.8l0,47.8H94.6c0,0,0.4-6.4,2.1-10.1h16.2v-24c0,0-21.1,9.8-22.3,34.1H79.7z"
			/>
		<path class="st1" d="M127,40.5c0,0,0-33.4,0-33.4s4.7-0.2,9.9,0.4c5.9,0.8,8.9,1.6,14.7,6.9c6.3,5.8,6.6,15.2,6.6,16.6
			c0,1.4-0.5,18-17.2,23c-3.9,1.2-13,0.8-13.8,0.8c0,0,0-10.2,0-10.2s8.7,0.3,11.8-1.1c3-1.4,9-4.7,9.3-12.8
			c0.2-7.7-8-12.9-11.1-12.9v22.1C137.1,39.9,131.1,40.8,127,40.5"/>
		<path class="st1" d="M183.3,7.2l0,10.4c0,0-7.4,0.3-11,8.5h11V36l-11,0c0,0,2.3,7.6,11.1,8.8v10.4C173,54.8,161,45.7,161,30.9
			C161,16.4,173.7,7.4,183.3,7.2"/>
		<path class="st1" d="M228.6,7.5c0,0,10.3,0,10.3,0c0.5,5.8,6.2,12.2,13.1,12.3c6.5,0.1,13.3-6.2,13.9-12.3c0,0,10,0,10,0
			c-0.7,10.8-8.3,19.4-18.8,21.9c-0.1,0,0,25.4,0,25.4h-10.1V29.2C247.1,29.2,230.3,25.9,228.6,7.5"/>
		<path class="st1" d="M203.3,17.3l-5.2,0v37.6h-10.1l0-47.4h20.3c0,0,21.1-1.9,20.2,20.6l0,26.8h-10.2v-29c0,0,0-7-4.8-7.9l-0.1,37
			l-10,0L203.3,17.3z"/>
		<path class="st1" d="M271.4,55c2.5,0,4.6-2.1,4.6-4.6c0-2.6-2.1-4.6-4.6-4.6c-2.5,0-4.6,2-4.6,4.6C266.8,52.9,268.9,55,271.4,55
			 M267.9,50.4c0-2,1.6-3.6,3.5-3.6c1.9,0,3.5,1.6,3.5,3.6c0,2-1.6,3.6-3.5,3.6C269.5,54,267.9,52.4,267.9,50.4 M270.3,50v-1.5h1
			c0.5,0,1.2,0.1,1.2,0.7c0,0.7-0.6,0.8-1.2,0.8H270.3z M272.4,53h1.1l-1.5-2.2c0.8-0.2,1.4-0.6,1.4-1.5c0-1-0.7-1.5-2-1.5h-2V53
			h0.9v-2.2h0.8L272.4,53z"/>
	</g>
	<rect x="2.6" y="60.6" class="st2" width="279.1" height="26.6"/>
	<polygon class="st0" points="13.4,67.9 19.6,67.9 19.6,65.6 10.9,65.6 10.9,82.2 13.4,82.2 13.4,74.7 18.4,74.7 18.4,72.4 
		13.4,72.4 	"/>
	<g>
		<path class="st0" d="M41.9,82.2h2.5v-7.6c0-3.6-1.4-4.9-4.9-4.9c-2.3,0-4.8,0.6-5,3.3H37c0-1.2,1.3-1.4,2.6-1.4
			c2.1,0,2.3,1,2.3,2.4v0.4h-2.3c-2.7,0-5.7,1-5.7,4.1c0,2.5,2,3.8,4.4,3.8c1.3,0,2.6-0.5,3.6-1.4V82.2z M41.9,76.4v0.4
			c0,2-1.1,3.7-3.3,3.7c-1.2,0-2.1-0.7-2.1-2c0-1.6,1.4-2.1,2.8-2.1H41.9z"/>
		<path class="st0" d="M62.6,64.4h-2.5v17.8h2.5v-6.6c0-2,0.3-3.6,2.8-3.6c1.8,0,2.1,1,2.1,2.6v7.6h2.5v-7.4c0-2.8-1.1-5.1-4.3-5.1
			c-1.1,0-2.4,0.4-3.2,1.2V64.4z"/>
		<path class="st0" d="M88.8,70h-2.5v12.3h2.5v-6.3c0-1.9,0.5-4.3,2.9-4.3c1.1,0,1.5,1,1.5,2v0.4h2.5v-0.5c0-2.2-1.6-3.7-3.7-3.7
			c-1.3,0-2.4,0.6-3.2,1.6h-0.1V70z"/>
		<path class="st0" d="M120.5,73v-0.4c0-2-2.4-2.9-4.6-2.9c-1.9,0-4.9,0.6-4.9,3.5c0,1.3,0.6,2.4,1.8,2.9c1,0.5,2.6,0.8,3.6,1
			c1,0.2,2,0.4,2,1.6c0,1.4-2,1.7-3,1.7c-0.8,0-2.3-0.1-2.4-1.6h-2.5c0,2.7,2.6,3.5,4.8,3.5c2.4,0,5.6-0.7,5.6-3.6
			c0-3.3-3.4-3.6-5.9-4.1c-0.9-0.2-1.6-0.5-1.6-1.6c0-1.3,1.4-1.5,2.3-1.5c0.8,0,2,0.3,2.1,1.4H120.5z"/>
		<path class="st0" d="M146.4,73.3c-0.4-2.4-2.3-3.5-4.6-3.5c-3.6,0-5.4,3-5.4,6.3c0,3.3,1.6,6.4,5.2,6.4c2.3,0,4.8-1.4,4.8-4h-2.5
			c0,1.1-1,1.9-2.1,1.9c-2.4,0-2.8-2.4-2.8-4.3c0-2,0.5-4.2,3-4.2c0.9,0,1.9,0.5,2,1.4H146.4z"/>
		<path class="st0" d="M164,64.4h-2.5v17.8h2.5v-6.6c0-2,0.3-3.6,2.8-3.6c1.8,0,2.1,1,2.1,2.6v7.6h2.5v-7.4c0-2.8-1.1-5.1-4.3-5.1
			c-1.1,0-2.4,0.4-3.2,1.2V64.4z"/>
		<path class="st0" d="M194.8,82.2h2.5V70h-2.5v6.2c0,2.5-0.9,4.2-3.6,4.2c-1.8,0-2.3-0.7-2.3-2.3v-8h-2.5v8c0,2.7,1.6,4.5,4.4,4.5
			c1.4,0,3.1-0.5,4.1-1.6V82.2z"/>
		<path class="st0" d="M216.9,64.4h-2.5v12.5c0,3.5,1,5.4,4.7,5.4h2.3v-2.1h-1.7c-2,0-2.8-0.6-2.8-2.6V64.4z"/>
		<path class="st0" d="M239.6,74.5c0.1-1.6,1.5-2.6,3.1-2.6c1.6,0,2.8,1,2.9,2.6H239.6z M248.1,76.6v-0.8c0-3.6-1.5-6.1-5.3-6.1
			c-3.9,0-5.7,2.8-5.7,6.4c0,3.8,2.1,6.3,6,6.3c1.9,0,4.4-0.6,4.6-3h-2.5c-0.3,0.8-1.2,0.9-1.9,0.9c-2.3,0-3.7-1.5-3.6-3.7H248.1z"
			/>
		<path class="st0" d="M265,70h-2.5v12.3h2.5v-6.4c0-2.3,1-4,3.5-4c1.7,0,2.4,0.9,2.4,2.5v7.9h2.5v-7.7c0-2.8-1.8-4.8-4.7-4.8
			c-1.4,0-2.9,0.6-3.7,1.6H265V70z"/>
	</g>
</g>
</svg>
