<?xml version="1.0" encoding="utf-8"?>
<!-- Generator: Adobe Illustrator 20.0.0, SVG Export Plug-In . SVG Version: 6.00 Build 0)  -->
<!DOCTYPE svg PUBLIC "-//W3C//DTD SVG 1.1//EN" "http://www.w3.org/Graphics/SVG/1.1/DTD/svg11.dtd">
<svg version="1.1" id="Ebene_1" xmlns="http://www.w3.org/2000/svg" xmlns:xlink="http://www.w3.org/1999/xlink" x="0px" y="0px"
	 viewBox="0 0 150 100" style="enable-background:new 0 0 150 100;" xml:space="preserve">
<style type="text/css">
	.st0{fill:#FABB00;}
	.st1{fill:#FFFFFF;}
</style>
<g>
	<g>
		<rect width="150" height="100"/>
	</g>
</g>
<g>
	<g>
		<path class="st0" d="M110.4,53.8h-3.1c-0.3,0-0.5-0.2-0.5-0.5s0.2-0.5,0.5-0.5h3.1c0.3,0,0.5,0.2,0.5,0.5
			C110.9,53.6,110.7,53.8,110.4,53.8z"/>
	</g>
	<g>
		<path class="st0" d="M110.4,56.6h-3.1c-0.3,0-0.5-0.2-0.5-0.5s0.2-0.5,0.5-0.5h3.1c0.3,0,0.5,0.2,0.5,0.5S110.7,56.6,110.4,56.6z"
			/>
	</g>
	<g>
		<path class="st0" d="M110.4,59.5h-3.1c-0.3,0-0.5-0.2-0.5-0.5s0.2-0.5,0.5-0.5h3.1c0.3,0,0.5,0.2,0.5,0.5S110.7,59.5,110.4,59.5z"
			/>
	</g>
	<g>
		<circle class="st0" cx="109.3" cy="77.3" r="9.2"/>
	</g>
	<g>
		<circle cx="109.2" cy="77.3" r="2.9"/>
	</g>
	<g>
		<circle class="st0" cx="48.1" cy="68.1" r="18.4"/>
	</g>
	<g>
		<circle cx="48.2" cy="68.1" r="7.1"/>
	</g>
	<g>
		<path class="st1" d="M116.4,58.5c-0.5,0-1-0.5-1-1c0-5.3-4.3-9.6-9.6-9.6c-0.5,0-1-0.5-1-1s0.5-1,1-1c6.5,0,11.7,5.3,11.7,11.7
			C117.4,58,117,58.5,116.4,58.5z"/>
	</g>
	<g>
		<path class="st1" d="M81.8,47.1c-0.4,0-0.8-0.3-1-0.7l-9.4-27.9H38.2c-0.5,0-1-0.5-1-1s0.5-1,1-1h34c0.4,0,0.8,0.3,1,0.7l9.6,28.6
			c0.2,0.5-0.1,1.1-0.7,1.3C82,47.1,81.9,47.1,81.8,47.1z"/>
	</g>
	<g>
		<path class="st1" d="M35.7,47.6c-0.1,0-0.2,0-0.3-0.1c-0.5-0.2-0.8-0.7-0.7-1.3l9.1-29.1c0.2-0.5,0.7-0.8,1.3-0.7s0.8,0.7,0.7,1.3
			l-9.1,29.1C36.6,47.3,36.1,47.6,35.7,47.6z"/>
	</g>
	<g>
		<path class="st1" d="M105.7,47.8H62.4c-0.5,0-1-0.5-1-1s0.5-1,1-1h43.3c0.5,0,1,0.5,1,1S106.2,47.8,105.7,47.8z"/>
	</g>
	<g>
		<path class="st1" d="M116.4,66.7c-0.5,0-1-0.5-1-1v-8.3c0-0.5,0.5-1,1-1s1,0.5,1,1v8.3C117.4,66.3,117,66.7,116.4,66.7z"/>
	</g>
	<g>
		<path class="st1" d="M103,44.9c-0.5,0-1-0.5-1-1c0-3.6,2.9-6.5,6.5-6.5c0.5,0,1,0.5,1,1s-0.5,1-1,1c-2.5,0-4.5,2-4.5,4.5
			C104,44.5,103.6,44.9,103,44.9z"/>
	</g>
	<g>
		<path class="st1" d="M103,59.5H88c-0.5,0-1-0.5-1-1s0.5-1,1-1h14v-14c0-0.5,0.5-1,1-1s1,0.5,1,1v15C104,59.1,103.6,59.5,103,59.5z
			"/>
	</g>
	<g>
		<path class="st1" d="M96.3,73.3H71.4c-0.5,0-1-0.5-1-1s0.5-1,1-1h24.9c0.5,0,1,0.5,1,1C97.3,72.9,96.9,73.3,96.3,73.3z"/>
	</g>
</g>
</svg>
