<?xml version="1.0" encoding="utf-8"?>
<!-- Generator: Adobe Illustrator 20.0.0, SVG Export Plug-In . SVG Version: 6.00 Build 0)  -->
<!DOCTYPE svg PUBLIC "-//W3C//DTD SVG 1.1//EN" "http://www.w3.org/Graphics/SVG/1.1/DTD/svg11.dtd">
<svg version="1.1" id="Ebene_1" xmlns="http://www.w3.org/2000/svg" xmlns:xlink="http://www.w3.org/1999/xlink" x="0px" y="0px"
	 viewBox="0 0 150 100" style="enable-background:new 0 0 150 100;" xml:space="preserve">
<style type="text/css">
	.st0{fill:#FFFFFF;}
	.st1{fill:#FABB00;}
</style>
<g>
	<g>
		<rect width="150" height="100"/>
	</g>
</g>
<g>
	<g>
		<path class="st0" d="M111.4,55.6H44.9c0.8,0.7,1.6,1.5,2.2,2.2h64.4c0.6,0,1.1-0.5,1.1-1.1C112.6,56.2,112.1,55.6,111.4,55.6z"/>
		<path class="st0" d="M128.1,40.3h-22L86.3,22.4c-0.2-0.2-0.4-0.3-0.8-0.3H30.9c-0.3,0-0.5,0.1-0.7,0.3l-19,14.2
			c-0.3,0.2-0.4,0.5-0.4,0.9v19.3c0,0.6,0.5,1.1,1.1,1.1h7.5c0.7-0.8,1.4-1.6,2.2-2.2H13V38l18.3-13.6h53.9L105,42.3
			c0.2,0.2,0.4,0.3,0.8,0.3h22.4c0.6,0,1.1-0.5,1.1-1.1C129.2,40.7,128.7,40.3,128.1,40.3z"/>
	</g>
	<g>
		<circle class="st1" cx="124.9" cy="69.4" r="11.7"/>
		<path class="st1" d="M124.9,82.2c-7.1,0-12.8-5.8-12.8-12.8s5.8-12.8,12.8-12.8c7,0,12.8,5.8,12.8,12.8
			C137.7,76.4,131.9,82.2,124.9,82.2z M124.9,58.8c-5.8,0-10.5,4.7-10.5,10.5s4.7,10.5,10.5,10.5c5.8,0,10.5-4.7,10.5-10.5
			C135.4,63.6,130.7,58.8,124.9,58.8z"/>
	</g>
	<g>
		<circle cx="124.9" cy="69.4" r="4.9"/>
		<path d="M124.9,75.4c-3.4,0-6-2.8-6-6c0-3.4,2.8-6,6-6c3.4,0,6,2.8,6,6C130.9,72.7,128.2,75.4,124.9,75.4z M124.9,65.6
			c-2.1,0-3.8,1.7-3.8,3.8c0,2.1,1.7,3.8,3.8,3.8s3.8-1.7,3.8-3.8C128.7,67.3,127,65.6,124.9,65.6z"/>
	</g>
	<g>
		<circle class="st1" cx="33.2" cy="69.4" r="11.7"/>
		<path class="st1" d="M33.2,82.2c-7.1,0-12.8-5.8-12.8-12.8s5.8-12.8,12.8-12.8S46,62.4,46,69.4S40.3,82.2,33.2,82.2z M33.2,58.8
			c-5.8,0-10.5,4.7-10.5,10.5s4.7,10.5,10.5,10.5s10.5-4.7,10.5-10.5C43.8,63.6,39.1,58.8,33.2,58.8z"/>
	</g>
	<g>
		<circle cx="33.2" cy="69.4" r="4.9"/>
		<path d="M33.2,75.4c-3.4,0-6-2.8-6-6c0-3.4,2.8-6,6-6s6,2.8,6,6C39.3,72.7,36.6,75.4,33.2,75.4z M33.2,65.6
			c-2.1,0-3.8,1.7-3.8,3.8c0,2.1,1.7,3.8,3.8,3.8s3.8-1.7,3.8-3.8C37,67.3,35.4,65.6,33.2,65.6z"/>
	</g>
	<g>
		<path class="st0" d="M106.5,70.8H51.4c-0.6,0-1.1-0.5-1.1-1.1s0.5-1.1,1.1-1.1h55.1c0.6,0,1.1,0.5,1.1,1.1
			C107.6,70.2,107.1,70.8,106.5,70.8z"/>
	</g>
	<g>
		<path class="st0" d="M135.3,49.9c-0.6,0-1.1-0.5-1.1-1.1c0-3.5-2.8-6.3-6.3-6.3c-0.6,0-1.1-0.5-1.1-1.1s0.5-1.1,1.1-1.1
			c4.7,0,8.5,3.8,8.5,8.5C136.4,49.3,135.9,49.9,135.3,49.9z"/>
	</g>
	<g>
		<path class="st0" d="M135.3,55.3c-0.6,0-1.1-0.5-1.1-1.1v-5.7c0-0.6,0.5-1.1,1.1-1.1s1.1,0.5,1.1,1.1v5.7
			C136.4,54.8,135.9,55.3,135.3,55.3z"/>
	</g>
	<g>
		<g>
			<path class="st0" d="M106.7,70.8c-0.6,0-1.1-0.5-1.1-1.1c0-10.8,8.8-19.5,19.5-19.5c0.6,0,1.1,0.5,1.1,1.1s-0.5,1.1-1.1,1.1
				c-9.5,0-17.3,7.8-17.3,17.3C107.8,70.2,107.3,70.8,106.7,70.8z"/>
		</g>
		<g>
			<path class="st0" d="M138.1,57.7c-0.3,0-0.6-0.1-0.8-0.3c-6.7-6.7-17.7-6.7-24.4,0c-0.4,0.4-1.1,0.4-1.6,0
				c-0.4-0.4-0.4-1.1,0-1.6c7.6-7.6,20-7.6,27.6,0c0.4,0.4,0.4,1.1,0,1.6C138.7,57.5,138.4,57.7,138.1,57.7z"/>
		</g>
	</g>
	<g>
		<g>
			<path class="st0" d="M46,57.7c-0.3,0-0.6-0.1-0.8-0.3c-6.7-6.7-17.7-6.7-24.4,0c-0.4,0.4-1.1,0.4-1.6,0c-0.4-0.4-0.4-1.1,0-1.6
				c7.6-7.6,20-7.6,27.6,0c0.4,0.4,0.4,1.1,0,1.6C46.6,57.5,46.3,57.7,46,57.7z"/>
		</g>
		<g>
			<path class="st0" d="M51.4,70.8c-0.6,0-1.1-0.5-1.1-1.1c0-9.5-7.8-17.3-17.3-17.3c-0.6,0-1.1-0.5-1.1-1.1s0.5-1.1,1.1-1.1
				c10.7-0.1,19.5,8.7,19.5,19.5C52.6,70.2,52,70.8,51.4,70.8z"/>
		</g>
	</g>
	<g>
		<path class="st0" d="M17.1,57.9c0.4,0,3.2,0,3.2,0l2.1-1.9l-1.6,0.4c-0.1,0-3.3,0.1-3.3,0.1L17.1,57.9z"/>
	</g>
	<g>
		<path class="st0" d="M105.7,42.5H61c-0.6,0-1.1-0.5-1.1-1.1s0.5-1.1,1.1-1.1h44.6c0.6,0,1.1,0.5,1.1,1.1
			C106.8,42,106.3,42.5,105.7,42.5z"/>
	</g>
</g>
</svg>
