<?xml version="1.0" encoding="utf-8"?>
<!-- Generator: Adobe Illustrator 20.0.0, SVG Export Plug-In . SVG Version: 6.00 Build 0)  -->
<!DOCTYPE svg PUBLIC "-//W3C//DTD SVG 1.1//EN" "http://www.w3.org/Graphics/SVG/1.1/DTD/svg11.dtd">
<svg version="1.1" id="Ebene_1" xmlns="http://www.w3.org/2000/svg" xmlns:xlink="http://www.w3.org/1999/xlink" x="0px" y="0px"
	 viewBox="0 0 150 107.7" style="enable-background:new 0 0 150 107.7;" xml:space="preserve">
<style type="text/css">
	.st0{fill:#FABB00;}
	.st1{fill:#FFFFFF;}
</style>
<rect y="0" width="150" height="107.7"/>
<g>
	<g>
		<g>
			<path class="st0" d="M127.7,78.2c-5.4,0-9.8,4.4-9.8,9.8c0,5.4,4.4,9.8,9.8,9.8c5.4,0,9.8-4.4,9.8-9.8S133.1,78.2,127.7,78.2z
				 M127.7,91.8c-2.1,0-3.8-1.7-3.8-3.8s1.7-3.8,3.8-3.8c2.1,0,3.8,1.7,3.8,3.8S129.8,91.8,127.7,91.8z"/>
		</g>
	</g>
	<g>
		<g>
			<path class="st0" d="M52.3,78.2c-5.4,0-9.8,4.4-9.8,9.8c0,5.4,4.4,9.8,9.8,9.8s9.8-4.4,9.8-9.8S57.7,78.2,52.3,78.2z M52.3,91.8
				c-2.1,0-3.8-1.7-3.8-3.8s1.7-3.8,3.8-3.8c2.1,0,3.8,1.7,3.8,3.8S54.4,91.8,52.3,91.8z"/>
		</g>
	</g>
	<g>
		<g>
			<path class="st0" d="M25.2,78.2c-5.4,0-9.8,4.4-9.8,9.8c0,5.4,4.4,9.8,9.8,9.8S35,93.4,35,88C35,82.6,30.6,78.2,25.2,78.2z
				 M25.2,91.8c-2.1,0-3.8-1.7-3.8-3.8s1.7-3.8,3.8-3.8c2.1,0,3.8,1.7,3.8,3.8C29,90.1,27.3,91.8,25.2,91.8z"/>
		</g>
	</g>
	<path class="st1" d="M132.6,32.9H112c-0.5,0-1,0.4-1,1v20.6c0,0.5,0.4,1,1,1h20.6c0.5,0,1-0.4,1-1V33.9
		C133.6,33.3,133.1,32.9,132.6,32.9z M131.6,53.5H113V34.8h18.6C131.6,34.8,131.6,53.5,131.6,53.5z M92.9,23.3h18.8
		c0.5,0,0.9-0.3,1-0.7c0.2-0.4,0.1-0.9-0.3-1.2l-11.9-11.1c-0.2-0.2-0.5-0.3-0.8-0.3h-6.9c-0.6,0-1.1,0.5-1.1,1.1v11.1
		C91.8,22.8,92.3,23.3,92.9,23.3z M94,12.2h5.4l9.5,8.8H94C94,21,94,12.2,94,12.2z M89.2,65.1v-54c0-0.6-0.5-1.1-1.1-1.1H1.7
		c-0.6,0-1.1,0.5-1.1,1.1v54c0,0.6,0.5,1.1,1.1,1.1h86.4C88.7,66.2,89.2,65.7,89.2,65.1z M87,64H2.8V12.2H87C87,12.2,87,64,87,64z
		 M148.5,53.4h-8.2V27.3c0-0.6-0.5-1.1-1.1-1.1H92.9c-0.6,0-1.1,0.5-1.1,1.1V69h-84c-0.6,0-1.1,0.5-1.1,1.1v17.4
		c0,0.6,0.5,1.1,1.1,1.1h3.8c0.6,0,1.1-0.5,1.1-1.1c0.2-6.8,5.7-12.1,12.4-12.1c6.8,0,12.2,5.3,12.4,12.1c0,0.6,0.5,1.1,1.1,1.1
		s1.1-0.5,1.1-1.1c0.2-6.8,5.7-12.1,12.4-12.1c6.8,0,12.2,5.3,12.4,12.1c0,0.6,0.5,1.1,1.1,1.1h48.3c0.6,0,1.1-0.5,1.1-1.1
		c0.2-6.8,5.7-12.1,12.4-12.1c6.8,0,12.2,5.3,12.4,12.1c0,0.6,0.5,1.1,1.1,1.1h7.3c0.6,0,1.1-0.5,1.1-1.1v-33
		C149.6,53.9,149.1,53.4,148.5,53.4z M147.4,86.5h-5.1c-0.8-7.5-7-13.1-14.6-13.1c-7.6,0-13.8,5.6-14.6,13.1H66.9
		c-0.8-7.5-7-13.1-14.6-13.1c-6,0-11.3,3.6-13.6,9.1c-2.2-5.5-7.5-9.1-13.6-9.1c-7.6,0-13.8,5.6-14.6,13.1H8.9V71.3h84
		c0.6,0,1.1-0.5,1.1-1.1V28.4h44.1v26.1c0,0.6,0.5,1.1,1.1,1.1h8.2L147.4,86.5L147.4,86.5z"/>
</g>
</svg>
