<?xml version="1.0" encoding="utf-8"?>
<!-- Generator: Adobe Illustrator 20.0.0, SVG Export Plug-In . SVG Version: 6.00 Build 0)  -->
<!DOCTYPE svg PUBLIC "-//W3C//DTD SVG 1.1//EN" "http://www.w3.org/Graphics/SVG/1.1/DTD/svg11.dtd">
<svg version="1.1" id="Ebene_1" xmlns="http://www.w3.org/2000/svg" xmlns:xlink="http://www.w3.org/1999/xlink" x="0px" y="0px"
	 viewBox="0 0 150 100" style="enable-background:new 0 0 150 100;" xml:space="preserve">
<style type="text/css">
	.st0{fill:#FABB00;}
	.st1{fill:#FFFFFF;}
</style>
<rect width="150" height="100"/>
<g>
	<g>
		<circle class="st0" cx="37.4" cy="64.4" r="16.7"/>
		<path class="st0" d="M37.4,82.5c-10,0-18.1-8.1-18.1-18.1s8.2-18.1,18.1-18.1s18.1,8.2,18.1,18.1S47.4,82.5,37.4,82.5z M37.4,49
			C28.9,49,22,55.9,22,64.4s6.9,15.4,15.4,15.4s15.4-6.9,15.4-15.4S45.9,49,37.4,49z"/>
	</g>
	<g>
		<circle cx="37.4" cy="64.4" r="7"/>
		<path d="M37.4,72.8c-4.6,0-8.4-3.7-8.4-8.4s3.7-8.4,8.4-8.4s8.4,3.7,8.4,8.4S42,72.8,37.4,72.8z M37.4,58.8
			c-3.1,0-5.5,2.5-5.5,5.5s2.5,5.5,5.5,5.5s5.5-2.5,5.5-5.5S40.5,58.8,37.4,58.8z"/>
	</g>
	<g>
		<circle class="st0" cx="112.6" cy="64.4" r="16.7"/>
		<path class="st0" d="M112.6,82.5c-10,0-18.1-8.1-18.1-18.1s8.2-18.1,18.1-18.1s18.1,8.1,18.1,18.1S122.6,82.5,112.6,82.5z
			 M112.6,49c-8.5,0-15.4,6.9-15.4,15.4s6.9,15.4,15.4,15.4S128,72.9,128,64.4S121.1,49,112.6,49z"/>
	</g>
	<g>
		<circle cx="112.6" cy="64.4" r="7"/>
		<path d="M112.6,72.8c-4.6,0-8.4-3.7-8.4-8.4s3.7-8.4,8.4-8.4s8.4,3.7,8.4,8.4S117.2,72.8,112.6,72.8z M112.6,58.8
			c-3.1,0-5.5,2.5-5.5,5.5s2.5,5.5,5.5,5.5c3.1,0,5.5-2.5,5.5-5.5S115.7,58.8,112.6,58.8z"/>
	</g>
	<g>
		<path class="st1" d="M66.5,65.7c-0.7,0-1.4-0.6-1.4-1.4C65,49,52.7,36.7,37.5,36.7c-0.7,0-1.4-0.6-1.4-1.4c0-0.7,0.6-1.4,1.4-1.4
			c16.8,0,30.3,13.6,30.3,30.3C67.9,65,67.3,65.7,66.5,65.7z"/>
	</g>
	<g>
		<path class="st1" d="M92.4,51.9c-0.2,0-0.4-0.1-0.6-0.1c-0.7-0.4-1-1.2-0.6-1.9c2.7-5.4,7.3-9.4,13-11.3
			c5.7-1.9,11.8-1.5,17.1,1.2c0.7,0.4,1,1.2,0.6,1.9c-0.4,0.7-1.2,1-1.9,0.6c-4.7-2.3-10-2.7-15-1c-4.9,1.6-9,5.2-11.3,9.9
			C93.5,51.7,93,51.9,92.4,51.9z"/>
	</g>
	<g>
		<path class="st1" d="M66.5,65.7c-0.2,0-0.4-0.1-0.7-0.2c-0.7-0.4-0.9-1.3-0.5-1.9l21.2-36.4c0.4-0.7,1.3-0.9,1.9-0.5
			c0.7,0.4,0.9,1.3,0.5,1.9L67.7,64.9C67.4,65.4,67,65.7,66.5,65.7z"/>
	</g>
	<g>
		<path class="st1" d="M101,29.3H87.7c-0.7,0-1.4-0.6-1.4-1.4c0-0.7,0.6-1.4,1.4-1.4h13.4c0.7,0,1.4,0.6,1.4,1.4
			C102.4,28.6,101.8,29.3,101,29.3z"/>
	</g>
	<g>
		<path class="st1" d="M112.6,65.8c-0.6,0-1.1-0.4-1.3-1L97.5,19.3c-0.2-0.7,0.2-1.5,0.9-1.7c0.7-0.2,1.5,0.2,1.7,0.9L113.9,64
			c0.2,0.7-0.2,1.5-0.9,1.7C112.9,65.7,112.7,65.8,112.6,65.8z"/>
	</g>
	<g>
		<path class="st1" d="M98.8,20.3H84.5c-0.7,0-1.4-0.6-1.4-1.4c0-0.7,0.6-1.4,1.4-1.4h14.3c0.7,0,1.4,0.6,1.4,1.4
			C100.2,19.7,99.6,20.3,98.8,20.3z"/>
	</g>
	<g>
		<path class="st1" d="M92.4,51.9h-17c-0.7,0-1.4-0.6-1.4-1.4c0-0.7,0.6-1.4,1.4-1.4h17.1c0.7,0,1.4,0.6,1.4,1.4
			S93.2,51.9,92.4,51.9z"/>
	</g>
	<g>
		<path class="st1" d="M81.7,38.8H48.9c-0.7,0-1.4-0.6-1.4-1.4c0-0.7,0.6-1.4,1.4-1.4h32.9c0.7,0,1.4,0.6,1.4,1.4
			C83.1,38.2,82.5,38.8,81.7,38.8z"/>
	</g>
	<g>
		<path class="st1" d="M66.5,65.7H37.4c-0.7,0-1.4-0.6-1.4-1.4s0.6-1.4,1.4-1.4h29.1c0.7,0,1.4,0.6,1.4,1.4S67.3,65.7,66.5,65.7z"/>
	</g>
</g>
</svg>
