<?xml version="1.0" encoding="utf-8"?>
<!-- Generator: Adobe Illustrator 20.0.0, SVG Export Plug-In . SVG Version: 6.00 Build 0)  -->
<!DOCTYPE svg PUBLIC "-//W3C//DTD SVG 1.1//EN" "http://www.w3.org/Graphics/SVG/1.1/DTD/svg11.dtd">
<svg version="1.1" id="Ebene_1" xmlns="http://www.w3.org/2000/svg" xmlns:xlink="http://www.w3.org/1999/xlink" x="0px" y="0px"
	 viewBox="0 0 150 100" style="enable-background:new 0 0 150 100;" xml:space="preserve">
<style type="text/css">
	.st0{clip-path:url(#SVGID_2_);fill:#FFFFFF;}
	.st1{clip-path:url(#SVGID_4_);fill:#F5B500;}
	.st2{clip-path:url(#SVGID_6_);}
	.st3{clip-path:url(#SVGID_8_);fill:#F5B500;}
	.st4{clip-path:url(#SVGID_10_);}
	.st5{clip-path:url(#SVGID_12_);fill:#FFFFFF;}
	.st6{clip-path:url(#SVGID_14_);fill:#FFFFFF;}
	.st7{clip-path:url(#SVGID_16_);fill:#FFFFFF;}
	.st8{clip-path:url(#SVGID_18_);fill:#FFFFFF;}
	.st9{clip-path:url(#SVGID_20_);fill:#FFFFFF;}
</style>
<g>
	<g>
		<rect width="150" height="100"/>
	</g>
</g>
<g>
	<g>
		<g>
			<defs>
				<rect id="SVGID_1_" y="20.7" width="150" height="58.6"/>
			</defs>
			<clipPath id="SVGID_2_">
				<use xlink:href="#SVGID_1_"  style="overflow:visible;"/>
			</clipPath>
			<path class="st0" d="M31.5,70H13.6L1.8,62.5V31.2c0-4.8,3.9-8.5,8.5-8.5h126.8c4.8,0,8.5,3.9,8.5,8.5v7.3l-0.1,10.8
				c0,0.3,0.1,0.5,0.3,0.7l2.2,1.8V70h-25.8c-1-5.8-6-10.1-11.9-10.1S99.4,64.2,98.4,70H55.3c-1-5.8-6-10.1-11.9-10.1
				C37.5,60,32.5,64.2,31.5,70 M13.4,71.8h18.9c0.5,0,0.8-0.3,0.9-0.8c0.5-5.3,4.9-9.3,10.2-9.3s9.7,4,10.2,9.3
				c0,0.5,0.4,0.8,0.9,0.8h44.8c0.5,0,0.8-0.3,0.9-0.8c0.5-5.3,4.9-9.3,10.2-9.3s9.7,4,10.2,9.3c0,0.5,0.4,0.8,0.9,0.8h27.6
				c0.5,0,0.9-0.4,0.9-0.9V51.3c0-0.3-0.1-0.5-0.3-0.7l-2.2-1.8l0.1-10.3v-7.3c0-5.7-4.7-10.4-10.4-10.4H10.5
				c-5.7,0-10.4,4.7-10.4,10.4v31.9c0,0.3,0.2,0.6,0.4,0.8l12.4,7.7C13,71.8,13.2,71.8,13.4,71.8"/>
		</g>
	</g>
	<g>
		<g>
			<defs>
				<rect id="SVGID_3_" y="20.7" width="150" height="58.6"/>
			</defs>
			<clipPath id="SVGID_4_">
				<use xlink:href="#SVGID_3_"  style="overflow:visible;"/>
			</clipPath>
			<path class="st1" d="M103.2,72.1c0,4,3.3,7.2,7.2,7.2s7.2-3.3,7.2-7.2s-3.3-7.2-7.2-7.2C106.5,64.7,103.2,68,103.2,72.1"/>
		</g>
	</g>
	<g>
		<g>
			<defs>
				<rect id="SVGID_5_" y="20.7" width="150" height="58.6"/>
			</defs>
			<clipPath id="SVGID_6_">
				<use xlink:href="#SVGID_5_"  style="overflow:visible;"/>
			</clipPath>
			<path class="st2" d="M107.8,72.1c0,1.5,1.2,2.7,2.7,2.7s2.7-1.2,2.7-2.7s-1.2-2.7-2.7-2.7C109,69.3,107.8,70.5,107.8,72.1"/>
		</g>
	</g>
	<g>
		<g>
			<defs>
				<rect id="SVGID_7_" y="20.7" width="150" height="58.6"/>
			</defs>
			<clipPath id="SVGID_8_">
				<use xlink:href="#SVGID_7_"  style="overflow:visible;"/>
			</clipPath>
			<path class="st3" d="M36.2,72.1c0,4,3.3,7.2,7.2,7.2s7.2-3.3,7.2-7.2s-3.3-7.2-7.2-7.2C39.5,64.7,36.2,68,36.2,72.1"/>
		</g>
	</g>
	<g>
		<g>
			<defs>
				<rect id="SVGID_9_" y="20.7" width="150" height="58.6"/>
			</defs>
			<clipPath id="SVGID_10_">
				<use xlink:href="#SVGID_9_"  style="overflow:visible;"/>
			</clipPath>
			<path class="st4" d="M40.8,72.1c0,1.5,1.2,2.7,2.7,2.7s2.7-1.2,2.7-2.7s-1.2-2.7-2.7-2.7C42,69.3,40.8,70.5,40.8,72.1"/>
		</g>
	</g>
	<g>
		<g>
			<defs>
				<rect id="SVGID_11_" y="20.7" width="150" height="58.6"/>
			</defs>
			<clipPath id="SVGID_12_">
				<use xlink:href="#SVGID_11_"  style="overflow:visible;"/>
			</clipPath>
			<path class="st5" d="M114.5,28.8c1.9,0,3.5,1.5,3.5,3.5v7c0,1.9-1.5,3.5-3.5,3.5h-13.6c-1.9,0-3.5-1.5-3.5-3.5v-7
				c0-1.9,1.5-3.5,3.5-3.5C100.9,28.8,114.5,28.8,114.5,28.8z M100.9,44.5h13.6c2.8,0,5.3-2.3,5.3-5.3v-7c0-2.8-2.3-5.3-5.3-5.3
				h-13.6c-2.8,0-5.3,2.3-5.3,5.3v7C95.6,42.2,98,44.5,100.9,44.5"/>
		</g>
	</g>
	<g>
		<g>
			<defs>
				<rect id="SVGID_13_" y="20.7" width="150" height="58.6"/>
			</defs>
			<clipPath id="SVGID_14_">
				<use xlink:href="#SVGID_13_"  style="overflow:visible;"/>
			</clipPath>
			<path class="st6" d="M136.4,28.8c1.9,0,3.5,1.5,3.5,3.5v28.9c0,1.9-1.5,3.5-3.5,3.5h-4.9c-1.9,0-3.5-1.5-3.5-3.5v-29
				c0-1.9,1.5-3.5,3.5-3.5h4.9V28.8z M131.5,66.4h4.9c2.8,0,5.3-2.3,5.3-5.3V32.2c0-2.8-2.3-5.3-5.3-5.3h-4.9
				c-2.8,0-5.3,2.3-5.3,5.3v28.9C126.2,64,128.6,66.4,131.5,66.4"/>
		</g>
	</g>
	<g>
		<g>
			<defs>
				<rect id="SVGID_15_" y="20.7" width="150" height="58.6"/>
			</defs>
			<clipPath id="SVGID_16_">
				<use xlink:href="#SVGID_15_"  style="overflow:visible;"/>
			</clipPath>
			<path class="st7" d="M85.5,28.8c1.9,0,3.5,1.5,3.5,3.5v7c0,1.9-1.5,3.5-3.5,3.5H71.9c-1.9,0-3.5-1.5-3.5-3.5v-7
				c0-1.9,1.5-3.5,3.5-3.5C71.9,28.8,85.5,28.8,85.5,28.8z M71.9,44.5h13.6c2.8,0,5.3-2.3,5.3-5.3v-7c0-2.8-2.3-5.3-5.3-5.3H71.9
				c-2.8,0-5.3,2.3-5.3,5.3v7C66.6,42.2,69.1,44.5,71.9,44.5"/>
		</g>
	</g>
	<g>
		<g>
			<defs>
				<rect id="SVGID_17_" y="20.7" width="150" height="58.6"/>
			</defs>
			<clipPath id="SVGID_18_">
				<use xlink:href="#SVGID_17_"  style="overflow:visible;"/>
			</clipPath>
			<path class="st8" d="M56.5,28.8c1.9,0,3.5,1.5,3.5,3.5v7c0,1.9-1.5,3.5-3.5,3.5H42.9c-1.9,0-3.5-1.5-3.5-3.5v-7
				c0-1.9,1.5-3.5,3.5-3.5C42.9,28.8,56.5,28.8,56.5,28.8z M42.9,44.5h13.6c2.8,0,5.3-2.3,5.3-5.3v-7c0-2.8-2.3-5.3-5.3-5.3H42.9
				c-2.8,0-5.3,2.3-5.3,5.3v7C37.6,42.2,40,44.5,42.9,44.5"/>
		</g>
	</g>
	<g>
		<g>
			<defs>
				<rect id="SVGID_19_" y="20.7" width="150" height="58.6"/>
			</defs>
			<clipPath id="SVGID_20_">
				<use xlink:href="#SVGID_19_"  style="overflow:visible;"/>
			</clipPath>
			<path class="st9" d="M27.6,28.8c1.9,0,3.5,1.5,3.5,3.5v7c0,1.9-1.5,3.5-3.5,3.5H13.9c-1.9,0-3.5-1.5-3.5-3.5v-7
				c0-1.9,1.5-3.5,3.5-3.5C13.9,28.8,27.6,28.8,27.6,28.8z M13.9,44.5h13.6c2.8,0,5.3-2.3,5.3-5.3v-7c0-2.8-2.3-5.3-5.3-5.3H13.9
				c-2.8,0-5.3,2.3-5.3,5.3v7C8.6,42.2,11,44.5,13.9,44.5"/>
		</g>
	</g>
</g>
</svg>
