<?xml version="1.0" encoding="utf-8"?>
<!-- Generator: Adobe Illustrator 19.1.0, SVG Export Plug-In . SVG Version: 6.00 Build 0)  -->
<svg version="1.1" id="Ebene_1" xmlns="http://www.w3.org/2000/svg" xmlns:xlink="http://www.w3.org/1999/xlink" x="0px" y="0px"
	 viewBox="0 0 150 150" style="enable-background:new 0 0 150 150;" xml:space="preserve">
<style type="text/css">
	.st0{fill:#FABB00;}
	.st1{fill:#F1B200;}
	.st2{fill:none;stroke:#F3B400;stroke-width:0.9243;stroke-miterlimit:10;}
	.st3{fill:none;stroke:#F3B400;stroke-width:0.9243;stroke-miterlimit:10;stroke-dasharray:1.4113,1.4113;}
	.st4{fill:none;stroke:#F3B400;stroke-width:0.9243;stroke-miterlimit:10;stroke-dasharray:1.277,1.277;}
	.st5{fill:none;stroke:#F3B400;stroke-width:0.9243;stroke-miterlimit:10;stroke-dasharray:1.9227,1.9227;}
	.st6{fill:none;stroke:#F3B400;stroke-width:0.9243;stroke-miterlimit:10;stroke-dasharray:1.5862,1.5862;}
	.st7{fill:none;stroke:#F3B400;stroke-width:0.9243;stroke-miterlimit:10;stroke-dasharray:1.4973,1.4973;}
	.st8{fill:none;stroke:#F3B400;stroke-width:0.9243;stroke-miterlimit:10;stroke-dasharray:1.5984,1.5984;}
	.st9{fill:none;stroke:#F3B400;stroke-width:0.9243;stroke-miterlimit:10;stroke-dasharray:1.4757,1.4757;}
	.st10{fill:none;stroke:#F3B400;stroke-width:0.9243;stroke-miterlimit:10;stroke-dasharray:1.4668,1.4668;}
	.st11{fill:none;stroke:#F3B400;stroke-width:0.9243;stroke-miterlimit:10;stroke-dasharray:1.5463,1.5463;}
	.st12{fill:none;stroke:#F3B400;stroke-width:0.9243;stroke-miterlimit:10;stroke-dasharray:1.4901,1.4901;}
	.st13{fill:none;stroke:#F3B400;stroke-width:0.9243;stroke-miterlimit:10;stroke-dasharray:1.5407,1.5407;}
	.st14{fill:none;stroke:#F3B400;stroke-width:0.9243;stroke-miterlimit:10;stroke-dasharray:1.525,1.525;}
	.st15{fill:none;stroke:#F3B400;stroke-width:0.9243;stroke-miterlimit:10;stroke-dasharray:1.4952,1.4952;}
	.st16{fill:none;stroke:#F3B400;stroke-width:0.9243;stroke-miterlimit:10;stroke-dasharray:1.5693,1.5693;}
	.st17{fill:none;stroke:#F3B400;stroke-width:0.9243;stroke-miterlimit:10;stroke-dasharray:1.5169,1.5169;}
	.st18{fill:none;stroke:#F3B400;stroke-width:0.9243;stroke-miterlimit:10;stroke-dasharray:1.7111,1.7111;}
	.st19{fill:none;stroke:#FFFFFF;stroke-width:0.6162;stroke-linecap:round;stroke-linejoin:round;stroke-miterlimit:10;}
	.st20{fill:#FFFFFF;}
	.st21{clip-path:url(#SVGID_2_);}
	.st22{stroke:#FFFFFF;stroke-miterlimit:10;}
	.st23{fill:none;stroke:#F1B200;stroke-width:0.6888;stroke-miterlimit:10;stroke-dasharray:3.1207;}
	.st24{stroke:#000000;stroke-width:0.8298;stroke-miterlimit:10;}
	.st25{opacity:0.9;fill:#FFFFFF;}
	.st26{clip-path:url(#SVGID_4_);}
	.st27{stroke:#FFFFFF;stroke-width:1.0877;stroke-miterlimit:10;}
	.st28{stroke:#000000;stroke-width:1.9035;stroke-miterlimit:10;}
	.st29{clip-path:url(#SVGID_6_);}
	.st30{stroke:#000000;stroke-width:1.3597;stroke-miterlimit:10;}
	.st31{fill:#FFFFFF;stroke:#000000;stroke-width:0.8637;stroke-miterlimit:10;}
	.st32{fill:#FFFFFF;stroke:#000000;stroke-width:1.2955;stroke-miterlimit:10;}
	.st33{clip-path:url(#SVGID_8_);fill:#F5B500;}
	.st34{clip-path:url(#SVGID_8_);fill:#FFFFFF;}
	.st35{fill:#0000FF;}
	.st36{fill:#F5B500;}
	.st37{clip-path:url(#SVGID_10_);fill:#F5B500;}
	.st38{clip-path:url(#SVGID_10_);fill:#FFFFFF;}
	.st39{clip-path:url(#SVGID_12_);fill:#FFFFFF;}
	.st40{clip-path:url(#SVGID_12_);fill:#F5B500;}
	.st41{clip-path:url(#SVGID_12_);}
	.st42{clip-path:url(#SVGID_14_);fill:#FFFFFF;}
	.st43{clip-path:url(#SVGID_14_);}
	.st44{clip-path:url(#SVGID_14_);fill:#F5B500;}
	.st45{clip-path:url(#SVGID_16_);fill:#FFFFFF;}
	.st46{clip-path:url(#SVGID_16_);fill:#F5B500;}
	.st47{clip-path:url(#SVGID_16_);}
	.st48{clip-path:url(#SVGID_18_);fill:#FFFFFF;}
	.st49{clip-path:url(#SVGID_18_);}
	.st50{clip-path:url(#SVGID_18_);fill:#F5B500;}
	.st51{clip-path:url(#SVGID_20_);fill:#F5B500;}
	.st52{clip-path:url(#SVGID_20_);}
	.st53{clip-path:url(#SVGID_20_);fill:#FFFFFF;}
	.st54{clip-path:url(#SVGID_22_);fill:#FFFFFF;}
	.st55{clip-path:url(#SVGID_22_);fill:#F5B500;}
	.st56{clip-path:url(#SVGID_24_);fill:#F5B500;}
	.st57{clip-path:url(#SVGID_24_);fill:#FFFFFF;}
	.st58{clip-path:url(#SVGID_26_);fill:#F5B500;}
	.st59{clip-path:url(#SVGID_26_);fill:#FFFFFF;}
	.st60{clip-path:url(#SVGID_28_);fill:#FFFFFF;}
	.st61{clip-path:url(#SVGID_28_);fill:#F5B500;}
	.st62{clip-path:url(#SVGID_28_);}
	.st63{clip-path:url(#SVGID_30_);fill:#F5B500;}
	.st64{clip-path:url(#SVGID_30_);}
	.st65{clip-path:url(#SVGID_30_);fill:#FFFFFF;}
	.st66{clip-path:url(#SVGID_32_);fill:#F5B500;}
	.st67{clip-path:url(#SVGID_32_);fill:#FFFFFF;}
</style>
<g>
	<g>
		<rect x="-0.2" y="-0.3" width="150.3" height="150.7"/>
	</g>
</g>
<g>
	<g>
		<defs>
			<rect id="SVGID_7_" x="28" y="1.6" width="93.9" height="147.2"/>
		</defs>
		<clipPath id="SVGID_2_">
			<use xlink:href="#SVGID_7_"  style="overflow:visible;"/>
		</clipPath>
		<path style="clip-path:url(#SVGID_2_);fill:#F5B500;" d="M78.4,125.5c-2,0-3.3-1.6-3.3-3.6V79.2H60.4c-1.2,0-2.3-0.6-3-1.6
			s-0.8-2.3-0.2-3.4l32-70.5c0.8-1.8,2.9-2.6,4.7-1.8c1.8,0.8,2.6,2.7,1.8,4.5L65.9,71.6h12.2c2,0,3.5,2.1,3.5,4v46.3
			C81.6,123.9,80.3,125.5,78.4,125.5"/>
		<path style="clip-path:url(#SVGID_2_);fill:#FFFFFF;" d="M117.8,128.7c-3.5,0-6.3-2.8-6.3-6.3c0-2.3-1.9-4.2-4.2-4.2
			c-2.3,0-4.2,1.9-4.2,4.2c0,2.4,0.6,4.6,1.6,6.6c-0.2,0.1-0.3,0.2-0.5,0.4c-7.1,7.1-16.5,11-26.5,11c-10,0-19.4-3.9-26.5-11
			c-0.2-0.2-0.3-0.3-0.5-0.4c1-2,1.6-4.3,1.6-6.6c0-2.3-1.9-4.2-4.2-4.2c-2.3,0-4.2,1.9-4.2,4.2c0,3.5-2.8,6.3-6.3,6.3
			c-2.3,0-4.2,1.9-4.2,4.2c0,2.3,1.9,4.2,4.2,4.2c2.7,0,5.2-0.7,7.4-2c0.1,0.1,0.2,0.2,0.3,0.3c8.7,8.7,20.2,13.4,32.4,13.4
			c12.2,0,23.7-4.8,32.4-13.4c0.1-0.1,0.2-0.2,0.3-0.3c2.2,1.3,4.7,2,7.4,2c2.3,0,4.2-1.9,4.2-4.2
			C122,130.6,120.1,128.7,117.8,128.7"/>
		<path style="clip-path:url(#SVGID_2_);fill:#FFFFFF;" d="M116.3,58.3H92.7c-1.8,0-3.4-1.2-4-2.9c-0.5-1.7,0.1-3.6,1.7-4.7l12-8.1
			c1.9-1.3,4.5-0.8,5.8,1.1c1.3,1.9,0.8,4.5-1.1,5.8l-0.7,0.5h10c2.3,0,4.2,1.9,4.2,4.2C120.5,56.4,118.6,58.3,116.3,58.3"/>
		<path style="clip-path:url(#SVGID_2_);fill:#FFFFFF;" d="M42,43.7c-3.1,0-5.7,2.5-5.7,5.7c0,3.1,2.5,5.7,5.7,5.7
			c3.1,0,5.7-2.5,5.7-5.7C47.7,46.3,45.1,43.7,42,43.7 M42,63.4c-7.7,0-14-6.3-14-14c0-7.7,6.3-14,14-14s14,6.3,14,14
			C56,57.1,49.7,63.4,42,63.4"/>
	</g>
</g>
</svg>
