<?xml version="1.0" encoding="utf-8"?>
<!-- Generator: Adobe Illustrator 19.1.0, SVG Export Plug-In . SVG Version: 6.00 Build 0)  -->
<svg version="1.1" id="Ebene_1" xmlns="http://www.w3.org/2000/svg" xmlns:xlink="http://www.w3.org/1999/xlink" x="0px" y="0px"
	 viewBox="0 0 150 150" style="enable-background:new 0 0 150 150;" xml:space="preserve">
<style type="text/css">
	.st0{fill:#FABB00;}
	.st1{fill:#F1B200;}
	.st2{fill:none;stroke:#F3B400;stroke-width:0.9243;stroke-miterlimit:10;}
	.st3{fill:none;stroke:#F3B400;stroke-width:0.9243;stroke-miterlimit:10;stroke-dasharray:1.4113,1.4113;}
	.st4{fill:none;stroke:#F3B400;stroke-width:0.9243;stroke-miterlimit:10;stroke-dasharray:1.277,1.277;}
	.st5{fill:none;stroke:#F3B400;stroke-width:0.9243;stroke-miterlimit:10;stroke-dasharray:1.9227,1.9227;}
	.st6{fill:none;stroke:#F3B400;stroke-width:0.9243;stroke-miterlimit:10;stroke-dasharray:1.5862,1.5862;}
	.st7{fill:none;stroke:#F3B400;stroke-width:0.9243;stroke-miterlimit:10;stroke-dasharray:1.4973,1.4973;}
	.st8{fill:none;stroke:#F3B400;stroke-width:0.9243;stroke-miterlimit:10;stroke-dasharray:1.5984,1.5984;}
	.st9{fill:none;stroke:#F3B400;stroke-width:0.9243;stroke-miterlimit:10;stroke-dasharray:1.4757,1.4757;}
	.st10{fill:none;stroke:#F3B400;stroke-width:0.9243;stroke-miterlimit:10;stroke-dasharray:1.4668,1.4668;}
	.st11{fill:none;stroke:#F3B400;stroke-width:0.9243;stroke-miterlimit:10;stroke-dasharray:1.5463,1.5463;}
	.st12{fill:none;stroke:#F3B400;stroke-width:0.9243;stroke-miterlimit:10;stroke-dasharray:1.4901,1.4901;}
	.st13{fill:none;stroke:#F3B400;stroke-width:0.9243;stroke-miterlimit:10;stroke-dasharray:1.5407,1.5407;}
	.st14{fill:none;stroke:#F3B400;stroke-width:0.9243;stroke-miterlimit:10;stroke-dasharray:1.525,1.525;}
	.st15{fill:none;stroke:#F3B400;stroke-width:0.9243;stroke-miterlimit:10;stroke-dasharray:1.4952,1.4952;}
	.st16{fill:none;stroke:#F3B400;stroke-width:0.9243;stroke-miterlimit:10;stroke-dasharray:1.5693,1.5693;}
	.st17{fill:none;stroke:#F3B400;stroke-width:0.9243;stroke-miterlimit:10;stroke-dasharray:1.5169,1.5169;}
	.st18{fill:none;stroke:#F3B400;stroke-width:0.9243;stroke-miterlimit:10;stroke-dasharray:1.7111,1.7111;}
	.st19{fill:none;stroke:#FFFFFF;stroke-width:0.6162;stroke-linecap:round;stroke-linejoin:round;stroke-miterlimit:10;}
	.st20{fill:#FFFFFF;}
	.st21{clip-path:url(#SVGID_2_);}
	.st22{stroke:#FFFFFF;stroke-miterlimit:10;}
	.st23{fill:none;stroke:#F1B200;stroke-width:0.6888;stroke-miterlimit:10;stroke-dasharray:3.1207;}
	.st24{stroke:#000000;stroke-width:0.8298;stroke-miterlimit:10;}
	.st25{opacity:0.9;fill:#FFFFFF;}
	.st26{clip-path:url(#SVGID_4_);}
	.st27{stroke:#FFFFFF;stroke-width:1.0877;stroke-miterlimit:10;}
	.st28{stroke:#000000;stroke-width:1.9035;stroke-miterlimit:10;}
	.st29{clip-path:url(#SVGID_6_);}
	.st30{stroke:#000000;stroke-width:1.3597;stroke-miterlimit:10;}
	.st31{fill:#FFFFFF;stroke:#000000;stroke-width:0.8637;stroke-miterlimit:10;}
	.st32{fill:#FFFFFF;stroke:#000000;stroke-width:1.2955;stroke-miterlimit:10;}
	.st33{clip-path:url(#SVGID_8_);fill:#F5B500;}
	.st34{clip-path:url(#SVGID_8_);fill:#FFFFFF;}
	.st35{fill:#0000FF;}
	.st36{fill:#F5B500;}
	.st37{clip-path:url(#SVGID_10_);fill:#F5B500;}
	.st38{clip-path:url(#SVGID_10_);fill:#FFFFFF;}
	.st39{clip-path:url(#SVGID_12_);fill:#FFFFFF;}
	.st40{clip-path:url(#SVGID_12_);fill:#F5B500;}
	.st41{clip-path:url(#SVGID_12_);}
	.st42{clip-path:url(#SVGID_14_);fill:#FFFFFF;}
	.st43{clip-path:url(#SVGID_14_);}
	.st44{clip-path:url(#SVGID_14_);fill:#F5B500;}
	.st45{clip-path:url(#SVGID_16_);fill:#FFFFFF;}
	.st46{clip-path:url(#SVGID_16_);fill:#F5B500;}
	.st47{clip-path:url(#SVGID_16_);}
	.st48{clip-path:url(#SVGID_18_);fill:#FFFFFF;}
	.st49{clip-path:url(#SVGID_18_);}
	.st50{clip-path:url(#SVGID_18_);fill:#F5B500;}
	.st51{clip-path:url(#SVGID_20_);fill:#F5B500;}
	.st52{clip-path:url(#SVGID_20_);}
	.st53{clip-path:url(#SVGID_20_);fill:#FFFFFF;}
	.st54{clip-path:url(#SVGID_22_);fill:#FFFFFF;}
	.st55{clip-path:url(#SVGID_22_);fill:#F5B500;}
	.st56{clip-path:url(#SVGID_24_);fill:#F5B500;}
	.st57{clip-path:url(#SVGID_24_);fill:#FFFFFF;}
	.st58{clip-path:url(#SVGID_26_);fill:#F5B500;}
	.st59{clip-path:url(#SVGID_26_);fill:#FFFFFF;}
	.st60{clip-path:url(#SVGID_28_);fill:#FFFFFF;}
	.st61{clip-path:url(#SVGID_28_);fill:#F5B500;}
	.st62{clip-path:url(#SVGID_28_);}
	.st63{clip-path:url(#SVGID_30_);fill:#F5B500;}
	.st64{clip-path:url(#SVGID_30_);}
	.st65{clip-path:url(#SVGID_30_);fill:#FFFFFF;}
	.st66{clip-path:url(#SVGID_32_);fill:#F5B500;}
	.st67{clip-path:url(#SVGID_32_);fill:#FFFFFF;}
</style>
<g>
	<g>
		<rect x="0" y="-0.7" width="150.3" height="150.7"/>
	</g>
</g>
<g>
	<defs>
		<rect id="SVGID_23_" x="4.5" y="9.1" width="142" height="131.9"/>
	</defs>
	<clipPath id="SVGID_2_">
		<use xlink:href="#SVGID_23_"  style="overflow:visible;"/>
	</clipPath>
	<path style="clip-path:url(#SVGID_2_);fill:#F5B500;" d="M80.6,14.9c-33.2,0-60.2,27-60.2,60.2s27,60.2,60.2,60.2
		s60.2-27,60.2-60.2S113.8,14.9,80.6,14.9 M80.6,141c-36.4,0-65.9-29.6-65.9-65.9S44.2,9.1,80.6,9.1s65.9,29.6,65.9,65.9
		S116.9,141,80.6,141"/>
	<path style="clip-path:url(#SVGID_2_);fill:#FFFFFF;" d="M81.3,37.8C60.7,37.8,44,54.5,44,75.1s16.7,37.3,37.3,37.3
		s37.3-16.7,37.3-37.3S101.8,37.8,81.3,37.8 M81.3,118.1c-23.7,0-43-19.3-43-43s19.3-43,43-43s43,19.3,43,43S105,118.1,81.3,118.1"
		/>
</g>
<rect x="109.5" y="62.4" width="19.2" height="13.5"/>
<rect x="12.9" y="62.4" width="15.5" height="14.6"/>
<g>
	<defs>
		<rect id="SVGID_25_" x="4.5" y="9.1" width="142" height="131.9"/>
	</defs>
	<clipPath id="SVGID_4_">
		<use xlink:href="#SVGID_25_"  style="overflow:visible;"/>
	</clipPath>
	<path style="clip-path:url(#SVGID_4_);fill:#F5B500;" d="M26.3,86l-10-8.9c-0.7-0.6-0.8-1.7-0.1-2.4c0.6-0.7,1.7-0.8,2.4-0.1
		l10,8.9c0.7,0.6,0.8,1.7,0.1,2.4C28.1,86.6,27,86.6,26.3,86"/>
	<path style="clip-path:url(#SVGID_4_);fill:#F5B500;" d="M27.8,84.3L27.8,84.3C27.8,84.3,27.8,84.3,27.8,84.3 M27.4,88.7
		c-1,0-1.9-0.4-2.7-1l-10-8.9c-1.7-1.5-1.8-4-0.3-5.7c0.7-0.8,1.7-1.3,2.8-1.3c1.1-0.1,2.1,0.3,2.9,1l10,8.9c1.7,1.5,1.8,4,0.3,5.7
		c-0.7,0.8-1.7,1.3-2.8,1.3C27.6,88.7,27.5,88.7,27.4,88.7"/>
	<path style="clip-path:url(#SVGID_4_);fill:#F5B500;" d="M18.7,77L9.8,87c-0.6,0.7-1.7,0.8-2.4,0.1c-0.7-0.6-0.8-1.7-0.1-2.4
		l8.9-10c0.6-0.7,1.7-0.8,2.4-0.1C19.2,75.2,19.3,76.3,18.7,77"/>
	<path style="clip-path:url(#SVGID_4_);fill:#F5B500;" d="M17,75.5L17,75.5L17,75.5z M8.5,89.9c-1,0-1.9-0.4-2.7-1
		c-0.8-0.7-1.3-1.7-1.3-2.8c-0.1-1.1,0.3-2.1,1-2.9l8.9-10c1.5-1.7,4-1.8,5.7-0.3c0.8,0.7,1.3,1.7,1.3,2.8c0.1,1.1-0.3,2.1-1,2.9
		l-8.9,10c-0.7,0.8-1.7,1.3-2.8,1.3C8.7,89.9,8.6,89.9,8.5,89.9"/>
	<path style="clip-path:url(#SVGID_4_);fill:#FFFFFF;" d="M128.2,87.2l-8.6-10.2c-0.6-0.7-0.5-1.8,0.2-2.4c0.7-0.6,1.8-0.5,2.4,0.2
		l8.6,10.2c0.6,0.7,0.5,1.8-0.2,2.4C129.9,88,128.8,87.9,128.2,87.2"/>
	<path style="clip-path:url(#SVGID_4_);fill:#FFFFFF;" d="M129.5,90.1c-0.1,0-0.2,0-0.4,0c-1.1-0.1-2-0.6-2.7-1.4l0,0l-8.6-10.2
		c-0.7-0.8-1-1.9-0.9-2.9c0.1-1.1,0.6-2,1.4-2.7c0.8-0.7,1.9-1,2.9-0.9c1.1,0.1,2,0.6,2.7,1.4l8.6,10.2c0.7,0.8,1,1.9,0.9,2.9
		c-0.1,1.1-0.6,2-1.4,2.7C131.4,89.8,130.5,90.1,129.5,90.1"/>
	<path style="clip-path:url(#SVGID_4_);fill:#FFFFFF;" d="M122,77.2l-10.2,8.6c-0.7,0.6-1.8,0.5-2.4-0.2s-0.5-1.8,0.2-2.4l10.2-8.6
		c0.7-0.6,1.8-0.5,2.4,0.2C122.9,75.5,122.8,76.5,122,77.2"/>
	<path style="clip-path:url(#SVGID_4_);fill:#FFFFFF;" d="M110.7,88.5c-0.1,0-0.2,0-0.4,0c-1.1-0.1-2-0.6-2.7-1.4
		c-0.7-0.8-1-1.9-0.9-2.9c0.1-1.1,0.6-2,1.4-2.7l10.2-8.6c0.8-0.7,1.9-1,2.9-0.9c1.1,0.1,2,0.6,2.7,1.4c1.4,1.7,1.2,4.2-0.5,5.7l0,0
		l-10.2,8.6C112.5,88.1,111.6,88.5,110.7,88.5"/>
</g>
</svg>
