<?xml version="1.0" encoding="utf-8"?>
<!-- Generator: Adobe Illustrator 19.1.0, SVG Export Plug-In . SVG Version: 6.00 Build 0)  -->
<svg version="1.1" id="Ebene_1" xmlns="http://www.w3.org/2000/svg" xmlns:xlink="http://www.w3.org/1999/xlink" x="0px" y="0px"
	 viewBox="0 0 150 150" style="enable-background:new 0 0 150 150;" xml:space="preserve">
<style type="text/css">
	.st0{fill:#FABB00;}
	.st1{fill:#F1B200;}
	.st2{fill:none;stroke:#F3B400;stroke-width:0.9243;stroke-miterlimit:10;}
	.st3{fill:none;stroke:#F3B400;stroke-width:0.9243;stroke-miterlimit:10;stroke-dasharray:1.4113,1.4113;}
	.st4{fill:none;stroke:#F3B400;stroke-width:0.9243;stroke-miterlimit:10;stroke-dasharray:1.277,1.277;}
	.st5{fill:none;stroke:#F3B400;stroke-width:0.9243;stroke-miterlimit:10;stroke-dasharray:1.9227,1.9227;}
	.st6{fill:none;stroke:#F3B400;stroke-width:0.9243;stroke-miterlimit:10;stroke-dasharray:1.5862,1.5862;}
	.st7{fill:none;stroke:#F3B400;stroke-width:0.9243;stroke-miterlimit:10;stroke-dasharray:1.4973,1.4973;}
	.st8{fill:none;stroke:#F3B400;stroke-width:0.9243;stroke-miterlimit:10;stroke-dasharray:1.5984,1.5984;}
	.st9{fill:none;stroke:#F3B400;stroke-width:0.9243;stroke-miterlimit:10;stroke-dasharray:1.4757,1.4757;}
	.st10{fill:none;stroke:#F3B400;stroke-width:0.9243;stroke-miterlimit:10;stroke-dasharray:1.4668,1.4668;}
	.st11{fill:none;stroke:#F3B400;stroke-width:0.9243;stroke-miterlimit:10;stroke-dasharray:1.5463,1.5463;}
	.st12{fill:none;stroke:#F3B400;stroke-width:0.9243;stroke-miterlimit:10;stroke-dasharray:1.4901,1.4901;}
	.st13{fill:none;stroke:#F3B400;stroke-width:0.9243;stroke-miterlimit:10;stroke-dasharray:1.5407,1.5407;}
	.st14{fill:none;stroke:#F3B400;stroke-width:0.9243;stroke-miterlimit:10;stroke-dasharray:1.525,1.525;}
	.st15{fill:none;stroke:#F3B400;stroke-width:0.9243;stroke-miterlimit:10;stroke-dasharray:1.4952,1.4952;}
	.st16{fill:none;stroke:#F3B400;stroke-width:0.9243;stroke-miterlimit:10;stroke-dasharray:1.5693,1.5693;}
	.st17{fill:none;stroke:#F3B400;stroke-width:0.9243;stroke-miterlimit:10;stroke-dasharray:1.5169,1.5169;}
	.st18{fill:none;stroke:#F3B400;stroke-width:0.9243;stroke-miterlimit:10;stroke-dasharray:1.7111,1.7111;}
	.st19{fill:none;stroke:#FFFFFF;stroke-width:0.6162;stroke-linecap:round;stroke-linejoin:round;stroke-miterlimit:10;}
	.st20{fill:#FFFFFF;}
	.st21{clip-path:url(#SVGID_2_);}
	.st22{stroke:#FFFFFF;stroke-miterlimit:10;}
	.st23{fill:none;stroke:#F1B200;stroke-width:0.6888;stroke-miterlimit:10;stroke-dasharray:3.1207;}
	.st24{stroke:#000000;stroke-width:0.8298;stroke-miterlimit:10;}
	.st25{opacity:0.9;fill:#FFFFFF;}
	.st26{clip-path:url(#SVGID_4_);}
	.st27{stroke:#FFFFFF;stroke-width:1.0877;stroke-miterlimit:10;}
	.st28{stroke:#000000;stroke-width:1.9035;stroke-miterlimit:10;}
	.st29{clip-path:url(#SVGID_6_);}
	.st30{stroke:#000000;stroke-width:1.3597;stroke-miterlimit:10;}
	.st31{fill:#FFFFFF;stroke:#000000;stroke-width:0.8637;stroke-miterlimit:10;}
	.st32{fill:#FFFFFF;stroke:#000000;stroke-width:1.2955;stroke-miterlimit:10;}
	.st33{clip-path:url(#SVGID_8_);fill:#F5B500;}
	.st34{clip-path:url(#SVGID_8_);fill:#FFFFFF;}
	.st35{fill:#0000FF;}
	.st36{fill:#F5B500;}
	.st37{clip-path:url(#SVGID_10_);fill:#FFFFFF;}
	.st38{clip-path:url(#SVGID_10_);fill:#F5B500;}
	.st39{clip-path:url(#SVGID_10_);}
	.st40{clip-path:url(#SVGID_12_);fill:#FFFFFF;}
	.st41{clip-path:url(#SVGID_12_);}
	.st42{clip-path:url(#SVGID_12_);fill:#F5B500;}
	.st43{clip-path:url(#SVGID_14_);fill:#FFFFFF;}
	.st44{clip-path:url(#SVGID_14_);fill:#F5B500;}
	.st45{clip-path:url(#SVGID_14_);}
	.st46{clip-path:url(#SVGID_16_);fill:#FFFFFF;}
	.st47{clip-path:url(#SVGID_16_);}
	.st48{clip-path:url(#SVGID_16_);fill:#F5B500;}
	.st49{clip-path:url(#SVGID_18_);fill:#F5B500;}
	.st50{clip-path:url(#SVGID_18_);}
	.st51{clip-path:url(#SVGID_18_);fill:#FFFFFF;}
	.st52{clip-path:url(#SVGID_20_);fill:#FFFFFF;}
	.st53{clip-path:url(#SVGID_20_);fill:#F5B500;}
	.st54{clip-path:url(#SVGID_22_);fill:#F5B500;}
	.st55{clip-path:url(#SVGID_22_);fill:#FFFFFF;}
	.st56{clip-path:url(#SVGID_24_);fill:#F5B500;}
	.st57{clip-path:url(#SVGID_24_);fill:#FFFFFF;}
	.st58{clip-path:url(#SVGID_26_);fill:#FFFFFF;}
	.st59{clip-path:url(#SVGID_26_);fill:#F5B500;}
	.st60{clip-path:url(#SVGID_26_);}
	.st61{clip-path:url(#SVGID_28_);fill:#F5B500;}
	.st62{clip-path:url(#SVGID_28_);}
	.st63{clip-path:url(#SVGID_28_);fill:#FFFFFF;}
	.st64{clip-path:url(#SVGID_30_);fill:#F5B500;}
	.st65{clip-path:url(#SVGID_30_);fill:#FFFFFF;}
	.st66{clip-path:url(#SVGID_32_);fill:#F5B500;}
	.st67{clip-path:url(#SVGID_32_);}
	.st68{clip-path:url(#SVGID_32_);fill:#FFFFFF;}
</style>
<g>
	<g>
		<rect x="0.3" y="0" width="150.3" height="150.7"/>
	</g>
</g>
<g>
	<defs>
		<rect id="SVGID_31_" x="1.7" y="2.2" width="146.5" height="146.5"/>
	</defs>
	<clipPath id="SVGID_2_">
		<use xlink:href="#SVGID_31_"  style="overflow:visible;"/>
	</clipPath>
	<path style="clip-path:url(#SVGID_2_);fill:#F5B500;" d="M102.9,138.1c-0.5,0-0.9-0.3-1.2-0.7l-11.9-22.5c-0.3-0.6-0.1-1.4,0.5-1.8
		c0.6-0.3,1.4-0.1,1.8,0.5l11.9,22.5c0.3,0.6,0.1,1.4-0.5,1.8C103.3,138,103.1,138.1,102.9,138.1"/>
	<path class="st21" d="M74.9,148.7c-40.4,0-73.2-32.9-73.2-73.2S34.5,2.2,74.9,2.2s73.2,32.9,73.2,73.2S115.3,148.7,74.9,148.7"/>
	<path class="st21" d="M127.9,48.8c0,12-9.8,21.8-21.8,21.8s-21.8-9.8-21.8-21.8S94.1,27,106.1,27S127.9,36.7,127.9,48.8"/>
	<path class="st21" d="M64.1,50c0,11.5-9.3,20.8-20.8,20.8S22.4,61.5,22.4,50s9.3-20.8,20.8-20.8S64.1,38.5,64.1,50"/>
	<path style="clip-path:url(#SVGID_2_);fill:#FFFFFF;" d="M106.2,67.7c-10.1,0-18.4-8.2-18.4-18.4c0-10.1,8.2-18.4,18.4-18.4
		c10.1,0,18.4,8.2,18.4,18.4C124.6,59.4,116.3,67.7,106.2,67.7 M43.6,67.7c-10.1,0-18.4-8.2-18.4-18.4c0-10.1,8.2-18.4,18.4-18.4
		c10.1,0,18.4,8.2,18.4,18.4C62,59.4,53.8,67.7,43.6,67.7 M106.2,25.6c-9,0-16.9,5.1-20.9,12.5c-2.4-3-6.2-4.9-10.3-4.9
		c-4.2,0-7.9,1.9-10.3,5c-4-7.5-11.9-12.5-20.9-12.5c-13.1,0-23.7,10.7-23.7,23.7s10.7,23.7,23.7,23.7c13.1,0,23.7-10.7,23.7-23.7
		c0-1.3-0.1-2.6-0.3-3.8c0.5-3.9,3.8-7,7.8-7c4,0,7.4,3.1,7.8,7c-0.2,1.2-0.3,2.5-0.3,3.8c0,13.1,10.7,23.7,23.7,23.7
		s23.7-10.7,23.7-23.7S119.3,25.6,106.2,25.6"/>
	<path style="clip-path:url(#SVGID_2_);fill:#FFFFFF;" d="M111.6,102.9c-3.2,0-5.8-2.6-5.8-5.8c0-2.1-1.7-3.8-3.8-3.8
		c-2.1,0-3.8,1.7-3.8,3.8c0,2.2,0.5,4.3,1.5,6.1c-0.2,0.1-0.3,0.2-0.4,0.4c-6.5,6.5-15.2,10.1-24.3,10.1c-9.2,0-17.8-3.6-24.3-10.1
		c-0.1-0.1-0.3-0.3-0.4-0.4c0.9-1.8,1.5-3.9,1.5-6.1c0-2.1-1.7-3.8-3.8-3.8c-2.1,0-3.8,1.7-3.8,3.8c0,3.2-2.6,5.8-5.8,5.8
		c-2.1,0-3.8,1.7-3.8,3.8c0,2.1,1.7,3.8,3.8,3.8c2.5,0,4.8-0.7,6.8-1.9c0.1,0.1,0.1,0.2,0.2,0.3c7.9,7.9,18.5,12.3,29.7,12.3
		c11.2,0,21.8-4.4,29.7-12.3c0.1-0.1,0.2-0.2,0.2-0.3c2,1.2,4.3,1.9,6.8,1.9c2.1,0,3.8-1.7,3.8-3.8
		C115.5,104.6,113.7,102.9,111.6,102.9"/>
	<path style="clip-path:url(#SVGID_2_);fill:#F5B500;" d="M112.3,53.9H97.7c-1.1,0-2.1-0.7-2.5-1.8c-0.3-1.1,0.1-2.3,1-2.9l7.5-5
		c1.2-0.8,2.8-0.5,3.6,0.7c0.8,1.2,0.5,2.8-0.7,3.6l-0.5,0.3h6.2c1.4,0,2.6,1.2,2.6,2.6C114.9,52.8,113.8,53.9,112.3,53.9"/>
	<path style="clip-path:url(#SVGID_2_);fill:#F5B500;" d="M43.5,46.2c-2.1,0-3.8,1.7-3.8,3.8s1.7,3.8,3.8,3.8c2.1,0,3.8-1.7,3.8-3.8
		S45.6,46.2,43.5,46.2"/>
	<path style="clip-path:url(#SVGID_2_);fill:#FFFFFF;" d="M43.6,32.2c-9.4,0-17.1,7.7-17.1,17.1s7.7,17.1,17.1,17.1
		c9.4,0,17.1-7.7,17.1-17.1S53.1,32.2,43.6,32.2 M43.6,69c-10.9,0-19.7-8.8-19.7-19.7c0-10.9,8.8-19.7,19.7-19.7
		c10.9,0,19.7,8.8,19.7,19.7C63.3,60.2,54.5,69,43.6,69 M106.2,32.2c-9.4,0-17.1,7.7-17.1,17.1s7.7,17.1,17.1,17.1
		s17.1-7.7,17.1-17.1S115.6,32.2,106.2,32.2 M106.2,69c-10.9,0-19.7-8.8-19.7-19.7c0-10.9,8.8-19.7,19.7-19.7
		c10.9,0,19.7,8.8,19.7,19.7C125.9,60.2,117,69,106.2,69 M74.9,37.2c4.6,0,8.6,3.5,9.1,8.1l0,0.2l0,0.2c-0.2,1.3-0.3,2.5-0.3,3.6
		c0,12.4,10.1,22.4,22.4,22.4s22.4-10.1,22.4-22.4c0-12.4-10.1-22.4-22.4-22.4c-8.3,0-15.8,4.5-19.8,11.8l-0.9,1.7l-1.2-1.5
		c-2.3-2.8-5.7-4.5-9.3-4.5c-3.6,0-7,1.6-9.3,4.5l-1.2,1.5l-0.9-1.7c-3.9-7.3-11.5-11.9-19.8-11.9c-12.4,0-22.4,10.1-22.4,22.4
		c0,12.4,10.1,22.4,22.4,22.4c12.4,0,22.4-10.1,22.4-22.4c0-1.1-0.1-2.3-0.3-3.6l0-0.2l0-0.2C66.3,40.7,70.3,37.2,74.9,37.2
		 M106.2,74.4c-13.8,0-25.1-11.2-25.1-25.1c0-1.2,0.1-2.5,0.3-3.8c-0.5-3.2-3.3-5.6-6.5-5.6c-3.3,0-6,2.4-6.5,5.7
		c0.2,1.4,0.3,2.6,0.3,3.8c0,13.8-11.2,25.1-25.1,25.1c-13.8,0-25.1-11.2-25.1-25.1s11.2-25.1,25.1-25.1c8.6,0,16.6,4.4,21.2,11.7
		c2.7-2.6,6.3-4.1,10.1-4.1c3.8,0,7.4,1.5,10.1,4.1c4.6-7.2,12.5-11.7,21.2-11.7c13.8,0,25.1,11.2,25.1,25.1S120,74.4,106.2,74.4"/>
</g>
</svg>
