<?xml version="1.0" encoding="utf-8"?>
<!-- Generator: Adobe Illustrator 20.0.0, SVG Export Plug-In . SVG Version: 6.00 Build 0)  -->
<!DOCTYPE svg PUBLIC "-//W3C//DTD SVG 1.1//EN" "http://www.w3.org/Graphics/SVG/1.1/DTD/svg11.dtd">
<svg version="1.1" id="Ebene_1" xmlns="http://www.w3.org/2000/svg" xmlns:xlink="http://www.w3.org/1999/xlink" x="0px" y="0px"
	 viewBox="0 0 150 150" style="enable-background:new 0 0 150 150;" xml:space="preserve">
<style type="text/css">
	.st0{clip-path:url(#SVGID_2_);fill:#FFFFFF;}
	.st1{clip-path:url(#SVGID_4_);fill:#F5B500;}
	.st2{clip-path:url(#SVGID_6_);}
	.st3{clip-path:url(#SVGID_8_);}
	.st4{clip-path:url(#SVGID_10_);fill:#FFFFFF;}
	.st5{clip-path:url(#SVGID_12_);fill:#FFFFFF;}
</style>
<rect width="150" height="150"/>
<g>
	<g>
		<g>
			<g>
				<defs>
					<rect id="SVGID_1_" x="25" width="101" height="146.7"/>
				</defs>
				<clipPath id="SVGID_2_">
					<use xlink:href="#SVGID_1_"  style="overflow:visible;"/>
				</clipPath>
				<path class="st0" d="M75.8,127.2c-13,0-24.2-5.9-28.1-10.1c-2-2.2-2.7-5.1-2-8L67.4,9.6c1-3.9,4.5-6.6,8.4-6.6
					c4,0,7.4,2.7,8.4,6.6l21.7,99.5c0.7,2.8,0,5.8-2,7.9C100.1,121.2,88.8,127.2,75.8,127.2"/>
			</g>
		</g>
		<g>
			<g>
				<defs>
					<rect id="SVGID_3_" x="25" width="101" height="146.7"/>
				</defs>
				<clipPath id="SVGID_4_">
					<use xlink:href="#SVGID_3_"  style="overflow:visible;"/>
				</clipPath>
				<path class="st1" d="M122.1,110.9l-18-9.8l1.7,7.9c0.7,2.8,0,5.8-2,7.9C100,121.1,88.7,127,75.7,127s-24.2-5.9-28.1-10.1
					c-2-2.2-2.7-5.1-2-8l2-9.1l-19,11c-2.3,1.3-3.7,3.9-3.7,6.6c0.1,2.7,1.6,5.1,4,6.4l42.5,22c1.1,0.5,2.2,0.8,3.4,0.8
					c1.1,0,2.3-0.3,3.3-0.8l43.8-21.9c2.5-1.2,4-3.7,4.1-6.5C126,114.8,124.6,112.3,122.1,110.9"/>
			</g>
		</g>
		<g>
			<g>
				<defs>
					<rect id="SVGID_5_" x="25" width="101" height="146.7"/>
				</defs>
				<clipPath id="SVGID_6_">
					<use xlink:href="#SVGID_5_"  style="overflow:visible;"/>
				</clipPath>
				<path class="st2" d="M75.8,6.1c-2.6,0-4.9,1.8-5.5,4.3l-21.6,99.3c-0.5,1.9,0,3.9,1.3,5.3c3.4,3.7,13.9,9.1,25.8,9.1
					s22.5-5.5,25.8-9.2c1.3-1.4,1.8-3.3,1.3-5.1L81.3,10.2C80.7,7.8,78.4,6.1,75.8,6.1 M75.8,130.2c-13.1,0-25.4-5.7-30.3-11.1
					c-2.7-2.9-3.7-6.9-2.7-10.8L64.4,9c1.3-5.3,6-9,11.4-9s10,3.6,11.4,8.9l21.7,99.6c0.9,3.7-0.1,7.7-2.7,10.6
					C101.2,124.4,88.9,130.2,75.8,130.2"/>
			</g>
		</g>
		<g>
			<g>
				<defs>
					<rect id="SVGID_7_" x="25" width="101" height="146.7"/>
				</defs>
				<clipPath id="SVGID_8_">
					<use xlink:href="#SVGID_7_"  style="overflow:visible;"/>
				</clipPath>
				<path class="st3" d="M75.8,118.7c-10.5,0-19.5-4.9-21.8-7.4c0-0.1-0.1-0.1,0-0.2l0.1-0.3l21.6-99.2c0-0.1,0.1-0.2,0.2-0.2
					s0.2,0,0.2,0.1L97.8,111c0,0,0,0.1-0.1,0.1C95.4,113.8,86.3,118.7,75.8,118.7"/>
			</g>
		</g>
		<g>
			<g>
				<defs>
					<rect id="SVGID_9_" x="25" width="101" height="146.7"/>
				</defs>
				<clipPath id="SVGID_10_">
					<use xlink:href="#SVGID_9_"  style="overflow:visible;"/>
				</clipPath>
				<path class="st4" d="M75.7,92.6c-7.3,0-14.6-2.8-20.2-8.4l4.3-4.3c8.8,8.8,23.1,8.8,31.8,0l4.3,4.3C90.3,89.8,83,92.6,75.7,92.6
					"/>
			</g>
		</g>
		<g>
			<g>
				<defs>
					<rect id="SVGID_11_" x="25" width="101" height="146.7"/>
				</defs>
				<clipPath id="SVGID_12_">
					<use xlink:href="#SVGID_11_"  style="overflow:visible;"/>
				</clipPath>
				<path class="st5" d="M75.9,61c-5.2,0-10.4-2-14.3-5.9l4.3-4.3c5.5,5.5,14.6,5.5,20.1,0l4.3,4.3C86.3,59,81.1,61,75.9,61"/>
			</g>
		</g>
	</g>
</g>
</svg>
