<?xml version="1.0" encoding="utf-8"?>
<!-- Generator: Adobe Illustrator 19.1.0, SVG Export Plug-In . SVG Version: 6.00 Build 0)  -->
<svg version="1.1" id="Ebene_1" xmlns="http://www.w3.org/2000/svg" xmlns:xlink="http://www.w3.org/1999/xlink" x="0px" y="0px"
	 viewBox="0 0 150 150" style="enable-background:new 0 0 150 150;" xml:space="preserve">
<style type="text/css">
	.st0{fill:#FABB00;}
	.st1{fill:#F1B200;}
	.st2{fill:none;stroke:#F3B400;stroke-width:0.9243;stroke-miterlimit:10;}
	.st3{fill:none;stroke:#F3B400;stroke-width:0.9243;stroke-miterlimit:10;stroke-dasharray:1.4113,1.4113;}
	.st4{fill:none;stroke:#F3B400;stroke-width:0.9243;stroke-miterlimit:10;stroke-dasharray:1.277,1.277;}
	.st5{fill:none;stroke:#F3B400;stroke-width:0.9243;stroke-miterlimit:10;stroke-dasharray:1.9227,1.9227;}
	.st6{fill:none;stroke:#F3B400;stroke-width:0.9243;stroke-miterlimit:10;stroke-dasharray:1.5862,1.5862;}
	.st7{fill:none;stroke:#F3B400;stroke-width:0.9243;stroke-miterlimit:10;stroke-dasharray:1.4973,1.4973;}
	.st8{fill:none;stroke:#F3B400;stroke-width:0.9243;stroke-miterlimit:10;stroke-dasharray:1.5984,1.5984;}
	.st9{fill:none;stroke:#F3B400;stroke-width:0.9243;stroke-miterlimit:10;stroke-dasharray:1.4757,1.4757;}
	.st10{fill:none;stroke:#F3B400;stroke-width:0.9243;stroke-miterlimit:10;stroke-dasharray:1.4668,1.4668;}
	.st11{fill:none;stroke:#F3B400;stroke-width:0.9243;stroke-miterlimit:10;stroke-dasharray:1.5463,1.5463;}
	.st12{fill:none;stroke:#F3B400;stroke-width:0.9243;stroke-miterlimit:10;stroke-dasharray:1.4901,1.4901;}
	.st13{fill:none;stroke:#F3B400;stroke-width:0.9243;stroke-miterlimit:10;stroke-dasharray:1.5407,1.5407;}
	.st14{fill:none;stroke:#F3B400;stroke-width:0.9243;stroke-miterlimit:10;stroke-dasharray:1.525,1.525;}
	.st15{fill:none;stroke:#F3B400;stroke-width:0.9243;stroke-miterlimit:10;stroke-dasharray:1.4952,1.4952;}
	.st16{fill:none;stroke:#F3B400;stroke-width:0.9243;stroke-miterlimit:10;stroke-dasharray:1.5693,1.5693;}
	.st17{fill:none;stroke:#F3B400;stroke-width:0.9243;stroke-miterlimit:10;stroke-dasharray:1.5169,1.5169;}
	.st18{fill:none;stroke:#F3B400;stroke-width:0.9243;stroke-miterlimit:10;stroke-dasharray:1.7111,1.7111;}
	.st19{fill:none;stroke:#FFFFFF;stroke-width:0.6162;stroke-linecap:round;stroke-linejoin:round;stroke-miterlimit:10;}
	.st20{fill:#FFFFFF;}
	.st21{clip-path:url(#SVGID_2_);}
	.st22{stroke:#FFFFFF;stroke-miterlimit:10;}
	.st23{fill:none;stroke:#F1B200;stroke-width:0.6888;stroke-miterlimit:10;stroke-dasharray:3.1207;}
	.st24{stroke:#000000;stroke-width:0.8298;stroke-miterlimit:10;}
	.st25{opacity:0.9;fill:#FFFFFF;}
	.st26{clip-path:url(#SVGID_4_);}
	.st27{stroke:#FFFFFF;stroke-width:1.0877;stroke-miterlimit:10;}
	.st28{stroke:#000000;stroke-width:1.9035;stroke-miterlimit:10;}
	.st29{clip-path:url(#SVGID_6_);}
	.st30{stroke:#000000;stroke-width:1.3597;stroke-miterlimit:10;}
	.st31{fill:#FFFFFF;stroke:#000000;stroke-width:0.8637;stroke-miterlimit:10;}
	.st32{fill:#FFFFFF;stroke:#000000;stroke-width:1.2955;stroke-miterlimit:10;}
	.st33{clip-path:url(#SVGID_8_);fill:#F5B500;}
	.st34{clip-path:url(#SVGID_8_);fill:#FFFFFF;}
	.st35{fill:#0000FF;}
	.st36{fill:#F5B500;}
	.st37{clip-path:url(#SVGID_10_);fill:#F5B500;}
	.st38{clip-path:url(#SVGID_10_);fill:#FFFFFF;}
	.st39{clip-path:url(#SVGID_12_);fill:#FFFFFF;}
	.st40{clip-path:url(#SVGID_12_);fill:#F5B500;}
	.st41{clip-path:url(#SVGID_12_);}
	.st42{clip-path:url(#SVGID_14_);fill:#FFFFFF;}
	.st43{clip-path:url(#SVGID_14_);}
	.st44{clip-path:url(#SVGID_14_);fill:#F5B500;}
	.st45{clip-path:url(#SVGID_16_);fill:#FFFFFF;}
	.st46{clip-path:url(#SVGID_16_);fill:#F5B500;}
	.st47{clip-path:url(#SVGID_16_);}
	.st48{clip-path:url(#SVGID_18_);fill:#FFFFFF;}
	.st49{clip-path:url(#SVGID_18_);}
	.st50{clip-path:url(#SVGID_18_);fill:#F5B500;}
	.st51{clip-path:url(#SVGID_20_);fill:#F5B500;}
	.st52{clip-path:url(#SVGID_20_);}
	.st53{clip-path:url(#SVGID_20_);fill:#FFFFFF;}
	.st54{clip-path:url(#SVGID_22_);fill:#FFFFFF;}
	.st55{clip-path:url(#SVGID_22_);fill:#F5B500;}
	.st56{clip-path:url(#SVGID_24_);fill:#F5B500;}
	.st57{clip-path:url(#SVGID_24_);fill:#FFFFFF;}
	.st58{clip-path:url(#SVGID_26_);fill:#F5B500;}
	.st59{clip-path:url(#SVGID_26_);fill:#FFFFFF;}
	.st60{clip-path:url(#SVGID_28_);fill:#FFFFFF;}
	.st61{clip-path:url(#SVGID_28_);fill:#F5B500;}
	.st62{clip-path:url(#SVGID_28_);}
	.st63{clip-path:url(#SVGID_30_);fill:#F5B500;}
	.st64{clip-path:url(#SVGID_30_);}
	.st65{clip-path:url(#SVGID_30_);fill:#FFFFFF;}
	.st66{clip-path:url(#SVGID_32_);fill:#F5B500;}
	.st67{clip-path:url(#SVGID_32_);fill:#FFFFFF;}
</style>
<g>
	<g>
		<rect x="-0.5" y="0" width="150.3" height="150.7"/>
	</g>
</g>
<g>
	<defs>
		<rect id="SVGID_13_" x="4.3" y="2.9" width="141" height="147.1"/>
	</defs>
	<clipPath id="SVGID_2_">
		<use xlink:href="#SVGID_13_"  style="overflow:visible;"/>
	</clipPath>
	<path style="clip-path:url(#SVGID_2_);fill:#FFFFFF;" d="M79.3,16.9h-8.9c-2.8,0-5-3.1-5-7c0-3.9,2.2-7,5-7h8.9c2.8,0,5,3.1,5,7
		C84.3,13.8,82,16.9,79.3,16.9"/>
	<path style="clip-path:url(#SVGID_2_);fill:#FFFFFF;" d="M117.6,16.8c-0.5,0-1-0.1-1.4-0.3l-11.3-5.7c-1.5-0.8-2.1-2.7-1.4-4.2
		c0.8-1.5,2.7-2.1,4.2-1.4l11.3,5.7c1.5,0.8,2.1,2.7,1.4,4.2C119.8,16.2,118.7,16.8,117.6,16.8"/>
	<path style="clip-path:url(#SVGID_2_);fill:#FFFFFF;" d="M143.5,79.5c0,37.9-30.7,68.6-68.6,68.6c-37.9,0-68.6-30.7-68.6-68.6
		c0-37.9,30.7-68.6,68.6-68.6C112.7,10.8,143.5,41.6,143.5,79.5"/>
	<path class="st21" d="M74.8,12.7C38,12.7,8,42.7,8,79.5s30,66.8,66.8,66.8s66.8-30,66.8-66.8S111.6,12.7,74.8,12.7 M74.8,150
		c-38.9,0-70.5-31.6-70.5-70.5S35.9,9,74.8,9s70.5,31.6,70.5,70.5S113.7,150,74.8,150"/>
	<path class="st21" d="M75.8,19.6v59.6H15.1c0,34.3,26.8,60.1,59.9,60.1s60.3-26.7,60.3-59.8C135.3,46.3,108.3,19.6,75.8,19.6"/>
	<path style="clip-path:url(#SVGID_2_);fill:#F5B500;" d="M91.1,82.6H16.9c-1.7,0-3.1-1.4-3.1-3.1c0-1.7,1.4-3.1,3.1-3.1h74.3
		c1.7,0,3.1,1.4,3.1,3.1C94.3,81.2,92.9,82.6,91.1,82.6"/>
	<path style="clip-path:url(#SVGID_2_);fill:#F5B500;" d="M74.8,71.2c4.6,0,8.3,3.7,8.3,8.3c0,4.6-3.7,8.3-8.3,8.3
		c-4.6,0-8.3-3.7-8.3-8.3C66.5,74.9,70.2,71.2,74.8,71.2"/>
</g>
</svg>
