<?xml version="1.0" encoding="utf-8"?>
<!-- Generator: Adobe Illustrator 19.1.0, SVG Export Plug-In . SVG Version: 6.00 Build 0)  -->
<svg version="1.1" id="Ebene_1" xmlns="http://www.w3.org/2000/svg" xmlns:xlink="http://www.w3.org/1999/xlink" x="0px" y="0px"
	 viewBox="0 0 150 150" style="enable-background:new 0 0 150 150;" xml:space="preserve">
<style type="text/css">
	.st0{fill:#FABB00;}
	.st1{fill:#F1B200;}
	.st2{fill:none;stroke:#F3B400;stroke-width:0.9243;stroke-miterlimit:10;}
	.st3{fill:none;stroke:#F3B400;stroke-width:0.9243;stroke-miterlimit:10;stroke-dasharray:1.4113,1.4113;}
	.st4{fill:none;stroke:#F3B400;stroke-width:0.9243;stroke-miterlimit:10;stroke-dasharray:1.277,1.277;}
	.st5{fill:none;stroke:#F3B400;stroke-width:0.9243;stroke-miterlimit:10;stroke-dasharray:1.9227,1.9227;}
	.st6{fill:none;stroke:#F3B400;stroke-width:0.9243;stroke-miterlimit:10;stroke-dasharray:1.5862,1.5862;}
	.st7{fill:none;stroke:#F3B400;stroke-width:0.9243;stroke-miterlimit:10;stroke-dasharray:1.4973,1.4973;}
	.st8{fill:none;stroke:#F3B400;stroke-width:0.9243;stroke-miterlimit:10;stroke-dasharray:1.5984,1.5984;}
	.st9{fill:none;stroke:#F3B400;stroke-width:0.9243;stroke-miterlimit:10;stroke-dasharray:1.4757,1.4757;}
	.st10{fill:none;stroke:#F3B400;stroke-width:0.9243;stroke-miterlimit:10;stroke-dasharray:1.4668,1.4668;}
	.st11{fill:none;stroke:#F3B400;stroke-width:0.9243;stroke-miterlimit:10;stroke-dasharray:1.5463,1.5463;}
	.st12{fill:none;stroke:#F3B400;stroke-width:0.9243;stroke-miterlimit:10;stroke-dasharray:1.4901,1.4901;}
	.st13{fill:none;stroke:#F3B400;stroke-width:0.9243;stroke-miterlimit:10;stroke-dasharray:1.5407,1.5407;}
	.st14{fill:none;stroke:#F3B400;stroke-width:0.9243;stroke-miterlimit:10;stroke-dasharray:1.525,1.525;}
	.st15{fill:none;stroke:#F3B400;stroke-width:0.9243;stroke-miterlimit:10;stroke-dasharray:1.4952,1.4952;}
	.st16{fill:none;stroke:#F3B400;stroke-width:0.9243;stroke-miterlimit:10;stroke-dasharray:1.5693,1.5693;}
	.st17{fill:none;stroke:#F3B400;stroke-width:0.9243;stroke-miterlimit:10;stroke-dasharray:1.5169,1.5169;}
	.st18{fill:none;stroke:#F3B400;stroke-width:0.9243;stroke-miterlimit:10;stroke-dasharray:1.7111,1.7111;}
	.st19{fill:none;stroke:#FFFFFF;stroke-width:0.6162;stroke-linecap:round;stroke-linejoin:round;stroke-miterlimit:10;}
	.st20{fill:#FFFFFF;}
	.st21{clip-path:url(#SVGID_2_);}
	.st22{stroke:#FFFFFF;stroke-miterlimit:10;}
	.st23{fill:none;stroke:#F1B200;stroke-width:0.6888;stroke-miterlimit:10;stroke-dasharray:3.1207;}
	.st24{stroke:#000000;stroke-width:0.8298;stroke-miterlimit:10;}
	.st25{opacity:0.9;fill:#FFFFFF;}
	.st26{clip-path:url(#SVGID_4_);}
	.st27{stroke:#FFFFFF;stroke-width:1.0877;stroke-miterlimit:10;}
	.st28{stroke:#000000;stroke-width:1.9035;stroke-miterlimit:10;}
	.st29{clip-path:url(#SVGID_6_);}
	.st30{stroke:#000000;stroke-width:1.3597;stroke-miterlimit:10;}
	.st31{fill:#FFFFFF;stroke:#000000;stroke-width:0.8637;stroke-miterlimit:10;}
	.st32{fill:#FFFFFF;stroke:#000000;stroke-width:1.2955;stroke-miterlimit:10;}
	.st33{clip-path:url(#SVGID_8_);fill:#F5B500;}
	.st34{clip-path:url(#SVGID_8_);fill:#FFFFFF;}
	.st35{fill:#0000FF;}
	.st36{fill:#F5B500;}
	.st37{clip-path:url(#SVGID_10_);fill:#F5B500;}
	.st38{clip-path:url(#SVGID_10_);fill:#FFFFFF;}
	.st39{clip-path:url(#SVGID_12_);fill:#FFFFFF;}
	.st40{clip-path:url(#SVGID_12_);fill:#F5B500;}
	.st41{clip-path:url(#SVGID_12_);}
	.st42{clip-path:url(#SVGID_14_);fill:#FFFFFF;}
	.st43{clip-path:url(#SVGID_14_);}
	.st44{clip-path:url(#SVGID_14_);fill:#F5B500;}
	.st45{clip-path:url(#SVGID_16_);fill:#FFFFFF;}
	.st46{clip-path:url(#SVGID_16_);fill:#F5B500;}
	.st47{clip-path:url(#SVGID_16_);}
	.st48{clip-path:url(#SVGID_18_);fill:#FFFFFF;}
	.st49{clip-path:url(#SVGID_18_);}
	.st50{clip-path:url(#SVGID_18_);fill:#F5B500;}
	.st51{clip-path:url(#SVGID_20_);fill:#F5B500;}
	.st52{clip-path:url(#SVGID_20_);}
	.st53{clip-path:url(#SVGID_20_);fill:#FFFFFF;}
	.st54{clip-path:url(#SVGID_22_);fill:#FFFFFF;}
	.st55{clip-path:url(#SVGID_22_);fill:#F5B500;}
	.st56{clip-path:url(#SVGID_24_);fill:#F5B500;}
	.st57{clip-path:url(#SVGID_24_);fill:#FFFFFF;}
	.st58{clip-path:url(#SVGID_26_);fill:#F5B500;}
	.st59{clip-path:url(#SVGID_26_);fill:#FFFFFF;}
	.st60{clip-path:url(#SVGID_28_);fill:#FFFFFF;}
	.st61{clip-path:url(#SVGID_28_);fill:#F5B500;}
	.st62{clip-path:url(#SVGID_28_);}
	.st63{clip-path:url(#SVGID_30_);fill:#F5B500;}
	.st64{clip-path:url(#SVGID_30_);}
	.st65{clip-path:url(#SVGID_30_);fill:#FFFFFF;}
	.st66{clip-path:url(#SVGID_32_);fill:#F5B500;}
	.st67{clip-path:url(#SVGID_32_);fill:#FFFFFF;}
</style>
<g>
	<g>
		<rect x="0" y="-0.7" width="150.3" height="150.7"/>
	</g>
</g>
<g>
	<defs>
		<rect id="SVGID_17_" x="10" y="1.3" width="132.7" height="148.7"/>
	</defs>
	<clipPath id="SVGID_2_">
		<use xlink:href="#SVGID_17_"  style="overflow:visible;"/>
	</clipPath>
	<path style="clip-path:url(#SVGID_2_);fill:#FFFFFF;" d="M125,114.8c0.5,5-3,9.4-8,10c-5,0.5-9.4-3-10-8c-0.5-5,3-9.4,8-10
		C120,106.2,124.4,109.8,125,114.8"/>
	<path class="st21" d="M116,108c-0.3,0-0.6,0-0.8,0c-2,0.2-3.9,1.2-5.2,2.8c-1.3,1.6-1.9,3.6-1.7,5.7c0.2,2,1.2,3.9,2.8,5.2
		c1.6,1.3,3.6,1.9,5.7,1.7c2-0.2,3.9-1.2,5.2-2.8c1.3-1.6,1.9-3.6,1.7-5.7C123.3,111,119.9,108,116,108 M116,126.1
		c-2.3,0-4.6-0.8-6.5-2.3c-2.2-1.7-3.5-4.2-3.8-6.9c-0.6-5.7,3.5-10.8,9.2-11.4c5.7-0.6,10.8,3.5,11.4,9.2v0
		c0.3,2.7-0.5,5.4-2.2,7.6c-1.7,2.2-4.2,3.5-6.9,3.8C116.7,126.1,116.4,126.1,116,126.1"/>
	<path style="clip-path:url(#SVGID_2_);fill:#FFFFFF;" d="M141.4,126.1c0.3,2.7-1.7,5.2-4.4,5.5s-5.2-1.7-5.5-4.4
		c-0.3-2.7,1.7-5.2,4.4-5.5C138.6,121.4,141.1,123.4,141.4,126.1"/>
	<path class="st21" d="M136.4,123c-0.1,0-0.3,0-0.4,0c-1,0.1-1.9,0.6-2.5,1.3c-0.6,0.8-0.9,1.7-0.8,2.7c0.1,1,0.6,1.9,1.3,2.5
		c0.8,0.6,1.7,0.9,2.7,0.8c1-0.1,1.9-0.6,2.5-1.3c0.6-0.8,0.9-1.7,0.8-2.7v0c-0.1-1-0.6-1.8-1.3-2.5
		C138.1,123.2,137.3,123,136.4,123 M136.4,132.9c-1.4,0-2.8-0.5-3.9-1.4c-1.3-1.1-2.1-2.6-2.3-4.2c-0.2-1.7,0.3-3.3,1.4-4.6
		c1.1-1.3,2.6-2.1,4.2-2.3c1.7-0.2,3.3,0.3,4.6,1.4c1.3,1.1,2.1,2.6,2.3,4.2c0.2,1.7-0.3,3.3-1.4,4.6c-1.1,1.3-2.6,2.1-4.2,2.3
		C136.9,132.9,136.6,132.9,136.4,132.9"/>
	<path style="clip-path:url(#SVGID_2_);fill:#F5B500;" d="M138.3,143.2c0.3,2.7-1.7,5.2-4.4,5.5c-2.7,0.3-5.2-1.7-5.5-4.4
		c-0.3-2.7,1.7-5.2,4.4-5.5C135.6,138.5,138,140.4,138.3,143.2"/>
	<path class="st21" d="M133.4,140c-0.1,0-0.3,0-0.4,0c-1,0.1-1.9,0.6-2.5,1.3c-0.6,0.8-0.9,1.7-0.8,2.7c0.1,1,0.6,1.9,1.3,2.5
		c0.8,0.6,1.7,0.9,2.7,0.8c1-0.1,1.9-0.6,2.5-1.3c0.6-0.8,0.9-1.7,0.8-2.7v0c-0.1-1-0.6-1.8-1.3-2.5C135,140.3,134.2,140,133.4,140
		 M133.4,150c-1.4,0-2.8-0.5-3.9-1.4c-1.3-1.1-2.1-2.6-2.3-4.2c-0.2-1.7,0.3-3.3,1.4-4.6c1.1-1.3,2.6-2.1,4.2-2.3
		c1.7-0.2,3.3,0.3,4.6,1.4c1.3,1.1,2.1,2.6,2.3,4.2c0.2,1.7-0.3,3.3-1.4,4.6c-1.1,1.3-2.6,2.1-4.2,2.3
		C133.8,150,133.6,150,133.4,150"/>
	<path style="clip-path:url(#SVGID_2_);fill:#F5B500;" d="M129.2,133.9c0.2,1.7-1.1,3.2-2.8,3.4c-1.7,0.2-3.2-1.1-3.4-2.8
		c-0.2-1.7,1.1-3.2,2.8-3.4C127.5,131,129.1,132.2,129.2,133.9"/>
	<path class="st21" d="M126.1,132.4c-0.1,0-0.1,0-0.2,0c-1,0.1-1.7,1-1.6,2c0.1,0.5,0.3,0.9,0.7,1.2c0.4,0.3,0.8,0.4,1.3,0.4
		c0.5-0.1,0.9-0.3,1.2-0.7c0.3-0.4,0.4-0.8,0.4-1.3v0C127.8,133.1,127.1,132.4,126.1,132.4 M126.1,138.7c-1,0-2-0.3-2.8-1
		c-0.9-0.7-1.5-1.8-1.6-3c-0.3-2.4,1.5-4.6,3.9-4.9c1.2-0.1,2.3,0.2,3.3,1c0.9,0.7,1.5,1.8,1.6,3c0.1,1.2-0.2,2.3-1,3.3
		c-0.7,0.9-1.8,1.5-3,1.6C126.5,138.7,126.3,138.7,126.1,138.7"/>
	<path style="clip-path:url(#SVGID_2_);fill:#FFFFFF;" d="M131.5,98c0.3,2.6-1.6,4.9-4.1,5.1c-2.6,0.3-4.9-1.6-5.1-4.1
		c-0.3-2.6,1.6-4.9,4.1-5.1C128.9,93.6,131.2,95.4,131.5,98"/>
	<path class="st21" d="M126.9,95.1c-0.1,0-0.2,0-0.4,0c-1.8,0.2-3.2,1.9-3,3.7c0.2,1.8,1.8,3.2,3.7,3c1.8-0.2,3.2-1.9,3-3.7
		C130,96.4,128.6,95.1,126.9,95.1 M126.9,104.5c-3,0-5.6-2.3-5.9-5.3c-0.4-3.3,2-6.2,5.3-6.6c3.3-0.4,6.2,2,6.6,5.3
		c0.4,3.3-2,6.2-5.3,6.6C127.3,104.5,127.1,104.5,126.9,104.5"/>
	<path style="clip-path:url(#SVGID_2_);fill:#F5B500;" d="M140.7,111.3c0.3,2.9-1.8,5.5-4.7,5.8c-2.9,0.3-5.5-1.8-5.8-4.7
		c-0.3-2.9,1.8-5.5,4.7-5.8C137.8,106.2,140.4,108.3,140.7,111.3"/>
	<path class="st21" d="M135.4,107.8c-0.1,0-0.3,0-0.4,0c-2.2,0.2-3.8,2.2-3.5,4.4c0.2,2.2,2.2,3.8,4.4,3.5c1.1-0.1,2-0.6,2.7-1.5
		c0.7-0.8,1-1.9,0.9-2.9v0c-0.1-1.1-0.6-2-1.5-2.7C137.2,108.1,136.3,107.8,135.4,107.8 M135.4,118.4c-3.3,0-6.2-2.5-6.6-5.9
		c-0.4-3.6,2.2-6.9,5.9-7.3c1.8-0.2,3.5,0.3,4.9,1.4c1.4,1.1,2.2,2.7,2.4,4.4c0.2,1.8-0.3,3.5-1.4,4.9s-2.7,2.2-4.4,2.4
		C135.9,118.4,135.7,118.4,135.4,118.4"/>
	<path style="clip-path:url(#SVGID_2_);fill:#F5B500;" d="M99.6,97c-1.7-1.7-1.7-4.4,0-6.1c1.7-1.7,4.4-1.7,6.1,0
		c1.7,1.7,1.7,4.4,0,6.1C104,98.7,101.3,98.7,99.6,97"/>
	<path style="clip-path:url(#SVGID_2_);fill:#F5B500;" d="M94.1,102.6c-1.7-1.7-1.7-4.4,0-6.1c1.7-1.7,4.4-1.7,6.1,0
		c1.7,1.7,1.7,4.4,0,6.1C98.5,104.3,95.7,104.3,94.1,102.6"/>
	<path style="clip-path:url(#SVGID_2_);fill:#F5B500;" d="M105.2,91.5c-1.7-1.7-1.7-4.4,0-6.1c1.7-1.7,4.4-1.7,6.1,0
		c1.7,1.7,1.7,4.4,0,6.1C109.6,93.1,106.9,93.1,105.2,91.5"/>
</g>
<polygon class="st36" points="81.1,72.4 113.9,81.2 89.9,105.2 "/>
<g>
	<defs>
		<rect id="SVGID_19_" x="10" y="1.3" width="132.7" height="148.7"/>
	</defs>
	<clipPath id="SVGID_4_">
		<use xlink:href="#SVGID_19_"  style="overflow:visible;"/>
	</clipPath>
	<path style="clip-path:url(#SVGID_4_);fill:#F5B500;" d="M109.8,82.3l-25.8-6.9l6.9,25.8L109.8,82.3z M79.6,71
		c0.5-0.5,1.3-0.7,2-0.5l32.8,8.8c0.7,0.2,1.3,0.8,1.5,1.5c0.2,0.7,0,1.5-0.5,2l-24,24c-0.5,0.5-1.3,0.7-2,0.5
		c-0.7-0.2-1.3-0.8-1.5-1.5L79.1,73C78.9,72.3,79.1,71.5,79.6,71"/>
	<path style="clip-path:url(#SVGID_4_);fill:#F5B500;" d="M24.1,83.5c-18.8-18.8-18.8-49.3,0-68.1s49.3-18.8,68.1,0
		s18.8,49.3,0,68.1S42.9,102.3,24.1,83.5"/>
	<path class="st26" d="M28.4,79.2c-16.4-16.4-16.4-43,0-59.4c16.4-16.4,43-16.4,59.4,0c16.4,16.4,16.4,43,0,59.4
		C71.5,95.6,44.8,95.6,28.4,79.2"/>
	<path style="clip-path:url(#SVGID_4_);fill:#F5B500;" d="M110.2,86.4c-1.7-1.7-1.7-4.4,0-6.1c1.7-1.7,4.4-1.7,6.1,0
		c1.7,1.7,1.7,4.4,0,6.1C114.6,88.1,111.9,88.1,110.2,86.4"/>
	<path style="clip-path:url(#SVGID_4_);fill:#F5B500;" d="M95.1,101.6c-1.7-1.7-4.4-1.7-6.1,0c-1.7,1.7-1.7,4.4,0,6.1
		c1.7,1.7,4.4,1.7,6.1,0C96.8,106,96.8,103.3,95.1,101.6"/>
	<path style="clip-path:url(#SVGID_4_);fill:#FFFFFF;" d="M67.9,53c-0.9-0.9-2.3-0.8-4-0.2l4.1,4.3C68.9,55.8,69.2,54.4,67.9,53
		 M74.9,67.4c-0.9,0.9-2.4,0.9-3.3-0.1l-2.6-2.6c-3.8,2.4-8.2,2.8-12.3,1c-0.2-0.1-0.3-0.2-0.4-0.4c-0.1-0.2,0-0.4,0-0.5l3-5.5
		c0.2-0.3,0.5-0.4,0.9-0.3c1.1,0.5,2.5,0.9,3.9,0.6l-5-5.1c-4.8,2-10.5,4-14.9-0.6c-4.5-4.6-4.6-9.9-0.3-15.1l-3-3.1
		c-0.9-0.9-0.9-2.4,0.1-3.3c0.9-0.9,2.4-0.9,3.3,0.1l3,3.1c4.1-3,9.4-3.7,13.8-1.7c0.3,0.1,0.5,0.5,0.3,0.8l-2.2,5.5
		c-0.1,0.3-0.5,0.5-0.8,0.4c-2.7-1-4.7-1-6.4-0.2l6.3,6.5c4.9-2,10.3-4,14.5,0.4c3.9,4,3.7,9.7-0.2,14.3l2.4,2.5
		C75.9,65.1,75.8,66.6,74.9,67.4 M49.1,48.2c1,1.1,2.6,1.1,4.4,0.6l-4.9-5.1C47.6,45.3,47.8,46.8,49.1,48.2"/>
</g>
</svg>
