<?xml version="1.0" encoding="utf-8"?>
<!-- Generator: Adobe Illustrator 19.1.0, SVG Export Plug-In . SVG Version: 6.00 Build 0)  -->
<svg version="1.1" id="Ebene_1" xmlns="http://www.w3.org/2000/svg" xmlns:xlink="http://www.w3.org/1999/xlink" x="0px" y="0px"
	 viewBox="0 0 150 150" style="enable-background:new 0 0 150 150;" xml:space="preserve">
<style type="text/css">
	.st0{fill:#FABB00;}
	.st1{fill:#F1B200;}
	.st2{fill:none;stroke:#F3B400;stroke-width:0.9243;stroke-miterlimit:10;}
	.st3{fill:none;stroke:#F3B400;stroke-width:0.9243;stroke-miterlimit:10;stroke-dasharray:1.4113,1.4113;}
	.st4{fill:none;stroke:#F3B400;stroke-width:0.9243;stroke-miterlimit:10;stroke-dasharray:1.277,1.277;}
	.st5{fill:none;stroke:#F3B400;stroke-width:0.9243;stroke-miterlimit:10;stroke-dasharray:1.9227,1.9227;}
	.st6{fill:none;stroke:#F3B400;stroke-width:0.9243;stroke-miterlimit:10;stroke-dasharray:1.5862,1.5862;}
	.st7{fill:none;stroke:#F3B400;stroke-width:0.9243;stroke-miterlimit:10;stroke-dasharray:1.4973,1.4973;}
	.st8{fill:none;stroke:#F3B400;stroke-width:0.9243;stroke-miterlimit:10;stroke-dasharray:1.5984,1.5984;}
	.st9{fill:none;stroke:#F3B400;stroke-width:0.9243;stroke-miterlimit:10;stroke-dasharray:1.4757,1.4757;}
	.st10{fill:none;stroke:#F3B400;stroke-width:0.9243;stroke-miterlimit:10;stroke-dasharray:1.4668,1.4668;}
	.st11{fill:none;stroke:#F3B400;stroke-width:0.9243;stroke-miterlimit:10;stroke-dasharray:1.5463,1.5463;}
	.st12{fill:none;stroke:#F3B400;stroke-width:0.9243;stroke-miterlimit:10;stroke-dasharray:1.4901,1.4901;}
	.st13{fill:none;stroke:#F3B400;stroke-width:0.9243;stroke-miterlimit:10;stroke-dasharray:1.5407,1.5407;}
	.st14{fill:none;stroke:#F3B400;stroke-width:0.9243;stroke-miterlimit:10;stroke-dasharray:1.525,1.525;}
	.st15{fill:none;stroke:#F3B400;stroke-width:0.9243;stroke-miterlimit:10;stroke-dasharray:1.4952,1.4952;}
	.st16{fill:none;stroke:#F3B400;stroke-width:0.9243;stroke-miterlimit:10;stroke-dasharray:1.5693,1.5693;}
	.st17{fill:none;stroke:#F3B400;stroke-width:0.9243;stroke-miterlimit:10;stroke-dasharray:1.5169,1.5169;}
	.st18{fill:none;stroke:#F3B400;stroke-width:0.9243;stroke-miterlimit:10;stroke-dasharray:1.7111,1.7111;}
	.st19{fill:none;stroke:#FFFFFF;stroke-width:0.6162;stroke-linecap:round;stroke-linejoin:round;stroke-miterlimit:10;}
	.st20{fill:#FFFFFF;}
	.st21{clip-path:url(#SVGID_2_);}
	.st22{stroke:#FFFFFF;stroke-miterlimit:10;}
	.st23{fill:none;stroke:#F1B200;stroke-width:0.6888;stroke-miterlimit:10;stroke-dasharray:3.1207;}
	.st24{stroke:#000000;stroke-width:0.8298;stroke-miterlimit:10;}
	.st25{opacity:0.9;fill:#FFFFFF;}
	.st26{clip-path:url(#SVGID_4_);}
	.st27{stroke:#FFFFFF;stroke-width:1.0877;stroke-miterlimit:10;}
	.st28{stroke:#000000;stroke-width:1.9035;stroke-miterlimit:10;}
	.st29{clip-path:url(#SVGID_6_);}
	.st30{stroke:#000000;stroke-width:1.3597;stroke-miterlimit:10;}
	.st31{fill:#FFFFFF;stroke:#000000;stroke-width:0.8637;stroke-miterlimit:10;}
	.st32{fill:#FFFFFF;stroke:#000000;stroke-width:1.2955;stroke-miterlimit:10;}
	.st33{clip-path:url(#SVGID_8_);fill:#F5B500;}
	.st34{clip-path:url(#SVGID_8_);fill:#FFFFFF;}
	.st35{fill:#0000FF;}
	.st36{fill:#F5B500;}
	.st37{clip-path:url(#SVGID_10_);fill:#F5B500;}
	.st38{clip-path:url(#SVGID_10_);fill:#FFFFFF;}
	.st39{clip-path:url(#SVGID_12_);fill:#FFFFFF;}
	.st40{clip-path:url(#SVGID_12_);fill:#F5B500;}
	.st41{clip-path:url(#SVGID_12_);}
	.st42{clip-path:url(#SVGID_14_);fill:#FFFFFF;}
	.st43{clip-path:url(#SVGID_14_);}
	.st44{clip-path:url(#SVGID_14_);fill:#F5B500;}
	.st45{clip-path:url(#SVGID_16_);fill:#FFFFFF;}
	.st46{clip-path:url(#SVGID_16_);fill:#F5B500;}
	.st47{clip-path:url(#SVGID_16_);}
	.st48{clip-path:url(#SVGID_18_);fill:#FFFFFF;}
	.st49{clip-path:url(#SVGID_18_);}
	.st50{clip-path:url(#SVGID_18_);fill:#F5B500;}
	.st51{clip-path:url(#SVGID_20_);fill:#F5B500;}
	.st52{clip-path:url(#SVGID_20_);}
	.st53{clip-path:url(#SVGID_20_);fill:#FFFFFF;}
	.st54{clip-path:url(#SVGID_22_);fill:#FFFFFF;}
	.st55{clip-path:url(#SVGID_22_);fill:#F5B500;}
	.st56{clip-path:url(#SVGID_24_);fill:#F5B500;}
	.st57{clip-path:url(#SVGID_24_);fill:#FFFFFF;}
	.st58{clip-path:url(#SVGID_26_);fill:#F5B500;}
	.st59{clip-path:url(#SVGID_26_);fill:#FFFFFF;}
	.st60{clip-path:url(#SVGID_28_);fill:#FFFFFF;}
	.st61{clip-path:url(#SVGID_28_);fill:#F5B500;}
	.st62{clip-path:url(#SVGID_28_);}
	.st63{clip-path:url(#SVGID_30_);fill:#F5B500;}
	.st64{clip-path:url(#SVGID_30_);}
	.st65{clip-path:url(#SVGID_30_);fill:#FFFFFF;}
	.st66{clip-path:url(#SVGID_32_);fill:#F5B500;}
	.st67{clip-path:url(#SVGID_32_);fill:#FFFFFF;}
</style>
<g>
	<g>
		<rect x="0" y="-0.7" width="150.3" height="150.7"/>
	</g>
</g>
<g>
	<defs>
		<rect id="SVGID_21_" x="3" y="2.6" width="144.4" height="144.4"/>
	</defs>
	<clipPath id="SVGID_2_">
		<use xlink:href="#SVGID_21_"  style="overflow:visible;"/>
	</clipPath>
	<path style="clip-path:url(#SVGID_2_);fill:#FFFFFF;" d="M89.5,139.6c-3.8,0-6.8-3.1-6.8-6.8v-116c0-3.8,3.1-6.8,6.8-6.8
		s6.8,3.1,6.8,6.8v116C96.3,136.6,93.3,139.6,89.5,139.6"/>
	<path style="clip-path:url(#SVGID_2_);fill:#FFFFFF;" d="M118,139.6c-3.8,0-6.8-3.1-6.8-6.8v-116c0-3.8,3.1-6.8,6.8-6.8
		c3.8,0,6.8,3.1,6.8,6.8v116C124.8,136.6,121.8,139.6,118,139.6"/>
	<path style="clip-path:url(#SVGID_2_);fill:#F5B500;" d="M9.8,147c-1.8,0-3.5-0.7-4.8-2c-2.7-2.7-2.7-7,0-9.7L135.7,4.6
		c2.7-2.7,7-2.7,9.7,0c2.7,2.7,2.7,7,0,9.7L14.7,145C13.3,146.3,11.6,147,9.8,147"/>
	<path style="clip-path:url(#SVGID_2_);fill:#FFFFFF;" d="M32.4,139.6c-3.8,0-6.8-3.1-6.8-6.8v-116c0-3.8,3.1-6.8,6.8-6.8
		s6.8,3.1,6.8,6.8v116C39.3,136.6,36.2,139.6,32.4,139.6"/>
	<path style="clip-path:url(#SVGID_2_);fill:#FFFFFF;" d="M61,139.6c-3.8,0-6.8-3.1-6.8-6.8v-116c0-3.8,3.1-6.8,6.8-6.8
		c3.8,0,6.8,3.1,6.8,6.8v116C67.8,136.6,64.7,139.6,61,139.6"/>
</g>
</svg>
