<?xml version="1.0" encoding="utf-8"?>
<!-- Generator: Adobe Illustrator 19.1.0, SVG Export Plug-In . SVG Version: 6.00 Build 0)  -->
<svg version="1.1" baseProfile="tiny" id="Ebene_1" xmlns="http://www.w3.org/2000/svg" xmlns:xlink="http://www.w3.org/1999/xlink"
	 x="0px" y="0px" viewBox="0 0 150 150" xml:space="preserve">
<rect x="0" y="-0.2" width="150" height="150.3"/>
<path fill="#FABB00" d="M109.8,36.9c-0.3-0.1-0.6-0.2-0.6-0.7c0-0.4,0.1-0.6,0.4-0.7l-4.3-4.3c0,0.1-0.1,0.2-0.2,0.2l1.4,1.4v3.7
	c0,0,0,0,0.1,0c0.5,0,0.7,0.2,0.8,0.6c0.1,0.4-0.1,0.7-0.6,0.8c-0.1,0-0.2,0-0.3,0v9.2c0.1,0,0.1,0,0.2,0c0.4,0,0.7,0.3,0.7,0.7
	c0,0.4-0.2,0.7-0.7,0.7c-0.1,0-0.1,0-0.1,0v9.2c0.4,0,0.6,0.2,0.7,0.6c0.1,0.4-0.2,0.7-0.6,0.7c0,0-0.1,0-0.1,0v9.2c0,0,0,0,0,0
	c0.3,0,0.6,0.2,0.6,0.5c0,0.4-0.2,0.7-0.6,0.7c0,0,0,0-0.1,0v0.4l-7.4,7.4h-7c0,0.3-0.2,0.5-0.5,0.5c-0.4,0-0.6-0.1-0.7-0.5h-9.3
	c-0.1,0.3-0.3,0.4-0.7,0.4c-0.3,0-0.4-0.2-0.5-0.4h-7.5l1.3,1.3c0.1-0.1,0.2-0.2,0.4-0.2c0.4,0,0.7,0.2,0.7,0.7
	c0,0.2-0.1,0.4-0.2,0.5l1.4,1.4h1.9c0.1-0.1,0.3-0.3,0.6-0.3c0.2,0,0.4,0.1,0.5,0.3h12.9c-0.2-0.1-0.3-0.3-0.4-0.7
	c0.1-0.3,0.2-0.6,0.7-0.6c0.4,0,0.6,0.3,0.6,0.7c0,0.3-0.2,0.4-0.4,0.5h10c-0.2-0.1-0.4-0.2-0.4-0.6c0.1-0.3,0.2-0.6,0.7-0.6
	c0.3,0,0.5,0.2,0.6,0.5l4.4-4.4c-0.2-0.1-0.3-0.3-0.4-0.6c0-0.4,0.3-0.6,0.7-0.6c0.3,0,0.5,0.1,0.6,0.3l1.4-1.4v-2
	c-0.3-0.1-0.5-0.3-0.5-0.6c0-0.3,0.2-0.6,0.5-0.6v-9.2c-0.3-0.1-0.4-0.3-0.4-0.6c0-0.3,0.2-0.5,0.4-0.6v-9.3
	c-0.3-0.1-0.4-0.3-0.4-0.8c0.1-0.2,0.2-0.4,0.4-0.5v-2.5c0,0.4-0.3,0.6-0.7,0.6c-0.4,0-0.7-0.2-0.7-0.7c0-0.4,0.3-0.6,0.7-0.6
	c0.4,0,0.6,0.3,0.7,0.7V36.4l0,0C110.4,36.7,110.2,36.8,109.8,36.9z M78,78.5c-0.4,0-0.7-0.3-0.6-0.7c0-0.3,0.2-0.6,0.6-0.6
	c0.4,0,0.7,0.2,0.7,0.6C78.7,78.3,78.4,78.5,78,78.5z M82.3,80.6c-0.4,0.1-0.7-0.2-0.8-0.6c0-0.4,0.2-0.6,0.6-0.7
	c0.4,0,0.6,0.2,0.7,0.5C82.9,80.2,82.7,80.5,82.3,80.6z M85.5,79.7c-0.4,0-0.7-0.2-0.7-0.6c0-0.4,0.2-0.6,0.6-0.7
	c0.4,0,0.6,0.2,0.6,0.5C86,79.3,85.9,79.6,85.5,79.7z M88.5,78.5c-0.4-0.1-0.7-0.3-0.6-0.7c0.1-0.4,0.4-0.6,0.8-0.6
	c0.3,0,0.5,0.3,0.5,0.6C89.1,78.3,88.9,78.5,88.5,78.5z M95.8,79.7c-0.4-0.1-0.6-0.4-0.6-0.8c0-0.3,0.3-0.5,0.6-0.5
	c0.4,0,0.7,0.2,0.6,0.7C96.5,79.5,96.2,79.7,95.8,79.7z M99.1,78.7c-0.4,0-0.6-0.2-0.7-0.6c0-0.4,0.2-0.7,0.7-0.6
	c0.3,0,0.6,0.2,0.6,0.6C99.7,78.4,99.5,78.7,99.1,78.7z M102.1,77.6c-0.4-0.1-0.6-0.3-0.6-0.8c0.1-0.3,0.3-0.6,0.6-0.5
	c0.4,0,0.7,0.3,0.6,0.7C102.8,77.4,102.5,77.6,102.1,77.6z M103.7,72.9c0.1-0.4,0.3-0.7,0.7-0.6c0.4,0.1,0.6,0.4,0.6,0.8
	c0,0.3-0.3,0.5-0.7,0.5C103.9,73.5,103.7,73.3,103.7,72.9z M105.6,76.7c-0.4,0-0.7-0.1-0.7-0.6c0-0.4,0.2-0.7,0.6-0.7
	c0.4,0,0.6,0.3,0.6,0.7C106.1,76.4,105.9,76.6,105.6,76.7z M107.1,40.4c0-0.4,0.2-0.7,0.6-0.7c0.5,0,0.8,0.2,0.8,0.7
	c0,0.4-0.3,0.7-0.7,0.7C107.4,41.1,107.2,40.8,107.1,40.4z M107,50.8c0-0.4,0.3-0.6,0.7-0.6c0.4,0.1,0.6,0.3,0.6,0.7
	c0,0.4-0.3,0.7-0.7,0.6C107.2,51.5,107,51.2,107,50.8z M107,61.3c0-0.4,0.3-0.6,0.7-0.7c0.4,0,0.7,0.3,0.7,0.7
	c0,0.4-0.3,0.7-0.7,0.6C107.2,62,107,61.7,107,61.3z M107.5,72.5c-0.4,0-0.6-0.3-0.6-0.7c0-0.3,0.2-0.6,0.5-0.6
	c0.4,0,0.7,0.1,0.7,0.6C108.2,72.2,107.9,72.4,107.5,72.5z M108.7,65.1c-0.4,0-0.7-0.1-0.7-0.6c0-0.4,0.2-0.7,0.6-0.7
	c0.4,0,0.6,0.3,0.6,0.7C109.2,64.8,109,65.1,108.7,65.1z M110.4,67.6c0,0.4-0.2,0.6-0.6,0.6c-0.4,0.1-0.7-0.1-0.7-0.7
	c0.1-0.3,0.2-0.6,0.6-0.6C110.1,66.9,110.4,67.2,110.4,67.6z M110.4,57.2c-0.1,0.4-0.3,0.6-0.7,0.6c-0.4,0-0.6-0.3-0.6-0.8
	c0.1-0.4,0.3-0.6,0.7-0.5C110.2,56.5,110.4,56.8,110.4,57.2z M109.5,54c0,0.4-0.3,0.7-0.7,0.6c-0.4,0-0.6-0.3-0.6-0.7
	c0-0.4,0.3-0.6,0.7-0.6C109.2,53.4,109.5,53.6,109.5,54z M108.8,44.2c-0.5,0-0.7-0.2-0.7-0.7c0-0.4,0.2-0.7,0.7-0.7
	c0.4,0,0.7,0.2,0.7,0.7C109.5,43.9,109.2,44.1,108.8,44.2z M147.5,96.7C147.5,96.7,147.5,96.7,147.5,96.7l0.1-6.5h-4v4.5
	c0.1,0.1,0.2,0.3,0.2,0.5c0,0.2-0.1,0.4-0.2,0.5v3.6h-1.9c0,0.1,0,0.2,0,0.3c0,0.3-0.2,0.6-0.6,0.6c-0.5,0-0.6-0.3-0.7-0.6
	c0-0.1,0-0.2,0-0.2h-9.3c0,0,0,0.1,0,0.1c0,0.4-0.3,0.5-0.6,0.5c-0.4-0.1-0.7-0.3-0.6-0.7h-5.2v3.6h6.2c0,0,0-0.1,0-0.1
	c-0.1-0.4,0.2-0.7,0.6-0.7c0.4,0,0.7,0.2,0.7,0.6c0,0.1,0,0.2,0,0.2h9.3c0-0.1,0-0.1,0-0.2c0-0.4,0.2-0.6,0.6-0.6
	c0.4,0,0.7,0.2,0.7,0.7c0,0.1,0,0.1,0,0.2h4.9v-4.8c-0.1,0-0.1,0-0.2,0c-0.4,0-0.5-0.3-0.6-0.6C146.8,96.9,147,96.6,147.5,96.7z
	 M127.4,100.9c-0.4,0-0.6-0.2-0.7-0.7c0.1-0.3,0.2-0.6,0.7-0.6c0.3,0,0.6,0.2,0.6,0.6C128,100.6,127.8,100.9,127.4,100.9z
	 M134.6,102c-0.3-0.1-0.5-0.3-0.5-0.7c0.1-0.4,0.4-0.7,0.8-0.6c0.3,0.1,0.5,0.3,0.5,0.7C135.3,101.9,135,102,134.6,102z M138,101
	c-0.4,0.1-0.7-0.1-0.8-0.6c0-0.4,0.2-0.7,0.7-0.7c0.4,0,0.6,0.2,0.6,0.6C138.5,100.7,138.3,101,138,101z M145.4,90.4
	c0.4,0,0.5,0.3,0.6,0.6c0,0.4-0.2,0.6-0.5,0.6c-0.4,0-0.7-0.1-0.8-0.7C144.8,90.7,145,90.4,145.4,90.4z M143.6,98.2
	c0-0.4,0.3-0.7,0.7-0.6c0.3,0,0.6,0.3,0.6,0.6c0,0.5-0.3,0.6-0.7,0.6C143.8,98.8,143.7,98.6,143.6,98.2z M145.3,102.2
	c-0.4,0-0.7-0.2-0.7-0.6c0-0.4,0.2-0.6,0.6-0.6c0.4,0,0.7,0.2,0.7,0.6C145.8,101.9,145.6,102.1,145.3,102.2z M146.3,94.8
	c-0.3,0-0.6-0.2-0.6-0.6c0-0.4,0.2-0.7,0.7-0.7c0.5,0.1,0.7,0.4,0.6,0.8C146.9,94.6,146.6,94.8,146.3,94.8z M81.8,56.2
	c-0.1,0.2-0.3,0.3-0.6,0.3c-0.4,0-0.6-0.3-0.7-0.7c0-0.4,0.3-0.7,0.7-0.6c0.2,0,0.4,0.1,0.5,0.2V41.6h12.2V38h-0.3
	c0,0.1,0,0.1,0,0.2c0,0.4-0.3,0.6-0.7,0.7c-0.4,0-0.7-0.3-0.7-0.7c0-0.1,0-0.1,0-0.2h-9.1c0,0.5-0.3,0.8-0.8,0.7
	c-0.4-0.1-0.6-0.3-0.6-0.7h-4v5c0,0.1,0,0.1,0,0.2c0,0.1,0,0.1,0,0.2v2.6c0.1-0.1,0.2-0.2,0.4-0.2c0.4,0,0.7,0.2,0.7,0.7
	c0,0.4-0.2,0.7-0.7,0.7c-0.2,0-0.4,0-0.5-0.1v6.7c0,0,0,0,0,0c0,0,0,0,0,0.1v2.5c0.1,0,0.2-0.1,0.4-0.1c0.4,0.1,0.6,0.4,0.6,0.8
	c0,0.4-0.3,0.6-0.7,0.6c-0.1,0-0.1,0-0.2-0.1v7.1h4V56.2z M89.8,38.4c0.5-0.1,0.8,0.2,0.8,0.6c0,0.4-0.2,0.6-0.6,0.7
	c-0.4,0-0.7-0.2-0.8-0.6C89.2,38.8,89.4,38.5,89.8,38.4z M86.9,39.5c0.4,0.1,0.6,0.3,0.6,0.8c-0.1,0.4-0.3,0.6-0.7,0.6
	c-0.5,0-0.7-0.3-0.7-0.8C86.2,39.7,86.5,39.5,86.9,39.5z M80.4,53.4c-0.4,0-0.6-0.3-0.7-0.6c0-0.5,0.3-0.7,0.7-0.7
	c0.4,0,0.7,0.2,0.7,0.7C81,53.1,80.8,53.4,80.4,53.4z M81,42.3c0,0.4-0.3,0.7-0.7,0.7c-0.5,0-0.8-0.3-0.7-0.8
	c0.1-0.4,0.3-0.6,0.8-0.6C80.8,41.6,81,41.9,81,42.3z M78.7,39.1c0-0.5,0.3-0.7,0.8-0.7c0.4,0.1,0.6,0.4,0.6,0.8
	c0,0.4-0.3,0.6-0.7,0.6C79,39.7,78.7,39.5,78.7,39.1z M78.6,49.7c0-0.4,0.1-0.7,0.5-0.8c0.4-0.1,0.7,0.1,0.8,0.5
	c0.1,0.4-0.1,0.7-0.5,0.8C79,50.4,78.7,50.1,78.6,49.7z M78.6,60c0.1-0.3,0.3-0.6,0.7-0.6c0.4,0,0.7,0.3,0.7,0.7
	c0,0.4-0.3,0.6-0.7,0.6C78.8,60.7,78.6,60.5,78.6,60z M80.3,63.8c-0.4,0.1-0.7-0.1-0.7-0.7c0.1-0.3,0.2-0.6,0.6-0.6
	c0.4,0,0.7,0.3,0.7,0.7C80.9,63.6,80.6,63.8,80.3,63.8z M37.2,38.1c0.2,0,0.4,0.1,0.5,0.3V38h-1.2v0.5
	C36.7,38.2,36.9,38.1,37.2,38.1z M104.3,30.2l-1.1-1.1h-0.4l1.3,1.3C104.2,30.3,104.2,30.2,104.3,30.2z M56,29.3
	c0,0.4-0.2,0.7-0.5,0.8V38h-3.8c-0.1,0.4-0.3,0.6-0.7,0.5c-0.3,0-0.5-0.2-0.6-0.5h-0.1v6.6c0.2,0.1,0.3,0.3,0.3,0.5
	c0,0.3-0.1,0.5-0.3,0.6V48c0.1-0.2,0.3-0.3,0.5-0.3c0.4,0,0.7,0.2,0.7,0.6c0,0.4-0.2,0.7-0.7,0.7c-0.3,0-0.5-0.1-0.6-0.3v6.5
	c0.1,0.1,0.1,0.2,0.2,0.4c0,0.2,0,0.4-0.2,0.5v2.3c0.1-0.2,0.3-0.3,0.5-0.3c0.4,0,0.7,0.2,0.7,0.6c0,0.4-0.2,0.7-0.6,0.7
	c-0.3,0-0.5-0.1-0.6-0.3v6.6c0.1,0.1,0.1,0.2,0.1,0.4c0,0.2,0,0.4-0.1,0.5v2.2c0.1-0.1,0.2-0.1,0.4-0.1c0.4,0,0.7,0.2,0.7,0.6
	c0,0.4-0.3,0.7-0.7,0.7c-0.2,0-0.3-0.1-0.4-0.1v9.4c0.1-0.1,0.2-0.2,0.4-0.1c0.4,0,0.6,0.3,0.6,0.7c0,0.3-0.3,0.5-0.6,0.6
	c-0.2,0-0.4,0-0.5-0.1v9.4c0.1,0,0.2-0.1,0.3,0c0.4,0,0.6,0.3,0.6,0.7c0,0.4-0.3,0.6-0.7,0.6c-0.1,0-0.1,0-0.2-0.1v8.2h-3.4
	c-0.1,0.2-0.3,0.3-0.6,0.3c-0.2,0-0.4-0.1-0.5-0.3h-2.2c0.2,0.1,0.3,0.3,0.3,0.6c-0.1,0.4-0.3,0.6-0.8,0.6c-0.4,0-0.6-0.3-0.6-0.7
	c0-0.2,0.1-0.4,0.2-0.5h-2.6l1.6,3.6h1.7c0-0.3,0.2-0.5,0.6-0.6c0.4,0,0.7,0.2,0.7,0.6h9.5v-2.5c-0.1,0.2-0.3,0.3-0.6,0.3
	c-0.3,0-0.6-0.2-0.7-0.6c0-0.4,0.2-0.7,0.6-0.7c0.3,0,0.5,0.1,0.6,0.3v-9.7c-0.1,0.1-0.2,0.2-0.4,0.3c-0.4,0.1-0.7-0.1-0.8-0.6
	c0-0.3,0.1-0.6,0.5-0.7c0.3-0.1,0.6,0,0.7,0.3v-9.8c-0.1,0.1-0.2,0.1-0.4,0.1c-0.4-0.1-0.6-0.3-0.6-0.7c0-0.3,0.2-0.6,0.6-0.6
	c0.2,0,0.3,0,0.4,0.1v-9.4c-0.1,0.1-0.2,0.1-0.4,0.1c-0.4,0-0.7-0.2-0.6-0.7c0-0.4,0.2-0.6,0.7-0.7c0.1,0,0.3,0.1,0.4,0.1v-9.3
	c-0.1,0-0.2,0-0.3,0c-0.4,0-0.6-0.3-0.6-0.7c0-0.4,0.3-0.6,0.7-0.6c0.1,0,0.1,0,0.2,0.1v-9.2c-0.1,0-0.1,0-0.2,0
	c-0.4,0-0.7-0.2-0.7-0.7c0-0.4,0.2-0.6,0.7-0.7c0.1,0,0.2,0,0.3,0v-5h5.2v-9.3c-0.3,0-0.5-0.3-0.7-0.6c0-0.4,0.2-0.7,0.6-0.8
	c0,0,0,0,0.1,0v-1.8h-3.5C55.9,29.1,55.9,29.2,56,29.3z M51.2,41c0.1-0.3,0.2-0.6,0.6-0.7c0.5,0,0.8,0.2,0.8,0.7
	c0,0.4-0.3,0.7-0.7,0.7C51.5,41.7,51.3,41.4,51.2,41z M51.3,51.5c0-0.4,0.3-0.7,0.7-0.7c0.4,0,0.7,0.2,0.7,0.7
	c-0.1,0.4-0.3,0.6-0.7,0.6C51.5,52.2,51.3,51.9,51.3,51.5z M51.1,61.8c0.1-0.2,0.3-0.5,0.7-0.5c0.4,0,0.6,0.3,0.6,0.7
	c0,0.4-0.3,0.6-0.7,0.6C51.3,62.6,51.1,62.3,51.1,61.8z M51.1,72.3c0.1-0.4,0.4-0.6,0.8-0.5c0.3,0,0.5,0.3,0.5,0.6
	c0,0.4-0.2,0.7-0.7,0.6C51.3,73,51.1,72.8,51.1,72.3z M51,83c0-0.4,0.2-0.7,0.7-0.7c0.3,0.1,0.6,0.3,0.6,0.7c0,0.4-0.3,0.6-0.7,0.6
	C51.2,83.5,51,83.3,51,83z M47.3,102.5c-0.4,0-0.7-0.2-0.7-0.6c0-0.4,0.2-0.7,0.6-0.7c0.4,0,0.7,0.2,0.7,0.6
	C47.9,102.2,47.7,102.5,47.3,102.5z M50.6,101.4c-0.4,0-0.7-0.2-0.7-0.6c0-0.4,0.2-0.7,0.6-0.7c0.4,0,0.7,0.2,0.7,0.6
	C51.2,101.1,51,101.4,50.6,101.4z M51,93.4c0-0.4,0.2-0.7,0.7-0.7c0.4,0,0.7,0.2,0.7,0.6c0,0.4-0.2,0.7-0.7,0.7
	C51.2,94.1,51,93.8,51,93.4z M53.2,96.5c0,0.4-0.2,0.7-0.6,0.7c-0.4,0-0.7-0.2-0.7-0.6c0-0.4,0.2-0.7,0.6-0.7
	C52.9,95.9,53.2,96,53.2,96.5z M53.4,86c0.1,0.4-0.1,0.7-0.6,0.7c-0.4,0-0.7-0.2-0.8-0.6c0-0.4,0.2-0.7,0.6-0.7
	C53.1,85.3,53.3,85.5,53.4,86z M53.3,75.5c0,0.4-0.2,0.7-0.6,0.7c-0.4,0-0.6-0.3-0.7-0.7c0.1-0.4,0.3-0.6,0.7-0.6
	C53.1,75,53.3,75.2,53.3,75.5z M53.5,65.1c0,0.4-0.3,0.6-0.7,0.6c-0.4,0-0.6-0.3-0.6-0.7c0-0.4,0.3-0.6,0.8-0.6
	C53.3,64.5,53.6,64.7,53.5,65.1z M53.6,54.6c0,0.4-0.2,0.7-0.6,0.7c-0.5,0-0.7-0.2-0.8-0.6c0-0.4,0.2-0.7,0.6-0.7
	C53.2,53.9,53.5,54.1,53.6,54.6z M53,44.8c-0.4,0-0.7-0.2-0.7-0.7c0-0.4,0.3-0.6,0.7-0.7c0.5,0,0.7,0.3,0.7,0.7
	C53.7,44.5,53.4,44.8,53,44.8z M55,40.6c-0.4,0-0.6-0.3-0.7-0.7c0-0.4,0.3-0.7,0.7-0.7c0.4,0,0.7,0.2,0.7,0.6
	C55.8,40.3,55.5,40.6,55,40.6z M58.9,38.9c0,0.5-0.3,0.8-0.8,0.7c-0.4,0-0.6-0.3-0.6-0.7c0.1-0.4,0.3-0.7,0.7-0.7
	C58.6,38.3,58.9,38.5,58.9,38.9z M58,35.9c-0.1,0.4-0.3,0.6-0.8,0.6c-0.4-0.1-0.6-0.3-0.6-0.7c0-0.4,0.3-0.7,0.7-0.7
	C57.7,35.1,58,35.4,58,35.9z M56.9,32.5c0,0.5-0.3,0.8-0.7,0.8c-0.5,0-0.8-0.3-0.7-0.8c0-0.4,0.3-0.6,0.7-0.7
	C56.6,31.8,56.9,32.1,56.9,32.5z M37.7,39.2c-0.1,0.2-0.4,0.3-0.7,0.3c-0.3,0-0.4-0.2-0.5-0.4v2.5h1.2V39.2z M19,80.3
	c-0.2,0-0.3,0-0.4-0.1v6.4h4v-7.5c-0.1,0-0.2,0.1-0.4,0.1c-0.4,0-0.6-0.3-0.6-0.7c0.1-0.4,0.3-0.6,0.7-0.6c0.1,0,0.2,0,0.3,0.1v-9.3
	c-0.1,0-0.2,0.1-0.3,0.1c-0.4,0-0.7-0.3-0.7-0.7c0-0.4,0.3-0.6,0.7-0.7c0.1,0,0.2,0,0.3,0.1v-3l-3.8-8.7c0,0.1-0.1,0.1-0.2,0.2V58
	c0.1-0.1,0.3-0.2,0.5-0.2c0.4,0,0.7,0.3,0.7,0.7c0,0.4-0.3,0.6-0.7,0.7c-0.2,0-0.4-0.1-0.5-0.2v6.5c0.1,0.1,0.1,0.3,0.1,0.4
	c0,0.1,0,0.2-0.1,0.3v2.3c0.1-0.1,0.3-0.2,0.5-0.2c0.4,0,0.7,0.2,0.7,0.7c0,0.4-0.2,0.7-0.7,0.7c-0.2,0-0.4-0.1-0.5-0.2V76
	c0.1,0.1,0.1,0.2,0.1,0.4c0,0.1,0,0.3-0.1,0.3v2.4c0.1-0.1,0.2-0.1,0.3-0.1c0.4,0,0.7,0.2,0.7,0.6C19.6,80,19.4,80.3,19,80.3z
	 M21.7,85.9c0,0.4-0.3,0.6-0.7,0.6c-0.4-0.1-0.6-0.3-0.6-0.7c0-0.4,0.3-0.6,0.7-0.6C21.4,85.2,21.7,85.5,21.7,85.9z M21.8,75.5
	c0,0.4-0.3,0.6-0.7,0.6c-0.4-0.1-0.6-0.3-0.6-0.8c0.1-0.4,0.3-0.6,0.7-0.6C21.6,74.8,21.9,75.1,21.8,75.5z M21.8,65
	c-0.1,0.4-0.3,0.6-0.7,0.6c-0.4,0-0.6-0.3-0.6-0.7c0.1-0.4,0.3-0.6,0.7-0.6C21.6,64.3,21.9,64.6,21.8,65z M19.6,61.9
	c0-0.4,0.2-0.7,0.6-0.7c0.4,0,0.7,0.2,0.7,0.6c0,0.4-0.2,0.7-0.6,0.7C19.8,62.5,19.6,62.3,19.6,61.9z M19.4,72.3
	c0-0.4,0.2-0.6,0.6-0.7c0.5,0,0.7,0.2,0.7,0.7c0,0.4-0.2,0.7-0.6,0.7C19.7,72.9,19.4,72.7,19.4,72.3z M20.1,82.1
	c0.4,0,0.6,0.3,0.6,0.7c-0.1,0.4-0.3,0.6-0.7,0.6c-0.4-0.1-0.6-0.3-0.6-0.8C19.4,82.3,19.7,82.1,20.1,82.1z M142.4,82.1
	c-0.1,0-0.1,0-0.2,0.1c-0.4,0-0.7-0.2-0.7-0.7c0-0.4,0.2-0.6,0.6-0.6c0.1,0,0.2,0,0.3,0v-9.3c-0.4,0-0.6-0.2-0.7-0.6
	c0-0.4,0.2-0.7,0.6-0.7c0,0,0,0,0.1,0v-9.2c0,0,0,0,0,0c-0.4,0-0.7-0.3-0.7-0.7c0-0.4,0.3-0.7,0.7-0.6c0,0,0,0,0,0v-9.2
	c-0.3-0.1-0.6-0.3-0.6-0.7c0-0.4,0.2-0.6,0.6-0.6v-9.1c-0.3,0-0.5-0.3-0.6-0.6c0-0.4,0.2-0.6,0.6-0.7v-9.8h-4v7.6
	c0.3,0.1,0.6,0.3,0.6,0.7c0,0.4-0.2,0.6-0.6,0.7v9.1c0.3,0.1,0.5,0.3,0.5,0.7c0,0.4-0.2,0.6-0.5,0.6v9.2c0.2,0.1,0.3,0.2,0.3,0.5
	c0.1,0.3,0,0.6-0.3,0.7v9.3c0.2,0.1,0.3,0.3,0.3,0.5c0,0.3-0.1,0.5-0.3,0.6v2.4c0.1-0.3,0.3-0.5,0.7-0.5c0.4,0,0.5,0.3,0.5,0.6
	c0,0.4-0.2,0.6-0.6,0.6c-0.4,0-0.6-0.1-0.7-0.5v6.8c0.1,0.1,0.2,0.3,0.2,0.5c0,0.2-0.1,0.3-0.2,0.4v2.7c0.1-0.4,0.4-0.6,0.7-0.5
	c0.3,0.1,0.5,0.3,0.5,0.7c0,0.5-0.3,0.6-0.7,0.6c-0.2,0-0.4-0.2-0.5-0.4v3.8h4V82.1z M141.9,67.9c0,0.4-0.2,0.6-0.5,0.6
	c-0.4,0.1-0.7-0.1-0.8-0.5c-0.1-0.4,0.2-0.7,0.7-0.8C141.6,67.3,141.9,67.4,141.9,67.9z M142.1,57.4c0,0.4-0.2,0.7-0.7,0.7
	c-0.4,0-0.6-0.3-0.7-0.6c0-0.4,0.2-0.7,0.7-0.7C141.8,56.8,142.1,57,142.1,57.4z M141,54.1c0,0.4-0.2,0.7-0.6,0.7
	c-0.4,0-0.7-0.2-0.7-0.7c0-0.4,0.2-0.6,0.7-0.7C140.7,53.4,141,53.7,141,54.1z M139.6,43.6c0-0.4,0.3-0.6,0.7-0.7
	c0.4,0,0.7,0.3,0.7,0.7c0,0.4-0.2,0.7-0.6,0.7C139.9,44.4,139.6,44.1,139.6,43.6z M142.1,46.9c0,0.4-0.3,0.7-0.7,0.7
	c-0.4,0-0.7-0.3-0.7-0.7c0-0.4,0.2-0.7,0.7-0.7C141.9,46.3,142.1,46.5,142.1,46.9z M142.3,36.2c0.1,0.5-0.3,0.7-0.7,0.8
	c-0.4-0.1-0.7-0.2-0.7-0.7c0-0.5,0.2-0.8,0.7-0.8C142,35.6,142.3,35.8,142.3,36.2z M141.2,33.3c0,0.4-0.3,0.6-0.7,0.7
	c-0.5-0.1-0.8-0.3-0.7-0.8c0-0.4,0.3-0.7,0.7-0.6C141,32.5,141.3,32.7,141.2,33.3z M138.7,30.1c0-0.4,0.2-0.7,0.6-0.8
	c0.5-0.1,0.8,0.2,0.9,0.6c0,0.5-0.3,0.8-0.7,0.8C139,30.8,138.7,30.5,138.7,30.1z M138.7,40.5c0-0.4,0.3-0.7,0.7-0.7
	c0.4,0,0.7,0.3,0.7,0.7c0,0.5-0.3,0.8-0.8,0.7C138.9,41.2,138.7,40.9,138.7,40.5z M138.6,51c0-0.3,0.2-0.6,0.6-0.7
	c0.4,0,0.7,0.2,0.7,0.6c0.1,0.4-0.2,0.7-0.6,0.7C138.9,51.7,138.6,51.5,138.6,51z M139.2,62.1c-0.4,0-0.6-0.2-0.6-0.5
	c-0.1-0.4,0.1-0.7,0.6-0.7c0.4,0,0.7,0.2,0.7,0.6C139.9,61.9,139.6,62.1,139.2,62.1z M139.7,64.8c0-0.4,0.2-0.6,0.6-0.7
	c0.4,0,0.6,0.3,0.6,0.7c0,0.3-0.2,0.6-0.6,0.6C140,65.4,139.7,65.2,139.7,64.8z M139.6,75.1c0.1-0.4,0.3-0.5,0.7-0.5
	c0.3,0,0.6,0.2,0.6,0.6c0,0.4-0.3,0.6-0.7,0.7C139.7,75.8,139.5,75.5,139.6,75.1z M140.1,86.4c-0.4,0-0.6-0.3-0.6-0.6
	c0-0.4,0.2-0.7,0.7-0.6c0.3,0,0.6,0.3,0.6,0.6C140.8,86.2,140.5,86.3,140.1,86.4z M140.6,78.3c0.1-0.4,0.4-0.6,0.8-0.6
	c0.4,0,0.5,0.3,0.5,0.7c0,0.3-0.2,0.6-0.6,0.6C140.9,79,140.7,78.8,140.6,78.3z M125.9,42.4h-1.2V46h1.2V42.4z M23.8,91.8
	c0.1,0.1,0.1,0.3,0.1,0.4c0,0.1,0,0.2-0.1,0.3v2.2c0.1-0.1,0.3-0.1,0.4-0.1c0.4,0,0.7,0.3,0.6,0.7c0,0.4-0.3,0.6-0.7,0.6
	c-0.1,0-0.2-0.1-0.3-0.1v3.3h-1.1c0.1,0.1,0.1,0.2,0.1,0.4c0,0.4-0.3,0.6-0.7,0.6c-0.4,0-0.7-0.3-0.6-0.7c0-0.1,0.1-0.2,0.1-0.3H12
	c0.1,0.1,0.1,0.2,0.1,0.4c0,0.4-0.3,0.7-0.7,0.7c-0.4,0-0.6-0.2-0.7-0.6c0-0.2,0.1-0.3,0.1-0.4H4.9v1.8c0.1,0,0.1,0,0.2-0.1
	c0.4,0,0.7,0.2,0.7,0.6c0,0.5-0.2,0.8-0.7,0.8c-0.1,0-0.2,0-0.2,0v0.5h6.9c0,0,0-0.1,0-0.1c0-0.4,0.3-0.6,0.7-0.7
	c0.4,0,0.7,0.3,0.7,0.7c0,0,0,0.1,0,0.1h9.2c0,0,0-0.1,0-0.1c0-0.4,0.3-0.6,0.7-0.6c0.4,0,0.6,0.3,0.6,0.7c0,0,0,0.1,0,0.1h4v-7.8
	c-0.1,0.1-0.2,0.2-0.4,0.2c-0.4,0-0.7-0.2-0.7-0.7c0-0.4,0.2-0.7,0.6-0.7c0.2,0,0.4,0,0.5,0.1v-3.6h-4V91.8z M8.2,101.1
	c-0.4-0.1-0.6-0.3-0.6-0.8c0.1-0.4,0.3-0.6,0.8-0.6C8.7,99.8,9,100,9,100.4C8.9,100.9,8.6,101.2,8.2,101.1z M15.7,102.2
	c-0.5,0-0.8-0.2-0.8-0.7c0-0.4,0.3-0.6,0.7-0.7c0.4,0,0.7,0.2,0.7,0.7C16.4,101.9,16.2,102.2,15.7,102.2z M18.8,101.3
	c-0.4,0-0.6-0.2-0.7-0.6c0-0.5,0.2-0.7,0.6-0.8c0.4-0.1,0.7,0.1,0.8,0.5C19.5,100.9,19.3,101.3,18.8,101.3z M26.9,101.6
	c0.1,0.4-0.2,0.7-0.6,0.7c-0.4,0.1-0.7-0.2-0.8-0.6c0-0.4,0.2-0.7,0.6-0.8C26.5,101,26.8,101.2,26.9,101.6z M26.3,90.5
	c0.4,0,0.7,0.2,0.7,0.7c0,0.4-0.2,0.7-0.7,0.7c-0.4,0-0.6-0.3-0.7-0.6C25.7,90.8,25.9,90.6,26.3,90.5z M25.9,98.6
	c0,0.4-0.3,0.6-0.7,0.6c-0.4,0-0.7-0.3-0.6-0.7c0-0.4,0.3-0.6,0.8-0.6C25.7,97.9,25.9,98.2,25.9,98.6z M106.6,90.3v8.9h-7.1
	c0,0.3-0.2,0.5-0.5,0.6c-0.4,0.1-0.7-0.1-0.8-0.6c0,0,0,0,0,0H89c0,0.4-0.3,0.6-0.7,0.6c-0.4,0-0.6-0.2-0.6-0.6h-9.3
	c-0.1,0.3-0.3,0.4-0.6,0.4c-0.3,0-0.6-0.1-0.7-0.4h-7.9v3.6H89c-0.1-0.1-0.2-0.3-0.3-0.5c0-0.5,0.3-0.7,0.7-0.7
	c0.4,0,0.7,0.2,0.7,0.7c0,0.2-0.1,0.4-0.2,0.5h9.7c-0.2-0.1-0.2-0.3-0.2-0.5c0-0.4,0.2-0.7,0.7-0.6c0.4,0,0.7,0.2,0.7,0.7
	c0,0.2-0.1,0.4-0.3,0.5h9.6c-0.1-0.1-0.1-0.2-0.1-0.4c0-0.4,0.3-0.7,0.7-0.6c0,0,0,0,0,0v-9.2c0,0-0.1,0-0.1,0
	c-0.3,0-0.6-0.3-0.6-0.6c0-0.4,0.3-0.6,0.7-0.7v-1h-3.7C106.7,90.2,106.7,90.2,106.6,90.3z M71.5,101.6c-0.4,0-0.6-0.3-0.7-0.7
	c0-0.4,0.3-0.7,0.7-0.6c0.4,0,0.7,0.3,0.6,0.7C72.2,101.3,71.9,101.6,71.5,101.6z M74.7,100.6c-0.4,0-0.7-0.3-0.7-0.7
	c0-0.4,0.3-0.6,0.6-0.7c0.4,0,0.7,0.2,0.7,0.7C75.4,100.4,75.1,100.6,74.7,100.6z M79,102.6c-0.4,0-0.7-0.2-0.7-0.6
	c0-0.4,0.2-0.7,0.6-0.7c0.4,0,0.7,0.2,0.7,0.6C79.6,102.4,79.4,102.6,79,102.6z M82,101.7c-0.4-0.1-0.6-0.3-0.6-0.7
	c0.1-0.4,0.3-0.6,0.7-0.6c0.4,0.1,0.6,0.3,0.6,0.7C82.7,101.6,82.4,101.7,82,101.7z M85.2,100.6c-0.4,0-0.6-0.3-0.6-0.8
	c0.1-0.4,0.3-0.6,0.7-0.5c0.4,0,0.7,0.3,0.6,0.7C85.8,100.4,85.6,100.7,85.2,100.6z M92.5,101.7c-0.4,0-0.6-0.3-0.6-0.8
	c0.1-0.2,0.3-0.5,0.7-0.5c0.4,0,0.6,0.3,0.6,0.7C93.2,101.5,93,101.7,92.5,101.7z M95.7,100.8c-0.4,0-0.7-0.3-0.6-0.7
	c0-0.4,0.3-0.6,0.7-0.7c0.4,0,0.6,0.3,0.6,0.7C96.4,100.6,96.1,100.8,95.7,100.8z M103.1,101.9c-0.4,0-0.6-0.3-0.6-0.7
	c0-0.4,0.3-0.6,0.7-0.6c0.3,0,0.6,0.2,0.6,0.6C103.8,101.6,103.5,101.9,103.1,101.9z M106.4,100.7c-0.4,0.1-0.7-0.1-0.7-0.6
	c0-0.4,0.2-0.7,0.6-0.7c0.4,0,0.7,0.2,0.7,0.6C106.9,100.5,106.7,100.7,106.4,100.7z M110.1,99.2c0,0.4-0.2,0.6-0.5,0.6
	c-0.4,0.1-0.7-0.1-0.7-0.6c0-0.4,0.2-0.7,0.6-0.7C109.8,98.5,110,98.8,110.1,99.2z M109.1,95.9c0,0.4-0.2,0.6-0.7,0.7
	c-0.3-0.1-0.6-0.3-0.6-0.7c0-0.4,0.2-0.6,0.5-0.6C108.8,95.2,109.1,95.4,109.1,95.9z M107.4,92.1c0.3,0,0.6,0.2,0.6,0.6
	c0,0.4-0.2,0.7-0.7,0.7c-0.3-0.1-0.6-0.2-0.6-0.7C106.7,92.3,107,92.1,107.4,92.1z M6.1,41.3V39c-0.1,0.1-0.3,0.2-0.6,0.1
	c-0.4,0-0.6-0.3-0.6-0.8c0-0.2,0.1-0.3,0.2-0.4H4.9v3.6H6C6,41.5,6,41.4,6.1,41.3z M21.1,30.3c0,0.2-0.1,0.3-0.2,0.4l1,2.3
	c0.1,0.1,0.2,0.3,0.2,0.5l1.1,2.4l0.2,0c0,0.1-0.1,0.2-0.1,0.2L30.1,51c0.1-0.2,0.3-0.3,0.5-0.3c0.4,0,0.7,0.2,0.7,0.6
	c0,0.4-0.2,0.7-0.6,0.7c-0.1,0-0.1,0-0.2,0l0.9,1.9c0.1-0.1,0.2-0.1,0.4-0.1c0.4,0.1,0.6,0.3,0.6,0.7c0,0.4-0.2,0.6-0.5,0.6l0.8,1.8
	c0,0,0.1,0,0.1,0c0.4,0,0.6,0.3,0.6,0.7c0,0.2-0.1,0.4-0.2,0.5l1,2.1c0.1,0.1,0.2,0.2,0.2,0.4l3.2,7.1v-4.3
	c-0.2-0.1-0.3-0.3-0.3-0.6c0-0.2,0.1-0.4,0.2-0.5L28.4,42c-0.1,0.3-0.3,0.5-0.7,0.5c-0.4,0-0.6-0.3-0.7-0.6c0-0.4,0.2-0.7,0.6-0.7
	c0.1,0,0.3,0,0.4,0.1l-0.9-2c-0.1,0.1-0.3,0.2-0.6,0.2c-0.4,0-0.6-0.3-0.6-0.7c0-0.4,0.3-0.6,0.7-0.7l-0.8-1.8c-0.1,0-0.1,0-0.2,0
	c-0.4-0.1-0.6-0.3-0.6-0.8c0-0.2,0.1-0.3,0.2-0.4l-2.7-5.9h-2.3l0.2,0.4C20.8,29.5,21.1,29.8,21.1,30.3z M30.5,48.2
	c0,0.4-0.3,0.7-0.7,0.6c-0.4,0-0.7-0.3-0.7-0.7c0-0.4,0.3-0.6,0.7-0.7C30.2,47.5,30.5,47.8,30.5,48.2z M28.7,44.4
	c0.4,0,0.7,0.3,0.7,0.7c0,0.4-0.3,0.7-0.7,0.7c-0.4,0-0.7-0.3-0.7-0.8C28.1,44.6,28.3,44.4,28.7,44.4z"/>
<path fill="#FFFFFF" d="M142.1,91.4v-3.3H137v-0.8c0,0,0,0,0,0c-0.4,0-0.7-0.2-0.7-0.6c0.1-0.4,0.3-0.7,0.7-0.6v-9.2
	c-0.3,0-0.5-0.3-0.5-0.6c0-0.4,0.2-0.6,0.5-0.6v-9.3c-0.3,0-0.5-0.2-0.5-0.5c0-0.4,0.1-0.6,0.5-0.7v-9.2c-0.3-0.1-0.4-0.3-0.4-0.6
	c0-0.3,0.2-0.5,0.4-0.6v-9.2c-0.2-0.1-0.4-0.3-0.4-0.6c0-0.4,0.1-0.6,0.4-0.7v-9.2c-0.2-0.1-0.3-0.3-0.4-0.6
	c0.1-0.3,0.2-0.5,0.4-0.6v-2.3c-0.1,0.3-0.4,0.5-0.8,0.5c-0.4,0-0.6-0.3-0.7-0.7c0-0.4,0.3-0.7,0.7-0.7c0.4,0,0.7,0.2,0.8,0.5V27
	h-8.2l-3.3,3.3c0.1,0,0.2,0,0.3,0c0.5,0,0.8,0.3,0.7,0.8c0,0.4-0.3,0.6-0.7,0.7c-0.5-0.1-0.8-0.3-0.7-0.8c0-0.1,0-0.1,0-0.2
	l-2.8,2.8v7.4h3c0.1-0.1,0.3-0.2,0.5-0.1c0.2,0,0.3,0.1,0.4,0.1h1.3v6.3c0.1,0,0.2-0.1,0.3-0.1c0.4,0,0.7,0.3,0.7,0.7
	c0,0.4-0.3,0.7-0.7,0.7c-0.1,0-0.2,0-0.3-0.1v9.3c0.1,0,0.1,0,0.2,0c0.4,0,0.7,0.3,0.6,0.7c0,0.4-0.3,0.6-0.8,0.6c0,0-0.1,0-0.1,0
	v9.2c0.1,0,0.2,0,0.3,0c0.4,0.1,0.6,0.4,0.6,0.8c0,0.3-0.3,0.5-0.7,0.5c-0.1,0-0.1,0-0.2,0v9.3c0.4,0,0.6,0.2,0.6,0.6
	c0,0.4-0.2,0.6-0.5,0.7c0,0-0.1,0-0.1,0v8.1h-3.8c-0.1,0.1-0.3,0.1-0.5,0.1c-0.1,0-0.2-0.1-0.3-0.1h-0.5v6.3
	c0.3,0.1,0.5,0.3,0.5,0.6c0,0.3-0.2,0.5-0.5,0.6v2h0.5c0.1-0.1,0.2-0.1,0.4-0.1c0.2,0,0.4,0,0.5,0.1h2.2c-0.1-0.1-0.2-0.3-0.2-0.5
	c0-0.4,0.3-0.5,0.6-0.5c0.3,0,0.6,0.2,0.6,0.6c0,0.2-0.1,0.4-0.2,0.5h6.8c0,0,0.1,0,0.1,0c0,0,0.1,0,0.1,0h2.5
	c-0.1-0.1-0.2-0.3-0.2-0.5c0-0.5,0.3-0.6,0.7-0.6c0.4,0.1,0.6,0.3,0.5,0.6c0,0.2-0.1,0.3-0.2,0.4h4.8v-5c-0.3-0.1-0.6-0.2-0.5-0.6
	C141.6,91.6,141.8,91.4,142.1,91.4z M123,35.2c0-0.4,0.2-0.7,0.7-0.8c0.5,0,0.8,0.3,0.8,0.7c0,0.5-0.3,0.8-0.8,0.7
	C123.2,35.9,123,35.6,123,35.2z M124.5,39c-0.4,0-0.6-0.3-0.6-0.7c0-0.4,0.3-0.7,0.7-0.7c0.4,0,0.7,0.3,0.7,0.7
	C125.3,38.8,125.1,39.1,124.5,39z M123.7,90.9c0-0.5,0.3-0.6,0.6-0.7c0.4,0,0.6,0.2,0.6,0.6c0,0.4-0.2,0.7-0.7,0.7
	C123.9,91.5,123.7,91.3,123.7,90.9z M125.3,94.7c-0.4,0-0.7-0.2-0.7-0.6c0-0.4,0.3-0.6,0.7-0.6c0.4,0,0.6,0.2,0.6,0.6
	C125.9,94.4,125.7,94.6,125.3,94.7z M136.6,83.6c0,0.4-0.3,0.5-0.6,0.5c-0.4-0.1-0.7-0.3-0.6-0.7c0-0.3,0.3-0.6,0.6-0.5
	C136.4,82.9,136.6,83.2,136.6,83.6z M132.9,63c0.4,0,0.7,0.2,0.7,0.6c0,0.4-0.2,0.7-0.7,0.7c-0.4,0-0.6-0.2-0.6-0.5
	C132.3,63.4,132.5,63.1,132.9,63z M131.9,61c-0.4,0-0.7-0.2-0.7-0.6c0-0.4,0.2-0.7,0.6-0.7c0.4,0,0.7,0.2,0.7,0.6
	C132.5,60.8,132.3,61,131.9,61z M133.4,56.4c0-0.4,0.2-0.7,0.6-0.7c0.4,0,0.7,0.2,0.7,0.6c0,0.4-0.2,0.7-0.6,0.7
	C133.7,57,133.4,56.8,133.4,56.4z M133,53.7c-0.4,0-0.7-0.2-0.7-0.6c0-0.4,0.2-0.7,0.6-0.7c0.4,0,0.7,0.2,0.7,0.6
	C133.7,53.4,133.4,53.7,133,53.7z M131.9,50.6c-0.4-0.1-0.6-0.3-0.6-0.8c0-0.4,0.3-0.6,0.7-0.6c0.4,0,0.7,0.3,0.6,0.7
	C132.6,50.4,132.4,50.6,131.9,50.6z M131.4,57.3c0,0.4-0.3,0.6-0.7,0.7c-0.4,0-0.7-0.2-0.7-0.7c0-0.4,0.2-0.6,0.8-0.7
	C131.2,56.7,131.4,56.8,131.4,57.3z M130.8,67.1c0.3,0,0.6,0.2,0.6,0.6c0,0.4-0.2,0.7-0.6,0.7c-0.4,0-0.6-0.2-0.7-0.6
	C130.2,67.3,130.4,67.1,130.8,67.1z M131.9,70.2c0.3,0,0.6,0.2,0.6,0.6c0,0.4-0.2,0.7-0.6,0.7c-0.4,0-0.6-0.3-0.7-0.7
	C131.3,70.4,131.5,70.2,131.9,70.2z M132.8,73.5c0.4,0,0.6,0.3,0.6,0.7c0,0.4-0.2,0.6-0.6,0.6c-0.4,0-0.6-0.2-0.7-0.5
	C132.1,73.8,132.4,73.6,132.8,73.5z M133.3,66.7c0.1-0.4,0.4-0.6,0.8-0.6c0.3,0.1,0.6,0.3,0.5,0.6c0,0.4-0.3,0.7-0.7,0.6
	C133.4,67.4,133.3,67.1,133.3,66.7z M135,69.3c0.4,0,0.6,0.2,0.7,0.5c0.1,0.4-0.1,0.7-0.5,0.8c-0.4,0.1-0.7-0.2-0.8-0.6
	C134.3,69.6,134.6,69.3,135,69.3z M135.1,60.1c-0.4,0-0.7-0.2-0.8-0.6c0-0.4,0.2-0.7,0.6-0.7c0.4-0.1,0.7,0.2,0.7,0.6
	C135.7,59.8,135.5,60.1,135.1,60.1z M135.1,49.6c-0.4,0-0.6-0.3-0.6-0.7c0.1-0.4,0.3-0.7,0.8-0.6c0.4,0,0.7,0.3,0.6,0.7
	C135.8,49.5,135.5,49.7,135.1,49.6z M134.1,46.5c-0.4,0-0.7-0.2-0.7-0.6c0-0.4,0.2-0.7,0.6-0.8c0.4-0.1,0.7,0.1,0.8,0.5
	C134.8,46.2,134.6,46.5,134.1,46.5z M133,43.2c-0.4-0.1-0.6-0.3-0.6-0.9c0.1-0.2,0.3-0.5,0.7-0.5c0.5,0,0.7,0.3,0.7,0.8
	C133.7,43.1,133.4,43.3,133,43.2z M131.9,40.1c-0.4,0-0.6-0.3-0.6-0.8c0.1-0.3,0.3-0.6,0.7-0.6c0.4,0,0.7,0.2,0.7,0.7
	C132.7,39.9,132.4,40.1,131.9,40.1z M131.6,46.9c-0.1,0.4-0.3,0.7-0.8,0.6c-0.4-0.1-0.6-0.3-0.6-0.8c0.1-0.4,0.4-0.6,0.8-0.6
	C131.4,46.2,131.6,46.4,131.6,46.9z M129.8,44.3c-0.4,0-0.6-0.3-0.7-0.7c0-0.4,0.2-0.7,0.7-0.7c0.4,0,0.7,0.2,0.7,0.6
	C130.5,44.1,130.3,44.3,129.8,44.3z M129.8,53.4c0.4,0,0.7,0.3,0.7,0.7c0,0.4-0.3,0.7-0.7,0.7c-0.4,0-0.7-0.2-0.7-0.7
	C129.2,53.7,129.4,53.4,129.8,53.4z M130.3,64.7c0,0.3-0.2,0.6-0.6,0.6c-0.4,0-0.7-0.2-0.7-0.7c0-0.4,0.3-0.6,0.7-0.6
	C130.1,64,130.3,64.3,130.3,64.7z M130.3,74.9c0.1,0.4-0.1,0.7-0.5,0.8c-0.3,0-0.6-0.1-0.7-0.5c-0.1-0.4,0.1-0.7,0.6-0.8
	C130,74.4,130.2,74.6,130.3,74.9z M129.6,85c0.3,0,0.6,0.2,0.6,0.6c0,0.4-0.3,0.6-0.7,0.7c-0.4-0.1-0.6-0.4-0.5-0.8
	C129,85.1,129.2,84.9,129.6,85z M130.1,78.2c0-0.4,0.3-0.7,0.7-0.6c0.3,0,0.6,0.3,0.6,0.6c0,0.5-0.3,0.6-0.7,0.6
	C130.3,78.8,130.2,78.6,130.1,78.2z M131.8,80.9c0.4,0.1,0.7,0.3,0.6,0.7c-0.1,0.3-0.3,0.5-0.7,0.5c-0.4,0-0.6-0.4-0.6-0.8
	C131.1,81,131.4,80.9,131.8,80.9z M132.7,84c0.4-0.1,0.6,0.1,0.7,0.5c0.1,0.4-0.1,0.7-0.6,0.8c-0.4,0-0.7-0.2-0.7-0.7
	C132.1,84.3,132.4,84.1,132.7,84z M133.3,77.4c0-0.4,0.1-0.7,0.6-0.8c0.4,0,0.6,0.2,0.7,0.5c0.1,0.4-0.2,0.7-0.6,0.7
	C133.6,77.9,133.3,77.7,133.3,77.4z M134.9,79.8c0.4,0,0.6,0.2,0.6,0.6c0,0.4-0.2,0.7-0.6,0.7c-0.4,0-0.6-0.2-0.6-0.6
	C134.2,80.1,134.4,79.8,134.9,79.8z M136.6,72.9c0.1,0.4-0.1,0.7-0.6,0.8c-0.4,0-0.7-0.2-0.7-0.7c0-0.4,0.2-0.6,0.6-0.6
	C136.2,72.4,136.5,72.6,136.6,72.9z M136.8,62.6c0,0.4-0.2,0.6-0.5,0.6c-0.4,0.1-0.7-0.1-0.7-0.6c0-0.4,0.2-0.7,0.6-0.7
	C136.5,61.9,136.7,62.2,136.8,62.6z M136.8,52.2c-0.1,0.4-0.3,0.6-0.7,0.6c-0.4,0-0.6-0.3-0.6-0.7c0.1-0.4,0.3-0.6,0.7-0.6
	C136.6,51.5,136.8,51.7,136.8,52.2z M136.2,40.9c0.5,0,0.8,0.3,0.8,0.7c0,0.4-0.3,0.7-0.7,0.7c-0.4,0-0.7-0.2-0.7-0.7
	C135.6,41.2,135.8,41,136.2,40.9z M135.9,38.5c0,0.4-0.3,0.6-0.7,0.7c-0.4,0-0.7-0.3-0.7-0.7c0-0.4,0.2-0.7,0.6-0.7
	C135.6,37.8,135.8,38,135.9,38.5z M135.3,27.2c0.4,0.1,0.8,0.3,0.8,0.8c0,0.5-0.3,0.7-0.8,0.7c-0.4,0-0.7-0.2-0.7-0.7
	C134.6,27.6,134.8,27.3,135.3,27.2z M134.4,34.5c0.4,0.1,0.6,0.4,0.6,0.8c-0.1,0.5-0.4,0.7-0.9,0.6c-0.4-0.1-0.6-0.4-0.6-0.8
	C133.6,34.7,133.9,34.4,134.4,34.5z M133.9,32c0,0.5-0.2,0.8-0.7,0.8c-0.4,0-0.7-0.2-0.7-0.7c0-0.5,0.3-0.8,0.7-0.8
	C133.5,31.3,133.8,31.6,133.9,32z M132.1,28.2c0.5,0,0.8,0.3,0.8,0.7c0,0.5-0.3,0.8-0.8,0.7c-0.4,0-0.6-0.3-0.7-0.7
	C131.5,28.5,131.7,28.2,132.1,28.2z M131.7,36.3c0,0.5-0.3,0.7-0.9,0.8c-0.3-0.1-0.6-0.3-0.6-0.7c0-0.5,0.3-0.8,0.8-0.7
	C131.4,35.6,131.7,35.9,131.7,36.3z M130.7,33.1c0.1,0.5-0.3,0.8-0.7,0.8c-0.5,0-0.8-0.3-0.7-0.8c0-0.4,0.3-0.6,0.7-0.7
	C130.4,32.5,130.7,32.7,130.7,33.1z M128.9,29.3c0.4,0,0.7,0.2,0.7,0.7c0,0.5-0.3,0.8-0.7,0.8c-0.5,0-0.8-0.3-0.7-0.8
	C128.2,29.5,128.5,29.3,128.9,29.3z M126.1,34.1c0-0.5,0.3-0.8,0.8-0.7c0.4,0,0.7,0.3,0.7,0.7c0,0.5-0.3,0.7-0.9,0.8
	C126.4,34.7,126.1,34.5,126.1,34.1z M127.1,37.3c0-0.4,0.3-0.6,0.7-0.7c0.4,0.1,0.7,0.3,0.7,0.7c0,0.4-0.2,0.7-0.6,0.7
	C127.3,38.1,127.1,37.8,127.1,37.3z M128.2,40.5c0.1-0.4,0.3-0.7,0.7-0.7c0.4,0,0.7,0.2,0.7,0.7c0,0.5-0.3,0.8-0.8,0.7
	C128.4,41.2,128.2,40.9,128.2,40.5z M128,51.1c0-0.4,0.2-0.7,0.6-0.7c0.4-0.1,0.7,0.2,0.7,0.6c0.1,0.4-0.2,0.7-0.6,0.7
	C128.4,51.7,128.1,51.5,128,51.1z M128,61.5c0-0.4,0.3-0.6,0.7-0.6c0.4,0,0.7,0.3,0.6,0.7c0,0.4-0.3,0.6-0.7,0.6
	C128.3,62.1,128,61.9,128,61.5z M128,72.1c-0.1-0.4,0.1-0.7,0.6-0.8c0.4,0,0.7,0.2,0.7,0.7c0,0.4-0.2,0.6-0.6,0.6
	C128.3,72.6,128,72.5,128,72.1z M128.5,81.8c0.4,0,0.7,0.2,0.7,0.7c0,0.3-0.3,0.6-0.6,0.6c-0.5,0-0.6-0.3-0.7-0.7
	C128,82,128.2,81.8,128.5,81.8z M126.8,89.9c0-0.4,0.2-0.7,0.6-0.7c0.4,0,0.6,0.3,0.6,0.7c0,0.4-0.2,0.6-0.6,0.6
	C127.1,90.4,126.8,90.2,126.8,89.9z M128.3,93.6c-0.3-0.1-0.6-0.2-0.6-0.7c0-0.3,0.2-0.6,0.6-0.6c0.5,0,0.7,0.2,0.7,0.7
	C129,93.3,128.8,93.5,128.3,93.6z M129.4,96.7c-0.4,0-0.5-0.3-0.5-0.7c0.1-0.3,0.3-0.6,0.7-0.5c0.3,0.1,0.6,0.3,0.5,0.7
	C130.1,96.5,129.8,96.7,129.4,96.7z M130,88.7c0-0.4,0.2-0.6,0.6-0.6c0.4,0,0.6,0.1,0.7,0.5c0.1,0.4-0.1,0.7-0.6,0.8
	C130.2,89.3,130,89.1,130,88.7z M131.1,92c0-0.3,0.2-0.7,0.6-0.7c0.4,0,0.6,0.2,0.6,0.6c0.1,0.4-0.2,0.7-0.6,0.7
	C131.4,92.6,131.1,92.4,131.1,92z M132.7,95.7c-0.4,0-0.6-0.2-0.7-0.5c0-0.4,0.1-0.7,0.6-0.8c0.4,0,0.6,0.2,0.7,0.5
	C133.4,95.4,133.1,95.7,132.7,95.7z M133.7,88.4c-0.4,0-0.6-0.3-0.7-0.7c0.1-0.5,0.4-0.6,0.8-0.6c0.4,0.1,0.5,0.3,0.5,0.7
	C134.3,88.2,134.1,88.4,133.7,88.4z M134.2,90.8c0-0.4,0.3-0.5,0.7-0.5c0.4,0.1,0.7,0.3,0.6,0.7c-0.1,0.3-0.3,0.6-0.7,0.5
	C134.4,91.5,134.2,91.2,134.2,90.8z M135.7,94.7c-0.4-0.1-0.6-0.4-0.5-0.8c0.1-0.4,0.3-0.5,0.7-0.5c0.3,0,0.6,0.2,0.6,0.6
	C136.4,94.4,136.2,94.7,135.7,94.7z M137.4,89.9c0-0.4,0.2-0.7,0.6-0.7c0.4,0,0.6,0.2,0.6,0.6c0.1,0.4-0.2,0.7-0.6,0.7
	C137.6,90.4,137.4,90.2,137.4,89.9z M138.8,93.7c-0.3-0.1-0.5-0.3-0.5-0.7c0-0.5,0.3-0.6,0.7-0.6c0.3,0.1,0.5,0.3,0.5,0.7
	C139.5,93.6,139.2,93.8,138.8,93.7z M140.1,96.9c-0.4,0-0.7-0.2-0.7-0.6c0-0.4,0.3-0.6,0.7-0.6c0.4,0,0.6,0.2,0.6,0.6
	C140.6,96.6,140.5,96.8,140.1,96.9z M141,89.5c-0.4,0-0.5-0.3-0.5-0.7c0.1-0.4,0.3-0.7,0.7-0.6c0.3,0.1,0.6,0.3,0.5,0.7
	C141.7,89.3,141.4,89.5,141,89.5z M22.2,97.6v-7.9c-0.1,0-0.1,0-0.2,0c-0.4-0.1-0.6-0.3-0.6-0.8c0-0.4,0.3-0.6,0.7-0.6
	c0,0,0.1,0,0.1,0v-0.3h-5.2v-3.8c-0.1,0-0.1,0-0.2,0c-0.4,0-0.7-0.2-0.7-0.7c0-0.4,0.2-0.7,0.6-0.7c0.1,0,0.2,0,0.2,0v-9.2
	c-0.1,0-0.1,0-0.2,0c-0.4,0-0.7-0.2-0.7-0.6c0-0.4,0.2-0.6,0.6-0.7c0.1,0,0.2,0,0.2,0v-9.2c0,0,0,0-0.1,0c-0.4,0-0.6-0.3-0.6-0.7
	c0.1-0.4,0.3-0.6,0.7-0.6v-9.2c-0.4,0-0.7-0.2-0.7-0.6c0-0.4,0.2-0.7,0.6-0.8c0,0,0.1,0,0.1,0v-3.4l2.9,6.6l3.8,8.8
	c0.1-0.3,0.3-0.4,0.6-0.4c0.4,0,0.6,0.3,0.6,0.7c0,0.4-0.3,0.6-0.7,0.6c-0.1,0-0.1,0-0.2,0l0.8,1.9c0.1-0.1,0.2-0.1,0.4-0.1
	c0.4,0,0.6,0.3,0.6,0.7c0,0.3-0.2,0.5-0.5,0.6l0.9,2c0.4,0,0.7,0.2,0.7,0.6c0,0.2-0.1,0.4-0.2,0.5l0.9,2.1c0.1,0.1,0.2,0.3,0.2,0.5
	l9.1,20.7c0.1-0.2,0.3-0.4,0.6-0.4c0.4,0,0.7,0.2,0.7,0.7c0,0.4-0.3,0.6-0.6,0.7c-0.1,0-0.2,0-0.3,0l0.9,2.1
	c0.1-0.1,0.2-0.1,0.4-0.1c0.4,0,0.7,0.2,0.7,0.6c0,0,0,0,0,0h9.2V95c-0.1,0.1-0.3,0.1-0.5,0.1c-0.4,0-0.7-0.2-0.7-0.7
	c0.1-0.4,0.3-0.6,0.7-0.6c0.2,0,0.3,0.1,0.4,0.2v-9.3c-0.1,0-0.2,0.1-0.3,0.1c-0.4,0-0.6-0.3-0.6-0.7c0-0.4,0.3-0.6,0.7-0.6
	c0.1,0,0.2,0,0.2,0.1v-9.3c-0.1,0-0.2,0.1-0.3,0.1c-0.4-0.1-0.6-0.3-0.6-0.8c0.1-0.3,0.3-0.6,0.6-0.5c0.1,0,0.2,0,0.3,0.1v-9.2
	c0,0-0.1,0-0.1,0c-0.4,0-0.7-0.3-0.7-0.7c0-0.4,0.3-0.6,0.7-0.7c0,0,0.1,0,0.1,0v-9.2c0,0,0,0-0.1,0c-0.4,0-0.7-0.2-0.8-0.6
	c0-0.4,0.2-0.7,0.6-0.7c0.1,0,0.1,0,0.2,0v-9.3c0,0,0,0-0.1,0c-0.4-0.1-0.6-0.3-0.6-0.7c0-0.4,0.3-0.6,0.6-0.6v-4.7h4.7
	c0.1-0.2,0.2-0.3,0.4-0.4V27c0,0,0,0,0,0h-2.3c0,0.1,0.1,0.2,0.1,0.3c0,0.5-0.2,0.8-0.7,0.8c-0.4,0-0.7-0.3-0.8-0.7
	c0-0.1,0.1-0.3,0.1-0.4h-6.5c-0.1,0-0.2,0-0.3,0c0,0-0.1,0-0.1,0h-2.3c0,0.1,0,0.2,0,0.2c0,0.5-0.3,0.8-0.8,0.7
	c-0.4,0-0.6-0.3-0.7-0.8c0-0.1,0-0.1,0-0.2h-5.7v1.5c0,0,0,0,0,0c0.5,0,0.8,0.3,0.8,0.7c0,0.5-0.3,0.8-0.8,0.7c0,0,0,0,0,0v6.5h5.2
	v7.9c0.4,0,0.6,0.2,0.6,0.6c0,0.4-0.2,0.7-0.6,0.7c0,0,0,0,0,0v9.2c0.4,0,0.7,0.3,0.6,0.7c0,0.4-0.2,0.6-0.6,0.6v9.2
	c0.3,0.1,0.5,0.3,0.5,0.6c0,0.4-0.2,0.6-0.5,0.7v8.1l-0.6-1.4c0,0,0,0,0,0.1c0,0.4-0.2,0.7-0.6,0.7c-0.4,0-0.6-0.2-0.7-0.6
	c0-0.5,0.2-0.7,0.7-0.7c0.2,0,0.4,0,0.5,0.1l-1-2.1c-0.1,0.1-0.2,0.2-0.4,0.2c-0.4,0-0.7-0.2-0.7-0.6c0-0.4,0.2-0.6,0.6-0.7
	l-0.6-1.2l-0.3-0.6c-0.1,0-0.1,0-0.2,0c-0.4,0-0.6-0.3-0.6-0.7c0-0.3,0.1-0.5,0.3-0.6l-0.9-2c-0.2-0.1-0.3-0.3-0.3-0.5
	c0-0.1,0-0.1,0-0.2L26.2,46c0,0.4-0.2,0.6-0.6,0.7c-0.4,0.1-0.7-0.2-0.8-0.6c0-0.4,0.2-0.7,0.7-0.8c0.2,0,0.3,0.1,0.5,0.2l-0.9-2.1
	c-0.1,0.1-0.3,0.1-0.4,0.1c-0.4,0-0.7-0.2-0.7-0.7c0.1-0.3,0.2-0.6,0.6-0.7l-0.8-1.8c-0.1,0-0.2,0-0.3,0c-0.4-0.1-0.6-0.3-0.6-0.8
	c0-0.2,0.2-0.4,0.3-0.5l-0.8-1.9c-0.3-0.1-0.6-0.3-0.6-0.6c0-0.2,0-0.3,0.1-0.4L17.6,27h-8c0,0.5-0.2,0.8-0.7,0.8
	c-0.4,0-0.7-0.2-0.8-0.6c0-0.1,0-0.1,0-0.2H2.4v1.4c0,0,0,0,0,0c0.4,0,0.7,0.2,0.8,0.7c0,0.5-0.3,0.8-0.7,0.8c0,0,0,0,0,0v6.7h5.2
	v7.7c0,0,0,0,0,0c0.4,0,0.7,0.2,0.7,0.6c0,0.5-0.2,0.8-0.7,0.8c0,0,0,0,0,0v9.1c0,0,0.1,0,0.1,0c0.4,0.1,0.6,0.3,0.6,0.7
	C8.3,55.9,8,56,7.6,56v9.2c0.3,0,0.5,0.2,0.6,0.5c0.1,0.4-0.1,0.7-0.5,0.8c0,0,0,0,0,0v9.1c0.4,0,0.6,0.3,0.6,0.7
	c0,0.4-0.2,0.6-0.6,0.6v9.2C7.9,86.3,8,86.5,8,86.9c0,0.3-0.2,0.5-0.4,0.6v0.6H4.8c-0.1,0.3-0.3,0.5-0.6,0.5c-0.4,0-0.6-0.2-0.7-0.5
	H2.4v3.3c0.1,0.1,0.2,0.3,0.3,0.5c0,0.3-0.1,0.4-0.3,0.6v2.4c0.1-0.3,0.3-0.5,0.6-0.5c0.4,0,0.7,0.2,0.7,0.6c0,0.4-0.2,0.7-0.6,0.7
	c-0.4,0-0.6-0.2-0.7-0.5v2.3h4.3c0-0.1-0.1-0.2-0.1-0.3c0-0.4,0.2-0.7,0.6-0.7c0.5,0,0.8,0.2,0.8,0.7c0,0.1,0,0.2-0.1,0.3h9.2
	c0-0.1,0-0.1,0-0.2c0.1-0.4,0.3-0.6,0.8-0.6c0.4,0,0.6,0.3,0.6,0.7c0,0,0,0,0,0.1H22.2z M53.7,33.8c-0.1,0.4-0.4,0.6-0.8,0.6
	c-0.5-0.1-0.7-0.4-0.6-0.9c0.1-0.4,0.4-0.6,0.8-0.6C53.5,33,53.8,33.3,53.7,33.8z M52.1,29.8c0.4,0,0.7,0.3,0.7,0.7
	c0,0.5-0.2,0.8-0.7,0.8c-0.4,0-0.7-0.2-0.7-0.6C51.3,30.1,51.6,29.8,52.1,29.8z M4.6,91c0-0.4,0.2-0.6,0.7-0.7
	c0.4,0,0.7,0.2,0.7,0.6c0,0.4-0.2,0.7-0.6,0.7C4.9,91.7,4.6,91.5,4.6,91z M6.1,94.8c-0.4-0.1-0.7-0.3-0.6-0.8
	c0.1-0.4,0.3-0.6,0.8-0.6c0.4,0.1,0.6,0.4,0.6,0.8C6.9,94.7,6.6,94.9,6.1,94.8z M16.5,80.6c0,0.4-0.3,0.7-0.7,0.6
	c-0.4,0-0.6-0.3-0.7-0.7c0-0.4,0.3-0.7,0.7-0.6C16.3,79.9,16.5,80.2,16.5,80.6z M15.7,46c0,0.4-0.3,0.6-0.7,0.6
	c-0.4-0.1-0.7-0.3-0.6-0.7c0-0.4,0.3-0.7,0.7-0.6C15.5,45.3,15.7,45.6,15.7,46z M15.4,38.7c0-0.4,0.3-0.7,0.7-0.7
	c0.4,0,0.7,0.2,0.7,0.6c0,0.5-0.2,0.8-0.7,0.8C15.7,39.3,15.5,39,15.4,38.7z M13.9,63.2c0.4,0,0.7,0.2,0.7,0.6
	c0,0.4-0.2,0.7-0.6,0.7c-0.4,0-0.7-0.2-0.7-0.6C13.3,63.5,13.4,63.2,13.9,63.2z M12.8,61.4c-0.4,0-0.7-0.2-0.7-0.6
	c0-0.4,0.2-0.6,0.6-0.7c0.5,0,0.7,0.2,0.7,0.7C13.5,61.1,13.3,61.4,12.8,61.4z M13.3,53.4c0-0.4,0.2-0.7,0.7-0.7
	c0.4,0,0.7,0.2,0.7,0.7c0,0.4-0.2,0.7-0.7,0.7C13.5,54,13.3,53.8,13.3,53.4z M12.9,50.7c-0.4,0-0.7-0.2-0.8-0.7
	c0-0.3,0.2-0.6,0.6-0.7c0.4-0.1,0.7,0.2,0.7,0.6C13.5,50.4,13.3,50.7,12.9,50.7z M12.4,57.4c0,0.4-0.2,0.7-0.7,0.7
	c-0.4,0-0.6-0.3-0.7-0.6c0-0.4,0.2-0.7,0.7-0.7C12.1,56.7,12.4,57,12.4,57.4z M10.8,55c-0.4,0-0.7-0.2-0.7-0.6
	c0-0.4,0.2-0.7,0.6-0.7c0.4,0,0.7,0.2,0.7,0.6C11.5,54.7,11.2,54.9,10.8,55z M11.3,64.7c0,0.4-0.2,0.7-0.6,0.7
	c-0.4,0-0.7-0.2-0.7-0.6c0-0.4,0.2-0.7,0.7-0.7C11,64.1,11.3,64.3,11.3,64.7z M10.7,74.6c0.4,0,0.6,0.3,0.6,0.7
	c0,0.4-0.3,0.7-0.7,0.6c-0.4,0-0.6-0.3-0.6-0.7C10,74.8,10.3,74.6,10.7,74.6z M11.1,67.9c0-0.4,0.2-0.7,0.6-0.7
	c0.4,0,0.7,0.2,0.7,0.6c0,0.4-0.2,0.6-0.6,0.7C11.3,68.6,11.1,68.3,11.1,67.9z M12.9,70.5c0.4,0.1,0.6,0.3,0.6,0.7
	c0,0.4-0.3,0.7-0.7,0.6c-0.4,0-0.6-0.3-0.6-0.7C12.2,70.7,12.5,70.5,12.9,70.5z M13.7,73.6c0.4,0,0.7,0.2,0.7,0.6
	c0,0.4-0.2,0.7-0.6,0.7c-0.4,0-0.6-0.2-0.7-0.6C13.1,73.9,13.3,73.7,13.7,73.6z M14.2,66.9c0.1-0.4,0.3-0.6,0.7-0.6
	c0.4,0,0.6,0.3,0.6,0.7c0,0.4-0.3,0.6-0.7,0.6C14.4,67.6,14.2,67.3,14.2,66.9z M14.3,56.5c0-0.4,0.3-0.7,0.7-0.7
	c0.4,0,0.7,0.3,0.7,0.7c0,0.4-0.2,0.7-0.7,0.7C14.6,57.1,14.4,56.9,14.3,56.5z M14.1,43.6c-0.5,0-0.8-0.3-0.7-0.8
	c0.1-0.4,0.3-0.6,0.7-0.6c0.4,0.1,0.6,0.3,0.6,0.7C14.8,43.3,14.5,43.6,14.1,43.6z M12.9,40.3c-0.4,0-0.6-0.3-0.7-0.7
	c0.1-0.4,0.3-0.7,0.7-0.7c0.4,0,0.7,0.2,0.7,0.6C13.7,40,13.4,40.3,12.9,40.3z M12.6,46.9c0,0.4-0.2,0.7-0.7,0.7
	c-0.4,0-0.7-0.2-0.7-0.7c0-0.4,0.3-0.7,0.6-0.7C12.3,46.2,12.5,46.5,12.6,46.9z M10.8,44.5c-0.4,0-0.7-0.3-0.7-0.7
	c0-0.5,0.3-0.8,0.8-0.7c0.4,0,0.6,0.3,0.6,0.8C11.4,44.3,11.2,44.5,10.8,44.5z M9.8,41.4c-0.4,0-0.6-0.3-0.6-0.7
	C9.2,40.2,9.4,40,9.9,40c0.5,0,0.7,0.3,0.7,0.8C10.5,41.2,10.2,41.4,9.8,41.4z M10.3,51.1c0,0.4-0.2,0.7-0.7,0.7
	c-0.4,0-0.7-0.2-0.7-0.7c0-0.4,0.2-0.7,0.6-0.7C10.1,50.5,10.3,50.7,10.3,51.1z M10.3,61.6c0,0.4-0.2,0.7-0.6,0.7
	c-0.4,0-0.7-0.2-0.7-0.7C9,61.3,9.2,61,9.6,61C10.1,60.9,10.3,61.2,10.3,61.6z M10.2,72.2c0,0.4-0.3,0.6-0.7,0.6
	c-0.4,0-0.6-0.3-0.6-0.7c0.1-0.4,0.3-0.6,0.7-0.6C10,71.5,10.2,71.7,10.2,72.2z M9.7,81.9c0.2,0.1,0.5,0.3,0.5,0.7
	c0,0.4-0.3,0.6-0.7,0.6c-0.4,0-0.7-0.3-0.6-0.7C8.9,82.1,9.1,81.9,9.7,81.9z M10.6,85.1c0.4,0.1,0.6,0.3,0.6,0.7
	c0,0.4-0.3,0.6-0.7,0.6c-0.4-0.1-0.6-0.3-0.6-0.8C9.9,85.2,10.1,85,10.6,85.1z M10.9,78.4c0.1-0.2,0.3-0.5,0.7-0.5
	c0.4,0,0.6,0.3,0.6,0.7c0,0.4-0.3,0.7-0.7,0.6C11.1,79.2,10.9,78.9,10.9,78.4z M12.6,81c0.4,0,0.7,0.2,0.8,0.6
	c0.1,0.4-0.2,0.7-0.6,0.7c-0.4,0.1-0.7-0.2-0.7-0.6C12,81.3,12.2,81.1,12.6,81z M13.8,84.1c0.4,0,0.6,0.3,0.6,0.7
	c0,0.4-0.3,0.6-0.7,0.6c-0.4-0.1-0.6-0.3-0.6-0.7C13.1,84.3,13.4,84.1,13.8,84.1z M14.2,77.4c0.1-0.4,0.3-0.6,0.8-0.6
	c0.4,0.1,0.7,0.3,0.6,0.7c-0.1,0.4-0.3,0.6-0.7,0.6C14.4,78.1,14.2,77.8,14.2,77.4z M16.6,70c0,0.4-0.2,0.7-0.6,0.7
	c-0.4,0-0.7-0.2-0.7-0.6c0-0.4,0.2-0.7,0.6-0.7C16.3,69.4,16.6,69.6,16.6,70z M16.6,59.6c0,0.4-0.2,0.7-0.6,0.7
	c-0.4,0-0.7-0.2-0.7-0.6c0-0.4,0.2-0.7,0.6-0.7C16.3,58.9,16.6,59.1,16.6,59.6z M16.1,49.8c-0.4,0-0.7-0.3-0.7-0.7
	c0-0.4,0.2-0.7,0.7-0.7c0.4,0,0.6,0.3,0.6,0.7C16.8,49.6,16.5,49.8,16.1,49.8z M16.5,41.8c0-0.5,0.3-0.7,0.8-0.7
	c0.4,0.1,0.6,0.4,0.5,0.8c-0.1,0.4-0.3,0.6-0.8,0.6C16.8,42.4,16.5,42.2,16.5,41.8z M17.5,44.8c0.1-0.4,0.4-0.6,0.8-0.6
	c0.4,0.1,0.6,0.3,0.6,0.7c0,0.4-0.3,0.7-0.7,0.7C17.7,45.6,17.4,45.3,17.5,44.8z M18.6,48.1c0-0.4,0.2-0.7,0.6-0.7
	c0.4,0,0.7,0.2,0.7,0.6c0,0.4-0.2,0.7-0.6,0.7C18.9,48.7,18.6,48.5,18.6,48.1z M19.5,51.2c0-0.3,0.1-0.6,0.5-0.7
	c0.4-0.1,0.7,0.1,0.8,0.5c0.1,0.4-0.1,0.7-0.5,0.8C19.9,51.9,19.7,51.7,19.5,51.2z M20.6,54.5c0-0.4,0.2-0.7,0.6-0.7
	c0.4,0,0.7,0.2,0.7,0.6c0,0.4-0.2,0.7-0.6,0.7C20.9,55.1,20.7,54.9,20.6,54.5z M21.7,57.6c0-0.4,0.2-0.7,0.6-0.7
	c0.4,0,0.7,0.2,0.7,0.6c0,0.4-0.2,0.6-0.6,0.7C22,58.2,21.7,58,21.7,57.6z M23.4,61.4c-0.4,0-0.7-0.2-0.7-0.6c0-0.4,0.2-0.7,0.6-0.7
	c0.4,0,0.7,0.2,0.7,0.6C24.1,61.1,23.8,61.3,23.4,61.4z M25.8,59.7c0-0.5,0.2-0.8,0.7-0.8c0.4,0,0.7,0.2,0.7,0.7
	c0,0.4-0.3,0.7-0.7,0.7C26.1,60.3,25.9,60,25.8,59.7z M26.9,62.9c0-0.4,0.3-0.6,0.6-0.7c0.5,0,0.7,0.3,0.7,0.7
	c0,0.4-0.2,0.7-0.6,0.7C27.2,63.5,26.9,63.3,26.9,62.9z M27.8,66c0-0.4,0.2-0.6,0.7-0.6c0.4,0,0.7,0.2,0.7,0.6
	c0,0.4-0.2,0.7-0.6,0.7C28.2,66.7,27.9,66.5,27.8,66z M29,69.2c0-0.4,0.2-0.7,0.7-0.7c0.4,0,0.7,0.3,0.7,0.7c0,0.4-0.3,0.7-0.7,0.7
	C29.2,69.8,29,69.6,29,69.2z M29.9,72.2c0-0.4,0.3-0.6,0.7-0.6c0.4,0.1,0.6,0.3,0.6,0.7c0,0.4-0.3,0.6-0.7,0.6
	C30.1,72.9,29.9,72.6,29.9,72.2z M31,75.4c0-0.4,0.2-0.7,0.6-0.7c0.4,0,0.7,0.2,0.7,0.6c0,0.4-0.2,0.7-0.6,0.7
	C31.3,76.1,31,75.9,31,75.4z M32.1,78.4c0.1-0.4,0.3-0.6,0.7-0.6c0.4,0.1,0.6,0.3,0.6,0.7c0,0.4-0.3,0.6-0.7,0.6
	C32.3,79.1,32.1,78.9,32.1,78.4z M33.1,81.8c0-0.4,0.3-0.6,0.7-0.6c0.4,0,0.7,0.3,0.6,0.7c0,0.4-0.3,0.6-0.7,0.6
	C33.2,82.4,33,82.2,33.1,81.8z M34.1,84.9c0-0.4,0.3-0.6,0.6-0.6c0.5,0,0.7,0.3,0.7,0.7c0,0.4-0.2,0.7-0.7,0.7
	C34.4,85.6,34.1,85.3,34.1,84.9z M35.1,88.1c0-0.4,0.3-0.6,0.6-0.7c0.4,0,0.7,0.2,0.7,0.7c0,0.4-0.2,0.7-0.7,0.7
	C35.4,88.8,35.1,88.5,35.1,88.1z M36.8,91.9c-0.4,0-0.6-0.3-0.6-0.8c0.1-0.4,0.3-0.6,0.8-0.5c0.4,0.1,0.7,0.3,0.6,0.7
	C37.5,91.7,37.2,91.9,36.8,91.9z M38.8,87.6c-0.4,0-0.7-0.3-0.6-0.7c0.1-0.4,0.3-0.6,0.7-0.6c0.4,0.1,0.6,0.3,0.6,0.7
	C39.5,87.5,39.2,87.7,38.8,87.6z M43.9,68.2c0,0.4-0.3,0.6-0.8,0.7c-0.3-0.1-0.6-0.2-0.6-0.7c0-0.4,0.3-0.7,0.7-0.7
	C43.7,67.5,43.9,67.8,43.9,68.2z M43.7,61c0-0.6,0.2-0.8,0.6-0.8c0.4,0,0.7,0.2,0.7,0.6c0,0.4-0.3,0.7-0.7,0.7
	C44,61.5,43.8,61.3,43.7,61z M44.4,70.7c0.4,0,0.7,0.3,0.7,0.7c0,0.4-0.3,0.6-0.7,0.6c-0.4,0-0.6-0.2-0.7-0.7
	C43.8,70.9,44,70.6,44.4,70.7z M45.4,73.8c0.4,0.1,0.6,0.4,0.6,0.8c0,0.3-0.3,0.5-0.7,0.5c-0.4,0-0.6-0.2-0.6-0.7
	C44.8,74,45,73.7,45.4,73.8z M44.8,64c0-0.5,0.3-0.7,0.7-0.7c0.4,0,0.7,0.2,0.7,0.6c0,0.4-0.2,0.7-0.6,0.7
	C45.1,64.7,44.9,64.4,44.8,64z M44.8,53.5c0-0.4,0.3-0.6,0.7-0.7c0.5,0,0.7,0.3,0.7,0.7c0,0.4-0.3,0.7-0.7,0.7
	C45.1,54.2,44.8,53.9,44.8,53.5z M44.5,51c-0.4,0-0.7-0.2-0.7-0.7c0.1-0.4,0.3-0.6,0.7-0.6c0.4,0,0.7,0.3,0.7,0.7
	C45.2,50.8,45,51.1,44.5,51z M44.1,57.6c0.1,0.4-0.1,0.7-0.5,0.8c-0.4,0.1-0.7-0.1-0.8-0.5c0-0.4,0.1-0.7,0.5-0.8
	C43.7,57,44,57.2,44.1,57.6z M42.3,55.3c-0.4-0.1-0.6-0.3-0.6-0.7c0-0.4,0.3-0.6,0.7-0.6c0.4,0.1,0.6,0.3,0.6,0.7
	C43,55.1,42.7,55.3,42.3,55.3z M42.5,64.4c0.3,0.1,0.5,0.3,0.5,0.7c0,0.4-0.3,0.6-0.7,0.6c-0.4,0-0.7-0.3-0.6-0.7
	C41.7,64.6,42,64.4,42.5,64.4z M42.9,75.6c-0.1,0.4-0.3,0.6-0.7,0.6c-0.4,0-0.6-0.3-0.6-0.7c0.1-0.4,0.3-0.6,0.7-0.6
	C42.7,75,42.9,75.2,42.9,75.6z M41.7,82.9c0,0.4-0.2,0.7-0.6,0.7c-0.4,0-0.7-0.2-0.7-0.6c0-0.4,0.2-0.7,0.6-0.7
	C41.5,82.2,41.7,82.5,41.7,82.9z M42.3,85.4c0.4,0.1,0.6,0.3,0.6,0.7c0,0.4-0.3,0.6-0.7,0.6c-0.4,0-0.6-0.3-0.6-0.7
	C41.6,85.6,41.8,85.4,42.3,85.4z M42.6,78.8c0-0.5,0.2-0.7,0.6-0.7c0.4,0,0.7,0.2,0.7,0.6c0,0.4-0.2,0.7-0.6,0.7
	C42.9,79.4,42.7,79.1,42.6,78.8z M44.3,81.2c0.4,0,0.6,0.3,0.6,0.7c-0.1,0.4-0.3,0.6-0.7,0.6c-0.4-0.1-0.6-0.3-0.6-0.7
	C43.6,81.3,43.9,81.1,44.3,81.2z M45.4,84.3c0.4,0,0.7,0.3,0.6,0.7c0,0.4-0.3,0.6-0.7,0.6c-0.4,0-0.6-0.3-0.6-0.7
	C44.7,84.5,45,84.3,45.4,84.3z M45.8,77.6c0-0.4,0.2-0.7,0.6-0.7c0.4,0,0.6,0.2,0.7,0.7c0,0.3-0.2,0.6-0.5,0.6
	C46.1,78.3,45.8,78.1,45.8,77.6z M46.3,67.8c-0.4-0.1-0.6-0.3-0.6-0.7c0.1-0.4,0.4-0.6,0.8-0.6c0.4,0,0.6,0.3,0.6,0.7
	C47,67.6,46.8,67.8,46.3,67.8z M45.9,56.6c0-0.4,0.2-0.7,0.7-0.7c0.3,0.1,0.6,0.3,0.6,0.7c0,0.4-0.3,0.7-0.7,0.7
	C46.2,57.3,45.9,57.1,45.9,56.6z M46.5,46.8c-0.4,0-0.6-0.3-0.6-0.7c0-0.4,0.3-0.6,0.8-0.6c0.3,0.1,0.6,0.3,0.5,0.7
	C47.2,46.6,47,46.9,46.5,46.8z M45.5,43.7C45.1,43.6,45,43.3,45,43c0.1-0.4,0.3-0.6,0.7-0.6c0.4,0,0.7,0.3,0.7,0.7
	C46.3,43.5,46,43.8,45.5,43.7z M44.4,40.6c-0.4-0.1-0.6-0.3-0.6-0.7c0.1-0.4,0.3-0.6,0.7-0.6c0.4,0,0.7,0.3,0.7,0.7
	C45.2,40.3,45,40.6,44.4,40.6z M44.1,47.3c0,0.4-0.3,0.6-0.7,0.6c-0.4,0-0.6-0.3-0.6-0.7c0.1-0.4,0.3-0.7,0.7-0.6
	C43.9,46.6,44.2,46.9,44.1,47.3z M42.6,44.8c-0.4,0-0.7-0.2-0.7-0.6c0-0.4,0.2-0.7,0.6-0.7c0.4,0,0.7,0.2,0.7,0.6
	C43.2,44.5,43,44.7,42.6,44.8z M41.5,41.5c-0.5,0-0.8-0.2-0.8-0.7c0-0.4,0.3-0.6,0.7-0.7c0.4,0,0.7,0.2,0.7,0.7
	C42.1,41.2,41.9,41.5,41.5,41.5z M42.1,51.4c0,0.4-0.3,0.6-0.8,0.6c-0.3-0.1-0.6-0.3-0.5-0.7c0-0.4,0.3-0.6,0.7-0.6
	C41.9,50.7,42.1,51,42.1,51.4z M41.3,61.3c0.4,0.1,0.6,0.3,0.6,0.7c0,0.4-0.3,0.6-0.7,0.7c-0.4,0-0.7-0.2-0.7-0.7
	C40.6,61.5,40.8,61.3,41.3,61.3z M41.3,71.8c0.4,0,0.6,0.3,0.6,0.7c-0.1,0.4-0.3,0.6-0.8,0.6c-0.3-0.1-0.5-0.3-0.5-0.7
	C40.6,71.9,40.9,71.7,41.3,71.8z M40.8,79.8c0,0.4-0.3,0.6-0.7,0.6c-0.4,0-0.7-0.3-0.6-0.7c0.1-0.4,0.3-0.6,0.7-0.6
	C40.6,79.2,40.8,79.4,40.8,79.8z M39.3,90.2c0-0.4,0.3-0.6,0.7-0.6c0.4,0.1,0.7,0.3,0.6,0.7c0,0.4-0.3,0.7-0.7,0.6
	C39.5,90.9,39.3,90.6,39.3,90.2z M40.4,93.4c0-0.4,0.2-0.6,0.6-0.7c0.4,0,0.7,0.2,0.7,0.6c0,0.4-0.2,0.7-0.6,0.7
	C40.7,94.1,40.4,93.9,40.4,93.4z M42,97.2c-0.4-0.1-0.6-0.3-0.6-0.7c0.1-0.4,0.3-0.6,0.8-0.6c0.4,0,0.6,0.3,0.6,0.7
	C42.6,97,42.4,97.3,42,97.2z M42.5,89.2c0-0.4,0.2-0.7,0.6-0.7c0.4,0,0.7,0.2,0.7,0.6c0,0.4-0.2,0.7-0.6,0.7
	C42.8,89.9,42.5,89.6,42.5,89.2z M43.6,92.2c0.1-0.4,0.3-0.6,0.7-0.6c0.4,0.1,0.6,0.3,0.6,0.7c0,0.4-0.3,0.6-0.7,0.6
	C43.7,92.9,43.5,92.7,43.6,92.2z M45.2,96.1c-0.4,0-0.7-0.2-0.7-0.7c0-0.4,0.3-0.6,0.6-0.7c0.5,0,0.7,0.3,0.7,0.7
	C45.9,95.8,45.6,96.1,45.2,96.1z M45.6,88.1c0-0.4,0.3-0.7,0.7-0.6c0.4,0,0.7,0.2,0.7,0.7c0,0.4-0.3,0.7-0.7,0.7
	C45.8,88.8,45.7,88.5,45.6,88.1z M48,91.4c0,0.4-0.3,0.6-0.7,0.6c-0.4-0.1-0.6-0.3-0.6-0.7c0-0.4,0.3-0.6,0.7-0.6
	C47.8,90.7,48,91,48,91.4z M48,80.9c0,0.4-0.2,0.7-0.6,0.7c-0.4,0-0.6-0.3-0.7-0.7c0.1-0.4,0.3-0.6,0.7-0.6
	C47.8,80.3,48,80.5,48,80.9z M48.2,70.4c0,0.4-0.3,0.6-0.7,0.6c-0.4,0-0.6-0.3-0.6-0.7c0.1-0.4,0.3-0.6,0.7-0.6
	C48,69.8,48.2,70,48.2,70.4z M48.2,59.8c0,0.4-0.3,0.6-0.7,0.7c-0.4,0-0.7-0.2-0.7-0.7c0-0.4,0.2-0.6,0.7-0.7
	C48,59.1,48.2,59.4,48.2,59.8z M48.4,49.3c0,0.4-0.2,0.7-0.7,0.7c-0.4,0-0.7-0.2-0.7-0.7c0-0.4,0.2-0.7,0.6-0.7
	C48.1,48.6,48.3,48.8,48.4,49.3z M47.6,39.5c-0.4-0.1-0.6-0.3-0.6-0.8c0.1-0.4,0.3-0.6,0.7-0.6c0.5,0,0.7,0.3,0.7,0.8
	C48.3,39.3,48,39.5,47.6,39.5z M50.6,34.8c0,0.4-0.3,0.6-0.7,0.6c-0.4-0.1-0.7-0.3-0.7-0.7c0-0.4,0.2-0.7,0.7-0.7
	C50.3,34,50.6,34.3,50.6,34.8z M48.9,30.7c0.4,0.1,0.6,0.4,0.6,0.8c-0.1,0.5-0.4,0.7-0.9,0.6c-0.4-0.1-0.6-0.4-0.6-0.8
	C48.2,30.9,48.4,30.6,48.9,30.7z M47.8,27.6c0.5,0,0.8,0.3,0.8,0.7c0,0.4-0.2,0.7-0.6,0.7c-0.5,0-0.8-0.3-0.8-0.7
	C47.1,27.9,47.4,27.6,47.8,27.6z M47.4,35.8c-0.1,0.4-0.4,0.6-0.8,0.6C46.2,36.3,46,36,46,35.5c0.1-0.2,0.3-0.5,0.7-0.5
	C47.3,35,47.5,35.3,47.4,35.8z M46.4,32.7c-0.1,0.4-0.4,0.6-0.8,0.6c-0.5-0.1-0.7-0.4-0.7-0.9c0.1-0.4,0.4-0.6,0.8-0.6
	C46.2,31.9,46.4,32.2,46.4,32.7z M44.7,28.7c0.5,0,0.8,0.3,0.7,0.8c0,0.4-0.3,0.7-0.7,0.7c-0.5,0-0.7-0.3-0.8-0.8
	C44,28.9,44.3,28.7,44.7,28.7z M43.6,36.1c0.4,0,0.7,0.3,0.7,0.7c0,0.5-0.3,0.8-0.8,0.7c-0.4,0-0.6-0.3-0.6-0.7
	C42.9,36.3,43.2,36.1,43.6,36.1z M43.2,33.4c0.1,0.4-0.2,0.7-0.6,0.8c-0.5,0.1-0.8-0.2-0.9-0.7c0.1-0.3,0.2-0.7,0.6-0.7
	C42.9,32.7,43.2,32.9,43.2,33.4z M41.5,29.6c0.5,0,0.8,0.2,0.8,0.7c0,0.4-0.3,0.7-0.7,0.7c-0.5,0-0.8-0.3-0.8-0.7
	C40.8,29.9,41.1,29.7,41.5,29.6z M34.4,32.5c0-0.5,0.3-0.8,0.7-0.8c0.4,0,0.7,0.3,0.7,0.7c0,0.5-0.2,0.8-0.7,0.8
	C34.7,33.1,34.5,32.9,34.4,32.5z M36.1,36.3c-0.4-0.1-0.6-0.4-0.6-0.8c0.1-0.4,0.3-0.6,0.8-0.6c0.4,0.1,0.6,0.3,0.6,0.7
	C36.9,36.2,36.6,36.4,36.1,36.3z M36.6,28.3c0-0.4,0.3-0.7,0.7-0.7c0.5,0,0.8,0.3,0.8,0.7c0,0.5-0.3,0.8-0.8,0.7
	C36.8,29,36.6,28.7,36.6,28.3z M37.5,31.4c0-0.4,0.3-0.6,0.7-0.7c0.4,0.1,0.7,0.3,0.7,0.8c0,0.4-0.3,0.7-0.7,0.7
	C37.8,32.2,37.5,31.9,37.5,31.4z M38.7,34.7c0-0.4,0.2-0.7,0.6-0.8c0.4-0.1,0.7,0.1,0.8,0.5c0.1,0.5-0.2,0.8-0.6,0.8
	C39,35.3,38.8,35,38.7,34.7z M39.6,37.7c0-0.4,0.2-0.7,0.7-0.7c0.4,0,0.7,0.2,0.7,0.6c0,0.5-0.2,0.8-0.7,0.8
	C39.9,38.4,39.6,38.1,39.6,37.7z M39.6,48.2c0-0.4,0.2-0.7,0.6-0.7c0.4,0,0.7,0.2,0.7,0.6c0.1,0.4-0.2,0.7-0.7,0.8
	C40,48.9,39.7,48.7,39.6,48.2z M39.5,58.5c0.1-0.3,0.3-0.6,0.8-0.5c0.4,0,0.6,0.3,0.6,0.7c0,0.4-0.3,0.7-0.7,0.6
	C39.7,59.3,39.5,59,39.5,58.5z M40.1,68.5c0.4,0,0.7,0.2,0.7,0.6c0,0.4-0.2,0.7-0.6,0.7c-0.4,0-0.7-0.2-0.7-0.6
	C39.5,68.8,39.7,68.5,40.1,68.5z M39.1,75.8c0.4,0,0.7,0.2,0.7,0.8c-0.1,0.3-0.3,0.6-0.7,0.6c-0.4,0-0.7-0.3-0.7-0.7
	C38.4,76.1,38.6,75.8,39.1,75.8z M38.6,83.9c0,0.4-0.3,0.6-0.7,0.7c-0.4-0.1-0.7-0.3-0.6-0.7c0-0.4,0.3-0.7,0.7-0.7
	C38.4,83.2,38.6,83.5,38.6,83.9z M37.5,80.7c0,0.4-0.2,0.7-0.6,0.7c-0.4,0-0.7-0.2-0.7-0.6c0-0.4,0.2-0.7,0.7-0.7
	C37.2,80.1,37.5,80.3,37.5,80.7z M36,76.9c0.4,0.1,0.6,0.3,0.6,0.7c0,0.4-0.3,0.6-0.7,0.7c-0.4,0-0.7-0.2-0.7-0.7
	C35.3,77.2,35.5,76.9,36,76.9z M34.8,73.8c0.5,0,0.7,0.3,0.7,0.7c0,0.4-0.2,0.7-0.6,0.7c-0.4,0-0.7-0.2-0.7-0.6
	C34.1,74.1,34.4,73.8,34.8,73.8z M34.5,71.3c0,0.4-0.2,0.7-0.6,0.7c-0.4,0-0.7-0.2-0.7-0.7c0-0.4,0.3-0.7,0.7-0.7
	C34.3,70.6,34.5,70.9,34.5,71.3z M33.4,68c0,0.4-0.2,0.7-0.7,0.7c-0.4,0-0.6-0.3-0.7-0.5c0-0.6,0.2-0.8,0.6-0.8
	C33.2,67.4,33.4,67.6,33.4,68z M31.9,64.3c0.4,0,0.7,0.3,0.6,0.7c0,0.4-0.3,0.6-0.7,0.6c-0.4,0-0.6-0.3-0.6-0.7
	C31.2,64.5,31.5,64.2,31.9,64.3z M31.4,61.8c0,0.4-0.2,0.7-0.7,0.7c-0.4,0-0.6-0.3-0.7-0.7c0-0.5,0.3-0.7,0.7-0.7
	C31.1,61.1,31.4,61.4,31.4,61.8z M30.3,58.6c0,0.4-0.2,0.7-0.6,0.7c-0.5,0-0.7-0.2-0.8-0.6c0-0.4,0.2-0.7,0.6-0.7
	C30,58,30.3,58.2,30.3,58.6z M29.4,55.5c0,0.4-0.2,0.7-0.6,0.7c-0.5,0-0.7-0.2-0.7-0.6c0-0.4,0.2-0.7,0.6-0.7
	C29,54.9,29.3,55.1,29.4,55.5z M28.3,52.4c0,0.4-0.2,0.7-0.7,0.7c-0.4,0-0.6-0.3-0.7-0.6c0-0.5,0.3-0.7,0.7-0.7
	C28,51.7,28.3,52,28.3,52.4z M26.7,48.4c0.4,0,0.6,0.3,0.6,0.7c0,0.4-0.3,0.7-0.7,0.6c-0.4,0-0.6-0.3-0.6-0.8
	C26,48.7,26.3,48.4,26.7,48.4z M25.6,55.8c0.4,0.1,0.6,0.3,0.6,0.7c0,0.4-0.3,0.6-0.7,0.6c-0.4,0-0.6-0.3-0.6-0.7
	C24.9,56,25.2,55.8,25.6,55.8z M25.1,53.4c0,0.4-0.3,0.6-0.7,0.6c-0.4-0.1-0.6-0.3-0.6-0.7c0-0.4,0.3-0.6,0.7-0.6
	C24.9,52.7,25.1,53,25.1,53.4z M23.6,49.6c0.4,0,0.6,0.3,0.6,0.7c0,0.4-0.3,0.7-0.7,0.6c-0.4-0.1-0.6-0.3-0.6-0.8
	C22.9,49.7,23.2,49.5,23.6,49.6z M22.4,46.4c0.4,0,0.7,0.2,0.7,0.7c0,0.4-0.2,0.7-0.7,0.7c-0.4,0-0.6-0.3-0.7-0.7
	C21.7,46.7,22,46.4,22.4,46.4z M22,43.9c0,0.4-0.2,0.7-0.6,0.7c-0.5,0-0.8-0.2-0.8-0.7c0-0.4,0.3-0.6,0.7-0.7
	C21.7,43.3,22,43.5,22,43.9z M21.1,40.7c0,0.4-0.2,0.6-0.7,0.7c-0.4,0-0.7-0.2-0.7-0.6c0-0.5,0.2-0.8,0.7-0.8
	C20.8,40,21,40.3,21.1,40.7z M20,37.6c0,0.4-0.3,0.6-0.7,0.6c-0.4,0-0.6-0.3-0.7-0.7c0.1-0.4,0.3-0.7,0.7-0.7
	C19.7,36.9,20,37.1,20,37.6z M19,34.6c-0.1,0.4-0.4,0.6-0.8,0.6c-0.4-0.1-0.7-0.4-0.7-0.9c0.1-0.4,0.4-0.6,0.8-0.6
	C18.9,33.8,19.1,34.1,19,34.6z M18,31.3c0,0.5-0.3,0.8-0.8,0.7c-0.4,0-0.6-0.3-0.7-0.8c0.1-0.3,0.2-0.6,0.7-0.6
	C17.7,30.5,18,30.8,18,31.3z M16.2,27.4c0.5,0,0.8,0.3,0.8,0.7c0,0.4-0.3,0.7-0.7,0.7c-0.5,0-0.8-0.2-0.8-0.7
	C15.5,27.7,15.8,27.5,16.2,27.4z M15.9,35.4c0,0.5-0.2,0.8-0.7,0.8c-0.4,0-0.7-0.3-0.7-0.7c0-0.4,0.2-0.7,0.7-0.7
	C15.5,34.8,15.8,35,15.9,35.4z M14.8,32.2c0,0.5-0.3,0.8-0.7,0.8c-0.5,0-0.8-0.3-0.7-0.8c0-0.4,0.3-0.6,0.7-0.7
	C14.5,31.5,14.8,31.7,14.8,32.2z M13,28.4c0.5,0,0.8,0.3,0.7,0.8c0,0.4-0.3,0.7-0.7,0.7c-0.5,0-0.7-0.3-0.8-0.8
	C12.3,28.6,12.6,28.4,13,28.4z M12.6,36.4c0,0.5-0.2,0.8-0.7,0.8c-0.4,0-0.6-0.3-0.7-0.6c0-0.5,0.3-0.7,0.7-0.8
	C12.3,35.7,12.5,36,12.6,36.4z M11.7,33.3c0,0.5-0.3,0.8-0.8,0.7c-0.4,0-0.6-0.3-0.7-0.7c0-0.4,0.2-0.7,0.6-0.8
	C11.4,32.5,11.7,32.9,11.7,33.3z M9.8,29.5c0.5,0,0.8,0.2,0.8,0.7c0,0.4-0.2,0.7-0.6,0.7c-0.5,0-0.8-0.3-0.8-0.7
	C9.1,29.8,9.4,29.5,9.8,29.5z M2.8,32.2c0.1-0.4,0.2-0.7,0.7-0.7c0.5,0,0.8,0.2,0.8,0.7c0,0.4-0.2,0.7-0.6,0.7
	C3.1,33,2.9,32.7,2.8,32.2z M4.6,36C4.2,36,4,35.7,4,35.2c0.1-0.3,0.3-0.6,0.7-0.6c0.4,0,0.7,0.3,0.7,0.7C5.4,35.8,5.1,36.1,4.6,36z
	 M5,28c0-0.5,0.3-0.7,0.9-0.8c0.3,0.1,0.6,0.3,0.6,0.7c0,0.5-0.3,0.8-0.8,0.7C5.3,28.7,5,28.4,5,28z M6,31.2c0-0.5,0.2-0.8,0.7-0.8
	C7,30.4,7.3,30.6,7.4,31c0.1,0.4-0.1,0.7-0.5,0.8C6.5,32,6.1,31.7,6,31.2z M7.1,34.4c0-0.4,0.2-0.7,0.7-0.7c0.5,0,0.8,0.3,0.8,0.7
	c0,0.4-0.3,0.7-0.7,0.7C7.4,35.2,7.1,34.9,7.1,34.4z M8,37.4c0.1-0.4,0.3-0.6,0.7-0.6c0.5,0,0.7,0.3,0.7,0.8
	c-0.1,0.4-0.4,0.6-0.8,0.6C8.2,38.2,8,37.9,8,37.4z M8.1,48c0-0.4,0.3-0.6,0.7-0.6c0.4,0,0.7,0.3,0.6,0.7c0,0.4-0.3,0.6-0.8,0.6
	C8.3,48.6,8,48.4,8.1,48z M7.9,58.5c0-0.4,0.2-0.7,0.6-0.7c0.4,0,0.7,0.2,0.7,0.6c0,0.4-0.2,0.7-0.6,0.7C8.2,59.2,8,59,7.9,58.5z
	 M7.9,69c0-0.4,0.3-0.7,0.7-0.6c0.4,0,0.7,0.3,0.7,0.7c0,0.4-0.3,0.7-0.7,0.7C8.1,69.7,7.9,69.4,7.9,69z M7.7,79.5
	c0-0.4,0.2-0.7,0.6-0.7C8.8,78.7,9,79,9.1,79.4c0,0.4-0.2,0.7-0.7,0.8C8.1,80.1,7.8,80,7.7,79.5z M7.7,90c0-0.4,0.3-0.7,0.7-0.7
	c0.4,0,0.7,0.3,0.7,0.7c0,0.4-0.2,0.7-0.7,0.7C8,90.6,7.8,90.4,7.7,90z M8.7,93c0.1-0.4,0.4-0.6,0.8-0.6c0.4,0,0.6,0.3,0.6,0.8
	c-0.1,0.4-0.3,0.7-0.8,0.6C8.9,93.7,8.7,93.4,8.7,93z M10.5,96.9c-0.4,0-0.6-0.2-0.7-0.6c0-0.4,0.2-0.7,0.7-0.7
	c0.4,0,0.7,0.2,0.7,0.7C11.2,96.6,10.9,96.9,10.5,96.9z M10.9,89.1c0-0.5,0.3-0.7,0.7-0.7c0.4,0,0.7,0.2,0.7,0.7
	c0,0.4-0.2,0.7-0.7,0.7C11.2,89.7,10.9,89.4,10.9,89.1z M12,92.1c0-0.4,0.3-0.7,0.7-0.7c0.4,0,0.7,0.2,0.7,0.7
	c0,0.4-0.3,0.6-0.7,0.6C12.2,92.8,12,92.5,12,92.1z M13.6,96c-0.4,0-0.7-0.2-0.7-0.6c0-0.4,0.2-0.7,0.6-0.7c0.4,0,0.7,0.2,0.7,0.7
	C14.3,95.7,14.1,95.9,13.6,96z M14,88c0-0.4,0.2-0.7,0.6-0.7c0.4-0.1,0.7,0.2,0.7,0.6c0.1,0.4-0.2,0.7-0.6,0.7
	C14.4,88.6,14.1,88.4,14,88z M15.1,90.9c0.1-0.3,0.3-0.6,0.7-0.6c0.4,0,0.7,0.3,0.6,0.7c0,0.4-0.3,0.6-0.7,0.6
	C15.4,91.7,15.1,91.4,15.1,90.9z M16.8,94.9c-0.4,0-0.7-0.2-0.7-0.7c0-0.4,0.2-0.7,0.7-0.7c0.4,0,0.7,0.2,0.7,0.7
	C17.5,94.6,17.2,94.8,16.8,94.9z M21.7,96.4c0,0.4-0.3,0.7-0.7,0.7c-0.4-0.1-0.7-0.3-0.7-0.7c0-0.4,0.3-0.7,0.7-0.7
	C21.4,95.7,21.7,96,21.7,96.4z M20.6,93.3c0,0.4-0.3,0.6-0.8,0.6c-0.4-0.1-0.6-0.3-0.6-0.7c0-0.4,0.3-0.7,0.7-0.6
	C20.4,92.6,20.6,92.9,20.6,93.3z M18.3,90.1c0-0.4,0.2-0.7,0.7-0.7c0.4,0.1,0.6,0.3,0.6,0.7c0,0.4-0.3,0.7-0.7,0.7
	C18.5,90.8,18.3,90.5,18.3,90.1z M63.8,118.3H66l-3.7,5.4L62,125h3.9l0.3-1.2h-2.5l3.7-5.4l0.3-1.3H64L63.8,118.3z M49.2,123.1
	c-0.1,0.6-0.4,0.9-0.9,0.9c-0.5,0-0.7-0.3-0.5-0.9l1.3-5.9h-1.4l-1.3,5.9c-0.3,1.4,0.3,2.1,1.6,2.1c1.3,0,2.2-0.7,2.5-2.1l1.3-5.9
	h-1.4L49.2,123.1z M55.4,121.7L55.4,121.7l0-4.6h-1.8l-1.7,7.9h1.2l1.4-6.1h0l-0.1,6.1H55l2.6-6.1h0l-1.4,6.1h1.2l1.7-7.9h-1.8
	L55.4,121.7z M70.8,123.1c-0.1,0.6-0.4,0.9-0.9,0.9s-0.7-0.3-0.5-0.9l1.3-5.9h-1.4L68,123c-0.3,1.4,0.3,2.1,1.6,2.1s2.2-0.7,2.5-2.1
	l1.3-5.9h-1.4L70.8,123.1z M68.5,69.7c0.4,0,0.7,0.2,0.7,0.6c0,0.4-0.2,0.6-0.5,0.6l4.4,4.4c0.1-0.2,0.3-0.4,0.6-0.4
	c0.4,0,0.5,0.2,0.6,0.5h9.3c0.1-0.2,0.3-0.3,0.6-0.3c0.3,0,0.5,0.1,0.6,0.3h9.5c0.1-0.3,0.4-0.4,0.7-0.3c0.2,0,0.4,0.2,0.5,0.3h3
	l2.1-2.1c0.1-0.1,0.1-0.2,0.2-0.2l4.1-4.1v-3c-0.2-0.1-0.3-0.3-0.3-0.5c0-0.2,0.1-0.4,0.3-0.5v-2.4c-0.1,0.1-0.2,0.3-0.5,0.3
	c-0.4,0-0.7-0.2-0.7-0.6c0-0.4,0.2-0.7,0.7-0.7c0.3,0,0.4,0.1,0.5,0.3v-6.5c-0.1-0.1-0.1-0.3-0.1-0.5c0-0.1,0-0.2,0.1-0.3v-2.5
	c-0.1,0.2-0.3,0.3-0.5,0.3c-0.4,0-0.6-0.3-0.7-0.6c0-0.5,0.3-0.7,0.7-0.7c0.3,0,0.4,0.1,0.6,0.3v-6.5c-0.1-0.1-0.1-0.2-0.1-0.3
	c0-0.2,0-0.3,0.1-0.5v-2.2c-0.1,0.1-0.2,0.1-0.4,0.1c-0.4-0.1-0.7-0.3-0.7-0.7c0-0.4,0.2-0.7,0.6-0.7c0.2,0,0.3,0,0.4,0.1v-6.7
	c0,0,0-0.1,0-0.1c0,0,0-0.1,0-0.1v-0.4l-4.1-4.1c-0.1,0.1-0.3,0.2-0.5,0.2c-0.4,0-0.7-0.2-0.7-0.7c0-0.2,0.1-0.4,0.2-0.6L98.6,27H97
	c-0.1,0.3-0.4,0.4-0.8,0.3c-0.2,0-0.4-0.2-0.5-0.3h-2.4c0.3,0.1,0.5,0.3,0.5,0.7c0,0.5-0.3,0.8-0.8,0.7c-0.4,0-0.6-0.3-0.7-0.7
	c0.1-0.3,0.2-0.6,0.5-0.7h-6.5c-0.1,0.2-0.4,0.4-0.7,0.3c-0.3,0-0.4-0.2-0.5-0.3h-2c0.2,0.1,0.3,0.3,0.2,0.6c0,0.4-0.3,0.7-0.7,0.7
	c-0.5,0-0.7-0.3-0.7-0.9c0-0.1,0.1-0.3,0.2-0.4h-6.4c-0.1,0.1-0.3,0.2-0.5,0.2c-0.2,0-0.4-0.1-0.5-0.2h-1.3l-0.6,0.6
	c0,0.4-0.2,0.7-0.6,0.7c0,0,0,0,0,0L67.4,33c-0.1,0.2-0.2,0.4-0.4,0.4l-0.1,0.1v9c0.3,0.1,0.5,0.3,0.5,0.7c0,0.4-0.2,0.6-0.5,0.6
	v9.2c0.2,0.1,0.3,0.2,0.3,0.5c0.1,0.3,0,0.6-0.3,0.7v9.3c0.2,0.1,0.3,0.3,0.3,0.6c0,0.3-0.1,0.5-0.3,0.6v4.4l1.1,1.1
	C68,70,68.2,69.8,68.5,69.7z M68.1,59.9c0-0.4,0.3-0.6,0.6-0.7c0.4,0,0.7,0.2,0.7,0.7c0,0.4-0.2,0.7-0.7,0.7
	C68.3,60.6,68.1,60.3,68.1,59.9z M70.8,55.2c0.4,0,0.7,0.3,0.6,0.7c0,0.4-0.3,0.6-0.7,0.6c-0.4,0-0.6-0.3-0.6-0.7
	C70.2,55.4,70.4,55.2,70.8,55.2z M69.9,53.2c-0.4,0-0.7-0.2-0.7-0.7c0-0.4,0.2-0.7,0.7-0.7c0.4,0,0.7,0.2,0.7,0.7
	C70.5,53,70.3,53.2,69.9,53.2z M71.8,58.3c0.4,0,0.7,0.2,0.7,0.6c0,0.4-0.2,0.7-0.6,0.7c-0.4,0-0.7-0.2-0.7-0.6
	C71.2,58.6,71.4,58.4,71.8,58.3z M72.3,51.6c0-0.4,0.2-0.7,0.7-0.7c0.4,0,0.6,0.3,0.7,0.7c0,0.4-0.3,0.7-0.7,0.7
	C72.5,52.3,72.3,52,72.3,51.6z M72.8,61.5c0.4,0,0.7,0.2,0.7,0.7c0,0.4-0.2,0.7-0.7,0.7c-0.4,0-0.6-0.3-0.7-0.7
	C72.2,61.7,72.4,61.5,72.8,61.5z M73.2,54.8c0-0.4,0.2-0.7,0.6-0.7c0.4,0,0.7,0.2,0.7,0.6c0,0.4-0.2,0.7-0.6,0.7
	C73.5,55.4,73.3,55.2,73.2,54.8z M75,57.2c0.4,0,0.7,0.2,0.7,0.6c0,0.4-0.2,0.7-0.6,0.7c-0.4,0-0.7-0.2-0.7-0.6
	C74.3,57.5,74.5,57.2,75,57.2z M74.3,47.4c0-0.4,0.3-0.6,0.7-0.7c0.4,0,0.7,0.3,0.7,0.7c0,0.4-0.2,0.7-0.7,0.7
	C74.6,48.1,74.3,47.8,74.3,47.4z M74,45c-0.4-0.1-0.6-0.3-0.6-0.8c0.1-0.4,0.3-0.6,0.8-0.6c0.4,0,0.6,0.3,0.6,0.7
	C74.7,44.8,74.4,45,74,45z M72.9,41.8c-0.4,0-0.6-0.3-0.6-0.7c0.1-0.4,0.3-0.7,0.7-0.7c0.4,0,0.7,0.2,0.7,0.7
	C73.7,41.6,73.4,41.9,72.9,41.8z M72.5,48.4c0.1,0.4-0.2,0.7-0.6,0.7c-0.4,0-0.7-0.2-0.8-0.6c0-0.4,0.2-0.7,0.6-0.7
	C72.2,47.8,72.5,48,72.5,48.4z M70.9,46c-0.4-0.1-0.7-0.3-0.6-0.7c0-0.4,0.3-0.7,0.7-0.6c0.4,0,0.6,0.3,0.6,0.7
	C71.6,45.8,71.3,46,70.9,46z M69.8,42.8c-0.4,0-0.7-0.3-0.7-0.7c0-0.4,0.2-0.6,0.7-0.7c0.3,0.1,0.6,0.2,0.7,0.6
	C70.6,42.5,70.3,42.8,69.8,42.8z M69.4,49.4c0,0.4-0.3,0.7-0.7,0.7c-0.4,0-0.7-0.2-0.7-0.7c0-0.4,0.3-0.6,0.7-0.7
	C69.2,48.8,69.4,49,69.4,49.4z M69,63.1c0.1-0.3,0.3-0.6,0.7-0.6c0.4,0,0.7,0.3,0.7,0.7c0,0.4-0.2,0.7-0.7,0.6
	C69.3,63.8,69,63.6,69,63.1z M70.1,66.4c0-0.4,0.1-0.7,0.6-0.7c0.4,0,0.7,0.2,0.7,0.6c0,0.4-0.3,0.6-0.7,0.6
	C70.4,67,70.2,66.8,70.1,66.4z M71.1,69.3c0.1-0.3,0.3-0.6,0.6-0.5c0.4,0,0.7,0.3,0.6,0.7c0,0.4-0.3,0.6-0.7,0.6
	C71.2,70,71,69.7,71.1,69.3z M72.9,73.2c-0.4,0-0.7-0.2-0.7-0.6c0-0.4,0.3-0.7,0.7-0.6c0.4,0,0.6,0.3,0.6,0.7
	C73.4,73,73.2,73.2,72.9,73.2z M73.8,65.9c-0.4-0.1-0.6-0.4-0.5-0.8c0-0.3,0.3-0.5,0.6-0.5c0.4,0,0.7,0.2,0.6,0.7
	C74.5,65.7,74.3,65.9,73.8,65.9z M74.2,68.4c0-0.4,0.2-0.7,0.6-0.7c0.3,0,0.6,0.2,0.7,0.5c0.1,0.4-0.1,0.7-0.6,0.8
	C74.5,69.1,74.3,68.8,74.2,68.4z M75.3,71.6c0-0.4,0.3-0.7,0.7-0.7c0.4,0,0.6,0.3,0.6,0.7c0,0.3-0.2,0.6-0.6,0.6
	C75.6,72.3,75.3,72.1,75.3,71.6z M77.1,75.4c-0.4,0-0.7-0.2-0.7-0.6c0-0.4,0.2-0.7,0.7-0.6c0.4,0,0.6,0.3,0.6,0.7
	C77.7,75.2,77.4,75.4,77.1,75.4z M77.5,67.4c0-0.4,0.3-0.6,0.7-0.6c0.4,0.1,0.6,0.3,0.6,0.7c0,0.3-0.2,0.6-0.6,0.6
	C77.8,68.1,77.5,67.8,77.5,67.4z M79,71.2c-0.4,0-0.6-0.3-0.6-0.7c0.1-0.4,0.4-0.6,0.8-0.5c0.3,0,0.5,0.3,0.5,0.6
	C79.7,71,79.5,71.2,79,71.2z M80.1,74.3c-0.3,0-0.5-0.3-0.5-0.6c0-0.4,0.3-0.6,0.7-0.6c0.4,0.1,0.7,0.3,0.6,0.7
	C80.8,74.2,80.5,74.4,80.1,74.3z M81.6,69.5c0-0.4,0.2-0.7,0.6-0.7c0.4,0,0.6,0.2,0.7,0.7c0,0.3-0.2,0.6-0.5,0.6
	C81.9,70.1,81.6,69.9,81.6,69.5z M83.3,73.4c-0.4,0-0.6-0.2-0.6-0.5c-0.1-0.4,0.1-0.7,0.6-0.7c0.3,0.1,0.6,0.2,0.6,0.6
	C84,73.1,83.7,73.4,83.3,73.4z M84.9,68.7c-0.1-0.4,0.1-0.7,0.5-0.8c0.4-0.1,0.7,0.2,0.8,0.6c0,0.4-0.2,0.6-0.6,0.7
	C85.2,69.2,85,69,84.9,68.7z M85.8,71.6c0.1-0.4,0.2-0.7,0.7-0.6c0.4,0,0.6,0.3,0.6,0.7c0,0.4-0.3,0.5-0.6,0.6
	C86.1,72.3,85.9,72.1,85.8,71.6z M87.6,75.4c-0.4,0-0.7-0.2-0.7-0.6c0-0.4,0.2-0.6,0.6-0.7c0.4,0,0.6,0.3,0.6,0.7
	C88.2,75.2,88,75.4,87.6,75.4z M88,67.4c0-0.3,0.2-0.6,0.5-0.6c0.4,0,0.7,0.1,0.7,0.6c0,0.4-0.2,0.6-0.6,0.7
	C88.3,68.1,88.1,67.8,88,67.4z M89,70.5c0-0.3,0.2-0.6,0.6-0.6c0.4,0,0.7,0.2,0.7,0.6c0,0.4-0.3,0.6-0.7,0.7
	C89.2,71.1,89,70.9,89,70.5z M90.8,74.5c-0.4,0-0.7-0.1-0.8-0.6c0-0.4,0.2-0.7,0.6-0.7c0.4,0,0.6,0.2,0.7,0.6
	C91.4,74.2,91.2,74.4,90.8,74.5z M92.1,69.5c0.1-0.3,0.2-0.6,0.7-0.6c0.3,0,0.6,0.2,0.6,0.5c0,0.4-0.2,0.7-0.6,0.7
	C92.4,70.3,92.2,70,92.1,69.5z M93.9,73.4c-0.4,0-0.6-0.2-0.7-0.6c0-0.4,0.3-0.6,0.7-0.6c0.3,0,0.6,0.2,0.6,0.6
	C94.5,73.1,94.3,73.4,93.9,73.4z M95.4,68.5c0-0.4,0.3-0.6,0.7-0.7c0.4,0.1,0.6,0.3,0.6,0.7c0,0.3-0.2,0.6-0.6,0.6
	C95.7,69.1,95.4,68.9,95.4,68.5z M98.8,64.5c0,0.4-0.4,0.6-0.8,0.6c-0.3,0-0.5-0.3-0.5-0.6c0-0.4,0.2-0.6,0.7-0.7
	C98.5,63.9,98.8,64.1,98.8,64.5z M97.6,54c0-0.4,0.3-0.7,0.7-0.7c0.4,0,0.7,0.2,0.7,0.7c0,0.4-0.2,0.7-0.7,0.7
	C97.8,54.6,97.6,54.4,97.6,54z M98.5,57.3c-0.1-0.4,0.1-0.7,0.5-0.8c0.4-0.1,0.7,0.1,0.8,0.5c0.1,0.4-0.1,0.7-0.5,0.8
	C98.9,57.8,98.7,57.6,98.5,57.3z M100.4,59.6c0.4,0.1,0.6,0.3,0.6,0.7c0,0.4-0.3,0.6-0.7,0.6c-0.4,0-0.6-0.3-0.6-0.7
	C99.6,59.8,99.9,59.6,100.4,59.6z M100.7,52.8c0-0.4,0.3-0.6,0.7-0.6c0.4,0,0.6,0.3,0.6,0.7c0,0.4-0.3,0.6-0.7,0.6
	C100.9,53.5,100.7,53.3,100.7,52.8z M102.4,55.3c0.4,0,0.6,0.3,0.6,0.7c0,0.4-0.3,0.6-0.7,0.6c-0.4-0.1-0.6-0.3-0.6-0.7
	C101.7,55.5,102,55.3,102.4,55.3z M101.8,45.6c0-0.4,0.2-0.7,0.6-0.7c0.4,0,0.7,0.2,0.7,0.7c0,0.4-0.2,0.7-0.7,0.7
	C102.1,46.2,101.8,46,101.8,45.6z M101.4,43.1c-0.4,0-0.7-0.2-0.7-0.6c0-0.5,0.2-0.7,0.6-0.8c0.4-0.1,0.7,0.1,0.8,0.5
	C102.1,42.7,101.9,43.1,101.4,43.1z M101,49.7c0,0.4-0.2,0.6-0.6,0.7c-0.4,0-0.7-0.2-0.7-0.6c0-0.4,0.2-0.7,0.6-0.7
	C100.7,49.1,101,49.3,101,49.7z M99.4,47.3c-0.4,0.1-0.7-0.2-0.8-0.7c0.1-0.3,0.2-0.6,0.6-0.7c0.4,0,0.7,0.2,0.8,0.6
	C100.1,47,99.8,47.2,99.4,47.3z M98.2,44c-0.4,0-0.6-0.2-0.7-0.6c0-0.5,0.2-0.7,0.6-0.8c0.4,0,0.7,0.2,0.7,0.6
	C99,43.7,98.7,44,98.2,44z M97.4,40.9c-0.5,0.1-0.8-0.2-0.8-0.7c0-0.4,0.2-0.6,0.6-0.7c0.4,0,0.7,0.2,0.7,0.6
	C98,40.5,97.9,40.8,97.4,40.9z M97.8,50.6c0,0.4-0.2,0.7-0.6,0.7c-0.4,0-0.7-0.2-0.7-0.6c0-0.4,0.2-0.7,0.6-0.7
	C97.5,50,97.8,50.2,97.8,50.6z M97.8,61.2c0,0.4-0.2,0.7-0.7,0.7c-0.4,0-0.6-0.2-0.6-0.5c-0.1-0.4,0.1-0.7,0.6-0.7
	C97.5,60.6,97.8,60.7,97.8,61.2z M96.3,71.9c-0.1-0.4,0.2-0.7,0.6-0.7c0.4,0,0.7,0.2,0.7,0.6c0,0.3-0.2,0.6-0.5,0.7
	C96.7,72.5,96.4,72.3,96.3,71.9z M98.1,75.6c-0.4,0-0.6-0.3-0.6-0.7c0.1-0.4,0.3-0.6,0.7-0.6c0.3,0,0.6,0.2,0.6,0.6
	C98.8,75.3,98.5,75.6,98.1,75.6z M98.5,67.6c0-0.4,0.2-0.7,0.7-0.7c0.4,0,0.6,0.2,0.6,0.5c0.1,0.4-0.1,0.7-0.6,0.8
	C98.9,68.2,98.5,68.1,98.5,67.6z M100.2,71.3c-0.4,0-0.7-0.2-0.7-0.6c0-0.4,0.3-0.7,0.7-0.7c0.4,0,0.6,0.3,0.6,0.7
	C100.8,71.1,100.5,71.3,100.2,71.3z M100.6,63.3c0-0.4,0.2-0.6,0.5-0.6c0.4,0,0.7,0.1,0.7,0.6c0,0.4-0.2,0.6-0.6,0.7
	C100.8,64,100.6,63.8,100.6,63.3z M101.7,66.4c0.1-0.4,0.4-0.6,0.8-0.5c0.3,0,0.5,0.3,0.5,0.6c0,0.4-0.2,0.7-0.7,0.6
	C101.9,67.1,101.7,66.8,101.7,66.4z M103.9,69.6c0,0.3-0.2,0.6-0.5,0.7c-0.4,0.1-0.7-0.1-0.8-0.5c-0.1-0.4,0.2-0.7,0.6-0.7
	C103.6,69,103.9,69.2,103.9,69.6z M104.1,59.1c0,0.4-0.2,0.7-0.6,0.7c-0.4,0-0.7-0.2-0.7-0.6c0-0.4,0.2-0.7,0.6-0.7
	C103.8,58.5,104.1,58.7,104.1,59.1z M104.1,48.7c-0.1,0.4-0.3,0.6-0.8,0.6c-0.4,0-0.6-0.3-0.6-0.7c0.1-0.4,0.3-0.6,0.8-0.6
	C103.9,48.1,104.2,48.3,104.1,48.7z M104.3,38.1c0,0.4-0.2,0.7-0.6,0.7c-0.5,0-0.8-0.2-0.8-0.7c0-0.4,0.3-0.6,0.7-0.6
	C104,37.5,104.3,37.8,104.3,38.1z M103.2,35.1c0,0.4-0.3,0.7-0.7,0.7c-0.5,0-0.7-0.3-0.8-0.9c0.1-0.3,0.3-0.6,0.7-0.6
	C103,34.3,103.2,34.6,103.2,35.1z M101.6,31.2c0.4,0,0.7,0.2,0.7,0.7c0,0.5-0.3,0.8-0.7,0.8c-0.5,0-0.8-0.3-0.7-0.8
	C100.9,31.4,101.1,31.2,101.6,31.2z M101.1,39.2c0.1,0.5-0.2,0.8-0.7,0.8c-0.4,0-0.6-0.2-0.7-0.6c0-0.5,0.2-0.7,0.6-0.8
	C100.8,38.5,101.1,38.8,101.1,39.2z M100,36c0,0.5-0.2,0.8-0.7,0.8c-0.4,0-0.7-0.3-0.7-0.7c0-0.4,0.2-0.7,0.7-0.7
	C99.7,35.5,100,35.6,100,36z M99.1,32.9c0,0.4-0.2,0.7-0.6,0.7c-0.5,0-0.8-0.3-0.8-0.7c0-0.4,0.2-0.7,0.7-0.7
	C98.8,32.1,99.1,32.4,99.1,32.9z M97.2,29c0.5-0.1,0.8,0.2,0.9,0.6c0,0.5-0.3,0.8-0.7,0.8c-0.4,0-0.7-0.2-0.7-0.7
	C96.6,29.4,96.8,29.1,97.2,29z M95.8,34c0,0.4-0.3,0.7-0.7,0.7c-0.5,0-0.8-0.3-0.7-0.8c0-0.4,0.3-0.6,0.7-0.7
	C95.6,33.3,95.9,33.5,95.8,34z M94.2,30.1c0.4,0,0.7,0.3,0.7,0.7c0,0.5-0.2,0.8-0.7,0.8c-0.4,0-0.7-0.2-0.7-0.7
	C93.4,30.4,93.7,30.1,94.2,30.1z M92.7,34.8c0.1,0.4-0.1,0.7-0.6,0.8c-0.5,0.1-0.8-0.2-0.8-0.7c0-0.4,0.2-0.6,0.6-0.7
	C92.3,34.2,92.6,34.4,92.7,34.8z M91.8,31.8c0,0.4-0.3,0.7-0.7,0.7c-0.5,0-0.8-0.3-0.7-0.8c0-0.4,0.3-0.6,0.7-0.7
	C91.5,31.1,91.8,31.3,91.8,31.8z M90,27.9c0.4,0,0.7,0.3,0.7,0.7c0,0.5-0.3,0.8-0.8,0.7c-0.4,0-0.6-0.3-0.7-0.7
	C89.2,28.2,89.5,27.9,90,27.9z M88.6,32.8c0,0.5-0.3,0.8-0.7,0.8c-0.5,0-0.8-0.3-0.7-0.8c0-0.4,0.3-0.6,0.7-0.7
	C88.3,32.1,88.6,32.4,88.6,32.8z M86.8,29c0.4,0,0.7,0.2,0.7,0.7c0,0.5-0.3,0.8-0.7,0.8c-0.5,0-0.8-0.3-0.7-0.8
	C86.1,29.2,86.4,29,86.8,29z M85.3,33.7c0.1,0.5-0.2,0.8-0.6,0.9c-0.5,0-0.8-0.3-0.8-0.7c0-0.4,0.2-0.7,0.7-0.7
	C84.9,33.1,85.2,33.2,85.3,33.7z M83.7,29.9c0.4,0,0.7,0.2,0.7,0.7c0,0.4-0.3,0.7-0.7,0.7c-0.5,0-0.8-0.3-0.8-0.7
	C82.9,30.3,83.2,30,83.7,29.9z M82.1,34.9c0,0.5-0.3,0.8-0.8,0.7c-0.4,0-0.6-0.3-0.6-0.7c0.1-0.4,0.3-0.7,0.7-0.7
	C81.9,34.2,82.2,34.4,82.1,34.9z M81.2,31.8c-0.1,0.5-0.4,0.7-0.9,0.6c-0.4-0.1-0.6-0.4-0.6-0.8c0.1-0.4,0.4-0.7,0.9-0.7
	C81,31.1,81.3,31.4,81.2,31.8z M79.5,27.9c0.4,0,0.7,0.3,0.7,0.7c0,0.5-0.3,0.7-0.8,0.7c-0.4-0.1-0.6-0.3-0.6-0.7
	C78.7,28.1,79,27.9,79.5,27.9z M79,36.1c0,0.2-0.1,0.3-0.2,0.4h6.5c0.1-0.1,0.3-0.1,0.5-0.1c0.1,0,0.3,0.1,0.4,0.1h2.2
	c-0.2-0.1-0.2-0.3-0.2-0.6c0-0.4,0.3-0.6,0.7-0.6c0.4,0,0.7,0.3,0.7,0.7c0,0.2-0.1,0.4-0.2,0.5h6.2v0.3c0.1-0.3,0.3-0.4,0.6-0.4
	c0.5,0,0.8,0.3,0.7,0.8c-0.1,0.4-0.3,0.6-0.8,0.6c-0.2,0-0.4-0.2-0.5-0.4v6.5c0.1,0.1,0.2,0.3,0.2,0.5c0,0.2-0.1,0.4-0.2,0.5v2.4
	c0.1-0.3,0.3-0.5,0.7-0.5c0.4,0,0.7,0.3,0.6,0.7c0,0.4-0.3,0.6-0.7,0.6c-0.3,0-0.5-0.2-0.6-0.5v6.7c0.2,0.1,0.2,0.3,0.2,0.6
	c0,0.2-0.1,0.3-0.2,0.4v2.2c0.1-0.1,0.3-0.2,0.6-0.2c0.4,0,0.6,0.3,0.6,0.7c-0.1,0.4-0.3,0.6-0.7,0.6c-0.2,0-0.3-0.1-0.4-0.2v6.6
	c0,0.1,0.1,0.2,0,0.4c0,0.1,0,0.1,0,0.1v0.4h-3.2c0.1,0.1,0.1,0.2,0.1,0.4c0,0.4-0.2,0.7-0.7,0.7c-0.4,0-0.6-0.2-0.6-0.5
	c0-0.2,0-0.4,0.1-0.5h-9.4c0,0.1,0,0.1,0.1,0.2c0,0.4-0.2,0.6-0.5,0.6c-0.4,0.1-0.7-0.1-0.8-0.5c0-0.1,0-0.2,0-0.3h-4.3v-4.5
	c-0.1,0.1-0.2,0.1-0.4,0.1c-0.4,0-0.7-0.2-0.7-0.7c0.1-0.4,0.3-0.6,0.7-0.6c0.2,0,0.3,0.1,0.4,0.1v-9.3c-0.1,0-0.2,0-0.3,0
	c-0.4,0-0.6-0.3-0.7-0.7c0-0.4,0.3-0.7,0.7-0.7c0.1,0,0.2,0,0.2,0v-9.2c-0.1,0-0.2,0-0.3,0c-0.4,0-0.6-0.3-0.6-0.7
	c0.1-0.4,0.3-0.7,0.7-0.7c0.1,0,0.2,0,0.3,0v-2.9h1.5c-0.1-0.1-0.2-0.3-0.2-0.6c0.1-0.4,0.3-0.7,0.7-0.7C78.8,35.3,79,35.6,79,36.1z
	 M78.1,32.6c0,0.4-0.2,0.7-0.6,0.8c-0.5,0.1-0.8-0.2-0.9-0.6c0-0.5,0.3-0.8,0.7-0.8C77.8,32,78,32.2,78.1,32.6z M76.3,28.8
	c0.4,0,0.7,0.3,0.7,0.7c0,0.5-0.2,0.8-0.7,0.8c-0.4,0-0.7-0.2-0.7-0.6C75.5,29.1,75.8,28.8,76.3,28.8z M75.2,36.2
	c0.4,0,0.7,0.2,0.7,0.7c0,0.5-0.3,0.8-0.8,0.7c-0.4,0-0.6-0.3-0.6-0.7C74.5,36.5,74.7,36.2,75.2,36.2z M74.8,33.9
	c0,0.4-0.3,0.7-0.7,0.7c-0.5,0-0.7-0.3-0.7-0.9c0.1-0.3,0.3-0.5,0.7-0.5C74.6,33.1,74.8,33.4,74.8,33.9z M73.2,29.9
	c0.4,0,0.7,0.3,0.7,0.7c0,0.5-0.3,0.7-0.8,0.7c-0.4-0.1-0.7-0.3-0.7-0.7C72.4,30.2,72.7,29.9,73.2,29.9z M72.7,38.1
	c0,0.4-0.3,0.7-0.7,0.7c-0.4,0-0.6-0.3-0.7-0.7c0-0.4,0.2-0.7,0.6-0.7C72.4,37.3,72.7,37.6,72.7,38.1z M71.6,34.8
	c0.1,0.5-0.2,0.8-0.7,0.8c-0.4,0-0.7-0.2-0.7-0.6c0-0.5,0.2-0.7,0.6-0.8C71.2,34.1,71.5,34.3,71.6,34.8z M70.1,30.9
	c0.4,0,0.7,0.3,0.7,0.7c0,0.5-0.3,0.7-0.9,0.8c-0.3-0.1-0.6-0.3-0.6-0.7C69.3,31.1,69.6,30.9,70.1,30.9z M69.6,38.8
	c0.1,0.5-0.2,0.8-0.7,0.8c-0.4,0-0.6-0.2-0.7-0.6c0-0.4,0.2-0.7,0.6-0.7C69.2,38.2,69.5,38.4,69.6,38.8z M67.1,35.8
	c0.1-0.4,0.3-0.6,0.7-0.6c0.4,0,0.7,0.3,0.7,0.7c0,0.5-0.3,0.8-0.8,0.7C67.3,36.5,67.1,36.2,67.1,35.8z M67,46.4
	c0-0.4,0.2-0.7,0.6-0.7c0.4,0,0.7,0.2,0.7,0.6c0.1,0.4-0.2,0.7-0.7,0.8C67.3,47,67,46.8,67,46.4z M67,56.7c0.1-0.4,0.3-0.6,0.7-0.5
	c0.4,0.1,0.6,0.3,0.6,0.7c-0.1,0.4-0.3,0.6-0.7,0.6C67.1,57.4,67,57.1,67,56.7z M67,67.1c0.1-0.3,0.3-0.6,0.6-0.5
	c0.4,0,0.7,0.3,0.6,0.7c0,0.4-0.3,0.6-0.7,0.6C67.1,67.8,66.9,67.6,67,67.1z M43.7,117.1h-1.9L40,125h1.4l0.7-3.2c0.2,0,0.5,0,0.7,0
	L43,125h1.4l-0.4-3.6c0.5-0.2,1.1-0.7,1.4-2C45.8,117.8,45.2,117.1,43.7,117.1z M44.1,119.5c-0.2,0.9-0.5,1.2-1.3,1.2h-0.5l0.5-2.4
	h0.5C44.1,118.3,44.3,118.5,44.1,119.5z M76,125h1.3l0.6-1.7h1.5l-0.1,1.7h1.3l0.3-7.9h-1.7L76,125z M79.7,118.7l-0.2,3.4h-1.1
	L79.7,118.7L79.7,118.7z M34.1,117.1l-1.9,5h0l0.2-5h-1.1l-2,5h0l0.3-5h-1.3l-0.3,7.9h1.1l2.1-5.2h0l-0.2,5.2h1.1l3.1-7.9H34.1z
	 M34.1,125h1.3l0.6-1.7h1.5l-0.1,1.7h1.3l0.3-7.9h-1.7L34.1,125z M37.8,118.7l-0.2,3.4h-1.1L37.8,118.7L37.8,118.7z M19,129h112v-16
	H19V129z M20,114h110v14H20V114z M114.7,120.1L114.7,120.1l-0.3-3H113l0.6,4.6l-0.7,3.3h1.4l0.7-3.3l2.6-4.6h-1.4L114.7,120.1z
	 M117.9,125h1.3l0.3-1.3h-1.3L117.9,125z M108,121.7L108,121.7l0-4.6h-1.8l-1.7,7.9h1.2l1.4-6.1h0L107,125h0.7l2.6-6.1h0l-1.4,6.1
	h1.2l1.7-7.9H110L108,121.7z M120.6,117c-1,0-1.7,0.5-2.3,1.4l1,0.4c0.2-0.4,0.5-0.8,1-0.8c0.3,0,0.4,0.2,0.3,0.5
	c-0.1,0.4-0.5,0.8-0.9,1.4c-0.4,0.5-0.8,1.1-1,1.9l-0.2,0.9h1l0.1-0.6c0.2-1,0.7-1.5,1.1-1.9c0.4-0.5,0.9-0.9,1.1-1.7
	C122.1,117.7,121.5,117,120.6,117z M87.4,125h1.3l0.6-1.7h1.5l-0.1,1.7h1.3l0.3-7.9h-1.7L87.4,125z M91,118.7l-0.2,3.4h-1.1
	L91,118.7L91,118.7z M105.1,96.4v-8.3h-2.9c0,0,0,0,0,0c0,0,0,0,0,0h-2.6c0.1,0.1,0.2,0.3,0.2,0.5c0,0.4-0.3,0.5-0.6,0.6
	c-0.4,0-0.6-0.2-0.6-0.5c0-0.2,0-0.4,0.2-0.5h-6.9c0,0,0,0,0,0c0,0,0,0,0,0h-2.6c0,0.1,0,0.2,0.1,0.3c0,0.3-0.2,0.6-0.5,0.7
	c-0.4,0.1-0.7-0.1-0.8-0.5c0-0.2,0-0.3,0.1-0.4h-9.3c0,0.1,0.1,0.1,0.1,0.2c0,0.4-0.2,0.6-0.7,0.7c-0.3-0.1-0.6-0.3-0.6-0.7
	c0-0.1,0-0.2,0.1-0.3h-9.3c0,0.1,0,0.1,0,0.2c0,0.3-0.3,0.5-0.6,0.5c-0.3,0-0.5-0.2-0.6-0.4v7c0,0.1,0,0.2,0,0.3c0,0,0,0,0,0.1v1.9
	h3c0.1-0.4,0.3-0.5,0.7-0.5c0.3,0,0.5,0.2,0.6,0.5h9.2c0.1-0.3,0.3-0.5,0.7-0.5c0.3,0,0.5,0.2,0.6,0.5H91c0.1-0.2,0.3-0.3,0.6-0.4
	c0.2,0,0.5,0.1,0.6,0.4h9.4c0.1-0.2,0.3-0.3,0.6-0.3c0.3,0,0.5,0.1,0.5,0.3h2.5v0c-0.2-0.1-0.3-0.2-0.4-0.5
	C104.6,96.8,104.8,96.5,105.1,96.4z M67.7,91.4c0.1-0.4,0.3-0.6,0.7-0.6c0.4,0,0.6,0.3,0.6,0.7c0,0.4-0.3,0.7-0.7,0.6
	C68,92.2,67.8,91.9,67.7,91.4z M69.5,95.3c-0.4,0-0.6-0.3-0.6-0.8c0.1-0.4,0.3-0.6,0.7-0.5c0.4,0,0.7,0.3,0.6,0.7
	C70.1,95.1,69.9,95.4,69.5,95.3z M70.9,90.5c-0.1-0.4,0.2-0.7,0.6-0.8c0.4,0,0.7,0.2,0.7,0.6c0,0.4-0.2,0.6-0.5,0.6
	C71.3,91.1,71,90.9,70.9,90.5z M72,93.5c0-0.4,0.2-0.6,0.8-0.7c0.3,0.1,0.6,0.3,0.6,0.7c0,0.4-0.3,0.6-0.7,0.7
	C72.2,94.2,72,94,72,93.5z M73.6,97.3c-0.4,0-0.7-0.2-0.7-0.7c0-0.4,0.2-0.6,0.8-0.7c0.3,0.1,0.6,0.3,0.6,0.7
	C74.3,97.1,74,97.3,73.6,97.3z M74,89.5c0-0.4,0.2-0.7,0.7-0.7c0.4,0,0.6,0.2,0.6,0.5c0.1,0.4-0.1,0.7-0.6,0.7
	C74.4,90.1,74.1,89.9,74,89.5z M75.2,92.7c0-0.4,0.2-0.7,0.6-0.7c0.4,0,0.7,0.2,0.7,0.6c0,0.4-0.2,0.6-0.5,0.6
	C75.5,93.3,75.2,93.1,75.2,92.7z M77,96.4c-0.4,0-0.7-0.2-0.7-0.6c0-0.4,0.2-0.7,0.6-0.7c0.4-0.1,0.7,0.2,0.7,0.6
	C77.6,96.1,77.4,96.3,77,96.4z M78.3,91.6c-0.1-0.4,0.1-0.7,0.6-0.7c0.4,0,0.7,0.2,0.7,0.6c0,0.4-0.2,0.7-0.7,0.7
	C78.6,92.2,78.4,92,78.3,91.6z M80.2,95.3c-0.4,0.1-0.7-0.1-0.8-0.5c-0.1-0.4,0.2-0.7,0.6-0.7c0.4,0,0.7,0.2,0.7,0.6
	C80.7,95,80.5,95.2,80.2,95.3z M81.4,90.5c0.1-0.4,0.3-0.6,0.8-0.6c0.3,0.1,0.6,0.3,0.5,0.6c0,0.4-0.3,0.7-0.7,0.6
	C81.6,91.2,81.5,90.9,81.4,90.5z M82.5,93.8c-0.1-0.4,0.2-0.7,0.7-0.7c0.3,0,0.6,0.2,0.6,0.6c0,0.3-0.2,0.6-0.5,0.7
	C82.9,94.4,82.6,94.2,82.5,93.8z M84.2,97.5c-0.4,0-0.7-0.2-0.8-0.7c0.1-0.3,0.2-0.6,0.7-0.6c0.4,0,0.6,0.2,0.6,0.5
	C84.8,97.1,84.6,97.4,84.2,97.5z M84.7,89.5c0-0.4,0.2-0.7,0.6-0.7c0.4,0,0.6,0.3,0.6,0.7c0,0.3-0.2,0.6-0.5,0.6
	C85.1,90.1,84.8,90,84.7,89.5z M85.7,92.6c0-0.4,0.2-0.7,0.6-0.7c0.4,0,0.6,0.3,0.6,0.7c0,0.3-0.2,0.6-0.5,0.6
	C86,93.3,85.7,93.1,85.7,92.6z M87.4,96.4c-0.4-0.1-0.6-0.3-0.6-0.8c0.1-0.3,0.3-0.6,0.6-0.5c0.4,0,0.7,0.3,0.6,0.7
	C88.1,96.2,87.7,96.4,87.4,96.4z M89.5,92.3c-0.4,0-0.7-0.2-0.7-0.6c0.1-0.4,0.3-0.7,0.7-0.6c0.4,0,0.6,0.3,0.6,0.7
	C90.1,92.1,89.8,92.3,89.5,92.3z M90.6,95.4c-0.4,0-0.6-0.2-0.6-0.7c0.1-0.4,0.3-0.7,0.7-0.6c0.4,0.1,0.6,0.4,0.6,0.8
	C91.2,95.2,90.9,95.4,90.6,95.4z M91.9,90.6c0-0.4,0.3-0.6,0.7-0.6c0.3,0,0.6,0.2,0.6,0.6c0,0.4-0.2,0.7-0.7,0.7
	C92.2,91.2,91.9,91,91.9,90.6z M93.1,93.7c0-0.4,0.2-0.7,0.6-0.7c0.3,0,0.6,0.2,0.7,0.5c0.1,0.4-0.1,0.7-0.6,0.8
	C93.4,94.4,93.1,94.2,93.1,93.7z M94.9,97.5c-0.4,0-0.7-0.2-0.7-0.6c0-0.4,0.2-0.6,0.7-0.7c0.3,0.1,0.6,0.2,0.6,0.7
	C95.4,97.2,95.2,97.5,94.9,97.5z M95.3,89.7c0-0.4,0.2-0.6,0.7-0.7c0.3,0.1,0.6,0.2,0.6,0.7c0,0.4-0.3,0.6-0.7,0.6
	C95.5,90.3,95.3,90,95.3,89.7z M96.8,93.4c-0.4,0-0.5-0.3-0.6-0.6c0-0.4,0.2-0.6,0.6-0.7c0.4,0.1,0.7,0.2,0.6,0.7
	C97.5,93.2,97.2,93.4,96.8,93.4z M98.1,96.5c-0.4,0.1-0.7-0.1-0.8-0.5c-0.1-0.4,0.2-0.7,0.6-0.7c0.4,0,0.7,0.2,0.7,0.6
	C98.6,96.2,98.4,96.5,98.1,96.5z M99.3,91.6c0.1-0.4,0.3-0.7,0.7-0.6c0.4,0.1,0.6,0.4,0.6,0.8c0,0.3-0.3,0.5-0.6,0.5
	C99.6,92.3,99.4,92.1,99.3,91.6z M101.1,95.4c-0.4,0-0.7-0.2-0.7-0.6c0-0.4,0.3-0.7,0.7-0.6c0.4,0,0.6,0.3,0.6,0.7
	C101.7,95.2,101.5,95.4,101.1,95.4z M102.6,90.7c0.1-0.4,0.3-0.7,0.7-0.6c0.4,0,0.6,0.3,0.6,0.7c0,0.3-0.2,0.6-0.6,0.6
	C102.9,91.4,102.7,91.2,102.6,90.7z M104.3,94.5c-0.4,0-0.7-0.1-0.8-0.6c0-0.4,0.2-0.7,0.6-0.7c0.4,0,0.6,0.2,0.7,0.6
	C104.9,94.2,104.7,94.5,104.3,94.5z M104.3,118.3l0.3-1.2H101l-1.7,7.9h3.8l0.3-1.2h-2.4l0.5-2.3h1.7l0.3-1.2h-1.7l0.4-2H104.3z
	 M85.7,117c-1.4,0-2.3,0.9-2.5,2l-0.9,4.1c-0.3,1.1,0.2,2,1.6,2c1.4,0,2.2-0.9,2.5-2l0.2-0.9h-1.4l-0.2,0.9
	c-0.1,0.5-0.3,0.8-0.8,0.8c-0.5,0-0.7-0.3-0.5-0.9l0.9-4c0.1-0.6,0.4-0.9,0.9-0.9c0.3,0,0.6,0.3,0.4,0.9l-0.1,0.6h1.4l0.1-0.6
	C87.5,118,87.1,117,85.7,117z M97,117.1h-2l-1.7,7.9h2c1.4,0,2.3-0.8,2.7-2.4l0.7-3.1C99,117.9,98.4,117.1,97,117.1z M97.3,119.4
	l-0.8,3.4c-0.2,0.8-0.5,1.1-1.2,1.1h-0.5l1.2-5.6h0.5C97.3,118.3,97.5,118.5,97.3,119.4z"/>
</svg>
