<?xml version="1.0" encoding="utf-8"?>
<!-- Generator: Adobe Illustrator 19.1.0, SVG Export Plug-In . SVG Version: 6.00 Build 0)  -->
<svg version="1.1" id="Ebene_1" xmlns="http://www.w3.org/2000/svg" xmlns:xlink="http://www.w3.org/1999/xlink" x="0px" y="0px"
	 viewBox="0 0 150 150" style="enable-background:new 0 0 150 150;" xml:space="preserve">
<style type="text/css">
	.st0{fill:#FABB00;}
	.st1{fill:#F1B200;}
	.st2{fill:none;stroke:#F3B400;stroke-width:0.9243;stroke-miterlimit:10;}
	.st3{fill:none;stroke:#F3B400;stroke-width:0.9243;stroke-miterlimit:10;stroke-dasharray:1.4113,1.4113;}
	.st4{fill:none;stroke:#F3B400;stroke-width:0.9243;stroke-miterlimit:10;stroke-dasharray:1.277,1.277;}
	.st5{fill:none;stroke:#F3B400;stroke-width:0.9243;stroke-miterlimit:10;stroke-dasharray:1.9227,1.9227;}
	.st6{fill:none;stroke:#F3B400;stroke-width:0.9243;stroke-miterlimit:10;stroke-dasharray:1.5862,1.5862;}
	.st7{fill:none;stroke:#F3B400;stroke-width:0.9243;stroke-miterlimit:10;stroke-dasharray:1.4973,1.4973;}
	.st8{fill:none;stroke:#F3B400;stroke-width:0.9243;stroke-miterlimit:10;stroke-dasharray:1.5984,1.5984;}
	.st9{fill:none;stroke:#F3B400;stroke-width:0.9243;stroke-miterlimit:10;stroke-dasharray:1.4757,1.4757;}
	.st10{fill:none;stroke:#F3B400;stroke-width:0.9243;stroke-miterlimit:10;stroke-dasharray:1.4668,1.4668;}
	.st11{fill:none;stroke:#F3B400;stroke-width:0.9243;stroke-miterlimit:10;stroke-dasharray:1.5463,1.5463;}
	.st12{fill:none;stroke:#F3B400;stroke-width:0.9243;stroke-miterlimit:10;stroke-dasharray:1.4901,1.4901;}
	.st13{fill:none;stroke:#F3B400;stroke-width:0.9243;stroke-miterlimit:10;stroke-dasharray:1.5407,1.5407;}
	.st14{fill:none;stroke:#F3B400;stroke-width:0.9243;stroke-miterlimit:10;stroke-dasharray:1.525,1.525;}
	.st15{fill:none;stroke:#F3B400;stroke-width:0.9243;stroke-miterlimit:10;stroke-dasharray:1.4952,1.4952;}
	.st16{fill:none;stroke:#F3B400;stroke-width:0.9243;stroke-miterlimit:10;stroke-dasharray:1.5693,1.5693;}
	.st17{fill:none;stroke:#F3B400;stroke-width:0.9243;stroke-miterlimit:10;stroke-dasharray:1.5169,1.5169;}
	.st18{fill:none;stroke:#F3B400;stroke-width:0.9243;stroke-miterlimit:10;stroke-dasharray:1.7111,1.7111;}
	.st19{fill:none;stroke:#FFFFFF;stroke-width:0.6162;stroke-linecap:round;stroke-linejoin:round;stroke-miterlimit:10;}
	.st20{fill:#FFFFFF;}
	.st21{clip-path:url(#SVGID_2_);}
	.st22{stroke:#FFFFFF;stroke-miterlimit:10;}
	.st23{fill:none;stroke:#F1B200;stroke-width:0.6888;stroke-miterlimit:10;stroke-dasharray:3.1207;}
	.st24{stroke:#000000;stroke-width:0.8298;stroke-miterlimit:10;}
	.st25{opacity:0.9;fill:#FFFFFF;}
	.st26{clip-path:url(#SVGID_4_);}
	.st27{stroke:#FFFFFF;stroke-width:1.0877;stroke-miterlimit:10;}
	.st28{stroke:#000000;stroke-width:1.9035;stroke-miterlimit:10;}
	.st29{clip-path:url(#SVGID_6_);}
	.st30{stroke:#000000;stroke-width:1.3597;stroke-miterlimit:10;}
	.st31{fill:#FFFFFF;stroke:#000000;stroke-width:0.8637;stroke-miterlimit:10;}
	.st32{fill:#FFFFFF;stroke:#000000;stroke-width:1.2955;stroke-miterlimit:10;}
	.st33{clip-path:url(#SVGID_8_);fill:#F5B500;}
	.st34{clip-path:url(#SVGID_8_);fill:#FFFFFF;}
	.st35{fill:#0000FF;}
	.st36{fill:#F5B500;}
	.st37{clip-path:url(#SVGID_10_);fill:#FFFFFF;}
	.st38{clip-path:url(#SVGID_10_);fill:#F5B500;}
	.st39{clip-path:url(#SVGID_10_);}
	.st40{clip-path:url(#SVGID_12_);fill:#FFFFFF;}
	.st41{clip-path:url(#SVGID_12_);}
	.st42{clip-path:url(#SVGID_12_);fill:#F5B500;}
	.st43{clip-path:url(#SVGID_14_);fill:#FFFFFF;}
	.st44{clip-path:url(#SVGID_14_);fill:#F5B500;}
	.st45{clip-path:url(#SVGID_14_);}
	.st46{clip-path:url(#SVGID_16_);fill:#FFFFFF;}
	.st47{clip-path:url(#SVGID_16_);}
	.st48{clip-path:url(#SVGID_16_);fill:#F5B500;}
	.st49{clip-path:url(#SVGID_18_);fill:#F5B500;}
	.st50{clip-path:url(#SVGID_18_);}
	.st51{clip-path:url(#SVGID_18_);fill:#FFFFFF;}
	.st52{clip-path:url(#SVGID_20_);fill:#FFFFFF;}
	.st53{clip-path:url(#SVGID_20_);fill:#F5B500;}
	.st54{clip-path:url(#SVGID_22_);fill:#F5B500;}
	.st55{clip-path:url(#SVGID_22_);fill:#FFFFFF;}
	.st56{clip-path:url(#SVGID_24_);fill:#F5B500;}
	.st57{clip-path:url(#SVGID_24_);fill:#FFFFFF;}
	.st58{clip-path:url(#SVGID_26_);fill:#FFFFFF;}
	.st59{clip-path:url(#SVGID_26_);fill:#F5B500;}
	.st60{clip-path:url(#SVGID_26_);}
	.st61{clip-path:url(#SVGID_28_);fill:#F5B500;}
	.st62{clip-path:url(#SVGID_28_);}
	.st63{clip-path:url(#SVGID_28_);fill:#FFFFFF;}
	.st64{clip-path:url(#SVGID_30_);fill:#F5B500;}
	.st65{clip-path:url(#SVGID_30_);fill:#FFFFFF;}
	.st66{clip-path:url(#SVGID_32_);fill:#F5B500;}
	.st67{clip-path:url(#SVGID_32_);}
	.st68{clip-path:url(#SVGID_32_);fill:#FFFFFF;}
</style>
<rect x="0" y="-0.2" width="150" height="150.1"/>
<g>
	<g>
		<g>
			<polyline class="st2" points="64,0.7 64.7,0.7 65.2,1.3 			"/>
			<line class="st3" x1="66.1" y1="2.4" x2="72.9" y2="10.6"/>
			<polyline class="st2" points="73.3,11.1 73.8,11.7 74.6,11.7 			"/>
			<line class="st4" x1="75.8" y1="11.7" x2="77.8" y2="11.7"/>
			<polyline class="st2" points="78.4,11.7 79.2,11.7 79.2,12.5 			"/>
			<line class="st5" x1="79.4" y1="14.4" x2="79.6" y2="17.3"/>
			<polyline class="st2" points="79.7,18.2 79.8,19 80.5,18.7 			"/>
			<polyline class="st6" points="81.9,18.1 98,11.5 114.1,16.1 			"/>
			<polyline class="st2" points="114.8,16.4 115.6,16.6 115.8,17.3 			"/>
			<line class="st7" x1="116.2" y1="18.7" x2="130" y2="67"/>
			<polyline class="st2" points="130.2,67.7 130.4,68.4 129.8,68.8 			"/>
			<line class="st8" x1="128.3" y1="69.5" x2="97.9" y2="85.4"/>
			<polyline class="st2" points="97.1,85.7 96.5,86.1 97,86.7 			"/>
			<line class="st9" x1="97.9" y1="87.8" x2="116.1" y2="110.1"/>
			<polyline class="st2" points="116.6,110.7 117.1,111.3 116.6,111.9 			"/>
			<polyline class="st10" points="115.8,113.1 108.7,123.5 107.6,139.5 			"/>
			<polyline class="st2" points="107.5,140.2 107.5,141 106.7,141.1 			"/>
			<polyline class="st11" points="105.2,141.4 62.3,148.9 39.2,135.3 			"/>
			<polyline class="st2" points="38.5,134.9 37.9,134.5 37.9,133.8 			"/>
			<polyline class="st12" points="37.9,132.3 38,121.1 46.1,108.6 			"/>
			<polyline class="st2" points="46.5,108 47,107.4 46.2,107.2 			"/>
			<polyline class="st13" points="44.7,106.8 34.4,104.1 22.6,91.8 22.6,58.6 			"/>
			<polyline class="st2" points="22.6,57.9 22.6,57.1 23.3,56.8 			"/>
			<line class="st14" x1="24.7" y1="56.2" x2="35.3" y2="51.8"/>
			<polyline class="st2" points="36,51.5 36.7,51.2 36.7,50.4 			"/>
			<line class="st15" x1="36.7" y1="48.9" x2="36.7" y2="28.7"/>
			<polyline class="st2" points="36.7,28 36.7,27.2 37.3,26.8 			"/>
			<polyline class="st16" points="38.6,25.9 43.7,22.4 55.6,22.4 			"/>
			<polyline class="st2" points="56.4,22.4 57.2,22.4 56.9,21.7 			"/>
			<line class="st17" x1="56.6" y1="20.2" x2="52" y2="3.4"/>
			<polyline class="st2" points="51.8,2.7 51.6,1.9 52.2,1.5 			"/>
			<line class="st18" x1="53.7" y1="0.6" x2="63.1" y2="0.7"/>
		</g>
	</g>
	<g>
		<polyline class="st19" points="59.9,24 94.4,39.9 95,52.9 104.5,57.2 104.1,60.3 94.9,61.5 94.8,72.9 76.5,61.4 68.2,65.8 
			70.3,69.7 68.5,80.6 62.1,89.4 55.5,88.3 57.5,98 61.4,93.9 66.1,97.2 74.7,110.9 68.8,121 69.9,131.6 63.2,145.7 		"/>
		<polyline class="st19" points="116.5,29.3 111.3,26.7 102.5,33.1 93.9,30 82.7,34.5 86.4,36.2 76.7,39.7 80.9,52.3 75.1,54.1 
			75.9,61.7 		"/>
		<polyline class="st19" points="38.9,46.8 41.5,45.4 45.4,52.8 50.2,51.4 50.3,45.4 56.6,46.2 62.4,60 45,77.2 44.8,85 41.5,89.5 
			47.2,89.3 48.5,95.2 62.6,101.2 54.3,104.3 49.9,102.2 48,105.2 		"/>
		<polyline class="st19" points="25,84.5 42.3,72.9 45,77.2 		"/>
		<polyline class="st19" points="66.9,27 72.4,23 73.1,29.8 		"/>
		<polyline class="st19" points="51.3,32.4 55.9,37.2 58.3,33.4 		"/>
		<polyline class="st19" points="106.7,43.3 104.2,47.3 111.8,48.2 109.2,44.2 		"/>
		<polyline class="st19" points="59.9,62.8 63.5,66.4 68.2,66.1 		"/>
		<polyline class="st19" points="123.6,57.3 107.2,65 104.1,60.3 		"/>
		<polyline class="st19" points="68.5,80.6 76.8,85.9 85.7,81.4 93.9,84.3 92.5,80.2 95.4,79.4 95.4,75.3 100.2,73.9 94.9,70 		"/>
		<polyline class="st19" points="29.9,95.9 34.5,95.6 37.8,100.7 36.4,102.2 		"/>
		<line class="st19" x1="78.3" y1="21.4" x2="73.6" y2="29.7"/>
	</g>
	<rect x="20" y="63" class="st20" width="104" height="17"/>
	<g>
		<path d="M27.7,66.3h1.6l-0.3,7h0l2.6-7h1.8l-4.4,11h-1.6l0.2-7.3h0l-2.9,7.3h-1.6l0.4-11h1.8l-0.4,7h0L27.7,66.3z"/>
		<path d="M33.2,77.4l2.4-11h1.9l-2.4,11H33.2z"/>
		<path d="M39.8,77.4h-1.9l2.4-11H43c2.1,0,3,0.9,2.5,3.2c-0.4,1.8-1.2,2.5-2,2.8l0.5,5h-1.9l-0.3-4.6c-0.2,0-0.6,0-1,0L39.8,77.4z
			 M41.2,71.3h0.7c1,0,1.5-0.4,1.8-1.7c0.3-1.3,0-1.7-1-1.7h-0.7L41.2,71.3z"/>
		<path d="M55.8,69.1c0.1-0.9-0.3-1.2-0.7-1.2c-0.6,0-1,0.4-1.2,1.1c-0.4,1.9,3.2,2.8,2.6,5.8c-0.4,1.8-1.8,2.8-3.6,2.8
			c-1.8,0-2.5-1.4-2.2-3.1l1.9-0.3c-0.2,1.1,0.2,1.7,0.8,1.7c0.7,0,1.2-0.4,1.3-1c0.5-2.2-3.2-2.8-2.5-5.9c0.4-1.8,1.7-2.7,3.5-2.7
			c1.5,0,2.2,1.1,2,2.7L55.8,69.1z"/>
		<path d="M58.3,77.4l2.4-11h1.9l-2.4,11H58.3z"/>
		<path d="M63,77.4l2.4-11h1.8l0.9,6.3h0l1.4-6.3h1.7l-2.4,11h-1.6l-0.9-6.9h0l-1.5,6.9H63z"/>
		<path d="M73.8,66.3h2.8c2,0,2.8,1.1,2.3,3.3l-1,4.4c-0.5,2.3-1.8,3.3-3.7,3.3h-2.8L73.8,66.3z M73.6,75.8h0.7c1,0,1.4-0.4,1.7-1.5
			l1.1-4.8c0.3-1.2,0-1.5-1-1.5h-0.7L73.6,75.8z"/>
		<path d="M84,77.4l2.4-11h1.9l-1,4.5h2l1-4.5h1.9l-2.4,11h-1.9l1.1-4.9h-2l-1.1,4.9H84z"/>
		<path d="M92.6,77.4l2.4-11h1.9l-2.4,11H92.6z"/>
		<path d="M97.3,77.4l2.4-11h5.1l-0.4,1.6h-3.2l-0.6,2.8h2.4l-0.4,1.6h-2.4l-0.7,3.2h3.4l-0.4,1.6H97.3z"/>
		<path d="M106.8,77.4h-1.9l2.4-11h2.7c2.1,0,3,0.9,2.5,3.2c-0.4,1.8-1.2,2.5-2,2.8l0.5,5h-1.9l-0.3-4.6c-0.2,0-0.6,0-1,0
			L106.8,77.4z M108.1,71.3h0.7c1,0,1.5-0.4,1.8-1.7c0.3-1.3,0-1.7-1-1.7h-0.7L108.1,71.3z"/>
		<path d="M113.2,77.4l0.4-1.8h1.8l-0.4,1.8H113.2z"/>
	</g>
</g>
</svg>
