<?xml version="1.0" encoding="utf-8"?>
<!-- Generator: Adobe Illustrator 19.1.0, SVG Export Plug-In . SVG Version: 6.00 Build 0)  -->
<svg version="1.1" id="Ebene_1" xmlns="http://www.w3.org/2000/svg" xmlns:xlink="http://www.w3.org/1999/xlink" x="0px" y="0px"
	 viewBox="0 0 150 150" style="enable-background:new 0 0 150 150;" xml:space="preserve">
<style type="text/css">
	.st0{fill:#FABB00;}
	.st1{fill:#F1B200;}
	.st2{fill:none;stroke:#F3B400;stroke-width:0.9243;stroke-miterlimit:10;}
	.st3{fill:none;stroke:#F3B400;stroke-width:0.9243;stroke-miterlimit:10;stroke-dasharray:1.4113,1.4113;}
	.st4{fill:none;stroke:#F3B400;stroke-width:0.9243;stroke-miterlimit:10;stroke-dasharray:1.277,1.277;}
	.st5{fill:none;stroke:#F3B400;stroke-width:0.9243;stroke-miterlimit:10;stroke-dasharray:1.9227,1.9227;}
	.st6{fill:none;stroke:#F3B400;stroke-width:0.9243;stroke-miterlimit:10;stroke-dasharray:1.5862,1.5862;}
	.st7{fill:none;stroke:#F3B400;stroke-width:0.9243;stroke-miterlimit:10;stroke-dasharray:1.4973,1.4973;}
	.st8{fill:none;stroke:#F3B400;stroke-width:0.9243;stroke-miterlimit:10;stroke-dasharray:1.5984,1.5984;}
	.st9{fill:none;stroke:#F3B400;stroke-width:0.9243;stroke-miterlimit:10;stroke-dasharray:1.4757,1.4757;}
	.st10{fill:none;stroke:#F3B400;stroke-width:0.9243;stroke-miterlimit:10;stroke-dasharray:1.4668,1.4668;}
	.st11{fill:none;stroke:#F3B400;stroke-width:0.9243;stroke-miterlimit:10;stroke-dasharray:1.5463,1.5463;}
	.st12{fill:none;stroke:#F3B400;stroke-width:0.9243;stroke-miterlimit:10;stroke-dasharray:1.4901,1.4901;}
	.st13{fill:none;stroke:#F3B400;stroke-width:0.9243;stroke-miterlimit:10;stroke-dasharray:1.5407,1.5407;}
	.st14{fill:none;stroke:#F3B400;stroke-width:0.9243;stroke-miterlimit:10;stroke-dasharray:1.525,1.525;}
	.st15{fill:none;stroke:#F3B400;stroke-width:0.9243;stroke-miterlimit:10;stroke-dasharray:1.4952,1.4952;}
	.st16{fill:none;stroke:#F3B400;stroke-width:0.9243;stroke-miterlimit:10;stroke-dasharray:1.5693,1.5693;}
	.st17{fill:none;stroke:#F3B400;stroke-width:0.9243;stroke-miterlimit:10;stroke-dasharray:1.5169,1.5169;}
	.st18{fill:none;stroke:#F3B400;stroke-width:0.9243;stroke-miterlimit:10;stroke-dasharray:1.7111,1.7111;}
	.st19{fill:none;stroke:#FFFFFF;stroke-width:0.6162;stroke-linecap:round;stroke-linejoin:round;stroke-miterlimit:10;}
	.st20{fill:#FFFFFF;}
	.st21{clip-path:url(#SVGID_2_);}
	.st22{stroke:#FFFFFF;stroke-miterlimit:10;}
	.st23{fill:none;stroke:#F1B200;stroke-width:0.6888;stroke-miterlimit:10;stroke-dasharray:3.1207;}
	.st24{stroke:#000000;stroke-width:0.8298;stroke-miterlimit:10;}
	.st25{opacity:0.9;fill:#FFFFFF;}
	.st26{clip-path:url(#SVGID_4_);}
	.st27{stroke:#FFFFFF;stroke-width:1.0877;stroke-miterlimit:10;}
	.st28{stroke:#000000;stroke-width:1.9035;stroke-miterlimit:10;}
	.st29{clip-path:url(#SVGID_6_);}
	.st30{stroke:#000000;stroke-width:1.3597;stroke-miterlimit:10;}
	.st31{fill:#FFFFFF;stroke:#000000;stroke-width:0.8637;stroke-miterlimit:10;}
	.st32{fill:#FFFFFF;stroke:#000000;stroke-width:1.2955;stroke-miterlimit:10;}
	.st33{clip-path:url(#SVGID_8_);fill:#F5B500;}
	.st34{clip-path:url(#SVGID_8_);fill:#FFFFFF;}
	.st35{fill:#0000FF;}
	.st36{fill:#F5B500;}
	.st37{clip-path:url(#SVGID_10_);fill:#FFFFFF;}
	.st38{clip-path:url(#SVGID_10_);fill:#F5B500;}
	.st39{clip-path:url(#SVGID_10_);}
	.st40{clip-path:url(#SVGID_12_);fill:#FFFFFF;}
	.st41{clip-path:url(#SVGID_12_);}
	.st42{clip-path:url(#SVGID_12_);fill:#F5B500;}
	.st43{clip-path:url(#SVGID_14_);fill:#FFFFFF;}
	.st44{clip-path:url(#SVGID_14_);fill:#F5B500;}
	.st45{clip-path:url(#SVGID_14_);}
	.st46{clip-path:url(#SVGID_16_);fill:#FFFFFF;}
	.st47{clip-path:url(#SVGID_16_);}
	.st48{clip-path:url(#SVGID_16_);fill:#F5B500;}
	.st49{clip-path:url(#SVGID_18_);fill:#F5B500;}
	.st50{clip-path:url(#SVGID_18_);}
	.st51{clip-path:url(#SVGID_18_);fill:#FFFFFF;}
	.st52{clip-path:url(#SVGID_20_);fill:#FFFFFF;}
	.st53{clip-path:url(#SVGID_20_);fill:#F5B500;}
	.st54{clip-path:url(#SVGID_22_);fill:#F5B500;}
	.st55{clip-path:url(#SVGID_22_);fill:#FFFFFF;}
	.st56{clip-path:url(#SVGID_24_);fill:#F5B500;}
	.st57{clip-path:url(#SVGID_24_);fill:#FFFFFF;}
	.st58{clip-path:url(#SVGID_26_);fill:#FFFFFF;}
	.st59{clip-path:url(#SVGID_26_);fill:#F5B500;}
	.st60{clip-path:url(#SVGID_26_);}
	.st61{clip-path:url(#SVGID_28_);fill:#F5B500;}
	.st62{clip-path:url(#SVGID_28_);}
	.st63{clip-path:url(#SVGID_28_);fill:#FFFFFF;}
	.st64{clip-path:url(#SVGID_30_);fill:#F5B500;}
	.st65{clip-path:url(#SVGID_30_);fill:#FFFFFF;}
	.st66{clip-path:url(#SVGID_32_);fill:#F5B500;}
	.st67{clip-path:url(#SVGID_32_);}
	.st68{clip-path:url(#SVGID_32_);fill:#FFFFFF;}
</style>
<g>
	<g>
		<rect y="-0.1" width="150.1" height="150.4"/>
	</g>
</g>
<g>
	<g>
		<path class="st20" d="M12.8,9.8L16,9c2.2-0.5,3.4,0.4,3.5,3.1l0.1,5.2c0.1,2.7-1.1,4.2-3.3,4.8l-3.2,0.8L12.8,9.8z M15.2,20.5
			l0.7-0.2c1.1-0.3,1.5-0.8,1.5-2.2l-0.1-5.7c0-1.4-0.4-1.7-1.6-1.5L15,11.1L15.2,20.5z"/>
		<path class="st20" d="M22.6,20.6L22.3,7.5L28,6.1l0,2l-3.6,0.9l0.1,3.4l2.8-0.7l0,2l-2.8,0.7l0.1,3.8l3.8-0.9l0,2L22.6,20.6z"/>
		<path class="st20" d="M31.4,18.4L31.1,5.3l2.1-0.5l0.3,13.1L31.4,18.4z"/>
		<path class="st20" d="M36.7,17.1L36.4,4l2-0.5l2.8,6.9l0,0l-0.2-7.5L43,2.4l0.3,13.1L41.4,16l-2.9-7.5l0,0l0.2,8.2L36.7,17.1z"/>
	</g>
	<g>
		<path class="st20" d="M124.9,43.9l1.7,0.7l-3.5,7.4l0,0l6-6.3l1.9,0.8l-9.7,9.7l-1.7-0.7l3.6-7.6l0,0l-6.4,6.4l-1.7-0.7l5.4-11.6
			l1.9,0.8l-3.7,7.3l0,0L124.9,43.9z"/>
		<path class="st20" d="M125.4,58l7.7-10.6l5.4,2.3l-1.1,1.6l-3.4-1.5l-2,2.7l2.6,1.1l-1.1,1.6l-2.6-1.1l-2.3,3.1l3.6,1.6l-1.1,1.6
			L125.4,58z"/>
		<path class="st20" d="M140.1,57.3l3.3,1.4l-3.9,5.4l-1-0.4l0.2-1c-1.1,0.4-1.8,0.5-2.7,0.1c-1.6-0.7-2-2.2-0.7-3.9l3.9-5.5
			c1.1-1.5,2.9-2.3,4.9-1.4c2,0.9,2.1,2.6,0.9,4.2l-0.5,0.7l-1.9-0.8c1.1-1.6,1.1-2.2,0.3-2.5c-0.5-0.2-1.1-0.1-1.7,0.8l-3.9,5.5
			c-0.5,0.7-0.6,1.2,0.1,1.5c0.8,0.4,1.4,0.1,2.2-1l0.7-1l-1.3-0.6L140.1,57.3z"/>
	</g>
	<g>
		<path class="st20" d="M9.6,86.9l0.6-1.4l4.4,0.7L14,87.8l-5.6,5.8l3,0.5l-0.6,1.4L6,94.7l0.6-1.5l5.7-5.8L9.6,86.9z"/>
		<path class="st20" d="M16.6,86.6l1.7,0.3l-2.9,7c-0.3,0.7-0.1,1.1,0.5,1.2s1-0.2,1.3-0.9l2.9-7l1.7,0.3l-2.8,6.9
			c-0.6,1.6-2,2.3-3.5,2c-1.6-0.3-2.2-1.3-1.5-2.9L16.6,86.6z"/>
		<path class="st20" d="M30.6,89l-3.8,9.3L25.4,98l2.9-7.2l0,0l-4.4,7L23,97.6l1.5-7.5l0,0l-2.9,7.2l-1.4-0.2l3.8-9.3l2.2,0.4
			l-1,5.6l0,0l3.4-5.2L30.6,89z"/>
	</g>
	<line class="st23" x1="14.9" y1="25.9" x2="109.5" y2="50.5"/>
	<line class="st23" x1="135.7" y1="66.7" x2="34.2" y2="88.5"/>
	<line class="st23" x1="46.7" y1="5" x2="111.5" y2="48.2"/>
	<line class="st23" x1="46.4" y1="17.4" x2="109.7" y2="49"/>
	<line class="st23" x1="110.3" y1="56.4" x2="14.6" y2="83.7"/>
	<line class="st23" x1="9.1" y1="98.4" x2="66.6" y2="133.3"/>
	<line class="st23" x1="30.6" y1="99.3" x2="132.4" y2="135.5"/>
	<g>
		<path class="st20" d="M70.3,137.6l2.9-7.1l3.6,0.6l-0.4,1.1l-2.3-0.4l-0.7,1.8l1.7,0.3l-0.4,1.1l-1.7-0.3l-1.3,3.2L70.3,137.6z"/>
		<path class="st20" d="M78.3,131.4l1.3,0.2l-2.2,5.4c-0.2,0.5-0.1,0.8,0.4,0.9c0.5,0.1,0.8-0.1,1-0.7l2.2-5.4l1.3,0.2l-2.2,5.3
			c-0.5,1.2-1.5,1.8-2.7,1.6c-1.2-0.2-1.7-1-1.2-2.2L78.3,131.4z M80.6,130.1l-0.4,1.1L79,131l0.4-1.1L80.6,130.1z M80.7,131.2
			l0.4-1.1l1.1,0.2l-0.4,1.1L80.7,131.2z"/>
		<path class="st20" d="M81,139.5l2.9-7.1l1.3,0.2l-1.2,2.9l1.4,0.2l1.2-2.9l1.3,0.2l-2.9,7.1l-1.3-0.2l1.3-3.2l-1.4-0.2l-1.3,3.2
			L81,139.5z"/>
		<path class="st20" d="M87.9,140.6l-1.3-0.2l2.9-7.1l1.8,0.3c1.4,0.2,1.9,1,1.3,2.5c-0.5,1.1-1.1,1.5-1.6,1.6l-0.2,3.4l-1.3-0.2
			l0.3-3.1c-0.2,0-0.4,0-0.7-0.1L87.9,140.6z M89.5,136.7l0.5,0.1c0.7,0.1,1-0.1,1.4-0.9c0.3-0.8,0.2-1.1-0.5-1.3l-0.5-0.1
			L89.5,136.7z"/>
		<path class="st20" d="M92.3,141.4l2.9-7.1l3.4,0.6l-0.4,1.1l-2.1-0.4l-0.7,1.8l1.6,0.3l-0.4,1.1l-1.6-0.3l-0.9,2.1l2.3,0.4
			l-0.4,1.1L92.3,141.4z"/>
		<path class="st20" d="M98.6,142.5l-1.3-0.2l2.9-7.1l1.8,0.3c1.4,0.2,1.9,1,1.3,2.5c-0.5,1.1-1.1,1.5-1.6,1.6l-0.2,3.4l-1.3-0.2
			l0.3-3.1c-0.2,0-0.4,0-0.7-0.1L98.6,142.5z M100.2,138.5l0.5,0.1c0.7,0.1,1-0.1,1.4-0.9c0.3-0.8,0.2-1.1-0.5-1.3l-0.5-0.1
			L100.2,138.5z"/>
		<path class="st20" d="M107.5,138.2c0.2-0.6-0.1-0.9-0.4-0.9c-0.4-0.1-0.7,0.1-0.9,0.6c-0.5,1.2,1.8,2.2,1.1,4.2
			c-0.5,1.2-1.6,1.7-2.8,1.5c-1.2-0.2-1.5-1.2-1.1-2.3l1.3,0c-0.2,0.7-0.1,1.1,0.3,1.2c0.4,0.1,0.8-0.1,1-0.5c0.6-1.4-1.9-2.2-1-4.3
			c0.5-1.1,1.4-1.7,2.7-1.4c1,0.2,1.4,1,1.1,2L107.5,138.2z"/>
		<path class="st20" d="M112.6,139.8l0.2-0.6c0.3-0.6,0.1-0.9-0.3-1c-0.5-0.1-0.8,0.1-1,0.7l-1.5,3.6c-0.2,0.5-0.2,0.8,0.4,0.9
			c0.5,0.1,0.7-0.2,0.9-0.6l0.3-0.9l1.3,0.2l-0.3,0.8c-0.4,1-1.4,1.7-2.6,1.5c-1.3-0.2-1.6-1.2-1.2-2.2l1.5-3.7
			c0.4-1,1.4-1.7,2.7-1.5c1.3,0.2,1.5,1.2,1.1,2.3l-0.2,0.5L112.6,139.8z"/>
		<path class="st20" d="M113.7,145l2.9-7.1l1.3,0.2l-1.2,2.9l1.4,0.2l1.2-2.9l1.3,0.2l-2.9,7.1l-1.3-0.2l1.3-3.2l-1.4-0.2l-1.3,3.2
			L113.7,145z"/>
		<path class="st20" d="M119.4,146l2.9-7.1l3.4,0.6l-0.4,1.1l-2.1-0.4l-0.7,1.8l1.6,0.3l-0.4,1.1l-1.6-0.3l-0.9,2.1l2.3,0.4
			l-0.4,1.1L119.4,146z"/>
		<path class="st20" d="M124.6,146.9l2.9-7.1l1.3,0.2l-2.9,7.1L124.6,146.9z"/>
		<path class="st20" d="M127.8,147.4l2.9-7.1l1.2,0.2l-0.1,4.3l0,0l1.7-4.1l1.1,0.2l-2.9,7.1l-1.1-0.2l0.2-4.7l0,0l-1.8,4.5
			L127.8,147.4z"/>
	</g>
</g>
</svg>
