<?xml version="1.0" encoding="utf-8"?>
<!-- Generator: Adobe Illustrator 19.1.0, SVG Export Plug-In . SVG Version: 6.00 Build 0)  -->
<svg version="1.1" id="Ebene_1" xmlns="http://www.w3.org/2000/svg" xmlns:xlink="http://www.w3.org/1999/xlink" x="0px" y="0px"
	 viewBox="0 0 150 150" style="enable-background:new 0 0 150 150;" xml:space="preserve">
<style type="text/css">
	.st0{fill:#FABB00;}
	.st1{fill:#F1B200;}
	.st2{fill:none;stroke:#F3B400;stroke-width:0.9243;stroke-miterlimit:10;}
	.st3{fill:none;stroke:#F3B400;stroke-width:0.9243;stroke-miterlimit:10;stroke-dasharray:1.4113,1.4113;}
	.st4{fill:none;stroke:#F3B400;stroke-width:0.9243;stroke-miterlimit:10;stroke-dasharray:1.277,1.277;}
	.st5{fill:none;stroke:#F3B400;stroke-width:0.9243;stroke-miterlimit:10;stroke-dasharray:1.9227,1.9227;}
	.st6{fill:none;stroke:#F3B400;stroke-width:0.9243;stroke-miterlimit:10;stroke-dasharray:1.5862,1.5862;}
	.st7{fill:none;stroke:#F3B400;stroke-width:0.9243;stroke-miterlimit:10;stroke-dasharray:1.4973,1.4973;}
	.st8{fill:none;stroke:#F3B400;stroke-width:0.9243;stroke-miterlimit:10;stroke-dasharray:1.5984,1.5984;}
	.st9{fill:none;stroke:#F3B400;stroke-width:0.9243;stroke-miterlimit:10;stroke-dasharray:1.4757,1.4757;}
	.st10{fill:none;stroke:#F3B400;stroke-width:0.9243;stroke-miterlimit:10;stroke-dasharray:1.4668,1.4668;}
	.st11{fill:none;stroke:#F3B400;stroke-width:0.9243;stroke-miterlimit:10;stroke-dasharray:1.5463,1.5463;}
	.st12{fill:none;stroke:#F3B400;stroke-width:0.9243;stroke-miterlimit:10;stroke-dasharray:1.4901,1.4901;}
	.st13{fill:none;stroke:#F3B400;stroke-width:0.9243;stroke-miterlimit:10;stroke-dasharray:1.5407,1.5407;}
	.st14{fill:none;stroke:#F3B400;stroke-width:0.9243;stroke-miterlimit:10;stroke-dasharray:1.525,1.525;}
	.st15{fill:none;stroke:#F3B400;stroke-width:0.9243;stroke-miterlimit:10;stroke-dasharray:1.4952,1.4952;}
	.st16{fill:none;stroke:#F3B400;stroke-width:0.9243;stroke-miterlimit:10;stroke-dasharray:1.5693,1.5693;}
	.st17{fill:none;stroke:#F3B400;stroke-width:0.9243;stroke-miterlimit:10;stroke-dasharray:1.5169,1.5169;}
	.st18{fill:none;stroke:#F3B400;stroke-width:0.9243;stroke-miterlimit:10;stroke-dasharray:1.7111,1.7111;}
	.st19{fill:none;stroke:#FFFFFF;stroke-width:0.6162;stroke-linecap:round;stroke-linejoin:round;stroke-miterlimit:10;}
	.st20{fill:#FFFFFF;}
	.st21{clip-path:url(#SVGID_2_);}
	.st22{stroke:#FFFFFF;stroke-miterlimit:10;}
	.st23{fill:none;stroke:#F1B200;stroke-width:0.6888;stroke-miterlimit:10;stroke-dasharray:3.1207;}
	.st24{stroke:#000000;stroke-width:0.8298;stroke-miterlimit:10;}
	.st25{opacity:0.9;fill:#FFFFFF;}
	.st26{clip-path:url(#SVGID_4_);}
	.st27{stroke:#FFFFFF;stroke-width:1.0877;stroke-miterlimit:10;}
	.st28{stroke:#000000;stroke-width:1.9035;stroke-miterlimit:10;}
	.st29{clip-path:url(#SVGID_6_);}
	.st30{stroke:#000000;stroke-width:1.3597;stroke-miterlimit:10;}
	.st31{fill:#FFFFFF;stroke:#000000;stroke-width:0.8637;stroke-miterlimit:10;}
	.st32{fill:#FFFFFF;stroke:#000000;stroke-width:1.2955;stroke-miterlimit:10;}
	.st33{clip-path:url(#SVGID_8_);fill:#F5B500;}
	.st34{clip-path:url(#SVGID_8_);fill:#FFFFFF;}
	.st35{fill:#0000FF;}
	.st36{fill:#F5B500;}
	.st37{clip-path:url(#SVGID_10_);fill:#FFFFFF;}
	.st38{clip-path:url(#SVGID_10_);fill:#F5B500;}
	.st39{clip-path:url(#SVGID_10_);}
	.st40{clip-path:url(#SVGID_12_);fill:#FFFFFF;}
	.st41{clip-path:url(#SVGID_12_);}
	.st42{clip-path:url(#SVGID_12_);fill:#F5B500;}
	.st43{clip-path:url(#SVGID_14_);fill:#FFFFFF;}
	.st44{clip-path:url(#SVGID_14_);fill:#F5B500;}
	.st45{clip-path:url(#SVGID_14_);}
	.st46{clip-path:url(#SVGID_16_);fill:#FFFFFF;}
	.st47{clip-path:url(#SVGID_16_);}
	.st48{clip-path:url(#SVGID_16_);fill:#F5B500;}
	.st49{clip-path:url(#SVGID_18_);fill:#F5B500;}
	.st50{clip-path:url(#SVGID_18_);}
	.st51{clip-path:url(#SVGID_18_);fill:#FFFFFF;}
	.st52{clip-path:url(#SVGID_20_);fill:#FFFFFF;}
	.st53{clip-path:url(#SVGID_20_);fill:#F5B500;}
	.st54{clip-path:url(#SVGID_22_);fill:#F5B500;}
	.st55{clip-path:url(#SVGID_22_);fill:#FFFFFF;}
	.st56{clip-path:url(#SVGID_24_);fill:#F5B500;}
	.st57{clip-path:url(#SVGID_24_);fill:#FFFFFF;}
	.st58{clip-path:url(#SVGID_26_);fill:#FFFFFF;}
	.st59{clip-path:url(#SVGID_26_);fill:#F5B500;}
	.st60{clip-path:url(#SVGID_26_);}
	.st61{clip-path:url(#SVGID_28_);fill:#F5B500;}
	.st62{clip-path:url(#SVGID_28_);}
	.st63{clip-path:url(#SVGID_28_);fill:#FFFFFF;}
	.st64{clip-path:url(#SVGID_30_);fill:#F5B500;}
	.st65{clip-path:url(#SVGID_30_);fill:#FFFFFF;}
	.st66{clip-path:url(#SVGID_32_);fill:#F5B500;}
	.st67{clip-path:url(#SVGID_32_);}
	.st68{clip-path:url(#SVGID_32_);fill:#FFFFFF;}
</style>
<g>
	<g>
		<rect x="0.1" y="-0.2" width="149.9" height="150.2"/>
	</g>
</g>
<g>
	<g>
		<path class="st20" d="M117.2,81.2H40.1c0.9,0.8,1.8,1.7,2.6,2.6h74.6c0.7,0,1.3-0.6,1.3-1.3C118.5,81.8,118,81.2,117.2,81.2z"/>
		<path class="st20" d="M136.5,63.4H111L88.1,42.7c-0.2-0.2-0.5-0.3-0.9-0.3H23.9c-0.3,0-0.6,0.1-0.8,0.3l-22,16.5
			c-0.3,0.2-0.5,0.6-0.5,1v22.4c0,0.7,0.6,1.3,1.3,1.3h8.7c0.8-0.9,1.6-1.8,2.6-2.6H3.2V60.8L24.4,45h62.4l22.9,20.7
			c0.2,0.2,0.5,0.3,0.9,0.3h26c0.7,0,1.3-0.6,1.3-1.3C137.8,63.9,137.2,63.4,136.5,63.4z"/>
	</g>
	<g>
		<circle class="st0" cx="132.8" cy="97.1" r="13.5"/>
		<path class="st0" d="M132.8,111.9c-8.2,0-14.8-6.7-14.8-14.8s6.7-14.8,14.8-14.8s14.8,6.7,14.8,14.8S140.9,111.9,132.8,111.9z
			 M132.8,84.9c-6.7,0-12.2,5.5-12.2,12.2c0,6.7,5.5,12.2,12.2,12.2c6.7,0,12.2-5.5,12.2-12.2C145,90.4,139.5,84.9,132.8,84.9z"/>
	</g>
	<g>
		<circle cx="132.8" cy="97.1" r="5.7"/>
		<path d="M132.8,104.1c-3.9,0-7-3.2-7-7c0-3.9,3.2-7,7-7c3.9,0,7,3.2,7,7C139.8,101,136.6,104.1,132.8,104.1z M132.8,92.7
			c-2.4,0-4.4,2-4.4,4.4c0,2.4,2,4.4,4.4,4.4s4.4-2,4.4-4.4C137.2,94.7,135.2,92.7,132.8,92.7z"/>
	</g>
	<g>
		<circle class="st0" cx="26.6" cy="97.1" r="13.5"/>
		<path class="st0" d="M26.6,111.9c-8.2,0-14.8-6.7-14.8-14.8s6.7-14.8,14.8-14.8s14.8,6.7,14.8,14.8S34.8,111.9,26.6,111.9z
			 M26.6,84.9c-6.7,0-12.2,5.5-12.2,12.2c0,6.7,5.5,12.2,12.2,12.2s12.2-5.5,12.2-12.2C38.8,90.4,33.4,84.9,26.6,84.9z"/>
	</g>
	<g>
		<circle cx="26.6" cy="97.1" r="5.7"/>
		<path d="M26.6,104.1c-3.9,0-7-3.2-7-7c0-3.9,3.2-7,7-7s7,3.2,7,7C33.6,101,30.5,104.1,26.6,104.1z M26.6,92.7
			c-2.4,0-4.4,2-4.4,4.4c0,2.4,2,4.4,4.4,4.4s4.4-2,4.4-4.4C31,94.7,29.1,92.7,26.6,92.7z"/>
	</g>
	<g>
		<path class="st20" d="M111.5,98.7H47.7c-0.7,0-1.3-0.6-1.3-1.3c0-0.7,0.6-1.3,1.3-1.3h63.8c0.7,0,1.3,0.6,1.3,1.3
			C112.8,98.1,112.2,98.7,111.5,98.7z"/>
	</g>
	<g>
		<path class="st20" d="M144.8,74.5c-0.7,0-1.3-0.6-1.3-1.3c0-4-3.3-7.3-7.3-7.3c-0.7,0-1.3-0.6-1.3-1.3c0-0.7,0.6-1.3,1.3-1.3
			c5.4,0,9.9,4.4,9.9,9.9C146.1,73.9,145.5,74.5,144.8,74.5z"/>
	</g>
	<g>
		<path class="st20" d="M144.8,80.8c-0.7,0-1.3-0.6-1.3-1.3v-6.6c0-0.7,0.6-1.3,1.3-1.3s1.3,0.6,1.3,1.3v6.6
			C146.1,80.2,145.5,80.8,144.8,80.8z"/>
	</g>
	<g>
		<g>
			<path class="st20" d="M111.7,98.7c-0.7,0-1.3-0.6-1.3-1.3c0-12.5,10.2-22.6,22.6-22.6c0.7,0,1.3,0.6,1.3,1.3
				c0,0.7-0.6,1.3-1.3,1.3c-11,0-20,9-20,20C113,98.1,112.4,98.7,111.7,98.7z"/>
		</g>
		<g>
			<path class="st20" d="M148.1,83.6c-0.3,0-0.7-0.1-0.9-0.4c-7.8-7.8-20.5-7.8-28.3,0c-0.5,0.5-1.3,0.5-1.8,0
				c-0.5-0.5-0.5-1.3,0-1.8c8.8-8.8,23.2-8.8,32,0c0.5,0.5,0.5,1.3,0,1.8C148.8,83.4,148.4,83.6,148.1,83.6z"/>
		</g>
	</g>
	<g>
		<g>
			<path class="st20" d="M41.4,83.6c-0.3,0-0.7-0.1-0.9-0.4c-7.8-7.8-20.5-7.8-28.3,0c-0.5,0.5-1.3,0.5-1.8,0
				c-0.5-0.5-0.5-1.3,0-1.8c8.8-8.8,23.2-8.8,32,0c0.5,0.5,0.5,1.3,0,1.8C42.1,83.4,41.8,83.6,41.4,83.6z"/>
		</g>
		<g>
			<path class="st20" d="M47.7,98.7c-0.7,0-1.3-0.6-1.3-1.3c0-11-9-20-20-20c-0.7,0-1.3-0.6-1.3-1.3c0-0.7,0.6-1.3,1.3-1.3
				C38.8,74.7,49,84.9,49,97.4C49,98.1,48.4,98.7,47.7,98.7z"/>
		</g>
	</g>
	<g>
		<path class="st20" d="M7.9,83.8c0.5,0,3.7,0,3.7,0s2.4-2.2,2.4-2.2s-1.8,0.5-1.9,0.5c-0.1,0-3.8,0.1-3.8,0.1L7.9,83.8z"/>
	</g>
	<g>
		<path class="st20" d="M110.5,66H58.8c-0.7,0-1.3-0.6-1.3-1.3c0-0.7,0.6-1.3,1.3-1.3h51.7c0.7,0,1.3,0.6,1.3,1.3
			C111.8,65.4,111.2,66,110.5,66z"/>
	</g>
</g>
</svg>
