<?xml version="1.0" encoding="utf-8"?>
<!-- Generator: Adobe Illustrator 19.1.0, SVG Export Plug-In . SVG Version: 6.00 Build 0)  -->
<svg version="1.1" id="Ebene_1" xmlns="http://www.w3.org/2000/svg" xmlns:xlink="http://www.w3.org/1999/xlink" x="0px" y="0px"
	 viewBox="0 0 150 150" style="enable-background:new 0 0 150 150;" xml:space="preserve">
<style type="text/css">
	.st0{fill:#FABB00;}
	.st1{fill:#F1B200;}
	.st2{fill:none;stroke:#F3B400;stroke-width:0.9243;stroke-miterlimit:10;}
	.st3{fill:none;stroke:#F3B400;stroke-width:0.9243;stroke-miterlimit:10;stroke-dasharray:1.4113,1.4113;}
	.st4{fill:none;stroke:#F3B400;stroke-width:0.9243;stroke-miterlimit:10;stroke-dasharray:1.277,1.277;}
	.st5{fill:none;stroke:#F3B400;stroke-width:0.9243;stroke-miterlimit:10;stroke-dasharray:1.9227,1.9227;}
	.st6{fill:none;stroke:#F3B400;stroke-width:0.9243;stroke-miterlimit:10;stroke-dasharray:1.5862,1.5862;}
	.st7{fill:none;stroke:#F3B400;stroke-width:0.9243;stroke-miterlimit:10;stroke-dasharray:1.4973,1.4973;}
	.st8{fill:none;stroke:#F3B400;stroke-width:0.9243;stroke-miterlimit:10;stroke-dasharray:1.5984,1.5984;}
	.st9{fill:none;stroke:#F3B400;stroke-width:0.9243;stroke-miterlimit:10;stroke-dasharray:1.4757,1.4757;}
	.st10{fill:none;stroke:#F3B400;stroke-width:0.9243;stroke-miterlimit:10;stroke-dasharray:1.4668,1.4668;}
	.st11{fill:none;stroke:#F3B400;stroke-width:0.9243;stroke-miterlimit:10;stroke-dasharray:1.5463,1.5463;}
	.st12{fill:none;stroke:#F3B400;stroke-width:0.9243;stroke-miterlimit:10;stroke-dasharray:1.4901,1.4901;}
	.st13{fill:none;stroke:#F3B400;stroke-width:0.9243;stroke-miterlimit:10;stroke-dasharray:1.5407,1.5407;}
	.st14{fill:none;stroke:#F3B400;stroke-width:0.9243;stroke-miterlimit:10;stroke-dasharray:1.525,1.525;}
	.st15{fill:none;stroke:#F3B400;stroke-width:0.9243;stroke-miterlimit:10;stroke-dasharray:1.4952,1.4952;}
	.st16{fill:none;stroke:#F3B400;stroke-width:0.9243;stroke-miterlimit:10;stroke-dasharray:1.5693,1.5693;}
	.st17{fill:none;stroke:#F3B400;stroke-width:0.9243;stroke-miterlimit:10;stroke-dasharray:1.5169,1.5169;}
	.st18{fill:none;stroke:#F3B400;stroke-width:0.9243;stroke-miterlimit:10;stroke-dasharray:1.7111,1.7111;}
	.st19{fill:none;stroke:#FFFFFF;stroke-width:0.6162;stroke-linecap:round;stroke-linejoin:round;stroke-miterlimit:10;}
	.st20{fill:#FFFFFF;}
	.st21{clip-path:url(#SVGID_2_);}
	.st22{stroke:#FFFFFF;stroke-miterlimit:10;}
	.st23{fill:none;stroke:#F1B200;stroke-width:0.6888;stroke-miterlimit:10;stroke-dasharray:3.1207;}
	.st24{stroke:#000000;stroke-width:0.8298;stroke-miterlimit:10;}
	.st25{opacity:0.9;fill:#FFFFFF;}
	.st26{clip-path:url(#SVGID_4_);}
	.st27{stroke:#FFFFFF;stroke-width:1.0877;stroke-miterlimit:10;}
	.st28{stroke:#000000;stroke-width:1.9035;stroke-miterlimit:10;}
	.st29{clip-path:url(#SVGID_6_);}
	.st30{stroke:#000000;stroke-width:1.3597;stroke-miterlimit:10;}
	.st31{fill:#FFFFFF;stroke:#000000;stroke-width:0.8637;stroke-miterlimit:10;}
	.st32{fill:#FFFFFF;stroke:#000000;stroke-width:1.2955;stroke-miterlimit:10;}
	.st33{clip-path:url(#SVGID_8_);fill:#F5B500;}
	.st34{clip-path:url(#SVGID_8_);fill:#FFFFFF;}
	.st35{fill:#0000FF;}
	.st36{fill:#F5B500;}
	.st37{clip-path:url(#SVGID_10_);fill:#FFFFFF;}
	.st38{clip-path:url(#SVGID_10_);fill:#F5B500;}
	.st39{clip-path:url(#SVGID_10_);}
	.st40{clip-path:url(#SVGID_12_);fill:#FFFFFF;}
	.st41{clip-path:url(#SVGID_12_);}
	.st42{clip-path:url(#SVGID_12_);fill:#F5B500;}
	.st43{clip-path:url(#SVGID_14_);fill:#FFFFFF;}
	.st44{clip-path:url(#SVGID_14_);fill:#F5B500;}
	.st45{clip-path:url(#SVGID_14_);}
	.st46{clip-path:url(#SVGID_16_);fill:#FFFFFF;}
	.st47{clip-path:url(#SVGID_16_);}
	.st48{clip-path:url(#SVGID_16_);fill:#F5B500;}
	.st49{clip-path:url(#SVGID_18_);fill:#F5B500;}
	.st50{clip-path:url(#SVGID_18_);}
	.st51{clip-path:url(#SVGID_18_);fill:#FFFFFF;}
	.st52{clip-path:url(#SVGID_20_);fill:#FFFFFF;}
	.st53{clip-path:url(#SVGID_20_);fill:#F5B500;}
	.st54{clip-path:url(#SVGID_22_);fill:#F5B500;}
	.st55{clip-path:url(#SVGID_22_);fill:#FFFFFF;}
	.st56{clip-path:url(#SVGID_24_);fill:#F5B500;}
	.st57{clip-path:url(#SVGID_24_);fill:#FFFFFF;}
	.st58{clip-path:url(#SVGID_26_);fill:#FFFFFF;}
	.st59{clip-path:url(#SVGID_26_);fill:#F5B500;}
	.st60{clip-path:url(#SVGID_26_);}
	.st61{clip-path:url(#SVGID_28_);fill:#F5B500;}
	.st62{clip-path:url(#SVGID_28_);}
	.st63{clip-path:url(#SVGID_28_);fill:#FFFFFF;}
	.st64{clip-path:url(#SVGID_30_);fill:#F5B500;}
	.st65{clip-path:url(#SVGID_30_);fill:#FFFFFF;}
	.st66{clip-path:url(#SVGID_32_);fill:#F5B500;}
	.st67{clip-path:url(#SVGID_32_);}
	.st68{clip-path:url(#SVGID_32_);fill:#FFFFFF;}
</style>
<g>
	<g>
		<rect x="-0.3" y="-0.7" width="150.3" height="150.7"/>
	</g>
</g>
<g>
	<defs>
		<rect id="SVGID_25_" x="1.2" y="42.9" width="147.5" height="57.6"/>
	</defs>
	<clipPath id="SVGID_2_">
		<use xlink:href="#SVGID_25_"  style="overflow:visible;"/>
	</clipPath>
	<path style="clip-path:url(#SVGID_2_);fill:#FFFFFF;" d="M32.2,91.4H14.6L3,84V53.2c0-4.7,3.8-8.4,8.4-8.4h124.7
		c4.7,0,8.4,3.8,8.4,8.4v7.2l-0.1,10.6c0,0.3,0.1,0.5,0.3,0.7l2.2,1.8v17.9h-25.4c-1-5.7-5.9-9.9-11.7-9.9c-5.8,0-10.7,4.2-11.7,9.9
		H55.6c-1-5.7-5.9-9.9-11.7-9.9C38.1,81.5,33.2,85.7,32.2,91.4 M14.4,93.1H33c0.5,0,0.8-0.3,0.9-0.8c0.5-5.2,4.8-9.1,10-9.1
		s9.5,3.9,10,9.1c0,0.5,0.4,0.8,0.9,0.8h44.1c0.5,0,0.8-0.3,0.9-0.8c0.5-5.2,4.8-9.1,10-9.1c5.2,0,9.5,3.9,10,9.1
		c0,0.5,0.4,0.8,0.9,0.8h27.1c0.5,0,0.9-0.4,0.9-0.9V73c0-0.3-0.1-0.5-0.3-0.7l-2.2-1.8l0.1-10.1v-7.2c0-5.6-4.6-10.2-10.2-10.2
		H11.5c-5.6,0-10.2,4.6-10.2,10.2v31.4c0,0.3,0.2,0.6,0.4,0.8L13.9,93C14,93.1,14.2,93.1,14.4,93.1"/>
	<path style="clip-path:url(#SVGID_2_);fill:#F5B500;" d="M102.7,93.4c0,3.9,3.2,7.1,7.1,7.1c3.9,0,7.1-3.2,7.1-7.1
		c0-3.9-3.2-7.1-7.1-7.1C105.9,86.2,102.7,89.4,102.7,93.4"/>
	<path class="st21" d="M107.2,93.4c0,1.5,1.2,2.7,2.7,2.7c1.5,0,2.7-1.2,2.7-2.7c0-1.5-1.2-2.7-2.7-2.7
		C108.4,90.7,107.2,91.9,107.2,93.4"/>
	<path style="clip-path:url(#SVGID_2_);fill:#F5B500;" d="M36.8,93.4c0,3.9,3.2,7.1,7.1,7.1c3.9,0,7.1-3.2,7.1-7.1
		c0-3.9-3.2-7.1-7.1-7.1C40,86.2,36.8,89.4,36.8,93.4"/>
	<path class="st21" d="M41.3,93.4c0,1.5,1.2,2.7,2.7,2.7c1.5,0,2.7-1.2,2.7-2.7c0-1.5-1.2-2.7-2.7-2.7
		C42.5,90.7,41.3,91.9,41.3,93.4"/>
	<path style="clip-path:url(#SVGID_2_);fill:#FFFFFF;" d="M113.8,50.9c1.9,0,3.4,1.5,3.4,3.4v6.9c0,1.9-1.5,3.4-3.4,3.4h-13.4
		c-1.9,0-3.4-1.5-3.4-3.4v-6.9c0-1.9,1.5-3.4,3.4-3.4H113.8z M100.4,66.3h13.4c2.8,0,5.2-2.3,5.2-5.2v-6.9c0-2.8-2.3-5.2-5.2-5.2
		h-13.4c-2.8,0-5.2,2.3-5.2,5.2v6.9C95.2,64,97.6,66.3,100.4,66.3"/>
	<path style="clip-path:url(#SVGID_2_);fill:#FFFFFF;" d="M135.3,50.9c1.9,0,3.4,1.5,3.4,3.4v28.4c0,1.9-1.5,3.4-3.4,3.4h-4.8
		c-1.9,0-3.4-1.5-3.4-3.4V54.2c0-1.9,1.5-3.4,3.4-3.4H135.3z M130.5,87.8h4.8c2.8,0,5.2-2.3,5.2-5.2V54.2c0-2.8-2.3-5.2-5.2-5.2
		h-4.8c-2.8,0-5.2,2.3-5.2,5.2v28.4C125.3,85.5,127.7,87.8,130.5,87.8"/>
	<path style="clip-path:url(#SVGID_2_);fill:#FFFFFF;" d="M85.3,50.9c1.9,0,3.4,1.5,3.4,3.4v6.9c0,1.9-1.5,3.4-3.4,3.4H71.9
		c-1.9,0-3.4-1.5-3.4-3.4v-6.9c0-1.9,1.5-3.4,3.4-3.4H85.3z M71.9,66.3h13.4c2.8,0,5.2-2.3,5.2-5.2v-6.9c0-2.8-2.3-5.2-5.2-5.2H71.9
		c-2.8,0-5.2,2.3-5.2,5.2v6.9C66.7,64,69.1,66.3,71.9,66.3"/>
	<path style="clip-path:url(#SVGID_2_);fill:#FFFFFF;" d="M56.8,50.9c1.9,0,3.4,1.5,3.4,3.4v6.9c0,1.9-1.5,3.4-3.4,3.4H43.4
		c-1.9,0-3.4-1.5-3.4-3.4v-6.9c0-1.9,1.5-3.4,3.4-3.4H56.8z M43.4,66.3h13.4c2.8,0,5.2-2.3,5.2-5.2v-6.9c0-2.8-2.3-5.2-5.2-5.2H43.4
		c-2.8,0-5.2,2.3-5.2,5.2v6.9C38.2,64,40.5,66.3,43.4,66.3"/>
	<path style="clip-path:url(#SVGID_2_);fill:#FFFFFF;" d="M28.3,50.9c1.9,0,3.4,1.5,3.4,3.4v6.9c0,1.9-1.5,3.4-3.4,3.4H14.9
		c-1.9,0-3.4-1.5-3.4-3.4v-6.9c0-1.9,1.5-3.4,3.4-3.4H28.3z M14.9,66.3h13.4c2.8,0,5.2-2.3,5.2-5.2v-6.9c0-2.8-2.3-5.2-5.2-5.2H14.9
		c-2.8,0-5.2,2.3-5.2,5.2v6.9C9.7,64,12,66.3,14.9,66.3"/>
</g>
</svg>
