<?xml version="1.0" encoding="utf-8"?>
<!-- Generator: Adobe Illustrator 20.0.0, SVG Export Plug-In . SVG Version: 6.00 Build 0)  -->
<!DOCTYPE svg PUBLIC "-//W3C//DTD SVG 1.1//EN" "http://www.w3.org/Graphics/SVG/1.1/DTD/svg11.dtd">
<svg version="1.1" id="Ebene_1" xmlns="http://www.w3.org/2000/svg" xmlns:xlink="http://www.w3.org/1999/xlink" x="0px" y="0px"
	 viewBox="0 0 198.4 48.2" style="enable-background:new 0 0 198.4 48.2;" xml:space="preserve">
<style type="text/css">
	.st0{fill:#FFFFFF;}
</style>
<g>
	<g>
		<path class="st0" d="M1.5,30.8v10.8h1.7c1.1,0,2-0.5,2.5-1.4c0.5-1,0.8-2.4,0.8-4.3c0-1.7-0.3-2.9-0.8-3.8
			c-0.5-0.9-1.3-1.3-2.4-1.3H1.5z M0.2,29.7h3c1.5,0,2.7,0.6,3.4,1.7c0.7,1.1,1.1,2.8,1.1,4.9c0,1.2-0.2,2.3-0.5,3.4
			c-0.3,1-0.9,1.8-1.6,2.3c-0.7,0.5-1.5,0.8-2.4,0.8h-3V29.7z"/>
		<path class="st0" d="M15.5,36.9c0-0.7-0.2-1.3-0.6-1.7c-0.4-0.4-0.8-0.6-1.2-0.6c-0.5,0-0.9,0.2-1.3,0.6c-0.4,0.4-0.7,0.9-0.9,1.7
			H15.5z M16.5,41.8c-0.9,0.8-1.9,1.1-2.8,1.1c-1.1,0-1.9-0.4-2.6-1.3c-0.7-0.9-1-2-1-3.3c0-1.4,0.3-2.6,1-3.4
			c0.7-0.9,1.5-1.3,2.6-1.3c0.9,0,1.7,0.4,2.2,1.1c0.6,0.7,0.8,1.6,0.8,2.7v0.6h-5.4v0.5c0,1.2,0.2,2,0.7,2.6c0.5,0.6,1,0.9,1.7,0.9
			c0.9,0,1.8-0.5,2.7-1.5V41.8z"/>
		<path class="st0" d="M20.8,35.1c0.3-0.5,0.6-0.9,0.9-1.1c0.3-0.3,0.7-0.4,1.1-0.4c0.3,0,0.6,0.1,0.9,0.2v1.1
			c-0.4-0.1-0.7-0.2-0.9-0.2c-0.6,0-1.1,0.3-1.5,0.8c-0.4,0.6-0.6,1.2-0.6,1.9v5.3h-1.2v-8.9h1L20.8,35.1z"/>
	</g>
	<path class="st0" d="M34.7,31.3l-1.4,5.9h2.9L34.7,31.3z M34.1,29.7h1.2L39,42.7h-1.4l-1.1-4.5H33l-1.1,4.5h-1.4L34.1,29.7z"/>
	<g>
		<path class="st0" d="M42.3,40.8c0.3,0.3,0.5,0.6,0.8,0.8c0.3,0.2,0.6,0.3,0.9,0.3c0.7,0,1.3-0.3,1.7-1c0.5-0.7,0.7-1.6,0.7-2.6
			c0-1-0.2-1.8-0.6-2.5c-0.4-0.7-0.9-1-1.6-1c-0.6,0-1.1,0.3-1.4,0.8c-0.4,0.6-0.5,1.2-0.5,2V40.8z M42.3,29.5v5.6
			c0.3-0.5,0.6-0.9,1-1.1c0.4-0.2,0.8-0.4,1.2-0.4c0.9,0,1.7,0.4,2.3,1.3c0.6,0.9,0.9,2,0.9,3.2c0,1.4-0.3,2.5-1,3.4
			c-0.7,0.9-1.5,1.4-2.4,1.4c-0.4,0-0.7-0.1-0.9-0.2c-0.3-0.1-0.6-0.4-1-0.8L42,42.7h-0.9V29.5H42.3z"/>
		<path class="st0" d="M51.7,35.1c0.3-0.5,0.6-0.9,0.9-1.1c0.3-0.3,0.7-0.4,1.1-0.4c0.3,0,0.6,0.1,0.9,0.2v1.1
			c-0.4-0.1-0.7-0.2-0.9-0.2c-0.6,0-1.1,0.3-1.5,0.8c-0.4,0.6-0.6,1.2-0.6,1.9v5.3h-1.2v-8.9h1L51.7,35.1z"/>
		<path class="st0" d="M62.3,36.9c0-0.7-0.2-1.3-0.6-1.7c-0.4-0.4-0.8-0.6-1.2-0.6c-0.5,0-0.9,0.2-1.3,0.6c-0.4,0.4-0.7,0.9-0.9,1.7
			H62.3z M63.3,41.8c-0.9,0.8-1.9,1.1-2.8,1.1c-1.1,0-1.9-0.4-2.6-1.3c-0.7-0.9-1-2-1-3.3c0-1.4,0.3-2.6,1-3.4
			c0.7-0.9,1.5-1.3,2.6-1.3c0.9,0,1.7,0.4,2.2,1.1c0.6,0.7,0.8,1.6,0.8,2.7v0.6h-5.4v0.5c0,1.2,0.2,2,0.7,2.6c0.5,0.6,1,0.9,1.7,0.9
			c0.9,0,1.8-0.5,2.7-1.5V41.8z"/>
		<path class="st0" d="M71.7,42.3c-0.7,0.4-1.4,0.6-2,0.6c-1.1,0-2-0.4-2.7-1.3c-0.7-0.9-1-2-1-3.3c0-1.3,0.4-2.5,1.1-3.4
			c0.7-0.9,1.6-1.4,2.7-1.4c0.6,0,1.3,0.2,1.9,0.6v1.3c-0.6-0.5-1.2-0.8-1.8-0.8c-0.8,0-1.4,0.3-1.9,1c-0.5,0.7-0.8,1.5-0.8,2.6
			c0,0.9,0.2,1.8,0.7,2.5c0.5,0.7,1.1,1.1,1.9,1.1c0.6,0,1.2-0.3,1.9-0.8V42.3z"/>
		<path class="st0" d="M74.5,29.7h1.2V35c0.3-0.5,0.6-0.8,1-1.1c0.4-0.2,0.8-0.4,1.3-0.4c0.7,0,1.3,0.3,1.8,0.8
			c0.4,0.5,0.7,1.2,0.7,2v6.4h-1.2v-6.4c0-0.5-0.1-0.9-0.4-1.2c-0.3-0.3-0.6-0.4-1.1-0.4c-0.6,0-1.1,0.3-1.5,0.8
			c-0.4,0.5-0.6,1.1-0.6,1.8v5.5h-1.2V29.7z"/>
		<path class="st0" d="M83.7,33.8h1.1l0.1,1.3c0.3-0.5,0.7-0.9,1.1-1.1c0.4-0.2,0.8-0.4,1.3-0.4c0.8,0,1.4,0.3,1.8,0.8
			c0.4,0.5,0.6,1.2,0.6,2v6.3h-1.2v-6.3c0-0.5-0.1-0.9-0.4-1.3c-0.3-0.3-0.6-0.5-1.1-0.5c-0.6,0-1.1,0.3-1.5,0.8
			c-0.4,0.5-0.6,1.1-0.6,1.8v5.4h-1.2V33.8z"/>
		<path class="st0" d="M97.5,33.8h1.2v8.9h-1.2v-1.2c-0.3,0.5-0.7,0.8-1.1,1.1c-0.4,0.2-0.8,0.4-1.3,0.4c-0.8,0-1.4-0.3-1.8-0.8
			c-0.4-0.5-0.6-1.2-0.6-2.1v-6.3h1.2v6.3c0,0.6,0.1,1,0.4,1.3c0.2,0.3,0.6,0.4,1.1,0.4c0.6,0,1.1-0.3,1.5-0.8
			c0.4-0.5,0.6-1.2,0.6-2V33.8z"/>
		<path class="st0" d="M101.9,33.8h1.1l0.1,1.3c0.3-0.5,0.7-0.9,1.1-1.1c0.4-0.2,0.8-0.4,1.3-0.4c0.8,0,1.4,0.3,1.8,0.8
			c0.4,0.5,0.6,1.2,0.6,2v6.3h-1.2v-6.3c0-0.5-0.1-0.9-0.4-1.3c-0.3-0.3-0.6-0.5-1.1-0.5c-0.6,0-1.1,0.3-1.5,0.8
			c-0.4,0.5-0.6,1.1-0.6,1.8v5.4h-1.2V33.8z"/>
		<path class="st0" d="M116,35.7c-0.3-0.3-0.5-0.6-0.8-0.7c-0.3-0.2-0.6-0.2-0.9-0.2c-0.7,0-1.3,0.3-1.7,1c-0.4,0.7-0.7,1.5-0.7,2.6
			c0,0.9,0.2,1.8,0.6,2.4c0.4,0.7,0.9,1,1.6,1c0.6,0,1-0.3,1.4-0.8c0.4-0.5,0.6-1.2,0.6-2V35.7z M116.3,33.8h0.9v9.4
			c0,1.2-0.3,2.1-1,2.8c-0.7,0.7-1.4,1-2.4,1c-0.8,0-1.7-0.3-2.6-1v-1.4c0.9,0.9,1.8,1.3,2.6,1.3c0.7,0,1.2-0.3,1.6-0.8
			c0.4-0.5,0.6-1.2,0.6-2v-1.9c-0.3,0.5-0.7,0.8-1,1.1s-0.8,0.4-1.2,0.4c-0.9,0-1.7-0.4-2.3-1.3c-0.6-0.9-0.9-1.9-0.9-3.1
			c0-1.3,0.3-2.4,1-3.3c0.7-0.9,1.5-1.4,2.4-1.4c0.4,0,0.8,0.1,1.1,0.3c0.3,0.2,0.6,0.4,0.9,0.8L116.3,33.8z"/>
		<path class="st0" d="M120,40.8c0.9,0.7,1.7,1.1,2.5,1.1c0.6,0,1.1-0.2,1.5-0.5c0.4-0.3,0.6-0.7,0.6-1.2c0-0.3-0.1-0.6-0.4-0.9
			c-0.3-0.2-0.8-0.5-1.5-0.7c-0.9-0.3-1.6-0.6-2.1-1c-0.4-0.4-0.6-0.9-0.6-1.5c0-0.7,0.3-1.4,0.9-1.8c0.6-0.5,1.3-0.7,2.2-0.7
			c0.7,0,1.5,0.2,2.3,0.7v1.3c-0.7-0.6-1.5-1-2.3-1c-0.5,0-1,0.1-1.3,0.4c-0.3,0.3-0.5,0.6-0.5,1c0,0.3,0.2,0.6,0.5,0.8
			c0.3,0.2,0.8,0.4,1.5,0.6c1.7,0.5,2.6,1.3,2.6,2.5c0,0.8-0.3,1.5-1,2c-0.6,0.5-1.4,0.8-2.3,0.8c-0.8,0-1.7-0.3-2.5-0.8V40.8z"/>
		<path class="st0" d="M128.2,40.8c0.9,0.7,1.7,1.1,2.5,1.1c0.6,0,1.1-0.2,1.5-0.5c0.4-0.3,0.6-0.7,0.6-1.2c0-0.3-0.1-0.6-0.4-0.9
			c-0.3-0.2-0.8-0.5-1.5-0.7c-0.9-0.3-1.6-0.6-2.1-1c-0.4-0.4-0.6-0.9-0.6-1.5c0-0.7,0.3-1.4,0.9-1.8c0.6-0.5,1.3-0.7,2.2-0.7
			c0.7,0,1.5,0.2,2.3,0.7v1.3c-0.7-0.6-1.5-1-2.3-1c-0.5,0-1,0.1-1.3,0.4c-0.3,0.3-0.5,0.6-0.5,1c0,0.3,0.2,0.6,0.5,0.8
			c0.3,0.2,0.8,0.4,1.5,0.6c1.7,0.5,2.6,1.3,2.6,2.5c0,0.8-0.3,1.5-1,2s-1.4,0.8-2.3,0.8c-0.8,0-1.7-0.3-2.5-0.8V40.8z"/>
		<path class="st0" d="M137.8,41c0.3,0.3,0.5,0.5,0.8,0.7c0.3,0.1,0.6,0.2,0.9,0.2c0.7,0,1.3-0.3,1.7-1c0.5-0.7,0.7-1.5,0.7-2.6
			c0-1-0.2-1.8-0.6-2.5c-0.4-0.7-0.9-1-1.6-1c-0.6,0-1,0.3-1.4,0.8c-0.4,0.5-0.6,1.2-0.6,1.9V41z M137.8,46.9h-1.2V33.8h1l0.1,1.3
			c0.3-0.5,0.7-0.9,1-1.1c0.4-0.2,0.8-0.4,1.2-0.4c1,0,1.7,0.4,2.3,1.3c0.6,0.9,0.8,2,0.8,3.3c0,1.6-0.4,2.7-1.1,3.5
			c-0.7,0.8-1.5,1.2-2.4,1.2c-0.3,0-0.7-0.1-1-0.2c-0.3-0.1-0.6-0.4-0.9-0.6V46.9z"/>
		<path class="st0" d="M151,36.9c0-0.7-0.2-1.3-0.6-1.7c-0.4-0.4-0.8-0.6-1.2-0.6c-0.5,0-0.9,0.2-1.3,0.6c-0.4,0.4-0.7,0.9-0.9,1.7
			H151z M151.9,41.8c-0.9,0.8-1.9,1.1-2.8,1.1c-1.1,0-1.9-0.4-2.6-1.3c-0.7-0.9-1-2-1-3.3c0-1.4,0.3-2.6,1-3.4
			c0.7-0.9,1.5-1.3,2.6-1.3c0.9,0,1.7,0.4,2.2,1.1c0.6,0.7,0.8,1.6,0.8,2.7v0.6h-5.4v0.5c0,1.2,0.2,2,0.7,2.6c0.5,0.6,1,0.9,1.7,0.9
			c0.9,0,1.8-0.5,2.7-1.5V41.8z"/>
	</g>
	<polygon class="st0" points="154.7,33.8 160.5,33.8 160.5,35 155.8,41.6 160.8,41.6 160.8,42.7 154.4,42.7 154.4,41.6 159,35 
		154.7,35 	"/>
	<g>
		<path class="st0" d="M163.3,33.8h1.2v8.9h-1.2V33.8z M163.9,29.9c0.5,0,0.7,0.4,0.7,1.1c0,0.7-0.2,1.1-0.7,1.1
			c-0.5,0-0.7-0.4-0.7-1.1C163.2,30.2,163.4,29.9,163.9,29.9"/>
		<path class="st0" d="M172,38.1c-1.5,0.2-2.5,0.5-2.9,0.8c-0.4,0.3-0.6,0.8-0.6,1.3c0,0.5,0.1,0.9,0.4,1.2c0.3,0.3,0.7,0.5,1.1,0.5
			c0.6,0,1-0.2,1.4-0.7c0.4-0.5,0.6-1.1,0.6-1.8V38.1z M167.9,34.4c1-0.5,1.8-0.8,2.4-0.8c0.9,0,1.6,0.3,2.1,0.8
			c0.5,0.5,0.7,1.3,0.7,2.2v4.7c0,0.3,0.2,0.5,0.5,0.5c0.2,0,0.3,0,0.5-0.1v1c-0.3,0.1-0.6,0.2-0.9,0.2c-0.8,0-1.2-0.5-1.3-1.4
			c-0.3,0.5-0.6,0.8-1,1.1c-0.4,0.2-0.8,0.4-1.2,0.4c-0.7,0-1.3-0.3-1.8-0.8c-0.5-0.5-0.7-1.2-0.7-1.9c0-0.8,0.3-1.5,0.9-2
			c0.6-0.5,1.9-0.9,3.9-1.1v-0.8c0-0.5-0.2-0.9-0.5-1.2c-0.3-0.3-0.7-0.5-1.2-0.5c-0.7,0-1.5,0.3-2.4,1V34.4z"/>
	</g>
	<rect x="176.6" y="29.7" class="st0" width="1.2" height="13.1"/>
	<g>
		<path class="st0" d="M180.9,33.8h1.2v8.9h-1.2V33.8z M181.5,29.9c0.5,0,0.7,0.4,0.7,1.1c0,0.7-0.2,1.1-0.7,1.1
			c-0.5,0-0.7-0.4-0.7-1.1C180.8,30.2,181.1,29.9,181.5,29.9"/>
		<path class="st0" d="M184.9,40.8c0.9,0.7,1.7,1.1,2.5,1.1c0.6,0,1.1-0.2,1.5-0.5c0.4-0.3,0.6-0.7,0.6-1.2c0-0.3-0.1-0.6-0.4-0.9
			c-0.3-0.2-0.8-0.5-1.5-0.7c-0.9-0.3-1.6-0.6-2-1c-0.4-0.4-0.6-0.9-0.6-1.5c0-0.7,0.3-1.4,0.9-1.8c0.6-0.5,1.3-0.7,2.2-0.7
			c0.7,0,1.5,0.2,2.3,0.7v1.3c-0.7-0.6-1.5-1-2.3-1c-0.5,0-1,0.1-1.3,0.4c-0.3,0.3-0.5,0.6-0.5,1c0,0.3,0.2,0.6,0.5,0.8
			c0.3,0.2,0.8,0.4,1.5,0.6c1.7,0.5,2.6,1.3,2.6,2.5c0,0.8-0.3,1.5-1,2c-0.6,0.5-1.4,0.8-2.3,0.8c-0.8,0-1.7-0.3-2.5-0.8V40.8z"/>
		<path class="st0" d="M193.8,31.2h1.1v2.7h1.7v1h-1.7v6.2c0,0.3,0.1,0.5,0.2,0.6c0.1,0.1,0.3,0.2,0.6,0.2c0.2,0,0.5-0.1,0.9-0.3
			v1.2c-0.4,0.1-0.8,0.2-1.2,0.2c-0.5,0-0.9-0.1-1.2-0.4c-0.3-0.3-0.5-0.7-0.5-1.3v-6.4h-1.2v-1h1.2L193.8,31.2z"/>
	</g>
	<path class="st0" d="M77.5,14.7l4.1-7.8h0.1l0.8,7.8H77.5z M85.7,1.1h-5.8L67,22.7h6l2.2-3.9H83l0.5,3.9h5.8L85.7,1.1z"/>
	<g>
		<path class="st0" d="M16.9,12c-0.2,1.2-0.3,1.1-0.3,1.3c-0.7,2.3-2.5,4.6-6,4.6H6.8L9.4,5.9h3.3c2.7,0,4.4,1.2,4.4,4.8
			C17,11,17,11.5,16.9,12 M12.9,1.1H4.7L0,22.7h9.8c7.4,0,11.5-4.1,12.6-9.4c0-0.2,0.2-0.9,0.2-1.6c0.1-0.7,0.1-1.3,0.1-1.5
			C22.8,3.6,18.6,1.1,12.9,1.1"/>
	</g>
	<path class="st0" d="M34.1,14.7l4.1-7.8h0.1l0.8,7.8H34.1z M42.3,1.1h-5.8L23.7,22.7h6l2.2-3.9h7.7l0.5,3.9H46L42.3,1.1z"/>
	<polygon class="st0" points="51.9,1.1 51,5.9 57.4,5.9 53.8,22.7 59.6,22.7 63.2,5.9 69.7,5.9 70.7,1.1 	"/>
	<g>
		<path class="st0" d="M106.8,11.1h-4l1.1-5.4h3.2c1.8,0,3.5,0.2,3.5,2.3C110.6,9.9,109.5,11.1,106.8,11.1 M110,1.1H99.2l-4.6,21.7
			h5.7l1.5-7h5.1c2.9,0,5.4-0.8,7.2-2.4l0,0c0,0,0.3-0.3,0.8-0.9c0.5-0.6,0.6-1,0.6-1c0.6-1.1,0.9-2.4,0.9-4
			C116.4,3.7,114,1.1,110,1.1"/>
		<path class="st0" d="M155.7,10.7h-4.6l1.1-5.2h4.2c1.5,0,3.1,0.4,3.1,2.2C159.6,10,157.8,10.7,155.7,10.7 M158.3,1.1h-10.8
			l-4.6,21.7h5.7l1.7-7.9h3.8c2,0,2.9,1,2.9,2.9c0,1.5-0.2,2.6-0.2,3.7c0,0.4,0.1,0.8,0.2,1.2h5.8c-0.3-0.6-0.3-1.5-0.3-2.3
			c0-1.2,0.1-2.5,0.1-4c0-1.5-0.3-2.5-1.1-3.1l-0.3-0.2c0.3-0.1,0.9-0.4,1.4-0.7c0.8-0.5,0.9-0.7,0.9-0.7c1.3-1.1,1.9-3,1.9-5
			C165.3,2.1,162.3,1.1,158.3,1.1"/>
	</g>
	<polygon class="st0" points="171.6,1.1 170.6,5.9 177.1,5.9 173.4,22.7 179.2,22.7 182.8,5.9 189.3,5.9 190.3,1.1 	"/>
	<g>
		<path class="st0" d="M189.2,18.4c0,2.7,2.2,4.4,4.6,4.4c2.4,0,4.6-1.7,4.6-4.4c0-2.7-2.2-4.4-4.6-4.4
			C191.4,14,189.2,15.7,189.2,18.4 M190.4,18.4c0-2,1.5-3.4,3.4-3.4c1.9,0,3.4,1.4,3.4,3.4c0,2-1.5,3.5-3.4,3.5
			C191.9,21.8,190.4,20.4,190.4,18.4 M192,20.8h1v-2.1h0.6l1.2,2.1h1l-1.3-2.2c0.7-0.1,1.3-0.4,1.3-1.3c0-1.1-0.7-1.5-2-1.5H192
			L192,20.8z M193,16.7h0.8c0.5,0,1,0.1,1,0.6c0,0.6-0.4,0.7-1,0.7H193V16.7z"/>
	</g>
	<path class="st0" d="M125.9,14.7l4.1-7.8h0.1l0.8,7.8H125.9z M134.1,1.1h-5.8l-12.9,21.7h6l2.2-3.9h7.7l0.5,3.9h5.8L134.1,1.1z"/>
</g>
</svg>
