<?xml version="1.0" encoding="utf-8"?>
<!-- Generator: Adobe Illustrator 20.0.0, SVG Export Plug-In . SVG Version: 6.00 Build 0)  -->
<!DOCTYPE svg PUBLIC "-//W3C//DTD SVG 1.1//EN" "http://www.w3.org/Graphics/SVG/1.1/DTD/svg11.dtd">
<svg version="1.1" id="Ebene_1" xmlns="http://www.w3.org/2000/svg" xmlns:xlink="http://www.w3.org/1999/xlink" x="0px" y="0px"
	 viewBox="0 0 198.4 90.7" style="enable-background:new 0 0 198.4 90.7;" xml:space="preserve">
<style type="text/css">
	.st0{fill:#FFFFFF;}
</style>
<g>
	<path class="st0" d="M164.1,69.2h16V28.7h-16V69.2z M140,0.4L140,0.4l-38.7,0L82.2,47.7L63.1,0.4H45.9l36.3,89.9l29.9-73.9h27.7
		c3.4,0,6.1,2.7,6.1,6.1s-2.7,6.1-6.1,6.1h-27.7v40.5h16V44.6H140v0c12.1-0.1,21.9-10,21.9-22.1S152.1,0.5,140,0.4 M20,0.4L20,0.4
		l-20,0v16h19.7c10.2,0,18.4,8.2,18.4,18.4c0,10.2-8.2,18.4-18.4,18.4H16V28.8H0v40.4h20v0C38.8,69,54.1,53.7,54.1,34.8
		C54.1,15.9,38.8,0.6,20,0.4 M164.1,16.4h16v-16h-16V16.4z"/>
	<path class="st0" d="M196.4,67.3c-1.3,1.3-2.9,1.9-4.7,1.9c-1.9,0-3.5-0.7-4.8-2c-1.3-1.3-2-2.9-2-4.8c0-2,0.7-3.6,2.1-4.9
		c1.3-1.2,2.9-1.8,4.7-1.8c1.9,0,3.5,0.7,4.8,2c1.3,1.3,2,2.9,2,4.8C198.4,64.3,197.7,66,196.4,67.3 M187.7,58.5
		c-1.1,1.1-1.6,2.4-1.6,3.9c0,1.6,0.5,2.9,1.6,4c1.1,1.1,2.4,1.6,4,1.6c1.5,0,2.9-0.6,3.9-1.7c1.1-1.1,1.6-2.4,1.6-4
		c0-1.5-0.5-2.8-1.6-3.9c-1.1-1.1-2.4-1.7-4-1.7C190.1,56.8,188.8,57.4,187.7,58.5 M188.7,66.2v-7.5c0.5,0,1.2,0,2.1,0
		c0.9,0,1.4,0,1.6,0c0.6,0,1.1,0.2,1.5,0.4c0.7,0.4,1,1,1,1.8c0,0.6-0.2,1.1-0.5,1.4c-0.4,0.3-0.8,0.4-1.3,0.5
		c0.5,0.1,0.8,0.2,1.1,0.4c0.4,0.4,0.7,0.9,0.7,1.7v0.7c0,0.1,0,0.1,0,0.2c0,0.1,0,0.1,0.1,0.2l0.1,0.2H193c-0.1-0.2-0.1-0.6-0.1-1
		c0-0.5-0.1-0.8-0.1-0.9c-0.1-0.3-0.3-0.4-0.6-0.6c-0.1-0.1-0.4-0.1-0.7-0.1l-0.4,0h-0.4v2.7H188.7z M192.3,60.2
		c-0.3-0.1-0.6-0.2-1.1-0.2h-0.5v2.2h0.8c0.5,0,0.8-0.1,1.1-0.3c0.3-0.2,0.4-0.5,0.4-0.9S192.7,60.3,192.3,60.2"/>
</g>
</svg>
