<?xml version="1.0" encoding="utf-8"?>
<!-- Generator: Adobe Illustrator 20.0.0, SVG Export Plug-In . SVG Version: 6.00 Build 0)  -->
<!DOCTYPE svg PUBLIC "-//W3C//DTD SVG 1.1//EN" "http://www.w3.org/Graphics/SVG/1.1/DTD/svg11.dtd">
<svg version="1.1" id="Ebene_1" xmlns="http://www.w3.org/2000/svg" xmlns:xlink="http://www.w3.org/1999/xlink" x="0px" y="0px"
	 viewBox="0 0 99.2 70.9" style="enable-background:new 0 0 99.2 70.9;" xml:space="preserve">
<style type="text/css">
	.st0{fill:#F4B405;}
	.st1{fill:#FFFFFF;}
</style>
<g>
	<g>
		<path class="st0" d="M86.6,10.3c-0.2-0.2-0.5-0.2-0.8-0.2l-5.9,1.6c-0.3,0.1-0.5,0.2-0.6,0.5c-0.1,0.2-0.1,0.5,0,0.8l1.6,3.9
			c0.1,0.3,0.3,0.5,0.6,0.5l4.3,1.2c0.1,0,0.2,0,0.3,0c0.2,0,0.4-0.1,0.6-0.2c0.2-0.2,0.4-0.5,0.4-0.7V11
			C86.9,10.8,86.8,10.5,86.6,10.3"/>
		<path class="st0" d="M19.7,57.7c-2.9,0-5.3-2.4-5.3-5.3c0-2.9,2.4-5.3,5.3-5.3c2.9,0,5.3,2.4,5.3,5.3C25,55.3,22.6,57.7,19.7,57.7
			 M19.7,36.9c-8.5,0-15.5,6.9-15.5,15.5c0,8.5,6.9,15.5,15.5,15.5c8.5,0,15.5-6.9,15.5-15.5C35.2,43.9,28.2,36.9,19.7,36.9"/>
		<path class="st0" d="M88.4,61.1c-2.2,0-4-1.8-4-4c0-2.2,1.8-4,4-4c2.2,0,4,1.8,4,4C92.5,59.3,90.7,61.1,88.4,61.1 M88.4,46.2
			c-6,0-10.8,4.9-10.8,10.8c0,6,4.9,10.8,10.8,10.8c6,0,10.8-4.9,10.8-10.8C99.3,51.1,94.4,46.2,88.4,46.2"/>
		<path class="st1" d="M36.6,31.6c-4.6-3.8-10.6-6.1-17-6.1c-0.1,0-0.1,0-0.2,0c-2.2,0-4.4,0.3-6.5,0.8l-5-8.6h28.7V31.6z
			 M84.6,36.5c0-0.3,0-0.5-0.1-0.8L71.2,4.4c0,0,0,0,0,0v0c0,0,0,0,0,0c0-0.1-0.1-0.2-0.1-0.3c0,0-0.1-0.1-0.1-0.1
			c0,0-0.1-0.1-0.1-0.1c0,0-0.1-0.1-0.1-0.1c0,0-0.1-0.1-0.1-0.1c0,0-0.1-0.1-0.1-0.1c0,0-0.1,0-0.1-0.1c-0.1,0-0.1,0-0.2-0.1
			c0,0-0.1,0-0.1,0c-0.1,0-0.2,0-0.3,0H57.7c-0.9,0-1.5,0.7-1.5,1.5c0,0.9,0.7,1.5,1.5,1.5h11.1l12.2,28.6c-8,1-14.4,7.5-15.1,15.6
			H46.5c-0.4-6.2-2.9-11.9-6.8-16.3V16.2c0-0.9-0.7-1.5-1.5-1.5h-33c0,0-0.1,0-0.1,0c-0.1,0-0.1,0-0.2,0c0,0-0.1,0-0.1,0
			c0,0-0.1,0-0.1,0c-0.1,0-0.1,0-0.2,0.1c0,0-0.1,0-0.1,0c0,0,0,0,0,0c0,0-0.1,0.1-0.1,0.1c0,0-0.1,0.1-0.1,0.1c0,0-0.1,0.1-0.1,0.1
			c0,0-0.1,0.1-0.1,0.1c0,0-0.1,0.1-0.1,0.1c0,0,0,0.1-0.1,0.1c0,0,0,0.1-0.1,0.1c0,0,0,0.1,0,0.1c0,0,0,0.1,0,0.1
			c0,0.1,0,0.1,0,0.2c0,0,0,0,0,0c0,0,0,0.1,0,0.1c0,0.1,0,0.1,0,0.2c0,0,0,0.1,0,0.1c0,0,0,0.1,0,0.1c0,0.1,0,0.1,0.1,0.2
			c0,0,0,0.1,0,0.1l6,10.3c-3.4,1.3-6.6,3.3-9.3,6.1c-0.6,0.6-0.6,1.6,0,2.2c0.6,0.6,1.6,0.6,2.2,0c9.3-9.3,24.4-9.3,33.7,0
			c0,0,0.1,0.1,0.2,0.1c4.2,4.3,6.9,10.2,6.9,16.7c0,0.9,0.7,1.5,1.5,1.5h22.3c0.9,0,1.5-0.7,1.5-1.5c0-7.9,6.4-14.2,14.2-14.2
			c0.9,0,1.5-0.7,1.5-1.5C84.6,36.6,84.6,36.5,84.6,36.5"/>
	</g>
</g>
</svg>
