<?xml version="1.0" encoding="utf-8"?>
<!-- Generator: Adobe Illustrator 19.1.0, SVG Export Plug-In . SVG Version: 6.00 Build 0)  -->
<svg version="1.1" id="Ebene_1" xmlns="http://www.w3.org/2000/svg" xmlns:xlink="http://www.w3.org/1999/xlink" x="0px" y="0px"
	 viewBox="0 0 150 150" style="enable-background:new 0 0 150 150;" xml:space="preserve">
<style type="text/css">
	.st0{fill:#FABB00;}
	.st1{fill:#F1B200;}
	.st2{fill:none;stroke:#F3B400;stroke-width:0.9243;stroke-miterlimit:10;}
	.st3{fill:none;stroke:#F3B400;stroke-width:0.9243;stroke-miterlimit:10;stroke-dasharray:1.4113,1.4113;}
	.st4{fill:none;stroke:#F3B400;stroke-width:0.9243;stroke-miterlimit:10;stroke-dasharray:1.277,1.277;}
	.st5{fill:none;stroke:#F3B400;stroke-width:0.9243;stroke-miterlimit:10;stroke-dasharray:1.9227,1.9227;}
	.st6{fill:none;stroke:#F3B400;stroke-width:0.9243;stroke-miterlimit:10;stroke-dasharray:1.5862,1.5862;}
	.st7{fill:none;stroke:#F3B400;stroke-width:0.9243;stroke-miterlimit:10;stroke-dasharray:1.4973,1.4973;}
	.st8{fill:none;stroke:#F3B400;stroke-width:0.9243;stroke-miterlimit:10;stroke-dasharray:1.5984,1.5984;}
	.st9{fill:none;stroke:#F3B400;stroke-width:0.9243;stroke-miterlimit:10;stroke-dasharray:1.4757,1.4757;}
	.st10{fill:none;stroke:#F3B400;stroke-width:0.9243;stroke-miterlimit:10;stroke-dasharray:1.4668,1.4668;}
	.st11{fill:none;stroke:#F3B400;stroke-width:0.9243;stroke-miterlimit:10;stroke-dasharray:1.5463,1.5463;}
	.st12{fill:none;stroke:#F3B400;stroke-width:0.9243;stroke-miterlimit:10;stroke-dasharray:1.4901,1.4901;}
	.st13{fill:none;stroke:#F3B400;stroke-width:0.9243;stroke-miterlimit:10;stroke-dasharray:1.5407,1.5407;}
	.st14{fill:none;stroke:#F3B400;stroke-width:0.9243;stroke-miterlimit:10;stroke-dasharray:1.525,1.525;}
	.st15{fill:none;stroke:#F3B400;stroke-width:0.9243;stroke-miterlimit:10;stroke-dasharray:1.4952,1.4952;}
	.st16{fill:none;stroke:#F3B400;stroke-width:0.9243;stroke-miterlimit:10;stroke-dasharray:1.5693,1.5693;}
	.st17{fill:none;stroke:#F3B400;stroke-width:0.9243;stroke-miterlimit:10;stroke-dasharray:1.5169,1.5169;}
	.st18{fill:none;stroke:#F3B400;stroke-width:0.9243;stroke-miterlimit:10;stroke-dasharray:1.7111,1.7111;}
	.st19{fill:none;stroke:#FFFFFF;stroke-width:0.6162;stroke-linecap:round;stroke-linejoin:round;stroke-miterlimit:10;}
	.st20{fill:#FFFFFF;}
	.st21{clip-path:url(#SVGID_2_);}
	.st22{stroke:#FFFFFF;stroke-miterlimit:10;}
	.st23{fill:none;stroke:#F1B200;stroke-width:0.6888;stroke-miterlimit:10;stroke-dasharray:3.1207;}
	.st24{stroke:#000000;stroke-width:0.8298;stroke-miterlimit:10;}
	.st25{opacity:0.9;fill:#FFFFFF;}
	.st26{clip-path:url(#SVGID_4_);}
	.st27{stroke:#FFFFFF;stroke-width:1.0877;stroke-miterlimit:10;}
	.st28{stroke:#000000;stroke-width:1.9035;stroke-miterlimit:10;}
	.st29{clip-path:url(#SVGID_6_);}
	.st30{stroke:#000000;stroke-width:1.3597;stroke-miterlimit:10;}
	.st31{fill:#FFFFFF;stroke:#000000;stroke-width:0.8637;stroke-miterlimit:10;}
	.st32{fill:#FFFFFF;stroke:#000000;stroke-width:1.2955;stroke-miterlimit:10;}
	.st33{clip-path:url(#SVGID_8_);fill:#F5B500;}
	.st34{clip-path:url(#SVGID_8_);fill:#FFFFFF;}
	.st35{fill:#0000FF;}
	.st36{fill:#F5B500;}
	.st37{clip-path:url(#SVGID_10_);fill:#FFFFFF;}
	.st38{clip-path:url(#SVGID_10_);fill:#F5B500;}
	.st39{clip-path:url(#SVGID_10_);}
	.st40{clip-path:url(#SVGID_12_);fill:#FFFFFF;}
	.st41{clip-path:url(#SVGID_12_);}
	.st42{clip-path:url(#SVGID_12_);fill:#F5B500;}
	.st43{clip-path:url(#SVGID_14_);fill:#FFFFFF;}
	.st44{clip-path:url(#SVGID_14_);fill:#F5B500;}
	.st45{clip-path:url(#SVGID_14_);}
	.st46{clip-path:url(#SVGID_16_);fill:#FFFFFF;}
	.st47{clip-path:url(#SVGID_16_);}
	.st48{clip-path:url(#SVGID_16_);fill:#F5B500;}
	.st49{clip-path:url(#SVGID_18_);fill:#F5B500;}
	.st50{clip-path:url(#SVGID_18_);}
	.st51{clip-path:url(#SVGID_18_);fill:#FFFFFF;}
	.st52{clip-path:url(#SVGID_20_);fill:#FFFFFF;}
	.st53{clip-path:url(#SVGID_20_);fill:#F5B500;}
	.st54{clip-path:url(#SVGID_22_);fill:#F5B500;}
	.st55{clip-path:url(#SVGID_22_);fill:#FFFFFF;}
	.st56{clip-path:url(#SVGID_24_);fill:#F5B500;}
	.st57{clip-path:url(#SVGID_24_);fill:#FFFFFF;}
	.st58{clip-path:url(#SVGID_26_);fill:#FFFFFF;}
	.st59{clip-path:url(#SVGID_26_);fill:#F5B500;}
	.st60{clip-path:url(#SVGID_26_);}
	.st61{clip-path:url(#SVGID_28_);fill:#F5B500;}
	.st62{clip-path:url(#SVGID_28_);}
	.st63{clip-path:url(#SVGID_28_);fill:#FFFFFF;}
	.st64{clip-path:url(#SVGID_30_);fill:#F5B500;}
	.st65{clip-path:url(#SVGID_30_);fill:#FFFFFF;}
	.st66{clip-path:url(#SVGID_32_);fill:#F5B500;}
	.st67{clip-path:url(#SVGID_32_);}
	.st68{clip-path:url(#SVGID_32_);fill:#FFFFFF;}
</style>
<rect x="0" y="-0.2" width="150" height="150.3"/>
<g>
	<g>
		<circle class="st0" cx="24.8" cy="94.2" r="22.3"/>
		<path class="st0" d="M24.8,118.4c-13.3,0-24.2-10.8-24.2-24.2S11.5,70,24.8,70S49,80.9,49,94.2S38.1,118.4,24.8,118.4z M24.8,73.7
			c-11.3,0-20.5,9.2-20.5,20.5s9.2,20.5,20.5,20.5s20.5-9.2,20.5-20.5S36.1,73.7,24.8,73.7z"/>
	</g>
	<g>
		<circle cx="24.8" cy="94.2" r="9.3"/>
		<path d="M24.8,105.4c-6.2,0-11.2-5-11.2-11.2S18.6,83,24.8,83s11.2,5,11.2,11.2S30.9,105.4,24.8,105.4z M24.8,86.8
			c-4.1,0-7.4,3.3-7.4,7.4s3.3,7.4,7.4,7.4s7.4-3.3,7.4-7.4S28.9,86.8,24.8,86.8z"/>
	</g>
	<g>
		<circle class="st0" cx="125.2" cy="94.2" r="22.3"/>
		<path class="st0" d="M125.2,118.4c-13.3,0-24.2-10.8-24.2-24.2S111.9,70,125.2,70s24.2,10.8,24.2,24.2S138.5,118.4,125.2,118.4z
			 M125.2,73.7c-11.3,0-20.5,9.2-20.5,20.5s9.2,20.5,20.5,20.5s20.5-9.2,20.5-20.5S136.5,73.7,125.2,73.7z"/>
	</g>
	<g>
		<circle cx="125.2" cy="94.2" r="9.3"/>
		<path d="M125.2,105.4c-6.2,0-11.2-5-11.2-11.2s5-11.2,11.2-11.2s11.2,5,11.2,11.2S131.4,105.4,125.2,105.4z M125.2,86.8
			c-4.1,0-7.4,3.3-7.4,7.4s3.3,7.4,7.4,7.4s7.4-3.3,7.4-7.4S129.3,86.8,125.2,86.8z"/>
	</g>
	<g>
		<path class="st20" d="M63.6,95.9c-1,0-1.9-0.8-1.9-1.9c0-20.3-16.5-36.8-36.8-36.8c-1,0-1.9-0.8-1.9-1.9c0-1,0.8-1.9,1.9-1.9
			c22.4,0,40.5,18.2,40.5,40.5C65.5,95,64.7,95.9,63.6,95.9z"/>
	</g>
	<g>
		<path class="st20" d="M98.3,77.6c-0.3,0-0.6-0.1-0.8-0.2c-0.9-0.5-1.3-1.6-0.8-2.5c3.6-7.2,9.7-12.5,17.3-15.1
			c7.6-2.6,15.7-2,22.9,1.6c0.9,0.5,1.3,1.6,0.8,2.5c-0.5,0.9-1.6,1.3-2.5,0.8c-6.3-3.1-13.4-3.6-20-1.4c-6.6,2.2-12,6.9-15.1,13.2
			C99.7,77.3,99,77.6,98.3,77.6z"/>
	</g>
	<g>
		<path class="st20" d="M63.6,95.9c-0.3,0-0.6-0.1-0.9-0.3c-0.9-0.5-1.2-1.7-0.7-2.5l28.3-48.6c0.5-0.9,1.7-1.2,2.5-0.7
			c0.9,0.5,1.2,1.7,0.7,2.5L65.2,94.9C64.9,95.5,64.3,95.9,63.6,95.9z"/>
	</g>
	<g>
		<path class="st20" d="M109.7,47.3H91.9c-1,0-1.9-0.8-1.9-1.9c0-1,0.8-1.9,1.9-1.9h17.9c1,0,1.9,0.8,1.9,1.9
			C111.6,46.4,110.8,47.3,109.7,47.3z"/>
	</g>
	<g>
		<path class="st20" d="M125.2,96.1c-0.8,0-1.5-0.5-1.8-1.3L105,34c-0.3-1,0.3-2,1.2-2.3c1-0.3,2,0.3,2.3,1.2L127,93.7
			c0.3,1-0.3,2-1.2,2.3C125.6,96,125.4,96.1,125.2,96.1z"/>
	</g>
	<g>
		<path class="st20" d="M106.8,35.4H87.7c-1,0-1.9-0.8-1.9-1.9c0-1,0.8-1.9,1.9-1.9h19.1c1,0,1.9,0.8,1.9,1.9
			C108.6,34.5,107.8,35.4,106.8,35.4z"/>
	</g>
	<g>
		<path class="st20" d="M98.3,77.6H75.5c-1,0-1.9-0.8-1.9-1.9c0-1,0.8-1.9,1.9-1.9h22.8c1,0,1.9,0.8,1.9,1.9
			C100.2,76.8,99.3,77.6,98.3,77.6z"/>
	</g>
	<g>
		<path class="st20" d="M84,60.1H40.1c-1,0-1.9-0.8-1.9-1.9c0-1,0.8-1.9,1.9-1.9H84c1,0,1.9,0.8,1.9,1.9C85.8,59.3,85,60.1,84,60.1z
			"/>
	</g>
	<g>
		<path class="st20" d="M63.6,95.9H24.8c-1,0-1.9-0.8-1.9-1.9s0.8-1.9,1.9-1.9h38.8c1,0,1.9,0.8,1.9,1.9S64.7,95.9,63.6,95.9z"/>
	</g>
</g>
</svg>
