<?xml version="1.0" encoding="utf-8"?>
<!-- Generator: Adobe Illustrator 19.2.0, SVG Export Plug-In . SVG Version: 6.00 Build 0)  -->
<svg version="1.1" id="Ebene_1" xmlns="http://www.w3.org/2000/svg" xmlns:xlink="http://www.w3.org/1999/xlink" x="0px" y="0px"
	 viewBox="-1337 716.1 150 150" style="enable-background:new -1337 716.1 150 150;" xml:space="preserve">
<style type="text/css">
	.st0{enable-background:new    ;}
	.st1{fill:#FABB00;}
	.st2{fill:#FABB00;stroke:#FFFFFF;stroke-miterlimit:10;}
	.st3{fill:#FFFFFF;}
	.st4{stroke:#000000;stroke-width:0.8298;stroke-miterlimit:10;}
	.st5{fill:none;stroke:#F3B400;stroke-width:0.9243;stroke-miterlimit:10;}
	.st6{fill:none;stroke:#F3B400;stroke-width:0.9243;stroke-miterlimit:10;stroke-dasharray:1.4113,1.4113;}
	.st7{fill:none;stroke:#F3B400;stroke-width:0.9243;stroke-miterlimit:10;stroke-dasharray:1.277,1.277;}
	.st8{fill:none;stroke:#F3B400;stroke-width:0.9243;stroke-miterlimit:10;stroke-dasharray:1.9227,1.9227;}
	.st9{fill:none;stroke:#F3B400;stroke-width:0.9243;stroke-miterlimit:10;stroke-dasharray:1.5862,1.5862;}
	.st10{fill:none;stroke:#F3B400;stroke-width:0.9243;stroke-miterlimit:10;stroke-dasharray:1.4973,1.4973;}
	.st11{fill:none;stroke:#F3B400;stroke-width:0.9243;stroke-miterlimit:10;stroke-dasharray:1.5984,1.5984;}
	.st12{fill:none;stroke:#F3B400;stroke-width:0.9243;stroke-miterlimit:10;stroke-dasharray:1.4757,1.4757;}
	.st13{fill:none;stroke:#F3B400;stroke-width:0.9243;stroke-miterlimit:10;stroke-dasharray:1.4668,1.4668;}
	.st14{fill:none;stroke:#F3B400;stroke-width:0.9243;stroke-miterlimit:10;stroke-dasharray:1.5463,1.5463;}
	.st15{fill:none;stroke:#F3B400;stroke-width:0.9243;stroke-miterlimit:10;stroke-dasharray:1.4901,1.4901;}
	.st16{fill:none;stroke:#F3B400;stroke-width:0.9243;stroke-miterlimit:10;stroke-dasharray:1.5407,1.5407;}
	.st17{fill:none;stroke:#F3B400;stroke-width:0.9243;stroke-miterlimit:10;stroke-dasharray:1.525,1.525;}
	.st18{fill:none;stroke:#F3B400;stroke-width:0.9243;stroke-miterlimit:10;stroke-dasharray:1.4952,1.4952;}
	.st19{fill:none;stroke:#F3B400;stroke-width:0.9243;stroke-miterlimit:10;stroke-dasharray:1.5693,1.5693;}
	.st20{fill:none;stroke:#F3B400;stroke-width:0.9243;stroke-miterlimit:10;stroke-dasharray:1.5169,1.5169;}
	.st21{fill:none;stroke:#F3B400;stroke-width:0.9243;stroke-miterlimit:10;stroke-dasharray:1.7111,1.7111;}
	.st22{fill:none;stroke:#FFFFFF;stroke-width:0.6162;stroke-linecap:round;stroke-linejoin:round;stroke-miterlimit:10;}
	.st23{fill:none;stroke:#F1B200;stroke-width:0.6888;stroke-miterlimit:10;stroke-dasharray:3.1207;}
	.st24{opacity:0.9;fill:#FFFFFF;enable-background:new    ;}
	.st25{fill:none;}
	.st26{fill:#FFFFFF;stroke:#000000;stroke-width:0.8637;stroke-miterlimit:10;}
	.st27{fill:#FFFFFF;stroke:#000000;stroke-width:1.2955;stroke-miterlimit:10;}
	.st28{clip-path:url(#SVGID_2_);fill:#FABB00;}
	.st29{clip-path:url(#SVGID_4_);fill:#FFFFFF;}
	.st30{clip-path:url(#SVGID_6_);fill:#FFFFFF;}
	.st31{clip-path:url(#SVGID_8_);fill:#FFFFFF;}
	.st32{fill:#0000FF;}
	.st33{clip-path:url(#SVGID_10_);fill:#FFFFFF;}
	.st34{clip-path:url(#SVGID_12_);fill:#FABB00;}
	.st35{clip-path:url(#SVGID_14_);}
	.st36{clip-path:url(#SVGID_16_);}
	.st37{clip-path:url(#SVGID_18_);fill:#FFFFFF;}
	.st38{clip-path:url(#SVGID_20_);fill:#FFFFFF;}
	.st39{clip-path:url(#SVGID_22_);fill:#FFFFFF;}
	.st40{clip-path:url(#SVGID_24_);fill:#FFFFFF;}
	.st41{clip-path:url(#SVGID_26_);fill:#FFFFFF;}
	.st42{clip-path:url(#SVGID_28_);}
	.st43{clip-path:url(#SVGID_30_);}
	.st44{clip-path:url(#SVGID_32_);fill:#FABB00;}
	.st45{clip-path:url(#SVGID_34_);fill:#FABB00;}
	.st46{clip-path:url(#SVGID_36_);fill:#FFFFFF;}
	.st47{clip-path:url(#SVGID_38_);fill:#FFFFFF;}
	.st48{clip-path:url(#SVGID_40_);fill:#FABB00;}
	.st49{clip-path:url(#SVGID_42_);}
	.st50{clip-path:url(#SVGID_44_);fill:#FABB00;}
	.st51{clip-path:url(#SVGID_46_);fill:#FFFFFF;}
	.st52{clip-path:url(#SVGID_48_);}
	.st53{clip-path:url(#SVGID_50_);fill:#FFFFFF;}
	.st54{clip-path:url(#SVGID_52_);}
	.st55{clip-path:url(#SVGID_54_);fill:#FABB00;}
	.st56{clip-path:url(#SVGID_56_);}
	.st57{clip-path:url(#SVGID_58_);fill:#FABB00;}
	.st58{clip-path:url(#SVGID_60_);}
	.st59{clip-path:url(#SVGID_62_);fill:#FFFFFF;}
	.st60{clip-path:url(#SVGID_64_);}
	.st61{clip-path:url(#SVGID_66_);fill:#FABB00;}
	.st62{clip-path:url(#SVGID_68_);}
	.st63{clip-path:url(#SVGID_70_);fill:#FABB00;}
	.st64{clip-path:url(#SVGID_72_);fill:#FABB00;}
	.st65{clip-path:url(#SVGID_74_);fill:#FABB00;}
	.st66{clip-path:url(#SVGID_76_);fill:#FABB00;}
	.st67{clip-path:url(#SVGID_78_);fill:#FABB00;}
	.st68{clip-path:url(#SVGID_80_);}
	.st69{clip-path:url(#SVGID_82_);fill:#FABB00;}
	.st70{clip-path:url(#SVGID_84_);fill:#FABB00;}
	.st71{clip-path:url(#SVGID_86_);fill:#FFFFFF;}
	.st72{clip-path:url(#SVGID_88_);fill:#FFFFFF;}
	.st73{clip-path:url(#SVGID_90_);fill:#FFFFFF;}
	.st74{clip-path:url(#SVGID_92_);fill:#FABB00;}
	.st75{clip-path:url(#SVGID_94_);fill:#FFFFFF;}
	.st76{clip-path:url(#SVGID_96_);fill:#FFFFFF;}
	.st77{clip-path:url(#SVGID_98_);fill:#FABB00;}
	.st78{clip-path:url(#SVGID_100_);fill:#FFFFFF;}
	.st79{clip-path:url(#SVGID_102_);fill:#FABB00;}
	.st80{clip-path:url(#SVGID_104_);fill:#FABB00;}
	.st81{clip-path:url(#SVGID_106_);fill:#FABB00;}
	.st82{clip-path:url(#SVGID_108_);fill:#FABB00;}
	.st83{clip-path:url(#SVGID_110_);fill:#FFFFFF;}
	.st84{clip-path:url(#SVGID_112_);fill:#FFFFFF;}
	.st85{clip-path:url(#SVGID_114_);fill:#FFFFFF;}
	.st86{clip-path:url(#SVGID_116_);fill:#FFFFFF;}
	.st87{clip-path:url(#SVGID_118_);fill:#FFFFFF;}
	.st88{clip-path:url(#SVGID_120_);fill:#FABB00;}
	.st89{clip-path:url(#SVGID_122_);}
	.st90{clip-path:url(#SVGID_124_);fill:#FABB00;}
	.st91{clip-path:url(#SVGID_126_);}
	.st92{clip-path:url(#SVGID_128_);fill:#FFFFFF;}
	.st93{clip-path:url(#SVGID_130_);fill:#FFFFFF;}
	.st94{clip-path:url(#SVGID_132_);fill:#FFFFFF;}
	.st95{clip-path:url(#SVGID_134_);fill:#FFFFFF;}
	.st96{clip-path:url(#SVGID_136_);fill:#FFFFFF;}
	.st97{clip-path:url(#SVGID_138_);fill:#FABB00;}
	.st98{clip-path:url(#SVGID_140_);fill:#FABB00;}
	.st99{clip-path:url(#SVGID_142_);}
	.st100{clip-path:url(#SVGID_144_);}
	.st101{clip-path:url(#SVGID_146_);fill:#FABB00;}
	.st102{clip-path:url(#SVGID_148_);fill:#FABB00;}
	.st103{clip-path:url(#SVGID_150_);}
	.st104{clip-path:url(#SVGID_152_);}
	.st105{clip-path:url(#SVGID_154_);fill:#FFFFFF;}
	.st106{clip-path:url(#SVGID_156_);fill:#FFFFFF;}
	.st107{clip-path:url(#SVGID_158_);fill:#FFFFFF;}
	.st108{clip-path:url(#SVGID_160_);fill:#FFFFFF;}
	.st109{clip-path:url(#SVGID_162_);fill:#FFFFFF;}
	.st110{clip-path:url(#SVGID_164_);fill:#FFFFFF;}
	.st111{clip-path:url(#SVGID_166_);fill:#FABB00;}
	.st112{clip-path:url(#SVGID_168_);fill:#FFFFFF;}
	.st113{clip-path:url(#SVGID_170_);fill:#FFFFFF;}
	.st114{clip-path:url(#SVGID_172_);fill:#FFFFFF;}
	.st115{clip-path:url(#SVGID_174_);fill:#FABB00;}
	.st116{clip-path:url(#SVGID_176_);}
	.st117{clip-path:url(#SVGID_178_);}
	.st118{clip-path:url(#SVGID_180_);}
	.st119{clip-path:url(#SVGID_182_);fill:#FFFFFF;}
	.st120{clip-path:url(#SVGID_184_);fill:#FABB00;}
	.st121{clip-path:url(#SVGID_186_);fill:#FFFFFF;}
	.st122{clip-path:url(#SVGID_188_);fill:#FABB00;}
	.st123{clip-path:url(#SVGID_190_);fill:#FABB00;}
	.st124{clip-path:url(#SVGID_192_);fill:#FFFFFF;}
	.st125{fill:#FF0000;}
	.st126{fill:url(#);}
	.st127{fill:#F1B200;}
	.st128{fill:url(#SVGID_193_);}
	.st129{fill:#C7B299;}
	.st130{fill:#FCEE21;}
	.st131{fill:url(#SVGID_194_);}
	.st132{fill:url(#SVGID_195_);stroke:#FFFFFF;stroke-miterlimit:10;}
	.st133{fill:url(#SVGID_196_);}
	.st134{fill:url(#SVGID_197_);}
	.st135{fill:url(#SVGID_198_);}
	.st136{fill:url(#SVGID_199_);}
	.st137{fill:url(#SVGID_200_);}
	.st138{fill:url(#SVGID_201_);}
	.st139{fill:url(#SVGID_202_);}
	.st140{fill:url(#SVGID_203_);}
	.st141{fill:url(#SVGID_204_);}
	.st142{fill:url(#SVGID_205_);}
	.st143{fill:url(#SVGID_206_);}
	.st144{fill:url(#SVGID_207_);}
	.st145{fill:url(#SVGID_208_);}
	.st146{fill:url(#SVGID_209_);}
	.st147{fill:url(#SVGID_210_);}
	.st148{fill:#00FF00;}
	.st149{stroke:#000000;stroke-width:1.3597;stroke-miterlimit:10;}
	.st150{fill:none;stroke:#FFFFFF;stroke-width:4;stroke-miterlimit:10;}
	.st151{fill:none;stroke:#FABB00;stroke-width:4;stroke-miterlimit:10;}
	.st152{fill:none;stroke:#000000;stroke-width:6;stroke-miterlimit:10;}
	.st153{fill:#F2F2F2;}
	.st154{fill:none;stroke:#FABB00;stroke-width:2;stroke-miterlimit:10;}
	.st155{fill:#B18400;}
	.st156{fill:#8E6A00;}
	.st157{fill:#866400;}
	.st158{fill:#DAA300;}
	.st159{fill:#A57B00;}
	.st160{clip-path:url(#SVGID_212_);enable-background:new    ;}
	.st161{fill:#A07800;}
	.st162{fill:#9B7400;}
	.st163{fill:#967000;}
	.st164{fill:#AB8000;}
	.st165{clip-path:url(#SVGID_214_);enable-background:new    ;}
	.st166{fill:#946E00;}
	.st167{fill:#8A6800;}
	.st168{fill:#AE8200;}
	.st169{fill:#946F00;}
	.st170{fill:#8B6800;}
	.st171{fill:#A97E00;}
	.st172{clip-path:url(#SVGID_216_);enable-background:new    ;}
	.st173{fill:#AF8300;}
	.st174{fill:none;stroke:#FFFFFF;stroke-width:2;stroke-miterlimit:10;}
	.st175{fill:#FABB00;stroke:#FABB00;stroke-miterlimit:10;}
	.st176{fill:none;stroke:#FFFFFF;stroke-miterlimit:10;}
	.st177{fill:#FFFFFF;stroke:#000000;stroke-width:2;stroke-miterlimit:10;}
	.st178{fill:none;stroke:#FFFFFF;stroke-width:2;stroke-linecap:round;stroke-linejoin:round;stroke-miterlimit:10;}
	.st179{fill:#00FF24;}
	.st180{fill:none;stroke:#FABB00;stroke-width:3;stroke-miterlimit:10;}
</style>
<g>
	<rect x="-1337" y="716.1" width="150" height="150"/>
	<g>
		<g>
			<g>
				<path class="st3" d="M-1226.1,767.5h-98.2c-0.6,0-1.1-0.5-1.1-1.1v-19c0-0.3,0.2-0.7,0.4-0.9l18.8-14c0.2-0.1,0.4-0.2,0.7-0.2
					h53.9c0.3,0,0.5,0.1,0.7,0.3l19.5,17.6h21.7c0.6,0,1.1,0.5,1.1,1.1c0,0.6-0.5,1.1-1.1,1.1h-22.1c-0.3,0-0.5-0.1-0.7-0.3
					l-19.5-17.6h-53.1l-18,13.5v17.4h97.1c0.6,0,1.1,0.5,1.1,1.1C-1225,767-1225.5,767.5-1226.1,767.5z"/>
			</g>
			<g>
				<circle cx="-1303.3" cy="778.8" r="17.7"/>
			</g>
			<g>
				<circle class="st1" cx="-1212.9" cy="778.8" r="11.5"/>
				<path class="st1" d="M-1212.9,791.4c-7,0-12.6-5.7-12.6-12.6c0-7,5.7-12.6,12.6-12.6s12.6,5.7,12.6,12.6
					C-1200.3,785.8-1205.9,791.4-1212.9,791.4z M-1212.9,768.4c-5.7,0-10.4,4.7-10.4,10.4s4.7,10.4,10.4,10.4
					c5.7,0,10.4-4.7,10.4-10.4S-1207.2,768.4-1212.9,768.4z"/>
			</g>
			<g>
				<circle cx="-1212.9" cy="778.8" r="4.9"/>
				<path d="M-1212.9,784.8c-3.3,0-6-2.7-6-6c0-3.3,2.7-6,6-6c3.3,0,6,2.7,6,6C-1206.9,782.1-1209.6,784.8-1212.9,784.8z
					 M-1212.9,775c-2.1,0-3.8,1.7-3.8,3.8c0,2.1,1.7,3.8,3.8,3.8c2.1,0,3.8-1.7,3.8-3.8C-1209.1,776.7-1210.8,775-1212.9,775z"/>
			</g>
			<g>
				<circle class="st1" cx="-1303.3" cy="778.8" r="11.5"/>
				<path class="st1" d="M-1303.3,791.4c-7,0-12.6-5.7-12.6-12.6c0-7,5.7-12.6,12.6-12.6s12.6,5.7,12.6,12.6
					C-1290.7,785.8-1296.3,791.4-1303.3,791.4z M-1303.3,768.4c-5.7,0-10.4,4.7-10.4,10.4s4.7,10.4,10.4,10.4
					c5.7,0,10.4-4.7,10.4-10.4S-1297.5,768.4-1303.3,768.4z"/>
			</g>
			<g>
				<circle cx="-1303.3" cy="778.8" r="4.9"/>
				<path d="M-1303.3,784.8c-3.3,0-6-2.7-6-6c0-3.3,2.7-6,6-6c3.3,0,6,2.7,6,6C-1297.3,782.1-1300,784.8-1303.3,784.8z M-1303.3,775
					c-2.1,0-3.8,1.7-3.8,3.8c0,2.1,1.7,3.8,3.8,3.8c2.1,0,3.8-1.7,3.8-3.8C-1299.5,776.7-1301.2,775-1303.3,775z"/>
			</g>
			<g>
				<path class="st3" d="M-1256.9,780.1h-46.4c-0.6,0-1.1-0.5-1.1-1.1c0-0.6,0.5-1.1,1.1-1.1h46.4c0.6,0,1.1,0.5,1.1,1.1
					C-1255.8,779.6-1256.2,780.1-1256.9,780.1z"/>
			</g>
			<g>
				<path class="st3" d="M-1202.7,759.6c-0.6,0-1.1-0.5-1.1-1.1c0-3.4-2.8-6.2-6.2-6.2c-0.6,0-1.1-0.5-1.1-1.1
					c0-0.6,0.5-1.1,1.1-1.1c4.6,0,8.4,3.8,8.4,8.4C-1201.6,759.1-1202.1,759.6-1202.7,759.6z"/>
			</g>
			<g>
				<path class="st3" d="M-1202.7,764.9c-0.6,0-1.1-0.5-1.1-1.1v-5.6c0-0.6,0.5-1.1,1.1-1.1s1.1,0.5,1.1,1.1v5.6
					C-1201.6,764.4-1202.1,764.9-1202.7,764.9z"/>
			</g>
			<g>
				<g>
					<path class="st3" d="M-1230.8,780.1c-0.6,0-1.1-0.5-1.1-1.1c0-10.6,8.6-19.3,19.3-19.3c0.6,0,1.1,0.5,1.1,1.1
						c0,0.6-0.5,1.1-1.1,1.1c-9.4,0-17.1,7.7-17.1,17.1C-1229.7,779.6-1230.2,780.1-1230.8,780.1z"/>
				</g>
				<g>
					<path class="st3" d="M-1199.8,767.3c-0.3,0-0.6-0.1-0.8-0.3c-6.7-6.6-17.5-6.6-24.1,0c-0.4,0.4-1.1,0.4-1.6,0
						c-0.4-0.4-0.4-1.1,0-1.6c7.5-7.5,19.7-7.5,27.3,0c0.4,0.4,0.4,1.1,0,1.6C-1199.3,767.2-1199.6,767.3-1199.8,767.3z"/>
				</g>
			</g>
			<g>
				<g>
					<path class="st3" d="M-1290.6,767.3c-0.3,0-0.6-0.1-0.8-0.3c-6.7-6.6-17.5-6.6-24.1,0c-0.4,0.4-1.1,0.4-1.6,0
						c-0.4-0.4-0.4-1.1,0-1.6c7.5-7.5,19.7-7.5,27.3,0c0.4,0.4,0.4,1.1,0,1.6C-1290.1,767.2-1290.4,767.3-1290.6,767.3z"/>
				</g>
				<g>
					<path class="st3" d="M-1285.3,780.1c-0.6,0-1.1-0.5-1.1-1.1c0-9.4-7.7-17.1-17.1-17.1c-0.6,0-1.1-0.5-1.1-1.1
						c0-0.6,0.5-1.1,1.1-1.1c10.6,0,19.3,8.6,19.3,19.3C-1284.2,779.6-1284.7,780.1-1285.3,780.1z"/>
				</g>
			</g>
			<g>
				<path class="st3" d="M-1319.2,767.5c0.5,0,3.2,0,3.2,0s2-1.9,2.1-1.9s-1.5,0.4-1.6,0.4c-0.1,0-3.2,0.1-3.2,0.1L-1319.2,767.5z"
					/>
			</g>
			<g>
				<path class="st3" d="M-1231.9,752.3h-44c-0.6,0-1.1-0.5-1.1-1.1c0-0.6,0.5-1.1,1.1-1.1h44c0.6,0,1.1,0.5,1.1,1.1
					C-1230.8,751.8-1231.3,752.3-1231.9,752.3z"/>
			</g>
			<g>
				<path class="st3" d="M-1274.3,778.3c-0.7,0-1.3,0.6-1.3,1.3c0,14.4-11.7,26.1-26.1,26.1c-0.7,0-1.3,0.6-1.3,1.3s0.6,1.3,1.3,1.3
					c15.9,0,28.8-12.9,28.8-28.8C-1273,778.8-1273.6,778.3-1274.3,778.3z"/>
			</g>
			<g>
				<path class="st3" d="M-1232.3,791.2c-0.2,0-0.4,0-0.6,0.1c-0.7,0.3-0.9,1.1-0.6,1.8c2.5,5.1,6.9,8.9,12.3,10.7
					c5.4,1.8,11.1,1.4,16.2-1.1c0.7-0.3,0.9-1.1,0.6-1.8c-0.3-0.7-1.1-0.9-1.8-0.6c-4.5,2.2-9.5,2.6-14.2,1
					c-4.7-1.6-8.5-4.9-10.7-9.4C-1231.4,791.4-1231.8,791.2-1232.3,791.2z"/>
			</g>
			<g>
				<path class="st3" d="M-1256.9,778.3c-0.2,0-0.5,0.1-0.7,0.2c-0.6,0.4-0.8,1.2-0.5,1.8l20.1,34.5c0.4,0.6,1.2,0.8,1.8,0.5
					c0.6-0.4,0.8-1.2,0.5-1.8l-20.1-34.5C-1256,778.5-1256.5,778.3-1256.9,778.3z"/>
			</g>
			<g>
				<path class="st3" d="M-1224.2,812.7h-12.7c-0.7,0-1.3,0.6-1.3,1.3s0.6,1.3,1.3,1.3h12.7c0.7,0,1.3-0.6,1.3-1.3
					S-1223.5,812.7-1224.2,812.7z"/>
			</g>
			<g>
				<path class="st3" d="M-1213.2,778.1c-0.6,0-1.1,0.4-1.3,0.9l-13.1,43.1c-0.2,0.7,0.2,1.4,0.9,1.6c0.7,0.2,1.4-0.2,1.6-0.9
					l13.1-43.1c0.2-0.7-0.2-1.4-0.9-1.6C-1213,778.1-1213.1,778.1-1213.2,778.1z"/>
			</g>
			<g>
				<path class="st3" d="M-1226.3,821.2h-13.5c-0.7,0-1.3,0.6-1.3,1.3c0,0.7,0.6,1.3,1.3,1.3h13.5c0.7,0,1.3-0.6,1.3-1.3
					C-1225,821.8-1225.6,821.2-1226.3,821.2z"/>
			</g>
			<g>
				<path class="st3" d="M-1232.3,790.6h-16.2c-0.7,0-1.3,0.6-1.3,1.3s0.6,1.3,1.3,1.3h16.2c0.7,0,1.3-0.6,1.3-1.3
					S-1231.6,790.6-1232.3,790.6z"/>
			</g>
			<g>
				<path class="st3" d="M-1242.5,803.6h-48.6c-0.7,0-1.3,0.6-1.3,1.3c0,0.7,0.6,1.3,1.3,1.3h48.6c0.7,0,1.3-0.6,1.3-1.3
					C-1241.2,804.2-1241.8,803.6-1242.5,803.6z"/>
			</g>
		</g>
		<g>
			<path class="st1" d="M-1336,849.8l2.5-11.1h5.3l-0.4,1.7h-3.4l-0.6,2.9h2.6l-0.4,1.7h-2.6l-1.1,4.9H-1336z"/>
			<path class="st1" d="M-1325.9,838.7h1.9l-1.9,8.4c-0.2,0.8,0.1,1.2,0.8,1.2s1.1-0.4,1.3-1.2l1.9-8.4h1.9l-1.8,8.3
				c-0.4,1.9-1.8,3-3.6,3c-1.8,0-2.7-1-2.3-3L-1325.9,838.7z M-1322.8,836.3l-0.4,1.7h-1.7l0.4-1.7H-1322.8z M-1322.4,837.9l0.4-1.7
				h1.7l-0.4,1.7H-1322.4z"/>
			<path class="st1" d="M-1319.9,849.8l2.5-11.1h1.9l-1,4.5h2l1-4.5h1.9l-2.5,11.1h-1.9l1.1-4.9h-2l-1.1,4.9H-1319.9z"/>
			<path class="st1" d="M-1309.5,849.8h-1.9l2.5-11.1h2.7c2.1,0,3,0.9,2.5,3.3c-0.4,1.8-1.2,2.5-2,2.8l0.5,5h-1.9l-0.3-4.6
				c-0.2,0-0.6,0-1,0L-1309.5,849.8z M-1308.2,843.7h0.7c1,0,1.5-0.4,1.8-1.7c0.3-1.3,0-1.7-1-1.7h-0.7L-1308.2,843.7z"/>
			<path class="st1" d="M-1303,849.8l2.5-11.1h5.1l-0.4,1.7h-3.2l-0.6,2.9h2.5l-0.4,1.7h-2.5l-0.7,3.3h3.4l-0.4,1.7H-1303z"/>
			<path class="st1" d="M-1293.4,849.8h-1.9l2.5-11.1h2.7c2.1,0,3,0.9,2.5,3.3c-0.4,1.8-1.2,2.5-2,2.8l0.5,5h-1.9l-0.3-4.6
				c-0.2,0-0.6,0-1,0L-1293.4,849.8z M-1292.1,843.7h0.7c1,0,1.5-0.4,1.8-1.7c0.3-1.3,0-1.7-1-1.7h-0.7L-1292.1,843.7z"/>
			<path class="st1" d="M-1281.5,841.4c0.1-1-0.3-1.2-0.8-1.2c-0.6,0-1,0.4-1.2,1.1c-0.4,1.9,3.3,2.8,2.6,5.8
				c-0.4,1.8-1.9,2.9-3.7,2.9c-1.8,0-2.5-1.4-2.2-3.1l1.9-0.3c-0.2,1.1,0.2,1.7,0.8,1.7c0.7,0,1.2-0.4,1.3-1c0.5-2.2-3.3-2.8-2.6-6
				c0.4-1.8,1.7-2.8,3.6-2.8c1.6,0,2.2,1.1,2,2.7L-1281.5,841.4z"/>
			<path class="st1" d="M-1273.8,842.4l0.2-0.9c0.2-0.9-0.1-1.3-0.6-1.3c-0.8,0-1.1,0.4-1.3,1.2l-1.3,5.6c-0.2,0.8,0,1.2,0.8,1.2
				c0.7,0,1-0.4,1.2-1.1l0.3-1.3h1.9l-0.3,1.3c-0.4,1.6-1.6,2.9-3.5,2.9c-2,0-2.7-1.3-2.3-2.9l1.3-5.7c0.4-1.6,1.6-2.9,3.6-2.9
				c1.9,0,2.5,1.4,2.2,3.1l-0.2,0.8H-1273.8z"/>
			<path class="st1" d="M-1270.8,849.8l2.5-11.1h1.9l-1,4.5h2l1-4.5h1.9l-2.5,11.1h-1.9l1.1-4.9h-2l-1.1,4.9H-1270.8z"/>
			<path class="st1" d="M-1262.3,849.8l2.5-11.1h5.1l-0.4,1.7h-3.2l-0.6,2.9h2.5l-0.4,1.7h-2.5l-0.7,3.3h3.4l-0.4,1.7H-1262.3z"/>
			<path class="st1" d="M-1254.4,849.8l2.5-11.1h1.9l-2.5,11.1H-1254.4z"/>
			<path class="st1" d="M-1249.6,849.8l2.5-11.1h1.8l0.9,6.4h0l1.4-6.4h1.7l-2.5,11.1h-1.7l-0.9-7h0l-1.5,7H-1249.6z"/>
			<path class="st3" d="M-1241.2,849.8l2.5-11.1h1.9l-0.9,4.1h0l2.9-4.1h1.9l-3,4.1l0.8,7h-1.9l-0.4-5.2h0l-0.9,1.2l-0.9,3.9
				H-1241.2z"/>
			<path class="st3" d="M-1233.6,849.8l2.5-11.1h1.9l-2.1,9.5h3l-0.4,1.7H-1233.6z"/>
			<path class="st3" d="M-1225.7,849.8h-1.8l4.5-11.1h2.4l-0.4,11.1h-1.8l0.2-2.5h-2.1L-1225.7,849.8z M-1224.1,845.7h1.5l0.3-4.8h0
				L-1224.1,845.7z"/>
			<path class="st3" d="M-1213.8,841.4c0.1-1-0.3-1.2-0.8-1.2c-0.6,0-1,0.4-1.2,1.1c-0.4,1.9,3.3,2.8,2.6,5.8
				c-0.4,1.8-1.9,2.9-3.7,2.9c-1.8,0-2.5-1.4-2.2-3.1l1.9-0.3c-0.2,1.1,0.2,1.7,0.8,1.7c0.7,0,1.2-0.4,1.3-1c0.5-2.2-3.3-2.8-2.6-6
				c0.4-1.8,1.7-2.8,3.6-2.8c1.6,0,2.2,1.1,2.1,2.7L-1213.8,841.4z"/>
			<path class="st3" d="M-1206.2,841.4c0.1-1-0.3-1.2-0.8-1.2c-0.6,0-1,0.4-1.2,1.1c-0.4,1.9,3.3,2.8,2.6,5.8
				c-0.4,1.8-1.9,2.9-3.7,2.9c-1.8,0-2.5-1.4-2.2-3.1l1.9-0.3c-0.2,1.1,0.2,1.7,0.8,1.7c0.7,0,1.2-0.4,1.3-1c0.5-2.2-3.3-2.8-2.6-6
				c0.4-1.8,1.7-2.8,3.6-2.8c1.6,0,2.2,1.1,2.1,2.7L-1206.2,841.4z"/>
			<path class="st3" d="M-1203.9,849.8l2.5-11.1h5.1l-0.4,1.7h-3.2l-0.6,2.9h2.5l-0.4,1.7h-2.5l-0.7,3.3h3.4l-0.4,1.7H-1203.9z"/>
			<path class="st3" d="M-1196.3,849.8l2.5-11.1h1.8l0.9,6.4h0l1.4-6.4h1.7l-2.5,11.1h-1.7l-0.9-7h0l-1.5,7H-1196.3z"/>
		</g>
	</g>
</g>
</svg>
