<?xml version="1.0" encoding="utf-8"?>
<!-- Generator: Adobe Illustrator 20.0.0, SVG Export Plug-In . SVG Version: 6.00 Build 0)  -->
<!DOCTYPE svg PUBLIC "-//W3C//DTD SVG 1.1//EN" "http://www.w3.org/Graphics/SVG/1.1/DTD/svg11.dtd">
<svg version="1.1" id="Ebene_1" xmlns="http://www.w3.org/2000/svg" xmlns:xlink="http://www.w3.org/1999/xlink" x="0px" y="0px"
	 viewBox="0 0 150 150" style="enable-background:new 0 0 150 150;" xml:space="preserve">
<style type="text/css">
	.st0{fill:#FABB00;}
	.st1{clip-path:url(#SVGID_2_);}
	.st2{fill:#FFFFFF;}
</style>
<g>
	<g>
		<rect y="0.2" width="149.8" height="150.2"/>
	</g>
</g>
<g>
	<path class="st0" d="M7.2,148.9l7.4-33.4H30l-1.1,5h-9.6l-1.9,8.6h7.4l-1.1,5h-7.4l-2.2,9.8h10.3l-1.1,5H7.2z"/>
	<path class="st0" d="M29.8,148.9l7.4-33.4h5.7l-6.3,28.4h9l-1.1,5H29.8z"/>
	<path class="st0" d="M59.2,120.5h-5.6l1.1-5h16.9l-1.1,5h-5.6l-6.3,28.4h-5.7L59.2,120.5z"/>
	<path class="st0" d="M69.9,148.9l7.4-33.4h15.4l-1.1,5H82l-1.9,8.6h7.4l-1.1,5H79l-2.2,9.8H87l-1.1,5H69.9z"/>
	<path class="st0" d="M98.5,148.9h-5.7l7.4-33.4h8.1c6.4,0,9.1,2.7,7.6,9.9c-1.2,5.4-3.8,7.6-5.9,8.4l1.5,15.1h-5.8l-1-13.9
		c-0.7,0.1-1.9,0.1-3,0.1L98.5,148.9z M102.6,130.5h2c3.1,0,4.5-1.2,5.4-5.1c0.9-4,0-5.1-3.2-5.1h-2L102.6,130.5z"/>
	<path class="st0" d="M118.3,148.9l7.4-33.4h5.3l2.8,19.1h0.1l4.2-19.1h5.2l-7.4,33.4h-5l-2.7-20.9h-0.1l-4.6,20.9H118.3z"/>
</g>
<g>
	<g>
		<defs>
			<rect id="SVGID_1_" x="0.2" y="1.3" width="149.3" height="148.7"/>
		</defs>
		<clipPath id="SVGID_2_">
			<use xlink:href="#SVGID_1_"  style="overflow:visible;"/>
		</clipPath>
		<g class="st1">
			<path d="M12.4,126.9c0.1,0.4,0.3,0.6,0.7,0.6s0.6-0.3,0.6-0.7c0-0.4-0.3-0.6-0.7-0.6C12.6,126.3,12.5,126.6,12.4,126.9z"/>
			<path d="M22.8,126.4c-0.4,0-0.6,0.1-0.7,0.6c0,0.4,0.2,0.6,0.6,0.7s0.6-0.2,0.7-0.5C23.4,126.7,23.2,126.5,22.8,126.4z"/>
			<path d="M31.9,127.1c0,0.4,0.2,0.6,0.6,0.6s0.6-0.3,0.6-0.6c0-0.4-0.3-0.6-0.6-0.6C32.1,126.4,31.9,126.7,31.9,127.1z"/>
			<path d="M132.7,126.3c-0.4,0-0.6,0.2-0.6,0.6s0.2,0.6,0.6,0.6c0.4,0,0.6-0.2,0.6-0.6C133.2,126.5,133,126.3,132.7,126.3z"/>
			<path d="M142.5,126.3c-0.5,0-0.7,0.2-0.7,0.6s0.2,0.6,0.6,0.6c0.4,0,0.6-0.2,0.6-0.6C143,126.5,142.7,126.3,142.5,126.3z"/>
			<path d="M81.2,128.1c0.4,0,0.6-0.2,0.6-0.6s-0.2-0.6-0.6-0.6s-0.6,0.2-0.6,0.6C80.6,127.8,80.8,128,81.2,128.1z"/>
			<path d="M90.9,128.1c0.4,0,0.6-0.3,0.6-0.7c0-0.4-0.3-0.6-0.6-0.6c-0.4,0-0.6,0.3-0.6,0.7S90.6,128.1,90.9,128.1z"/>
			<path d="M100.7,127c-0.5,0-0.7,0.2-0.7,0.6c0,0.4,0.2,0.6,0.6,0.7c0.4,0,0.6-0.2,0.7-0.6C101.3,127.3,101,127.1,100.7,127z"/>
			<path d="M109.7,127.5c0,0.4,0.2,0.6,0.5,0.7c0.4,0.1,0.6-0.2,0.7-0.5c0-0.4-0.1-0.6-0.5-0.7C110,127,109.8,127.2,109.7,127.5z"/>
			<path d="M42.4,127.8c0.4-0.1,0.6-0.2,0.6-0.6s-0.3-0.6-0.6-0.6c-0.4,0-0.6,0.3-0.6,0.7C41.7,127.6,42,127.8,42.4,127.8z"/>
			<path d="M52,127.8c0.4,0,0.7-0.2,0.7-0.6s-0.2-0.6-0.6-0.7c-0.4,0-0.6,0.2-0.7,0.6C51.4,127.5,51.6,127.7,52,127.8z"/>
			<path d="M61.2,127.4c0.1,0.4,0.4,0.6,0.7,0.5c0.4-0.1,0.6-0.4,0.5-0.7c-0.1-0.4-0.4-0.5-0.7-0.5
				C61.2,126.8,61.1,127.1,61.2,127.4z"/>
			<path d="M71.5,126.7c-0.4,0-0.6,0.2-0.7,0.6c0,0.4,0.2,0.6,0.6,0.7c0.4,0,0.6-0.2,0.7-0.6C72.1,127,71.9,126.8,71.5,126.7z"/>
			<path d="M16,125.4c-0.4,0-0.6,0.3-0.6,0.7c0,0.4,0.2,0.6,0.6,0.6c0.4,0,0.6-0.2,0.6-0.6C16.6,125.6,16.3,125.4,16,125.4z"/>
			<path d="M25.2,126c0,0.4,0.3,0.6,0.7,0.6c0.4,0,0.6-0.2,0.6-0.6s-0.3-0.6-0.7-0.6S25.2,125.7,25.2,126z"/>
			<path d="M34.9,126.2c0,0.4,0.2,0.6,0.6,0.6c0.4,0,0.6-0.2,0.6-0.6s-0.2-0.6-0.6-0.6C35.2,125.6,34.9,125.8,34.9,126.2z"/>
			<path d="M45.3,125.6c-0.4,0-0.7,0.2-0.7,0.6s0.2,0.6,0.6,0.7c0.4,0,0.6-0.2,0.7-0.6C45.9,125.8,45.7,125.6,45.3,125.6z"/>
			<path d="M5.6,125.9c0,0.4,0.3,0.6,0.7,0.6c0.4,0,0.6-0.3,0.6-0.6c0-0.4-0.2-0.6-0.6-0.6C5.8,125.3,5.6,125.5,5.6,125.9z"/>
			<path d="M93.9,126c-0.4,0-0.6,0.2-0.7,0.5c-0.1,0.4,0.2,0.6,0.5,0.7c0.4,0,0.6-0.1,0.7-0.5C94.4,126.3,94.3,126,93.9,126z"/>
			<path d="M102.9,126.5c0,0.5,0.2,0.7,0.6,0.7s0.6-0.2,0.7-0.6c0-0.4-0.2-0.6-0.6-0.7C103.2,125.9,103,126.2,102.9,126.5z"/>
			<path d="M112.6,126.9c0.1,0.3,0.4,0.6,0.7,0.5c0.4-0.1,0.5-0.4,0.5-0.7c-0.1-0.4-0.4-0.5-0.7-0.5
				C112.7,126.2,112.5,126.5,112.6,126.9z"/>
			<path d="M122.3,126.6c0,0.4,0.2,0.7,0.6,0.7s0.6-0.2,0.7-0.6c0-0.4-0.2-0.6-0.6-0.7C122.6,126.1,122.4,126.3,122.3,126.6z"/>
			<path d="M54.3,126.3c0.1,0.5,0.3,0.6,0.7,0.6s0.6-0.3,0.6-0.7c0-0.4-0.3-0.6-0.7-0.6C54.5,125.7,54.3,126,54.3,126.3z"/>
			<path d="M64.7,125.7c-0.5,0-0.7,0.3-0.7,0.7c0,0.4,0.2,0.6,0.6,0.6s0.6-0.2,0.6-0.6C65.3,125.9,65,125.7,64.7,125.7z"/>
			<path d="M74.4,127.1c0.4,0,0.6-0.3,0.6-0.7c0-0.4-0.2-0.6-0.6-0.6s-0.6,0.2-0.6,0.6C73.8,126.9,74,127.1,74.4,127.1z"/>
			<path d="M83.5,126.4c0,0.4,0.1,0.7,0.5,0.7s0.6-0.2,0.7-0.5c0.1-0.4-0.2-0.6-0.5-0.7C83.8,125.8,83.5,126,83.5,126.4z"/>
			<path d="M17,129.5c0.4-0.1,0.6-0.3,0.5-0.7c0-0.4-0.3-0.6-0.7-0.6c-0.4,0.1-0.6,0.3-0.6,0.7C16.4,129.4,16.7,129.5,17,129.5z"/>
			<path d="M26.7,128.3c-0.4,0-0.6,0.2-0.7,0.6c0,0.4,0.2,0.6,0.6,0.6s0.6-0.2,0.6-0.6C27.3,128.5,27.1,128.3,26.7,128.3z"/>
			<path d="M36.4,129.7c0.4-0.1,0.6-0.3,0.6-0.7s-0.3-0.6-0.7-0.6s-0.6,0.3-0.6,0.7C35.8,129.5,36.1,129.7,36.4,129.7z"/>
			<path d="M45.5,129.2c0,0.3,0.2,0.5,0.6,0.5c0.4,0,0.6-0.3,0.6-0.6c0-0.4-0.3-0.6-0.6-0.6C45.7,128.5,45.5,128.7,45.5,129.2z"/>
			<path d="M6.6,128.7c0,0.4,0.2,0.7,0.6,0.7s0.6-0.2,0.7-0.6c0-0.4-0.2-0.6-0.6-0.7C6.9,128.1,6.7,128.3,6.6,128.7z"/>
			<path d="M106.8,128.5c0,0.5,0.2,0.7,0.6,0.7s0.6-0.2,0.6-0.6c0-0.4-0.2-0.6-0.6-0.6C107,128,106.9,128.3,106.8,128.5z"/>
			<path d="M117.1,128c-0.4,0.1-0.6,0.3-0.6,0.7s0.3,0.6,0.7,0.6c0.4,0,0.6-0.3,0.6-0.7C117.7,128.2,117.5,128,117.1,128z"/>
			<path d="M94.2,129.4c0,0.5,0.2,0.7,0.6,0.7s0.6-0.2,0.6-0.6c0-0.4-0.2-0.6-0.6-0.6C94.4,128.9,94.3,129.1,94.2,129.4z"/>
			<path d="M104.6,128.9c-0.4,0-0.6,0.2-0.7,0.5c-0.1,0.4,0.2,0.6,0.5,0.7c0.4,0,0.6-0.1,0.7-0.5C105.1,129.2,105,128.9,104.6,128.9
				z"/>
			<path d="M114.3,129c-0.4,0-0.7,0.2-0.7,0.6c0,0.4,0.2,0.6,0.6,0.7c0.4,0,0.6-0.2,0.6-0.6C114.9,129.3,114.6,129.1,114.3,129z"/>
			<path d="M123.9,130.3c0.4,0,0.6-0.2,0.7-0.6c0-0.4-0.2-0.6-0.6-0.6s-0.6,0.2-0.7,0.6C123.3,130,123.5,130.2,123.9,130.3z"/>
			<path d="M55.8,128.6c-0.4,0-0.6,0.2-0.6,0.6c0,0.4,0.2,0.6,0.6,0.6c0.4,0,0.6-0.2,0.6-0.6C56.4,128.8,56.2,128.6,55.8,128.6z"/>
			<path d="M65.6,128.6c-0.4,0-0.6,0.2-0.6,0.6c0,0.4,0.2,0.6,0.6,0.6s0.6-0.2,0.6-0.6S65.9,128.6,65.6,128.6z"/>
			<path d="M75.3,130c0.4-0.1,0.6-0.3,0.6-0.7s-0.3-0.6-0.7-0.6c-0.4,0-0.6,0.3-0.6,0.7C74.7,129.8,74.9,130,75.3,130z"/>
			<path d="M85.1,128.7c-0.4,0-0.6,0.2-0.6,0.6c0,0.4,0.3,0.6,0.6,0.6c0.4,0,0.6-0.3,0.6-0.6S85.5,128.8,85.1,128.7z"/>
			<path d="M39.3,128.7c0.4,0,0.6-0.2,0.6-0.6s-0.2-0.6-0.6-0.6c-0.4,0-0.6,0.2-0.6,0.6C38.6,128.4,38.9,128.6,39.3,128.7z"/>
			<path d="M49.1,128.8c0.3-0.1,0.5-0.3,0.5-0.7c0-0.4-0.3-0.6-0.7-0.6s-0.6,0.3-0.6,0.7C48.4,128.6,48.6,128.8,49.1,128.8z"/>
			<path d="M58.1,128.1c0,0.5,0.2,0.7,0.6,0.8c0.4,0,0.6-0.2,0.7-0.6c0-0.4-0.2-0.6-0.5-0.7C58.4,127.6,58.2,127.8,58.1,128.1z"/>
			<path d="M10.2,127.3c-0.4,0-0.7,0.2-0.7,0.6c0,0.4,0.2,0.6,0.6,0.7c0.4,0,0.6-0.2,0.7-0.6C10.8,127.6,10.6,127.4,10.2,127.3z"/>
			<path d="M19.2,128c0,0.4,0.3,0.6,0.6,0.6c0.4,0,0.6-0.3,0.6-0.6c0-0.4-0.2-0.6-0.6-0.6C19.5,127.3,19.2,127.5,19.2,128z"/>
			<path d="M120,127.1c-0.4,0.1-0.6,0.3-0.5,0.7c0,0.4,0.3,0.6,0.7,0.5c0.4,0,0.6-0.3,0.5-0.7C120.6,127.3,120.3,127.1,120,127.1z"
				/>
			<path d="M129.8,127.1c-0.4,0-0.6,0.2-0.7,0.5c-0.1,0.4,0.2,0.6,0.5,0.7c0.4,0,0.6-0.1,0.7-0.5
				C130.4,127.5,130.2,127.2,129.8,127.1z"/>
			<path d="M139.4,128.5c0.4,0,0.7-0.2,0.7-0.6c0-0.4-0.2-0.6-0.6-0.6c-0.4,0-0.6,0.2-0.6,0.6C138.8,128.3,139,128.5,139.4,128.5z"
				/>
			<path d="M126.2,128.8c0.1,0.3,0.3,0.6,0.6,0.6c0.4,0,0.6-0.3,0.6-0.6c0-0.4-0.2-0.6-0.6-0.6C126.4,128.2,126.2,128.4,126.2,128.8
				z"/>
			<path d="M136.6,129.4c0.4-0.1,0.6-0.3,0.6-0.6c0-0.4-0.3-0.6-0.6-0.6c-0.4,0-0.6,0.2-0.6,0.6S136.2,129.4,136.6,129.4z"/>
			<path d="M67.9,128.4c0.1,0.4,0.3,0.6,0.7,0.6c0.4,0,0.6-0.3,0.6-0.7c0-0.4-0.3-0.6-0.7-0.6C68.1,127.8,68,128,67.9,128.4z"/>
			<path d="M78.3,127.7c-0.4,0-0.6,0.3-0.6,0.6c0,0.4,0.2,0.6,0.6,0.6s0.6-0.2,0.6-0.6S78.6,127.7,78.3,127.7z"/>
			<path d="M87.9,127.9c-0.4,0.1-0.6,0.3-0.6,0.7c0,0.4,0.3,0.6,0.7,0.6c0.4,0,0.6-0.3,0.6-0.7C88.6,128.1,88.3,127.9,87.9,127.9z"
				/>
			<path d="M97.1,128.4c0,0.4,0.1,0.7,0.5,0.7s0.6-0.2,0.7-0.5c0.1-0.4-0.2-0.6-0.5-0.7C97.4,127.8,97.2,128,97.1,128.4z"/>
			<path d="M29,128.1c0,0.4,0.3,0.6,0.7,0.6c0.4,0,0.6-0.2,0.6-0.6s-0.3-0.6-0.7-0.6C29.2,127.4,29,127.7,29,128.1z"/>
			<path d="M82.4,123.6c0.1,0.4,0.4,0.6,0.8,0.5s0.5-0.4,0.5-0.7c-0.1-0.4-0.4-0.5-0.7-0.5C82.5,123,82.4,123.3,82.4,123.6z"/>
			<path d="M14.5,123c0,0.5,0.2,0.7,0.6,0.8c0.4,0,0.7-0.2,0.7-0.6s-0.2-0.6-0.6-0.7C14.7,122.4,14.6,122.7,14.5,123z"/>
			<path d="M24.8,123.7c0.4,0,0.6-0.2,0.6-0.6s-0.2-0.6-0.6-0.6s-0.6,0.3-0.6,0.6C24.2,123.5,24.4,123.7,24.8,123.7z"/>
			<path d="M33.9,123.3c0,0.4,0.2,0.6,0.6,0.6c0.4,0,0.6-0.3,0.6-0.6c0-0.4-0.3-0.6-0.6-0.6C34.1,122.7,33.9,122.9,33.9,123.3z"/>
			<path d="M44.1,123.9c0.4,0,0.7-0.2,0.7-0.6s-0.2-0.6-0.6-0.7c-0.4,0-0.6,0.2-0.7,0.6C43.6,123.6,43.8,123.8,44.1,123.9z"/>
			<path d="M92.3,123.7c0.1,0.4,0.3,0.6,0.7,0.6c0.4,0,0.6-0.3,0.6-0.7c0-0.4-0.3-0.6-0.7-0.6C92.5,123.1,92.3,123.4,92.3,123.7z"/>
			<path d="M102.6,124.3c0.4,0,0.6-0.2,0.6-0.6s-0.2-0.6-0.6-0.6s-0.6,0.2-0.6,0.6C102,124.1,102.2,124.3,102.6,124.3z"/>
			<path d="M111.7,123.9c0,0.4,0.2,0.6,0.6,0.6s0.6-0.2,0.6-0.6s-0.2-0.6-0.6-0.6C112,123.2,111.7,123.5,111.7,123.9z"/>
			<path d="M122.1,123.2c-0.4,0-0.7,0.2-0.7,0.6s0.2,0.6,0.6,0.7c0.4,0,0.6-0.2,0.7-0.6C122.7,123.5,122.5,123.3,122.1,123.2z"/>
			<path d="M54,122.8c-0.4,0-0.7,0.2-0.7,0.6s0.2,0.6,0.6,0.7c0.4,0,0.6-0.2,0.7-0.6C54.6,123.1,54.4,122.8,54,122.8z"/>
			<path d="M63.6,122.8c-0.4,0-0.6,0.2-0.6,0.6s0.2,0.6,0.6,0.6c0.4,0,0.6-0.2,0.6-0.6C64.3,123,64,122.8,63.6,122.8z"/>
			<path d="M72.7,123.5c0,0.4,0.2,0.7,0.6,0.7s0.6-0.2,0.7-0.6c0-0.4-0.2-0.6-0.6-0.7C73,122.9,72.8,123.1,72.7,123.5z"/>
			<path d="M27.6,122.9c0.5,0,0.7-0.2,0.8-0.6c0-0.4-0.2-0.6-0.6-0.7c-0.4,0-0.6,0.2-0.7,0.6C27,122.6,27.3,122.8,27.6,122.9z"/>
			<path d="M37.3,121.6c-0.4,0.1-0.6,0.3-0.5,0.7c0,0.4,0.3,0.6,0.7,0.5c0.4,0,0.6-0.3,0.5-0.7C38,121.8,37.7,121.6,37.3,121.6z"/>
			<path d="M46.5,122.4c0.1,0.4,0.3,0.6,0.6,0.6c0.4,0,0.6-0.3,0.6-0.6c0-0.4-0.2-0.6-0.6-0.6S46.5,122,46.5,122.4z"/>
			<path d="M57.5,122.4c0-0.4-0.2-0.6-0.6-0.7c-0.4,0-0.6,0.2-0.6,0.6s0.2,0.6,0.6,0.6C57.2,123,57.4,122.8,57.5,122.4z"/>
			<path d="M115.2,123.5c0.4,0,0.7-0.2,0.7-0.6s-0.2-0.6-0.6-0.7c-0.4,0-0.6,0.2-0.7,0.6C114.6,123.2,114.8,123.4,115.2,123.5z"/>
			<path d="M124.3,122.9c0,0.4,0.3,0.6,0.7,0.6c0.4,0,0.6-0.2,0.6-0.6s-0.3-0.6-0.7-0.6C124.5,122.2,124.4,122.5,124.3,122.9z"/>
			<path d="M134.6,122.4c-0.4,0.1-0.6,0.3-0.6,0.7c0,0.4,0.3,0.6,0.7,0.6s0.6-0.3,0.6-0.7C135.3,122.5,135,122.4,134.6,122.4z"/>
			<path d="M65.9,122.6c0.1,0.4,0.3,0.6,0.7,0.5c0.4,0,0.6-0.3,0.5-0.7c0-0.4-0.3-0.6-0.7-0.5C66.1,122,65.9,122.2,65.9,122.6z"/>
			<path d="M75.8,122.5c0,0.4,0.3,0.6,0.7,0.6c0.4,0,0.6-0.2,0.6-0.6s-0.2-0.6-0.6-0.6C76,121.9,75.8,122.2,75.8,122.5z"/>
			<path d="M86.1,123.2c0.4,0,0.6-0.2,0.6-0.6s-0.3-0.6-0.6-0.6c-0.4,0-0.6,0.3-0.6,0.6C85.5,122.9,85.7,123.2,86.1,123.2z"/>
			<path d="M95.2,122.7c0.1,0.4,0.3,0.6,0.6,0.6c0.4,0,0.6-0.3,0.6-0.6c0-0.4-0.2-0.6-0.6-0.6C95.4,122.1,95.2,122.3,95.2,122.7z"/>
			<path d="M105.5,122.1c-0.4,0-0.6,0.3-0.6,0.7c0,0.4,0.2,0.6,0.6,0.6s0.6-0.3,0.6-0.7C106.2,122.3,105.9,122.1,105.5,122.1z"/>
			<path d="M28.6,125.8c0.4,0,0.6-0.1,0.7-0.5c0-0.4-0.2-0.6-0.5-0.7c-0.4-0.1-0.6,0.2-0.7,0.5C28.1,125.5,28.3,125.7,28.6,125.8z"
				/>
			<path d="M37.8,125.2c0.1,0.5,0.3,0.6,0.7,0.6s0.6-0.3,0.5-0.7c0-0.4-0.3-0.6-0.7-0.5C38,124.6,37.8,124.9,37.8,125.2z"/>
			<path d="M48.2,125.9c0.3-0.1,0.6-0.3,0.6-0.7c0-0.4-0.3-0.6-0.7-0.6s-0.6,0.3-0.6,0.7C47.6,125.7,47.8,125.9,48.2,125.9z"/>
			<path d="M57.2,125.3c0,0.4,0.2,0.6,0.6,0.6c0.4,0,0.6-0.2,0.6-0.6s-0.2-0.6-0.6-0.6C57.5,124.7,57.2,124.9,57.2,125.3z"/>
			<path d="M106.5,125.1c-0.4,0-0.7,0.3-0.7,0.6c0,0.4,0.2,0.6,0.6,0.6s0.6-0.2,0.6-0.6C107,125.3,106.8,125.1,106.5,125.1z"/>
			<path d="M116,126.3c0.4,0,0.7-0.2,0.7-0.6s-0.2-0.6-0.6-0.7c-0.4,0-0.6,0.2-0.7,0.6C115.5,126.1,115.7,126.3,116,126.3z"/>
			<path d="M125.8,125.3c-0.4,0.1-0.6,0.3-0.6,0.7c0,0.4,0.3,0.6,0.7,0.6c0.4,0,0.6-0.3,0.6-0.7
				C126.4,125.4,126.2,125.3,125.8,125.3z"/>
			<path d="M135.8,126.5c0.3-0.1,0.6-0.3,0.5-0.7c0-0.4-0.3-0.6-0.7-0.6s-0.6,0.3-0.6,0.7C135.1,126.3,135.3,126.5,135.8,126.5z"/>
			<path d="M67.6,126.1c0.4-0.1,0.6-0.2,0.6-0.6s-0.3-0.6-0.6-0.6c-0.4,0-0.6,0.3-0.6,0.7C67,125.9,67.2,126.1,67.6,126.1z"/>
			<path d="M77.2,126.1c0.5,0,0.7-0.2,0.7-0.6s-0.2-0.6-0.6-0.6s-0.6,0.2-0.6,0.6C76.6,125.8,76.9,126,77.2,126.1z"/>
			<path d="M86.4,125.5c0,0.4,0.2,0.6,0.6,0.7c0.4,0,0.6-0.2,0.7-0.6c0-0.4-0.2-0.6-0.6-0.7C86.6,125,86.4,125.2,86.4,125.5z"/>
			<path d="M96.1,125.6c0,0.4,0.2,0.6,0.6,0.6s0.6-0.2,0.6-0.6s-0.2-0.6-0.6-0.6C96.3,125,96.1,125.2,96.1,125.6z"/>
			<path d="M70.6,125.1c0.3-0.1,0.5-0.3,0.5-0.7c0-0.4-0.3-0.6-0.7-0.6c-0.4,0-0.6,0.3-0.6,0.7C69.9,124.9,70.1,125.1,70.6,125.1z"
				/>
			<path d="M12.8,124c0-0.4-0.2-0.6-0.6-0.6c-0.4,0-0.6,0.2-0.6,0.6s0.2,0.6,0.6,0.6S12.8,124.4,12.8,124z"/>
			<path d="M21.9,123.5c-0.4,0-0.6,0.2-0.6,0.6s0.3,0.6,0.6,0.6c0.4,0,0.6-0.3,0.6-0.6C22.5,123.7,22.3,123.5,21.9,123.5z"/>
			<path d="M31.6,123.5c-0.4,0-0.6,0.3-0.6,0.7c0,0.4,0.2,0.6,0.6,0.6s0.6-0.3,0.6-0.7C32.2,123.7,32,123.5,31.6,123.5z"/>
			<path d="M131.7,123.4c-0.4,0.1-0.6,0.3-0.6,0.6c0,0.4,0.3,0.6,0.6,0.6c0.4,0,0.6-0.2,0.6-0.6
				C132.4,123.6,132.1,123.4,131.7,123.4z"/>
			<path d="M140.9,124c0,0.4,0.2,0.6,0.6,0.6c0.4,0,0.6-0.2,0.6-0.6s-0.3-0.6-0.6-0.6C141.1,123.4,140.9,123.6,140.9,124z"/>
			<path d="M8.7,125c0,0.3,0.2,0.6,0.6,0.6c0.4,0,0.6-0.2,0.6-0.6s-0.2-0.6-0.6-0.6S8.7,124.6,8.7,125z"/>
			<path d="M18.4,125.1c0.1,0.3,0.3,0.6,0.7,0.5c0.4,0,0.6-0.3,0.6-0.7c0-0.4-0.3-0.6-0.6-0.6C18.6,124.4,18.4,124.6,18.4,125.1z"/>
			<path d="M119.1,125.5c0.4,0,0.7-0.1,0.7-0.5s-0.2-0.6-0.5-0.7c-0.4-0.1-0.6,0.2-0.7,0.5C118.5,125.2,118.7,125.4,119.1,125.5z"/>
			<path d="M128.9,124.2c-0.4,0-0.6,0.2-0.7,0.5c-0.1,0.4,0.2,0.6,0.5,0.7c0.4,0,0.6-0.1,0.7-0.5
				C129.5,124.6,129.3,124.3,128.9,124.2z"/>
			<path d="M138.6,125.6c0.4,0,0.6-0.2,0.6-0.6s-0.2-0.6-0.6-0.6c-0.4,0-0.6,0.2-0.6,0.6S138.2,125.6,138.6,125.6z"/>
			<path d="M79.5,124.6c0.1,0.4,0.3,0.6,0.7,0.6c0.4,0,0.6-0.3,0.6-0.7c0-0.4-0.3-0.6-0.7-0.6C79.7,124,79.5,124.2,79.5,124.6z"/>
			<path d="M89.3,124.6c0.1,0.4,0.3,0.6,0.7,0.6c0.4,0,0.6-0.3,0.6-0.7c0-0.4-0.3-0.6-0.7-0.6C89.4,124,89.3,124.2,89.3,124.6z"/>
			<path d="M99,124.7c0,0.4,0.2,0.6,0.6,0.6s0.6-0.2,0.6-0.6s-0.2-0.6-0.6-0.6S99,124.3,99,124.7z"/>
			<path d="M109.5,124.1c-0.4,0-0.6,0.1-0.7,0.5c0,0.4,0.2,0.6,0.5,0.7c0.4,0.1,0.6-0.2,0.7-0.5
				C110.1,124.4,109.9,124.2,109.5,124.1z"/>
			<path d="M40.7,124.3c0.1,0.4,0.3,0.6,0.7,0.6s0.6-0.3,0.6-0.7c0-0.4-0.3-0.6-0.7-0.6C40.9,123.7,40.7,123.9,40.7,124.3z"/>
			<path d="M51.1,123.6c-0.4,0-0.6,0.2-0.7,0.6c0,0.4,0.2,0.6,0.6,0.6c0.4,0,0.6-0.2,0.6-0.6C51.7,123.9,51.4,123.7,51.1,123.6z"/>
			<path d="M60.8,123.8c-0.4,0-0.6,0.1-0.7,0.6c0,0.4,0.2,0.6,0.6,0.7c0.4,0.1,0.6-0.2,0.7-0.5C61.4,124.1,61.2,123.9,60.8,123.8z"
				/>
			<path d="M36.4,139.4c0.4-0.1,0.6-0.3,0.6-0.7s-0.3-0.6-0.7-0.6s-0.6,0.3-0.6,0.7C35.8,139.2,36.1,139.4,36.4,139.4z"/>
			<path d="M46.2,139.6c0.3-0.1,0.6-0.3,0.5-0.7c0-0.4-0.3-0.6-0.7-0.6s-0.6,0.3-0.6,0.7C45.5,139.4,45.8,139.6,46.2,139.6z"/>
			<path d="M55.8,139.6c0.4,0,0.6-0.3,0.6-0.7s-0.2-0.6-0.6-0.6c-0.4,0-0.6,0.2-0.6,0.6C55.2,139.3,55.5,139.5,55.8,139.6z"/>
			<path d="M6.5,138.6c0,0.4,0.2,0.6,0.6,0.7c0.4,0,0.6-0.2,0.7-0.6c0-0.4-0.2-0.6-0.5-0.7C6.8,138,6.5,138.2,6.5,138.6z"/>
			<path d="M16.3,138.7c0.1,0.4,0.3,0.6,0.7,0.6c0.4,0,0.6-0.3,0.6-0.7S17.3,138,17,138C16.6,138,16.3,138.3,16.3,138.7z"/>
			<path d="M49,137.3c-0.4,0-0.6,0.3-0.6,0.6c0,0.4,0.2,0.6,0.6,0.6c0.4,0,0.6-0.2,0.6-0.6S49.4,137.3,49,137.3z"/>
			<path d="M58.1,137.9c0.1,0.4,0.3,0.6,0.7,0.6s0.6-0.3,0.6-0.7s-0.3-0.6-0.7-0.6C58.3,137.3,58.1,137.6,58.1,137.9z"/>
			<path d="M67.8,138.1c0,0.4,0.2,0.6,0.6,0.6s0.6-0.3,0.6-0.6c0-0.4-0.3-0.6-0.6-0.6C68,137.4,67.8,137.7,67.8,138.1z"/>
			<path d="M52.3,139.9c0,0.4,0.3,0.6,0.6,0.6c0.4,0,0.6-0.2,0.6-0.6c0-0.4-0.2-0.6-0.6-0.6C52.5,139.3,52.3,139.6,52.3,139.9z"/>
			<path d="M62,139.9c0,0.4,0.2,0.6,0.6,0.6c0.4,0,0.6-0.2,0.6-0.6c0-0.4-0.2-0.6-0.6-0.6C62.3,139.3,62.1,139.5,62,139.9z"/>
			<path d="M13.9,140.3c0.4,0,0.6-0.2,0.7-0.6c0-0.4-0.2-0.6-0.6-0.7c-0.4,0-0.6,0.2-0.7,0.6C13.3,140,13.5,140.2,13.9,140.3z"/>
			<path d="M23.7,140.3c0.4-0.1,0.6-0.3,0.5-0.7c0-0.4-0.3-0.6-0.7-0.6c-0.4,0.1-0.6,0.3-0.6,0.7C23.1,140.1,23.3,140.3,23.7,140.3z
				"/>
			<path d="M33.5,139.2c-0.4,0-0.7,0.2-0.7,0.6c0,0.4,0.2,0.6,0.6,0.7c0.4,0,0.6-0.2,0.7-0.6C34.1,139.5,33.9,139.2,33.5,139.2z"/>
			<path d="M43.3,139.2c-0.4,0-0.7,0.2-0.7,0.6c0,0.4,0.2,0.6,0.6,0.7c0.4,0,0.6-0.2,0.7-0.6C43.9,139.5,43.6,139.2,43.3,139.2z"/>
			<path d="M64.9,139c0,0.4,0.2,0.7,0.6,0.7s0.6-0.2,0.7-0.6c0-0.4-0.2-0.6-0.6-0.7C65.2,138.4,65,138.6,64.9,139z"/>
			<path d="M26.1,138.7c0,0.4,0.2,0.6,0.6,0.6s0.6-0.2,0.6-0.6c0-0.4-0.2-0.6-0.6-0.6C26.3,138.1,26.1,138.4,26.1,138.7z"/>
			<path d="M32.5,137.4c0.4-0.1,0.6-0.2,0.6-0.6c0-0.4-0.3-0.6-0.6-0.6c-0.4,0-0.6,0.3-0.6,0.7C31.9,137.2,32.1,137.4,32.5,137.4z"
				/>
			<path d="M42.2,136.3c-0.4,0-0.6,0.2-0.6,0.6c0,0.4,0.2,0.6,0.6,0.6c0.4,0,0.6-0.2,0.6-0.6S42.6,136.3,42.2,136.3z"/>
			<path d="M51.3,137c0,0.2,0.2,0.5,0.6,0.5c0.4,0,0.6-0.3,0.6-0.6c0-0.4-0.3-0.6-0.6-0.6C51.5,136.3,51.3,136.5,51.3,137z"/>
			<path d="M13.1,137.2c0.4,0,0.6-0.3,0.6-0.6c0-0.4-0.3-0.6-0.6-0.6c-0.4,0-0.6,0.2-0.6,0.6S12.7,137.2,13.1,137.2z"/>
			<path d="M34.8,135.8c0,0.4,0.2,0.7,0.6,0.7c0.4,0,0.6-0.2,0.7-0.6c0-0.4-0.2-0.6-0.6-0.7C35,135.2,34.8,135.5,34.8,135.8z"/>
			<path d="M44.9,136.5c0.5,0,0.7-0.2,0.7-0.6c0-0.4-0.2-0.6-0.6-0.7c-0.4,0-0.6,0.2-0.7,0.6C44.4,136.2,44.7,136.4,44.9,136.5z"/>
			<path d="M54.2,136c0,0.3,0.2,0.6,0.6,0.6c0.4,0,0.6-0.2,0.6-0.6c0-0.4-0.2-0.6-0.6-0.6S54.2,135.6,54.2,136z"/>
			<path d="M63.9,136c0,0.4,0.2,0.6,0.5,0.7c0.4,0.1,0.6-0.2,0.7-0.5c0-0.4-0.1-0.6-0.5-0.7C64.2,135.4,64,135.6,63.9,136z"/>
			<path d="M9.5,137.6c0,0.4,0.2,0.7,0.6,0.7c0.4,0,0.6-0.2,0.7-0.6c0-0.4-0.2-0.6-0.6-0.7C9.8,137,9.6,137.2,9.5,137.6z"/>
			<path d="M19.2,137.5c0,0.4,0.2,0.7,0.6,0.7s0.6-0.2,0.7-0.6c0-0.4-0.2-0.6-0.6-0.7C19.5,137,19.3,137.2,19.2,137.5z"/>
			<path d="M29,137.7c0,0.4,0.2,0.6,0.6,0.7c0.4,0,0.6-0.2,0.6-0.6c0-0.4-0.2-0.6-0.6-0.6C29.2,137.1,29,137.4,29,137.7z"/>
			<path d="M39.3,137.2c-0.4,0-0.6,0.2-0.6,0.6c0,0.4,0.3,0.6,0.6,0.6c0.4,0,0.6-0.3,0.6-0.6C39.9,137.4,39.7,137.2,39.3,137.2z"/>
			<path d="M61.5,137.7c0.5,0,0.7-0.2,0.7-0.6c0-0.4-0.2-0.6-0.6-0.6c-0.4,0-0.6,0.2-0.6,0.6C61,137.4,61.2,137.6,61.5,137.7z"/>
			<path d="M71.4,136.4c-0.4,0-0.6,0.2-0.6,0.6c0,0.4,0.2,0.6,0.6,0.6s0.6-0.2,0.6-0.6C72,136.7,71.7,136.5,71.4,136.4z"/>
			<path d="M22.8,137.4c0.4-0.1,0.6-0.3,0.6-0.7s-0.3-0.6-0.7-0.6c-0.4,0-0.6,0.3-0.6,0.7C22.2,137.2,22.4,137.4,22.8,137.4z"/>
			<path d="M60,143.8c0,0.4,0.1,0.6,0.5,0.7c0.4,0,0.6-0.2,0.7-0.5c0.1-0.4-0.2-0.6-0.5-0.7C60.3,143.2,60.1,143.4,60,143.8z"/>
			<path d="M61,146.8c0.1,0.3,0.3,0.6,0.6,0.5c0.4,0,0.6-0.3,0.6-0.6c0-0.4-0.2-0.6-0.6-0.6C61.2,146.2,61,146.4,61,146.8z"/>
			<path d="M51.8,147.2c0.4,0,0.6-0.1,0.7-0.5c0-0.4-0.2-0.6-0.5-0.7c-0.4-0.1-0.6,0.2-0.7,0.5C51.3,146.9,51.4,147.2,51.8,147.2z"
				/>
			<path d="M41.6,146.5c0,0.4,0.2,0.7,0.6,0.7c0.4,0,0.6-0.2,0.7-0.6c0-0.4-0.2-0.6-0.6-0.7C41.8,146,41.6,146.2,41.6,146.5z"/>
			<path d="M31.7,146.5c0,0.5,0.2,0.7,0.6,0.8c0.4,0,0.6-0.2,0.7-0.6c0-0.4-0.2-0.6-0.6-0.7C32,145.9,31.8,146.2,31.7,146.5z"/>
			<path d="M12,142.8c-0.4,0-0.6,0.2-0.6,0.6c0,0.4,0.2,0.6,0.6,0.6c0.4,0,0.6-0.2,0.6-0.6C12.7,143,12.4,142.8,12,142.8z"/>
			<path d="M21.8,142.9c-0.4,0-0.7,0.2-0.7,0.6c0,0.4,0.2,0.6,0.6,0.7c0.4,0,0.6-0.2,0.7-0.6C22.4,143.2,22.2,143,21.8,142.9z"/>
			<path d="M30.8,143.5c0,0.4,0.2,0.6,0.6,0.7c0.4,0,0.6-0.2,0.7-0.6c0-0.4-0.2-0.6-0.5-0.7C31.1,142.9,30.9,143.1,30.8,143.5z"/>
			<path d="M9.9,148c0.5,0,0.7-0.2,0.8-0.6c0-0.4-0.2-0.6-0.6-0.7c-0.4,0-0.6,0.2-0.7,0.6C9.4,147.7,9.6,147.9,9.9,148z"/>
			<path d="M48.9,147c-0.4,0-0.6,0.1-0.7,0.5c0,0.4,0.2,0.6,0.5,0.7c0.4,0.1,0.6-0.2,0.7-0.5C49.5,147.3,49.3,147.1,48.9,147z"/>
			<path d="M38.5,147.7c0.1,0.4,0.2,0.6,0.6,0.6c0.4,0,0.6-0.3,0.6-0.6c0-0.4-0.3-0.6-0.7-0.6C38.7,147,38.5,147.3,38.5,147.7z"/>
			<path d="M29.4,148.1c0.5-0.1,0.7-0.3,0.6-0.7c0-0.4-0.3-0.6-0.7-0.6c-0.4,0.1-0.6,0.3-0.6,0.7C28.8,148,29.1,148.1,29.4,148.1z"
				/>
			<path d="M19.8,146.8c-0.4,0-0.7,0.2-0.7,0.6c0,0.4,0.2,0.6,0.6,0.7c0.4,0,0.6-0.2,0.7-0.6C20.4,147.1,20.1,146.9,19.8,146.8z"/>
			<path d="M53.7,142.2c-0.4,0.1-0.6,0.3-0.6,0.6c0,0.4,0.3,0.6,0.6,0.6c0.4,0,0.6-0.2,0.6-0.6C54.4,142.4,54.2,142.2,53.7,142.2z"
				/>
			<path d="M58.8,147.1c-0.4,0-0.6,0.2-0.7,0.6c0,0.4,0.2,0.6,0.6,0.7c0.4,0,0.6-0.1,0.7-0.5C59.3,147.5,59.2,147.2,58.8,147.1z"/>
			<path d="M14.3,142.5c0,0.4,0.2,0.6,0.6,0.7c0.4,0,0.6-0.2,0.6-0.6c0-0.4-0.2-0.6-0.6-0.6C14.6,141.9,14.4,142.2,14.3,142.5z"/>
			<path d="M44.5,145.6c0,0.4,0.2,0.6,0.6,0.6c0.4,0,0.6-0.2,0.6-0.6c0-0.4-0.2-0.6-0.6-0.6S44.5,145.2,44.5,145.6z"/>
			<path d="M34.8,145.5c0,0.4,0.1,0.6,0.6,0.7c0.4,0,0.6-0.2,0.7-0.6c0.1-0.4-0.2-0.6-0.5-0.7C35.1,144.9,34.8,145.1,34.8,145.5z"/>
			<path d="M25.7,144.8c-0.4,0-0.6,0.2-0.6,0.6c0,0.4,0.2,0.6,0.6,0.6s0.6-0.2,0.6-0.6C26.3,145.1,26.1,144.8,25.7,144.8z"/>
			<path d="M15.2,145.5c0.1,0.4,0.3,0.6,0.7,0.6s0.6-0.3,0.6-0.7s-0.3-0.6-0.7-0.6C15.4,144.9,15.2,145.1,15.2,145.5z"/>
			<path d="M27.9,144.5c0,0.4,0.2,0.6,0.6,0.7c0.4,0,0.6-0.2,0.6-0.6c0-0.4-0.2-0.6-0.6-0.6C28.2,143.9,28,144.2,27.9,144.5z"/>
			<path d="M38.4,143.9c-0.5,0-0.7,0.2-0.7,0.6c0,0.4,0.2,0.6,0.6,0.6c0.4,0,0.6-0.2,0.6-0.6C38.9,144.2,38.7,144,38.4,143.9z"/>
			<path d="M48,145.4c0.4-0.1,0.6-0.3,0.6-0.7s-0.3-0.6-0.7-0.6s-0.6,0.3-0.6,0.7C47.4,145.2,47.7,145.3,48,145.4z"/>
			<path d="M58.3,144.8c0-0.5-0.2-0.7-0.6-0.7c-0.4,0-0.6,0.2-0.6,0.6c0,0.4,0.2,0.6,0.6,0.6C58.1,145.4,58.3,145.1,58.3,144.8z"/>
			<path d="M54.8,145.1c-0.4,0-0.6,0.2-0.6,0.6c0,0.4,0.2,0.6,0.6,0.6c0.4,0,0.6-0.2,0.6-0.6C55.4,145.4,55.2,145.2,54.8,145.1z"/>
			<path d="M8.5,144.4c0,0.4,0.2,0.6,0.6,0.7c0.4,0.1,0.6-0.2,0.7-0.5c0-0.4-0.1-0.7-0.5-0.7C8.8,143.8,8.6,144,8.5,144.4z"/>
			<path d="M18.9,143.8c-0.4,0-0.7,0.2-0.7,0.6c0,0.4,0.2,0.6,0.6,0.7c0.4,0,0.6-0.2,0.7-0.6C19.5,144.1,19.3,143.9,18.9,143.8z"/>
			<path d="M22,146.4c0,0.4,0.2,0.6,0.6,0.7c0.4,0,0.6-0.2,0.7-0.6c0-0.4-0.2-0.6-0.6-0.7C22.3,145.8,22.1,146,22,146.4z"/>
			<path d="M13,145.8c-0.4,0-0.6,0.1-0.7,0.6c0,0.4,0.2,0.6,0.6,0.7c0.4,0.1,0.6-0.2,0.7-0.5C13.6,146.1,13.4,145.9,13,145.8z"/>
			<path d="M41.1,144.3c0.4,0,0.6-0.1,0.7-0.5c0-0.4-0.2-0.6-0.5-0.7c-0.4-0.1-0.6,0.2-0.7,0.5C40.5,144,40.7,144.3,41.1,144.3z"/>
			<path d="M50.3,143.7c0.1,0.4,0.3,0.6,0.7,0.6s0.6-0.3,0.6-0.7s-0.3-0.6-0.7-0.6C50.5,143.1,50.3,143.4,50.3,143.7z"/>
			<path d="M13.3,149.4c0,0.4,0.2,0.6,0.6,0.6c0.4,0,0.6-0.2,0.6-0.6c0-0.4-0.2-0.6-0.6-0.6C13.6,148.7,13.3,149,13.3,149.4z"/>
			<path d="M61.9,149.6c0,0.4,0.2,0.6,0.5,0.7c0.4,0.1,0.6-0.2,0.7-0.5c0-0.4-0.1-0.6-0.5-0.7C62.2,149,61.9,149.2,61.9,149.6z"/>
			<path d="M52.7,150.3c0.4,0,0.6-0.2,0.6-0.6c0-0.4-0.2-0.6-0.6-0.6c-0.4,0-0.6,0.2-0.6,0.6C52.2,150,52.3,150.2,52.7,150.3z"/>
			<path d="M42.4,149.4c0,0.4,0.2,0.7,0.6,0.7c0.4,0,0.6-0.2,0.7-0.6c0-0.4-0.2-0.6-0.6-0.7C42.7,148.9,42.5,149.1,42.4,149.4z"/>
			<path d="M33.3,148.9c-0.4,0.1-0.6,0.3-0.5,0.7c0,0.4,0.3,0.6,0.7,0.5c0.4,0,0.6-0.3,0.5-0.7S33.7,148.9,33.3,148.9z"/>
			<path d="M40.1,140.2c-0.4,0.1-0.6,0.3-0.6,0.7s0.3,0.6,0.7,0.6s0.6-0.2,0.6-0.6C40.8,140.4,40.5,140.2,40.1,140.2z"/>
			<path d="M49.9,140.2c-0.4,0-0.6,0.2-0.7,0.6c0,0.4,0.2,0.6,0.6,0.6c0.4,0,0.6-0.2,0.7-0.6C50.5,140.5,50.3,140.2,49.9,140.2z"/>
			<path d="M59.6,141.6c0.5,0,0.7-0.2,0.8-0.6c0.1-0.4-0.2-0.6-0.5-0.7c-0.4,0-0.6,0.1-0.7,0.5C59.1,141.3,59.3,141.5,59.6,141.6z"
				/>
			<path d="M11.1,141.1c0.4-0.1,0.6-0.2,0.6-0.6c0-0.4-0.3-0.6-0.6-0.6c-0.4,0-0.6,0.3-0.6,0.7C10.4,140.9,10.7,141.1,11.1,141.1z"
				/>
			<path d="M11.1,149.6c-0.4,0-0.7,0.2-0.7,0.6c0,0.4,0.2,0.6,0.6,0.7c0.4,0,0.6-0.2,0.7-0.6C11.7,149.9,11.4,149.7,11.1,149.6z"/>
			<path d="M20.8,141.3c0.4,0,0.6-0.3,0.6-0.7s-0.3-0.6-0.6-0.6c-0.4,0-0.6,0.2-0.6,0.6C20.1,141.1,20.4,141.3,20.8,141.3z"/>
			<path d="M29.8,140.6c0,0.4,0.2,0.6,0.6,0.7c0.4,0,0.6-0.2,0.7-0.6c0-0.4-0.2-0.6-0.6-0.7C30.1,140,29.9,140.2,29.8,140.6z"/>
			<path d="M49.3,150.5c0,0.4,0.2,0.6,0.6,0.6c0.4,0,0.6-0.2,0.6-0.6c0-0.4-0.2-0.6-0.6-0.6S49.3,150.1,49.3,150.5z"/>
			<path d="M39.5,150.4c0,0.4,0.2,0.6,0.6,0.7c0.4,0.1,0.6-0.2,0.7-0.5c0-0.4-0.1-0.7-0.5-0.7C39.9,149.9,39.6,150.1,39.5,150.4z"/>
			<path d="M30.6,149.7c-0.5,0-0.7,0.2-0.8,0.6c0,0.4,0.2,0.6,0.6,0.7c0.4,0,0.6-0.2,0.7-0.6C31.1,150,30.8,149.8,30.6,149.7z"/>
			<path d="M20.1,150.4c0.1,0.4,0.3,0.6,0.7,0.6c0.4,0,0.6-0.3,0.6-0.7s-0.3-0.6-0.7-0.6C20.3,149.8,20.1,150,20.1,150.4z"/>
			<path d="M24,142.4c0,0.5,0.2,0.7,0.6,0.7s0.6-0.2,0.7-0.6c0-0.4-0.2-0.6-0.6-0.7C24.3,141.9,24.1,142.2,24,142.4z"/>
			<path d="M33.7,142.7c0.1,0.4,0.3,0.6,0.7,0.6s0.6-0.3,0.6-0.7s-0.3-0.6-0.6-0.6C34,142.1,33.7,142.3,33.7,142.7z"/>
			<path d="M44.2,143.3c0.3-0.1,0.6-0.3,0.5-0.7c0-0.4-0.3-0.6-0.7-0.6s-0.6,0.3-0.6,0.7C43.5,143.1,43.7,143.3,44.2,143.3z"/>
			<path d="M35.6,148.5c0,0.4,0.2,0.6,0.6,0.7c0.4,0,0.6-0.2,0.6-0.6c0-0.4-0.2-0.6-0.6-0.6C35.9,147.9,35.7,148.1,35.6,148.5z"/>
			<path d="M26.5,149.1c0.4,0,0.6-0.2,0.7-0.6c0-0.4-0.2-0.6-0.6-0.6s-0.6,0.2-0.7,0.6C25.9,148.9,26.1,149.1,26.5,149.1z"/>
			<path d="M16.8,149c0.4,0,0.6-0.1,0.7-0.5c0-0.4-0.2-0.6-0.5-0.7c-0.4-0.1-0.6,0.2-0.7,0.5C16.2,148.7,16.4,148.9,16.8,149z"/>
			<path d="M7.1,147.7c-0.4,0-0.6,0.2-0.6,0.6c0,0.4,0.2,0.6,0.6,0.6s0.6-0.2,0.6-0.6C7.7,148,7.5,147.7,7.1,147.7z"/>
			<path d="M55.7,148c-0.4,0.1-0.6,0.3-0.6,0.7s0.3,0.6,0.7,0.6s0.6-0.3,0.6-0.7C56.3,148.2,56,148,55.7,148z"/>
			<path d="M45.9,148c-0.4,0.1-0.6,0.3-0.6,0.6c0,0.4,0.3,0.6,0.6,0.6c0.4,0,0.6-0.2,0.6-0.6C46.6,148.2,46.3,148,45.9,148z"/>
			<path d="M26.9,141.7c0.1,0.4,0.3,0.6,0.7,0.6c0.4,0,0.6-0.3,0.6-0.7s-0.3-0.6-0.7-0.6C27.1,141.1,27,141.3,26.9,141.7z"/>
			<path d="M37.2,141c-0.4,0.1-0.6,0.3-0.6,0.7s0.3,0.6,0.7,0.6s0.6-0.3,0.6-0.6C37.9,141.3,37.6,141,37.2,141z"/>
			<path d="M47,142.5c0.3,0,0.6-0.2,0.6-0.6c0-0.4-0.2-0.6-0.6-0.6c-0.4,0-0.6,0.2-0.6,0.6C46.4,142.2,46.6,142.4,47,142.5z"/>
			<path d="M56.1,141.9c0.1,0.3,0.3,0.6,0.7,0.6s0.6-0.3,0.6-0.6c0-0.4-0.2-0.6-0.6-0.6C56.3,141.2,56.1,141.5,56.1,141.9z"/>
			<path d="M7.5,141.5c0,0.4,0.2,0.6,0.6,0.6c0.4,0,0.6-0.2,0.6-0.6c0-0.4-0.2-0.6-0.6-0.6C7.8,140.9,7.5,141.1,7.5,141.5z"/>
			<path d="M17.2,141.5c0,0.4,0.2,0.6,0.6,0.7c0.4,0.1,0.6-0.2,0.7-0.6c0-0.4-0.1-0.6-0.5-0.7C17.5,140.9,17.3,141.1,17.2,141.5z"/>
			<path d="M23.7,150c0.4,0,0.6-0.3,0.6-0.7s-0.3-0.6-0.6-0.6c-0.4,0-0.6,0.2-0.6,0.6C23,149.8,23.3,150,23.7,150z"/>
			<path d="M20.3,131c0,0.4,0.3,0.6,0.7,0.6c0.4,0,0.6-0.3,0.6-0.6c0-0.4-0.3-0.6-0.7-0.6C20.5,130.3,20.3,130.6,20.3,131z"/>
			<path d="M30,130.9c0.1,0.5,0.3,0.6,0.7,0.6c0.4,0,0.6-0.3,0.6-0.7s-0.3-0.6-0.7-0.6C30.2,130.4,30,130.6,30,130.9z"/>
			<path d="M40.3,130.5c-0.4,0-0.6,0.3-0.6,0.7s0.3,0.6,0.7,0.6s0.6-0.3,0.6-0.7C40.9,130.7,40.6,130.5,40.3,130.5z"/>
			<path d="M49.4,131.1c0,0.3,0.2,0.6,0.6,0.6c0.4,0,0.6-0.2,0.6-0.6c0-0.4-0.2-0.6-0.6-0.6C49.7,130.5,49.4,130.7,49.4,131.1z"/>
			<path d="M10.5,130.7c0,0.5,0.2,0.7,0.6,0.8c0.4,0,0.6-0.2,0.7-0.6c0-0.4-0.2-0.6-0.5-0.7C10.8,130.2,10.6,130.4,10.5,130.7z"/>
			<path d="M121,130c-0.4,0-0.6,0.2-0.6,0.6c0,0.4,0.2,0.6,0.6,0.6s0.6-0.2,0.6-0.6C121.7,130.3,121.5,130.1,121,130z"/>
			<path d="M130.7,131.3c0.4,0,0.6-0.2,0.7-0.6c0-0.4-0.2-0.6-0.6-0.7c-0.4,0-0.6,0.2-0.7,0.6C130.1,131,130.3,131.2,130.7,131.3z"
				/>
			<path d="M98.6,130.9c-0.4,0-0.6,0.2-0.6,0.6c0,0.4,0.2,0.6,0.6,0.6s0.6-0.2,0.6-0.6C99.2,131.2,99,130.9,98.6,130.9z"/>
			<path d="M59.8,130.6c-0.4,0-0.6,0.2-0.6,0.6c0,0.4,0.2,0.6,0.6,0.6c0.4,0,0.6-0.2,0.6-0.6C60.4,130.9,60.1,130.7,59.8,130.6z"/>
			<path d="M68.8,131.1c0,0.5,0.2,0.7,0.6,0.8c0.4,0,0.6-0.2,0.6-0.6c0-0.4-0.2-0.6-0.6-0.7C69.1,130.6,68.9,130.9,68.8,131.1z"/>
			<path d="M78.6,131.6c0,0.2,0.2,0.5,0.6,0.5s0.6-0.3,0.6-0.6c0-0.4-0.3-0.6-0.6-0.6C78.8,130.8,78.5,131,78.6,131.6z"/>
			<path d="M88.2,131.4c0,0.4,0.2,0.6,0.6,0.6s0.6-0.2,0.6-0.6c0-0.4-0.2-0.6-0.6-0.6C88.5,130.8,88.3,131,88.2,131.4z"/>
			<path d="M62,130.4c0,0.3,0.2,0.5,0.6,0.5c0.4,0,0.6-0.3,0.6-0.6c0-0.4-0.3-0.6-0.6-0.6C62.2,129.6,62,129.8,62,130.4z"/>
			<path d="M71.7,130.2c0,0.4,0.2,0.6,0.6,0.6s0.6-0.2,0.6-0.6c0-0.4-0.2-0.6-0.6-0.6C72,129.6,71.7,129.8,71.7,130.2z"/>
			<path d="M14.1,130.6c0.5-0.1,0.6-0.3,0.6-0.7s-0.3-0.6-0.7-0.6s-0.6,0.3-0.6,0.7C13.5,130.4,13.7,130.6,14.1,130.6z"/>
			<path d="M23.7,130.6c0.4,0,0.6-0.2,0.7-0.6c0.1-0.4-0.2-0.6-0.6-0.7c-0.4,0-0.6,0.1-0.7,0.5C23.1,130.3,23.3,130.5,23.7,130.6z"
				/>
			<path d="M133.7,129.2c-0.4,0-0.6,0.2-0.6,0.6c0,0.4,0.2,0.6,0.6,0.6c0.4,0,0.6-0.2,0.6-0.6S134,129.2,133.7,129.2z"/>
			<path d="M142.7,129.8c0,0.4,0.3,0.6,0.7,0.6s0.6-0.2,0.6-0.6c0-0.4-0.2-0.6-0.6-0.6C142.9,129.2,142.8,129.4,142.7,129.8z"/>
			<path d="M140.4,131.4c0.4,0,0.6-0.2,0.7-0.6c0-0.4-0.2-0.6-0.6-0.6c-0.4,0-0.6,0.2-0.7,0.6C139.8,131.2,140.1,131.4,140.4,131.4z
				"/>
			<path d="M81.4,130.4c0.1,0.5,0.3,0.6,0.7,0.6c0.4,0,0.6-0.3,0.5-0.7s-0.3-0.6-0.7-0.5C81.6,129.8,81.5,130.1,81.4,130.4z"/>
			<path d="M91.1,130.3c0,0.4,0.2,0.6,0.6,0.6s0.6-0.2,0.6-0.6c0-0.4-0.2-0.6-0.6-0.6C91.4,129.7,91.2,130,91.1,130.3z"/>
			<path d="M101,130.5c0,0.4,0.2,0.6,0.6,0.6s0.6-0.2,0.6-0.6c0-0.4-0.2-0.6-0.6-0.6C101.3,129.9,101,130.1,101,130.5z"/>
			<path d="M33.4,129.4c-0.4,0.1-0.6,0.3-0.6,0.7s0.3,0.6,0.7,0.6s0.6-0.3,0.6-0.6C34.1,129.7,33.9,129.5,33.4,129.4z"/>
			<path d="M42.6,130.1c0,0.4,0.3,0.6,0.7,0.6s0.6-0.2,0.6-0.6c0-0.4-0.3-0.6-0.7-0.6C42.8,129.5,42.6,129.7,42.6,130.1z"/>
			<path d="M53,129.5c-0.4,0-0.6,0.2-0.7,0.6c0,0.4,0.2,0.6,0.6,0.7c0.4,0,0.6-0.1,0.7-0.5C53.5,129.8,53.4,129.5,53,129.5z"/>
			<path d="M60.9,133.5c-0.5,0-0.7,0.2-0.7,0.6c0,0.4,0.2,0.6,0.6,0.7c0.4,0,0.6-0.1,0.7-0.5C61.4,133.8,61.2,133.6,60.9,133.5z"/>
			<path d="M70.6,133.5c-0.5,0-0.7,0.2-0.8,0.6c0,0.4,0.2,0.6,0.6,0.6s0.6-0.2,0.7-0.6C71.1,133.8,70.8,133.6,70.6,133.5z"/>
			<path d="M22.4,133.8c0-0.3-0.2-0.6-0.6-0.6s-0.6,0.2-0.6,0.6c0,0.4,0.2,0.6,0.6,0.6C22.1,134.5,22.4,134.3,22.4,133.8z"/>
			<path d="M30.8,133.9c0,0.4,0.3,0.6,0.7,0.6c0.4,0,0.6-0.3,0.6-0.6c0-0.4-0.2-0.6-0.6-0.6C31,133.2,30.9,133.5,30.8,133.9z"/>
			<path d="M40.6,133.9c0,0.4,0.1,0.6,0.5,0.7c0.4,0,0.6-0.2,0.7-0.5c0.1-0.4-0.2-0.6-0.5-0.7C40.9,133.4,40.6,133.5,40.6,133.9z"/>
			<path d="M50.4,134c0,0.4,0.2,0.6,0.6,0.7c0.4,0,0.6-0.2,0.7-0.6c0-0.4-0.2-0.6-0.6-0.7C50.7,133.4,50.5,133.6,50.4,134z"/>
			<path d="M5.6,135.6c0.1,0.5,0.3,0.6,0.7,0.6c0.4,0,0.6-0.3,0.6-0.7s-0.3-0.6-0.7-0.6C5.8,135,5.6,135.3,5.6,135.6z"/>
			<path d="M15.3,135.7c0,0.4,0.2,0.6,0.6,0.6s0.6-0.2,0.6-0.6c0-0.4-0.2-0.6-0.6-0.6C15.6,135.1,15.4,135.3,15.3,135.7z"/>
			<path d="M25.7,136.4c0.4,0,0.6-0.3,0.6-0.7s-0.3-0.6-0.6-0.6c-0.4,0-0.6,0.2-0.6,0.6C25.1,136.2,25.3,136.3,25.7,136.4z"/>
			<path d="M47.4,135c0,0.4,0.3,0.6,0.7,0.6s0.6-0.2,0.6-0.6c0-0.4-0.2-0.6-0.6-0.6C47.6,134.4,47.4,134.7,47.4,135z"/>
			<path d="M57.7,134.4c-0.4,0.1-0.6,0.3-0.6,0.7s0.3,0.6,0.7,0.6s0.6-0.3,0.6-0.7C58.3,134.6,58,134.4,57.7,134.4z"/>
			<path d="M67,135.2c0.1,0.4,0.3,0.6,0.7,0.6c0.4,0,0.6-0.3,0.6-0.7s-0.3-0.6-0.7-0.6C67.1,134.6,66.9,134.8,67,135.2z"/>
			<path d="M76.6,135.1c0,0.4,0.2,0.6,0.6,0.7c0.4,0.1,0.6-0.2,0.7-0.5c0-0.4-0.1-0.6-0.5-0.7C77,134.5,76.7,134.7,76.6,135.1z"/>
			<path d="M9.1,134.1c-0.4,0-0.6,0.2-0.6,0.6c0,0.4,0.2,0.6,0.6,0.6c0.4,0,0.6-0.2,0.6-0.6C9.8,134.4,9.6,134.1,9.1,134.1z"/>
			<path d="M18.9,134.1c-0.4,0-0.6,0.2-0.7,0.6c0,0.4,0.2,0.6,0.6,0.6s0.6-0.2,0.6-0.6C19.5,134.3,19.3,134.1,18.9,134.1z"/>
			<path d="M27.9,135c0.1,0.4,0.4,0.6,0.8,0.5s0.5-0.4,0.5-0.7c-0.1-0.4-0.4-0.5-0.7-0.5C28,134.3,27.9,134.6,27.9,135z"/>
			<path d="M37.7,134.8c0,0.4,0.1,0.6,0.5,0.7c0.4,0,0.6-0.2,0.7-0.5c0.1-0.4-0.2-0.6-0.5-0.7C38,134.2,37.7,134.4,37.7,134.8z"/>
			<path d="M85.3,132.3c0,0.5,0.2,0.7,0.6,0.7s0.6-0.2,0.6-0.6c0-0.4-0.2-0.6-0.6-0.6C85.6,131.8,85.4,132,85.3,132.3z"/>
			<path d="M47.1,131.5c-0.4,0.1-0.6,0.3-0.6,0.6c0,0.4,0.3,0.6,0.6,0.6c0.4,0,0.6-0.2,0.6-0.6C47.7,131.7,47.5,131.5,47.1,131.5z"
				/>
			<path d="M56.2,132.1c0,0.4,0.2,0.6,0.6,0.6c0.4,0,0.6-0.2,0.6-0.6c0-0.4-0.2-0.6-0.6-0.6C56.5,131.5,56.3,131.7,56.2,132.1z"/>
			<path d="M66.5,131.6c-0.4,0-0.6,0.2-0.6,0.6c0,0.4,0.2,0.6,0.6,0.6s0.6-0.2,0.6-0.6C67.2,131.9,66.9,131.7,66.5,131.6z"/>
			<path d="M76.9,132.4c0-0.5-0.2-0.7-0.6-0.7s-0.6,0.2-0.6,0.6c0,0.4,0.2,0.6,0.6,0.6C76.6,132.9,76.8,132.6,76.9,132.4z"/>
			<path d="M7.5,131.8c0.1,0.4,0.3,0.6,0.7,0.6s0.6-0.2,0.6-0.6c0-0.4-0.3-0.6-0.7-0.6C7.7,131.2,7.5,131.5,7.5,131.8z"/>
			<path d="M18.1,131.2c-0.4,0-0.7,0.2-0.7,0.6c0,0.4,0.2,0.6,0.6,0.7c0.4,0,0.6-0.2,0.7-0.6C18.6,131.5,18.4,131.3,18.1,131.2z"/>
			<path d="M27.7,131.3c-0.4,0-0.6,0.2-0.6,0.6c0,0.4,0.2,0.6,0.6,0.6s0.6-0.2,0.6-0.6C28.3,131.6,28.1,131.4,27.7,131.3z"/>
			<path d="M36.8,131.9c0,0.4,0.2,0.6,0.6,0.7c0.4,0,0.6-0.2,0.7-0.6c0-0.4-0.2-0.6-0.6-0.7C37.1,131.3,36.8,131.5,36.8,131.9z"/>
			<path d="M11.4,133.8c0.1,0.4,0.3,0.6,0.6,0.6c0.4,0,0.6-0.3,0.6-0.6c0-0.4-0.2-0.6-0.6-0.6C11.6,133.1,11.4,133.3,11.4,133.8z"/>
			<path d="M73.3,132.6c-0.4,0.1-0.6,0.3-0.6,0.7s0.3,0.6,0.7,0.5c0.4,0,0.6-0.3,0.5-0.7C73.9,132.8,73.7,132.7,73.3,132.6z"/>
			<path d="M83.1,133.9c0.4,0,0.6-0.2,0.6-0.6c0-0.4-0.2-0.6-0.6-0.6s-0.6,0.3-0.6,0.6C82.4,133.7,82.7,133.8,83.1,133.9z"/>
			<path d="M33.9,133c0.1,0.4,0.3,0.6,0.7,0.6s0.6-0.3,0.6-0.7s-0.3-0.6-0.7-0.6C34.1,132.4,33.9,132.7,33.9,133z"/>
			<path d="M43.6,132.9c0,0.4,0.2,0.6,0.6,0.7c0.4,0,0.6-0.2,0.6-0.6c0-0.4-0.2-0.6-0.6-0.7C43.9,132.3,43.7,132.6,43.6,132.9z"/>
			<path d="M54,133.8c0.3-0.1,0.6-0.3,0.5-0.7c0-0.4-0.3-0.6-0.7-0.6s-0.6,0.3-0.6,0.7C53.4,133.6,53.6,133.8,54,133.8z"/>
			<path d="M63,133.2c0.1,0.4,0.3,0.6,0.6,0.6c0.4,0,0.6-0.3,0.6-0.6c0-0.4-0.2-0.6-0.6-0.6C63.3,132.5,63,132.8,63,133.2z"/>
			<path d="M14.9,133.5c0.5-0.1,0.6-0.3,0.6-0.7s-0.3-0.6-0.7-0.6s-0.6,0.3-0.6,0.7C14.3,133.3,14.6,133.5,14.9,133.5z"/>
			<path d="M24.6,132.2c-0.4,0.1-0.6,0.3-0.6,0.7s0.3,0.6,0.7,0.6c0.4,0,0.6-0.3,0.6-0.7C25.3,132.4,25,132.2,24.6,132.2z"/>
			<path d="M21.8,113.8c-0.3,0.1-0.6,0.3-0.6,0.6c0,0.5,0.3,0.7,0.7,0.6c0.4,0,0.6-0.3,0.5-0.7C22.5,114,22.3,113.8,21.8,113.8z"/>
			<path d="M32.3,114.5c0-0.4-0.2-0.7-0.6-0.7c-0.5-0.1-0.7,0.2-0.7,0.7c0,0.4,0.3,0.6,0.6,0.6C32,115.1,32.2,114.9,32.3,114.5z"/>
			<path d="M41.3,113.9c-0.4,0.1-0.6,0.2-0.6,0.6s0.3,0.7,0.7,0.7s0.6-0.3,0.6-0.7C41.9,114.2,41.7,114,41.3,113.9z"/>
			<path d="M50.5,114.7c0,0.3,0.3,0.6,0.6,0.6c0.4,0,0.6-0.3,0.6-0.6c0-0.4-0.2-0.6-0.6-0.6C50.8,114,50.5,114.2,50.5,114.7z"/>
			<path d="M105.9,116.2c0.1,0.4,0.4,0.6,0.8,0.5s0.5-0.4,0.5-0.7c-0.1-0.4-0.4-0.6-0.7-0.5C106,115.5,105.9,115.8,105.9,116.2z"/>
			<path d="M116.2,115.4c-0.4,0.1-0.6,0.3-0.6,0.7c0,0.4,0.3,0.6,0.7,0.6c0.4,0,0.6-0.3,0.6-0.7
				C116.9,115.6,116.6,115.4,116.2,115.4z"/>
			<path d="M47.5,115.5c0,0.5,0.2,0.7,0.6,0.7c0.4,0,0.6-0.2,0.6-0.6s-0.2-0.6-0.6-0.6C47.7,114.9,47.6,115.2,47.5,115.5z"/>
			<path d="M57.2,115.6c0.1,0.4,0.3,0.6,0.7,0.6s0.6-0.3,0.6-0.7c0-0.4-0.3-0.6-0.7-0.6C57.4,115,57.2,115.2,57.2,115.6z"/>
			<path d="M67.7,116.4c0.4,0,0.6-0.3,0.6-0.7c0-0.4-0.3-0.6-0.7-0.6c-0.4,0-0.6,0.3-0.6,0.7C67.1,116.2,67.3,116.4,67.7,116.4z"/>
			<path d="M76.8,115.8c0.1,0.4,0.3,0.6,0.7,0.6c0.4,0,0.6-0.3,0.6-0.7c0-0.4-0.3-0.6-0.7-0.6C77,115.1,76.8,115.4,76.8,115.8z"/>
			<path d="M5.7,116.1c0,0.4,0.2,0.6,0.6,0.7c0.4,0,0.6-0.1,0.7-0.5c0.1-0.5-0.2-0.7-0.6-0.7C6,115.5,5.8,115.8,5.7,116.1z"/>
			<path d="M15.5,116.3c0,0.4,0.2,0.6,0.6,0.7c0.5,0.1,0.7-0.2,0.7-0.7c0-0.4-0.3-0.6-0.6-0.6C15.7,115.7,15.5,115.9,15.5,116.3z"/>
			<path d="M25.2,116.4c0.1,0.5,0.4,0.7,0.8,0.6s0.6-0.4,0.5-0.7c-0.1-0.4-0.4-0.5-0.7-0.5C25.3,115.8,25.2,116.1,25.2,116.4z"/>
			<path d="M126.1,115.5c-0.5,0-0.7,0.2-0.8,0.6c-0.1,0.4,0.2,0.6,0.5,0.7c0.4,0.1,0.6-0.1,0.7-0.5
				C126.6,115.8,126.4,115.6,126.1,115.5z"/>
			<path d="M135.1,116.1c0,0.4,0.2,0.7,0.6,0.7c0.4,0,0.6-0.2,0.7-0.6c0-0.4-0.2-0.6-0.6-0.7C135.3,115.5,135.1,115.8,135.1,116.1z"
				/>
			<path d="M87.1,116.5c0.4,0,0.7-0.2,0.7-0.6s-0.2-0.7-0.6-0.7s-0.6,0.2-0.7,0.6C86.5,116.2,86.7,116.4,87.1,116.5z"/>
			<path d="M96.8,115.2c-0.5,0.1-0.7,0.3-0.6,0.7c0,0.4,0.3,0.6,0.7,0.6c0.4,0,0.6-0.3,0.6-0.7C97.4,115.4,97.2,115.3,96.8,115.2z"
				/>
			<path d="M99.1,114.9c0,0.5,0.2,0.7,0.6,0.7s0.6-0.2,0.7-0.6c0-0.4-0.2-0.6-0.6-0.7C99.4,114.3,99.2,114.6,99.1,114.9z"/>
			<path d="M108.8,115c0,0.4,0.2,0.6,0.6,0.7c0.4,0,0.6-0.2,0.6-0.6s-0.2-0.6-0.6-0.6C109.1,114.4,108.9,114.6,108.8,115z"/>
			<path d="M119.1,114.4c-0.5,0.1-0.6,0.3-0.6,0.7c0,0.4,0.3,0.6,0.7,0.5c0.4,0,0.6-0.3,0.6-0.7
				C119.7,114.5,119.5,114.4,119.1,114.4z"/>
			<path d="M128.2,115.1c0,0.4,0.2,0.6,0.6,0.7c0.4,0,0.6-0.2,0.7-0.6c0-0.4-0.2-0.7-0.6-0.7C128.6,114.5,128.3,114.7,128.2,115.1z"
				/>
			<path d="M138.7,114.5c-0.5,0-0.7,0.2-0.7,0.6s0.2,0.7,0.6,0.7c0.4,0,0.6-0.2,0.7-0.6C139.2,114.8,139,114.6,138.7,114.5z"/>
			<path d="M61,115.3c0.4-0.1,0.6-0.3,0.6-0.7c0-0.4-0.3-0.6-0.7-0.6s-0.6,0.3-0.6,0.7C60.3,115.2,60.6,115.4,61,115.3z"/>
			<path d="M70.6,114.1c-0.4,0-0.6,0.2-0.6,0.6s0.2,0.6,0.6,0.6s0.6-0.2,0.6-0.6C71.2,114.3,71,114.1,70.6,114.1z"/>
			<path d="M79.7,114.9c0.1,0.4,0.2,0.6,0.6,0.6s0.6-0.3,0.6-0.6c0-0.4-0.3-0.6-0.6-0.6C79.9,114.2,79.7,114.5,79.7,114.9z"/>
			<path d="M89.4,114.8c0,0.4,0.2,0.7,0.6,0.7c0.4,0.1,0.6-0.2,0.7-0.6c0-0.4-0.2-0.7-0.6-0.7C89.7,114.2,89.5,114.4,89.4,114.8z"/>
			<path d="M9.4,114.7c-0.4,0-0.7,0.2-0.7,0.6s0.1,0.6,0.5,0.7s0.7-0.2,0.7-0.6C9.9,114.9,9.7,114.7,9.4,114.7z"/>
			<path d="M19,114.6c-0.4,0-0.6,0.2-0.6,0.6c0,0.5,0.2,0.7,0.7,0.7c0.4,0,0.6-0.3,0.6-0.6C19.6,114.9,19.4,114.7,19,114.6z"/>
			<path d="M28.1,115.5c0.1,0.4,0.2,0.6,0.6,0.6s0.7-0.3,0.7-0.7c0-0.4-0.3-0.6-0.7-0.6S28.1,115.1,28.1,115.5z"/>
			<path d="M38.5,114.8c-0.4,0-0.7,0.1-0.7,0.5c-0.1,0.5,0.2,0.7,0.6,0.7c0.4,0,0.6-0.2,0.6-0.6C39.1,115.1,38.9,114.9,38.5,114.8z"
				/>
			<path d="M79.2,122.2c0.4,0,0.6-0.2,0.7-0.6c0-0.4-0.2-0.6-0.6-0.6s-0.6,0.2-0.7,0.6C78.7,121.9,78.9,122.1,79.2,122.2z"/>
			<path d="M7.2,119.7c0.4,0,0.6-0.1,0.7-0.5c0.1-0.5-0.2-0.7-0.6-0.7s-0.6,0.2-0.6,0.6C6.6,119.4,6.8,119.6,7.2,119.7z"/>
			<path d="M16.3,119.2c0,0.4,0.2,0.6,0.6,0.7c0.4,0,0.6-0.2,0.7-0.6c0-0.4-0.2-0.7-0.6-0.7C16.7,118.6,16.4,118.8,16.3,119.2z"/>
			<path d="M70.2,121.6c0-0.4-0.2-0.6-0.6-0.7c-0.4,0-0.6,0.2-0.6,0.6s0.2,0.6,0.6,0.6C70,122.2,70.2,121.9,70.2,121.6z"/>
			<path d="M26.2,119.1c0,0.4,0.2,0.7,0.6,0.7c0.4,0.1,0.6-0.2,0.7-0.6c0-0.4-0.2-0.7-0.6-0.7C26.5,118.6,26.3,118.7,26.2,119.1z"/>
			<path d="M127,118.4c-0.4,0-0.6,0.2-0.7,0.6c0,0.4,0.2,0.6,0.6,0.6s0.6-0.2,0.6-0.6C127.6,118.7,127.4,118.5,127,118.4z"/>
			<path d="M136.1,119.1c0,0.4,0.3,0.6,0.7,0.6s0.6-0.2,0.6-0.6s-0.2-0.6-0.6-0.6C136.3,118.4,136.1,118.7,136.1,119.1z"/>
			<path d="M36.6,118.7c-0.4,0-0.6,0.3-0.7,0.6c0,0.4,0.2,0.6,0.6,0.6c0.4,0,0.6-0.2,0.6-0.6C37.2,119,36.9,118.8,36.6,118.7z"/>
			<path d="M45.6,119.3c0,0.4,0.2,0.7,0.6,0.7c0.4,0,0.7-0.2,0.7-0.6s-0.2-0.7-0.6-0.7C45.9,118.7,45.7,118.9,45.6,119.3z"/>
			<path d="M56,118.9c-0.4,0-0.7,0.2-0.7,0.6s0.2,0.7,0.6,0.7c0.4,0,0.6-0.2,0.7-0.6C56.6,119.1,56.4,118.9,56,118.9z"/>
			<path d="M65.7,120.1c0.4,0,0.6-0.3,0.6-0.7c0-0.4-0.3-0.6-0.6-0.6c-0.4,0-0.6,0.2-0.6,0.6C65.1,119.9,65.3,120.1,65.7,120.1z"/>
			<path d="M106.8,118.8c0,0.4,0.2,0.6,0.6,0.7s0.6-0.2,0.7-0.5c0-0.4-0.1-0.7-0.5-0.7C107.1,118.3,106.9,118.5,106.8,118.8z"/>
			<path d="M116.5,118.9c0,0.4,0.1,0.6,0.5,0.7c0.4,0,0.6-0.2,0.7-0.5c0.1-0.4-0.2-0.6-0.5-0.7C116.8,118.3,116.6,118.5,116.5,118.9
				z"/>
			<path d="M49.2,117.8c-0.4,0-0.6,0.2-0.6,0.6s0.2,0.6,0.6,0.6c0.4,0,0.6-0.2,0.7-0.6C49.8,118.1,49.6,117.9,49.2,117.8z"/>
			<path d="M58.9,119.1c0.4-0.1,0.7-0.3,0.6-0.7c0-0.4-0.3-0.6-0.7-0.6s-0.6,0.3-0.6,0.7C58.3,118.9,58.5,119.1,58.9,119.1z"/>
			<path d="M68.6,119.3c0.4,0,0.6-0.3,0.6-0.7c0-0.4-0.3-0.6-0.6-0.6c-0.4,0-0.6,0.2-0.6,0.6C68,119.1,68.2,119.2,68.6,119.3z"/>
			<path d="M78.3,119.3c0.4,0,0.6-0.2,0.7-0.6c0-0.4-0.2-0.6-0.6-0.7c-0.4,0-0.6,0.2-0.7,0.6C77.7,119,77.9,119.2,78.3,119.3z"/>
			<path d="M59.7,122c0.5,0,0.7-0.2,0.8-0.6c0-0.4-0.2-0.6-0.6-0.7c-0.4,0-0.6,0.2-0.7,0.6C59.2,121.7,59.5,121.9,59.7,122z"/>
			<path d="M50.1,122c0.4-0.1,0.6-0.3,0.6-0.7c0-0.4-0.3-0.6-0.7-0.6s-0.6,0.3-0.6,0.7C49.4,121.8,49.7,122,50.1,122z"/>
			<path d="M87.4,118.8c0.1,0.4,0.3,0.6,0.7,0.5c0.4,0,0.6-0.3,0.5-0.7c0-0.4-0.3-0.6-0.7-0.5C87.5,118.2,87.4,118.5,87.4,118.8z"/>
			<path d="M97.1,118.7c0,0.4,0.2,0.7,0.6,0.7s0.6-0.2,0.7-0.6c0-0.4-0.2-0.6-0.6-0.7C97.4,118.1,97.2,118.3,97.1,118.7z"/>
			<path d="M23.8,120.9c0.4-0.1,0.6-0.3,0.6-0.7c0-0.4-0.3-0.6-0.7-0.6c-0.4,0-0.6,0.3-0.6,0.7C23.2,120.6,23.4,120.8,23.8,120.9z"
				/>
			<path d="M32.8,120.2c0.1,0.5,0.3,0.6,0.7,0.6s0.6-0.3,0.5-0.7c0-0.4-0.3-0.6-0.7-0.6C33,119.6,32.9,119.9,32.8,120.2z"/>
			<path d="M42.7,120.3c0,0.4,0.2,0.7,0.6,0.7c0.4,0.1,0.6-0.2,0.7-0.6c0-0.4-0.2-0.7-0.6-0.7C43,119.7,42.8,119.9,42.7,120.3z"/>
			<path d="M53.1,119.8c-0.4,0-0.7,0.2-0.7,0.6s0.2,0.6,0.6,0.7c0.4,0,0.6-0.2,0.7-0.6C53.7,120,53.5,119.8,53.1,119.8z"/>
			<path d="M111.3,120.2c-0.4,0.1-0.6,0.3-0.6,0.7c0,0.4,0.3,0.6,0.7,0.6c0.4,0,0.6-0.3,0.6-0.7
				C111.9,120.4,111.7,120.2,111.3,120.2z"/>
			<path d="M101.6,120.2c-0.3,0-0.6,0.2-0.6,0.6s0.2,0.6,0.6,0.6s0.6-0.2,0.6-0.6C102.2,120.4,102,120.2,101.6,120.2z"/>
			<path d="M62.1,120.5c0,0.4,0.2,0.6,0.6,0.7c0.4,0,0.6-0.2,0.6-0.6s-0.2-0.6-0.6-0.6C62.4,119.9,62.2,120.1,62.1,120.5z"/>
			<path d="M130.8,121.6c0.3-0.1,0.6-0.3,0.6-0.7c0-0.4-0.3-0.6-0.7-0.6s-0.6,0.3-0.6,0.7C130.2,121.4,130.4,121.6,130.8,121.6z"/>
			<path d="M121.1,120.3c-0.4,0-0.7,0.2-0.7,0.6s0.2,0.6,0.6,0.7c0.4,0,0.6-0.2,0.7-0.6C121.7,120.6,121.5,120.4,121.1,120.3z"/>
			<path d="M71.9,120.6c0.1,0.4,0.3,0.6,0.7,0.5c0.4,0,0.6-0.3,0.6-0.7c-0.1-0.4-0.3-0.6-0.7-0.6C72,119.9,71.9,120.2,71.9,120.6z"
				/>
			<path d="M81.6,120.6c0,0.4,0.2,0.6,0.6,0.7c0.4,0,0.6-0.2,0.7-0.6c0-0.4-0.2-0.6-0.5-0.7C81.9,120,81.6,120.2,81.6,120.6z"/>
			<path d="M91.3,120.7c0,0.4,0.2,0.6,0.6,0.6s0.6-0.2,0.6-0.6s-0.2-0.6-0.6-0.6C91.5,120,91.3,120.3,91.3,120.7z"/>
			<path d="M140.5,121.7c0.4-0.1,0.6-0.3,0.5-0.7c0-0.4-0.3-0.6-0.7-0.6c-0.4,0.1-0.6,0.3-0.6,0.7
				C139.9,121.6,140.2,121.7,140.5,121.7z"/>
			<path d="M39.7,121.3c0.1,0.5,0.4,0.7,0.8,0.6c0.4-0.1,0.6-0.4,0.5-0.7c-0.1-0.4-0.4-0.5-0.7-0.5C39.8,120.7,39.7,121,39.7,121.3z
				"/>
			<path d="M30.6,121.9c0.4,0,0.6-0.3,0.6-0.7c0-0.4-0.3-0.6-0.6-0.6c-0.4,0-0.6,0.2-0.6,0.6C30,121.7,30.2,121.9,30.6,121.9z"/>
			<path d="M74.8,119.6c0.1,0.5,0.3,0.7,0.7,0.6c0.4,0,0.6-0.3,0.6-0.7c-0.1-0.4-0.3-0.6-0.7-0.6C74.9,119.1,74.8,119.4,74.8,119.6z
				"/>
			<path d="M20.3,121.2c0,0.4,0.2,0.6,0.6,0.6s0.6-0.2,0.6-0.6s-0.2-0.6-0.6-0.6S20.3,120.8,20.3,121.2z"/>
			<path d="M85.1,119c-0.4,0-0.6,0.2-0.6,0.6s0.2,0.6,0.6,0.6s0.6-0.2,0.6-0.6C85.7,119.3,85.5,119,85.1,119z"/>
			<path d="M94.2,119.9c0.1,0.4,0.4,0.6,0.7,0.5c0.4-0.1,0.6-0.4,0.5-0.7c-0.1-0.4-0.4-0.5-0.7-0.5
				C94.3,119.3,94.2,119.6,94.2,119.9z"/>
			<path d="M11.3,120.5c-0.4,0-0.7,0.2-0.7,0.6c-0.1,0.4,0.2,0.6,0.5,0.7c0.4,0.1,0.7-0.1,0.7-0.5C11.8,120.8,11.6,120.5,11.3,120.5
				z"/>
			<path d="M104.6,119.2c-0.4,0-0.6,0.1-0.7,0.6c0,0.4,0.2,0.6,0.6,0.7s0.6-0.2,0.7-0.5C105.2,119.5,105,119.2,104.6,119.2z"/>
			<path d="M13.4,120.1c0,0.4,0.2,0.6,0.6,0.6c0.4,0,0.6-0.2,0.6-0.6s-0.2-0.6-0.6-0.6C13.7,119.5,13.5,119.7,13.4,120.1z"/>
			<path d="M114.3,120.6c0.4-0.1,0.6-0.2,0.6-0.6s-0.3-0.6-0.6-0.6c-0.4,0-0.6,0.3-0.6,0.7C113.6,120.3,113.9,120.5,114.3,120.6z"/>
			<path d="M123.3,119.8c0,0.5,0.2,0.7,0.6,0.8c0.4,0,0.6-0.2,0.7-0.6c0-0.4-0.2-0.6-0.6-0.7C123.6,119.3,123.4,119.6,123.3,119.8z"
				/>
			<path d="M133,120.1c0.1,0.5,0.4,0.7,0.8,0.6c0.4-0.1,0.6-0.4,0.5-0.7c-0.1-0.4-0.4-0.5-0.7-0.5C133.1,119.5,133,119.9,133,120.1z
				"/>
			<path d="M143.4,120.7c0.4,0,0.6-0.2,0.7-0.6c0.1-0.4-0.2-0.6-0.6-0.7c-0.4,0-0.6,0.1-0.7,0.5
				C142.9,120.4,143.1,120.7,143.4,120.7z"/>
			<path d="M22.9,118c0.4-0.1,0.7-0.3,0.6-0.7c0-0.4-0.3-0.6-0.7-0.6c-0.4,0-0.6,0.3-0.6,0.7C22.3,117.8,22.6,117.9,22.9,118z"/>
			<path d="M7.6,122.2c0.1,0.4,0.4,0.6,0.8,0.5s0.5-0.4,0.5-0.7c-0.1-0.4-0.4-0.6-0.7-0.5C7.8,121.6,7.6,121.9,7.6,122.2z"/>
			<path d="M32.5,116.7c-0.3,0-0.6,0.3-0.6,0.6c0,0.4,0.3,0.6,0.6,0.6c0.4,0,0.6-0.2,0.6-0.6C33.2,116.9,33,116.7,32.5,116.7z"/>
			<path d="M41.7,117.5c0.1,0.4,0.2,0.6,0.6,0.6c0.4,0,0.6-0.3,0.6-0.6c0-0.4-0.3-0.6-0.6-0.6C41.9,116.8,41.7,117.1,41.7,117.5z"/>
			<path d="M51.4,117.4c0,0.4,0.2,0.6,0.6,0.7c0.4,0,0.6-0.2,0.7-0.6c0-0.4-0.2-0.7-0.6-0.7C51.7,116.8,51.5,117,51.4,117.4z"/>
			<path d="M12.6,117.1c0,0.4,0.2,0.6,0.6,0.7c0.5,0.1,0.7-0.2,0.7-0.6s-0.2-0.6-0.6-0.6C12.9,116.5,12.6,116.7,12.6,117.1z"/>
			<path d="M112.7,117c0.1,0.5,0.3,0.7,0.7,0.6c0.4,0,0.6-0.3,0.6-0.7c-0.1-0.4-0.3-0.6-0.7-0.6C112.9,116.4,112.8,116.7,112.7,117z
				"/>
			<path d="M122.4,117c0,0.4,0.2,0.7,0.6,0.7s0.6-0.2,0.6-0.6s-0.2-0.6-0.6-0.6C122.7,116.4,122.5,116.6,122.4,117z"/>
			<path d="M136.9,122c0.1,0.4,0.3,0.6,0.7,0.6s0.6-0.3,0.6-0.7c0-0.4-0.3-0.6-0.7-0.6C137.1,121.4,137,121.6,136.9,122z"/>
			<path d="M127.9,121.3c-0.4,0-0.6,0.3-0.6,0.7c0,0.4,0.2,0.6,0.6,0.6s0.6-0.2,0.6-0.6S128.2,121.4,127.9,121.3z"/>
			<path d="M18.6,122.2c0-0.4-0.3-0.7-0.6-0.7c-0.4,0-0.6,0.2-0.6,0.6s0.2,0.6,0.6,0.6S18.6,122.5,18.6,122.2z"/>
			<path d="M35.5,117.1c0.4,0,0.7-0.2,0.7-0.6s-0.2-0.7-0.6-0.7c-0.4,0-0.6,0.2-0.7,0.6C34.9,116.8,35.1,117,35.5,117.1z"/>
			<path d="M45.2,115.8c-0.5,0.1-0.6,0.3-0.6,0.7c0,0.4,0.3,0.6,0.7,0.5c0.4,0,0.6-0.3,0.6-0.7C45.8,116,45.5,115.8,45.2,115.8z"/>
			<path d="M54.3,116.7c0.1,0.3,0.3,0.6,0.7,0.5c0.4,0,0.6-0.3,0.6-0.7c0-0.4-0.3-0.6-0.7-0.6C54.5,116,54.3,116.3,54.3,116.7z"/>
			<path d="M64.8,116c-0.5,0-0.7,0.2-0.8,0.6c0,0.4,0.2,0.7,0.6,0.7s0.6-0.2,0.7-0.6C65.3,116.2,65.1,116.1,64.8,116z"/>
			<path d="M132.1,117.2c0,0.4,0.2,0.6,0.6,0.6c0.4,0,0.6-0.2,0.6-0.6s-0.2-0.6-0.6-0.6C132.4,116.5,132.2,116.8,132.1,117.2z"/>
			<path d="M141.9,117.1c0,0.4,0.2,0.7,0.6,0.7c0.4,0.1,0.6-0.2,0.7-0.5c0.1-0.4-0.1-0.7-0.5-0.7
				C142.2,116.5,141.9,116.7,141.9,117.1z"/>
			<path d="M74.3,116.1c-0.4,0.1-0.6,0.3-0.6,0.7c0,0.4,0.3,0.6,0.7,0.6c0.4,0,0.6-0.3,0.6-0.7S74.7,116.1,74.3,116.1z"/>
			<path d="M84.1,117.4c0.4-0.1,0.6-0.3,0.6-0.7c0-0.4-0.3-0.6-0.7-0.6c-0.4,0-0.6,0.3-0.6,0.7C83.5,117.2,83.8,117.4,84.1,117.4z"
				/>
			<path d="M93.3,116.9c0.1,0.4,0.3,0.6,0.7,0.6c0.4,0,0.6-0.3,0.6-0.7c0-0.4-0.3-0.6-0.7-0.6C93.5,116.3,93.3,116.5,93.3,116.9z"/>
			<path d="M103,116.8c0,0.4,0.2,0.7,0.6,0.7s0.6-0.2,0.7-0.6c0-0.4-0.2-0.6-0.6-0.7C103.3,116.3,103.1,116.5,103,116.8z"/>
			<path d="M89.7,121.7c0-0.4-0.2-0.6-0.6-0.6s-0.6,0.2-0.6,0.6s0.2,0.6,0.6,0.6C89.4,122.3,89.6,122.1,89.7,121.7z"/>
			<path d="M98.8,121c-0.4,0-0.6,0.2-0.7,0.6s0.2,0.6,0.5,0.7c0.4,0,0.7-0.1,0.7-0.5C99.4,121.4,99.2,121.1,98.8,121z"/>
			<path d="M108.4,122.5c0.4,0,0.6-0.2,0.7-0.6c0-0.4-0.2-0.6-0.6-0.7c-0.4,0-0.6,0.2-0.7,0.6C107.8,122.2,108,122.4,108.4,122.5z"
				/>
			<path d="M117.5,121.9c0,0.4,0.3,0.6,0.6,0.6c0.4,0,0.6-0.3,0.6-0.6c0-0.4-0.2-0.6-0.6-0.6C117.7,121.2,117.5,121.4,117.5,121.9z"
				/>
			<path d="M139,118.1c0,0.5,0.3,0.7,0.6,0.7c0.4,0,0.6-0.2,0.6-0.6s-0.2-0.6-0.6-0.6S139,117.8,139,118.1z"/>
			<path d="M39.5,119c0.4-0.1,0.6-0.3,0.6-0.7c0-0.4-0.3-0.6-0.7-0.6s-0.6,0.3-0.6,0.7C38.9,118.8,39.1,119,39.5,119z"/>
			<path d="M29.6,119c0.4,0,0.7-0.2,0.7-0.6s-0.2-0.7-0.6-0.7s-0.7,0.2-0.7,0.6C29.1,118.7,29.3,118.9,29.6,119z"/>
			<path d="M19.4,118.1c0,0.4,0.2,0.7,0.6,0.7s0.7-0.2,0.7-0.6s-0.2-0.6-0.6-0.7C19.7,117.5,19.5,117.8,19.4,118.1z"/>
			<path d="M10.2,117.6c-0.3,0.1-0.6,0.3-0.6,0.6c0,0.5,0.3,0.7,0.7,0.6c0.4,0,0.6-0.3,0.5-0.7C10.9,117.8,10.7,117.6,10.2,117.6z"
				/>
			<path d="M109.8,117.8c0,0.4,0.2,0.7,0.6,0.7s0.7-0.2,0.7-0.6s-0.2-0.6-0.6-0.7C110.1,117.2,109.9,117.5,109.8,117.8z"/>
			<path d="M119.5,118.1c0,0.4,0.2,0.6,0.6,0.6s0.6-0.2,0.6-0.6s-0.2-0.6-0.6-0.6C119.8,117.4,119.6,117.7,119.5,118.1z"/>
			<path d="M129.3,118.1c0.1,0.4,0.2,0.6,0.6,0.6c0.4,0,0.6-0.3,0.6-0.6c0-0.4-0.3-0.6-0.6-0.6C129.5,117.4,129.3,117.7,129.3,118.1
				z"/>
			<path d="M61.1,117.6c0,0.4,0.2,0.7,0.6,0.7c0.4,0,0.7-0.2,0.7-0.6s-0.2-0.6-0.6-0.7S61.2,117.2,61.1,117.6z"/>
			<path d="M70.8,117.6c0,0.4,0.3,0.7,0.7,0.6c0.4,0,0.6-0.3,0.6-0.7c0-0.4-0.3-0.6-0.7-0.6C71,117,70.9,117.3,70.8,117.6z"/>
			<path d="M81.2,117.1c-0.4,0.1-0.6,0.3-0.6,0.7c0,0.4,0.3,0.6,0.7,0.6c0.4,0,0.6-0.3,0.6-0.7C81.8,117.3,81.5,117.2,81.2,117.1z"
				/>
			<path d="M90.9,117.1c-0.4,0.1-0.6,0.2-0.6,0.6s0.3,0.6,0.6,0.6c0.4,0,0.6-0.3,0.6-0.6S91.3,117.2,90.9,117.1z"/>
			<path d="M100.6,118.5c0.4,0,0.7-0.2,0.7-0.6s-0.2-0.6-0.6-0.7c-0.4,0-0.6,0.2-0.7,0.6C99.9,118.2,100.2,118.5,100.6,118.5z"/>
			<path d="M84.9,138.5c-0.4,0.1-0.6,0.3-0.5,0.7c0,0.3,0.2,0.5,0.6,0.5s0.6-0.2,0.6-0.6C85.5,138.7,85.3,138.5,84.9,138.5z"/>
			<path d="M91.1,140.2c0,0.4,0.3,0.6,0.7,0.6c0.3,0,0.5-0.2,0.5-0.5c0-0.4-0.2-0.6-0.6-0.6C91.4,139.6,91.2,139.9,91.1,140.2z"/>
			<path d="M100.9,140.2c0,0.4,0.2,0.6,0.6,0.6c0.3,0,0.5-0.2,0.6-0.5c0-0.4-0.2-0.6-0.6-0.7C101.1,139.6,100.9,139.9,100.9,140.2z"
				/>
			<path d="M74.6,139.1c0,0.4,0.3,0.6,0.7,0.6c0.3,0,0.5-0.2,0.5-0.5c0-0.4-0.2-0.6-0.6-0.7C74.9,138.5,74.7,138.7,74.6,139.1z"/>
			<path d="M142.7,139.4c0,0.4,0.2,0.7,0.6,0.7c0.4,0,0.6-0.3,0.6-0.6s-0.2-0.5-0.5-0.6C143.1,138.9,142.8,139.1,142.7,139.4z"/>
			<path d="M116.9,137.8c-0.4,0.1-0.6,0.3-0.5,0.7s0.3,0.6,0.7,0.5c0.3-0.1,0.5-0.3,0.5-0.6C117.5,137.9,117.3,137.8,116.9,137.8z"
				/>
			<path d="M106.7,138.3c0.1,0.5,0.2,0.7,0.6,0.7s0.6-0.3,0.6-0.7c0-0.3-0.3-0.5-0.6-0.5C106.9,137.7,106.7,138,106.7,138.3z"/>
			<path d="M126.8,137.9c-0.4,0.1-0.6,0.3-0.6,0.6c0,0.4,0.3,0.6,0.7,0.5c0.3,0,0.5-0.2,0.5-0.6
				C127.4,138.1,127.2,137.9,126.8,137.9z"/>
			<path d="M72.4,139.5c-0.4,0-0.6,0.2-0.6,0.6c0,0.4,0.2,0.6,0.6,0.6c0.3,0,0.5-0.2,0.5-0.5C73,139.8,72.8,139.5,72.4,139.5z"/>
			<path d="M81.5,140.1c0.1,0.4,0.3,0.6,0.7,0.5c0.4-0.1,0.6-0.3,0.5-0.7c-0.1-0.3-0.3-0.5-0.6-0.5
				C81.6,139.5,81.5,139.8,81.5,140.1z"/>
			<path d="M67.4,145.4c0.4,0,0.6-0.2,0.6-0.6c0-0.3-0.2-0.6-0.5-0.6c-0.4,0-0.6,0.1-0.7,0.5C66.8,145.2,67,145.4,67.4,145.4z"/>
			<path d="M104.3,139.8c0.4,0,0.7-0.2,0.7-0.6c0-0.4-0.3-0.6-0.6-0.6c-0.3,0-0.5,0.2-0.5,0.5C103.8,139.5,104,139.8,104.3,139.8z"
				/>
			<path d="M94,139.1c0,0.4,0.2,0.7,0.6,0.7s0.6-0.2,0.6-0.6c0-0.3-0.2-0.5-0.5-0.6C94.4,138.6,94.1,138.8,94,139.1z"/>
			<path d="M113.5,139.4c0,0.4,0.3,0.6,0.7,0.6c0.3,0,0.5-0.2,0.5-0.5c0-0.4-0.2-0.6-0.6-0.6C113.7,138.8,113.5,139,113.5,139.4z"/>
			<path d="M77.2,144.3c-0.4,0-0.6,0.2-0.6,0.6c0,0.3,0.2,0.5,0.5,0.6c0.4,0,0.7-0.1,0.7-0.5C77.8,144.5,77.5,144.3,77.2,144.3z"/>
			<path d="M123.8,139.9c0.4-0.1,0.6-0.2,0.6-0.6c0-0.4-0.3-0.6-0.7-0.6c-0.3,0-0.5,0.3-0.5,0.6
				C123.2,139.7,123.4,139.9,123.8,139.9z"/>
			<path d="M132.9,139.5c0,0.4,0.2,0.6,0.6,0.6c0.4,0,0.6-0.3,0.6-0.6s-0.2-0.5-0.5-0.6C133.2,138.9,132.9,139.1,132.9,139.5z"/>
			<path d="M62.9,142.8c0,0.4,0.2,0.7,0.6,0.7c0.3,0,0.6-0.2,0.6-0.5c0.1-0.4-0.1-0.6-0.5-0.7C63.2,142.2,63,142.4,62.9,142.8z"/>
			<path d="M114.5,142.3c0,0.4,0.2,0.6,0.6,0.6c0.3,0,0.5-0.2,0.6-0.5c0-0.4-0.2-0.6-0.6-0.7C114.7,141.6,114.6,141.9,114.5,142.3z"
				/>
			<path d="M104.8,142.3c0.1,0.4,0.3,0.6,0.7,0.5c0.3,0,0.5-0.3,0.5-0.6c0-0.4-0.2-0.6-0.6-0.6C105,141.7,104.8,141.9,104.8,142.3z"
				/>
			<path d="M95.7,141.5c-0.4,0-0.6,0.2-0.6,0.6c0,0.3,0.2,0.6,0.5,0.6c0.4,0.1,0.6-0.1,0.7-0.5C96.3,141.8,96.1,141.6,95.7,141.5z"
				/>
			<path d="M85.3,142.1c0.1,0.5,0.3,0.7,0.7,0.6c0.4,0,0.5-0.4,0.5-0.7s-0.3-0.5-0.6-0.5C85.6,141.6,85.4,141.8,85.3,142.1z"/>
			<path d="M133.9,142.3c0.1,0.5,0.2,0.7,0.7,0.7c0.3,0,0.5-0.3,0.5-0.6c0-0.4-0.3-0.6-0.7-0.6C134.1,141.8,134,142.1,133.9,142.3z"
				/>
			<path d="M98.9,144.2c0.1,0.4,0.3,0.6,0.7,0.6c0.4-0.1,0.6-0.3,0.5-0.7c0-0.3-0.3-0.5-0.6-0.5C99,143.6,98.9,143.8,98.9,144.2z"/>
			<path d="M108.7,144.1c0,0.4,0.2,0.7,0.6,0.7s0.6-0.2,0.6-0.6c0-0.3-0.2-0.5-0.5-0.6C109,143.5,108.8,143.7,108.7,144.1z"/>
			<path d="M124.7,143c0.5-0.1,0.7-0.3,0.7-0.7c0-0.3-0.2-0.5-0.5-0.5c-0.4,0-0.6,0.2-0.6,0.6C124.2,142.8,124.5,142.9,124.7,143z"
				/>
			<path d="M118.4,144.3c0.1,0.4,0.3,0.6,0.7,0.5c0.3,0,0.5-0.2,0.5-0.6c0-0.4-0.2-0.6-0.6-0.6C118.6,143.7,118.4,143.9,118.4,144.3
				z"/>
			<path d="M128.8,143.7c-0.3,0-0.6,0.2-0.6,0.5c-0.1,0.4,0.1,0.7,0.5,0.7c0.3,0,0.6-0.2,0.6-0.5C129.4,144,129.2,143.8,128.8,143.7
				z"/>
			<path d="M141.3,142.8c-0.4,0.1-0.6,0.3-0.5,0.7c0.1,0.3,0.3,0.5,0.6,0.4c0.4,0,0.6-0.3,0.5-0.7
				C141.8,143,141.6,142.8,141.3,142.8z"/>
			<path d="M131.7,142.8c-0.3,0-0.6,0.2-0.6,0.5c-0.1,0.4,0.1,0.7,0.5,0.7c0.3,0,0.6-0.2,0.6-0.5
				C132.3,143.1,132.1,142.9,131.7,142.8z"/>
			<path d="M121.3,143.3c0.1,0.4,0.3,0.6,0.7,0.6c0.4,0,0.6-0.3,0.5-0.7c0-0.3-0.2-0.5-0.6-0.5C121.5,142.7,121.3,142.9,121.3,143.3
				z"/>
			<path d="M111.6,143.2c0,0.4,0.2,0.6,0.6,0.6s0.6-0.2,0.6-0.6c0-0.3-0.2-0.5-0.5-0.5C111.9,142.7,111.7,142.8,111.6,143.2z"/>
			<path d="M69.7,143.8c0,0.4,0.2,0.6,0.6,0.6s0.6-0.3,0.6-0.6s-0.2-0.5-0.5-0.6C70,143.3,69.8,143.4,69.7,143.8z"/>
			<path d="M79.4,144c0,0.4,0.3,0.6,0.6,0.6c0.3,0,0.5-0.2,0.5-0.5c0-0.4-0.2-0.6-0.6-0.6C79.6,143.4,79.5,143.6,79.4,144z"/>
			<path d="M89.1,143.9c0,0.5,0.3,0.7,0.7,0.7c0.3,0,0.5-0.2,0.5-0.5c0-0.4-0.2-0.6-0.6-0.7C89.4,143.4,89.2,143.6,89.1,143.9z"/>
			<path d="M102.5,142.5c-0.4,0.1-0.6,0.3-0.6,0.6c0,0.4,0.3,0.6,0.7,0.5c0.3,0,0.5-0.2,0.5-0.6
				C103.1,142.8,102.9,142.5,102.5,142.5z"/>
			<path d="M92.2,143.1c0,0.4,0.2,0.6,0.6,0.6c0.3,0,0.5-0.2,0.6-0.5c0-0.4-0.2-0.6-0.6-0.7C92.4,142.5,92.2,142.8,92.2,143.1z"/>
			<path d="M82.9,142.4c-0.4,0.1-0.6,0.3-0.5,0.7c0,0.3,0.2,0.5,0.6,0.5s0.6-0.2,0.6-0.6C83.5,142.6,83.2,142.4,82.9,142.4z"/>
			<path d="M72.6,143c0,0.4,0.2,0.6,0.6,0.6s0.6-0.3,0.6-0.6s-0.2-0.5-0.5-0.6C72.9,142.4,72.6,142.6,72.6,143z"/>
			<path d="M88.2,141.1c0,0.4,0.3,0.6,0.7,0.6c0.3,0,0.5-0.2,0.5-0.5c0-0.4-0.2-0.6-0.6-0.7C88.5,140.5,88.3,140.7,88.2,141.1z"/>
			<path d="M79.1,141.7c0.4,0,0.6-0.2,0.7-0.6c0-0.4-0.2-0.6-0.6-0.6c-0.3,0-0.5,0.2-0.6,0.5C78.5,141.4,78.7,141.6,79.1,141.7z"/>
			<path d="M68.8,140.9c0,0.4,0.2,0.7,0.6,0.7s0.6-0.2,0.6-0.6c0-0.3-0.2-0.5-0.5-0.6C69.2,140.3,68.9,140.5,68.8,140.9z"/>
			<path d="M127.1,141.3c0,0.5,0.3,0.7,0.7,0.7c0.3,0,0.5-0.2,0.5-0.6c0-0.3-0.2-0.6-0.5-0.6C127.4,140.7,127.2,141,127.1,141.3z"/>
			<path d="M140.3,139.9c-0.4,0.1-0.6,0.4-0.5,0.7s0.3,0.5,0.6,0.4c0.3,0,0.5-0.2,0.5-0.6C140.9,140.1,140.7,139.9,140.3,139.9z"/>
			<path d="M130.6,139.8c-0.4,0.1-0.6,0.3-0.6,0.7c0.1,0.4,0.3,0.6,0.7,0.5c0.3,0,0.5-0.3,0.5-0.6
				C131.2,140,130.9,139.8,130.6,139.8z"/>
			<path d="M120.9,141c0.4-0.1,0.6-0.3,0.6-0.7s-0.3-0.6-0.7-0.5c-0.3,0-0.5,0.2-0.5,0.6C120.3,140.7,120.5,141,120.9,141z"/>
			<path d="M111.1,139.8c-0.4,0.1-0.6,0.3-0.5,0.7s0.3,0.6,0.7,0.5c0.3-0.1,0.5-0.3,0.5-0.6C111.7,140,111.5,139.8,111.1,139.8z"/>
			<path d="M75.7,142c0.1,0.4,0.3,0.6,0.7,0.5c0.3,0,0.5-0.2,0.5-0.6c0-0.4-0.2-0.6-0.6-0.6C75.8,141.4,75.7,141.7,75.7,142z"/>
			<path d="M66.3,142.6c0.4,0,0.6-0.2,0.7-0.6c0-0.4-0.2-0.6-0.6-0.6c-0.3,0-0.5,0.2-0.6,0.5C65.8,142.2,65.9,142.5,66.3,142.6z"/>
			<path d="M117.4,141.4c0,0.4,0.2,0.6,0.6,0.6c0.3,0,0.6-0.2,0.6-0.5c0.1-0.4-0.1-0.6-0.5-0.7C117.7,140.7,117.5,141,117.4,141.4z"
				/>
			<path d="M107.7,141.3c0.1,0.4,0.3,0.6,0.6,0.6c0.4,0,0.6-0.3,0.5-0.7c0-0.3-0.2-0.5-0.6-0.5C107.9,140.7,107.7,140.9,107.7,141.3
				z"/>
			<path d="M98.6,140.7c-0.5,0.1-0.6,0.3-0.6,0.7c0,0.3,0.2,0.5,0.6,0.5s0.6-0.2,0.6-0.6C99.2,140.8,98.9,140.7,98.6,140.7z"/>
			<path d="M137.8,144.5c0.1,0.4,0.4,0.6,0.7,0.6c0.3-0.1,0.5-0.3,0.4-0.6c0-0.4-0.3-0.6-0.7-0.5C138,143.9,137.8,144.2,137.8,144.5
				z"/>
			<path d="M137.4,141c-0.4,0-0.5,0.2-0.5,0.6c0,0.4,0.2,0.6,0.6,0.6c0.3,0,0.5-0.3,0.5-0.6C138,141.1,137.7,141,137.4,141z"/>
			<path d="M118.2,132.1c0.4-0.1,0.6-0.3,0.5-0.7c0-0.3-0.2-0.5-0.6-0.5s-0.6,0.2-0.6,0.6C117.6,132,117.8,132.1,118.2,132.1z"/>
			<path d="M107.7,131.5c0,0.4,0.3,0.6,0.7,0.6c0.3,0,0.5-0.2,0.5-0.5c0-0.4-0.2-0.6-0.6-0.7C107.9,130.9,107.7,131.2,107.7,131.5z"
				/>
			<path d="M137.6,131.1c-0.4,0-0.6,0.2-0.6,0.6c0,0.4,0.2,0.6,0.6,0.6c0.3,0,0.5-0.2,0.5-0.5C138.2,131.4,138,131.1,137.6,131.1z"
				/>
			<path d="M127.8,132.3c0.4,0,0.7-0.2,0.7-0.6c0-0.4-0.2-0.6-0.6-0.6c-0.3,0-0.5,0.2-0.6,0.5C127.2,131.9,127.4,132.2,127.8,132.3z
				"/>
			<path d="M111.4,129.9c-0.5,0.1-0.6,0.3-0.6,0.7c0,0.3,0.2,0.5,0.6,0.5s0.6-0.2,0.6-0.6C111.9,130.1,111.6,130,111.4,129.9z"/>
			<path d="M121.3,133.6c0.1,0.4,0.3,0.6,0.7,0.5c0.3,0,0.5-0.2,0.5-0.6c0-0.4-0.2-0.6-0.6-0.6C121.5,133,121.3,133.2,121.3,133.6z"
				/>
			<path d="M95.1,132.4c0.1,0.5,0.3,0.7,0.7,0.6c0.3,0,0.5-0.2,0.5-0.6c0-0.4-0.2-0.6-0.6-0.6C95.3,131.8,95.1,132.1,95.1,132.4z"/>
			<path d="M134.7,133.3c0.5-0.1,0.6-0.3,0.6-0.7c0-0.3-0.2-0.5-0.6-0.5c-0.4,0-0.6,0.2-0.6,0.6
				C134.1,133.1,134.4,133.2,134.7,133.3z"/>
			<path d="M124.2,132.7c0,0.4,0.2,0.6,0.6,0.6c0.3,0,0.5-0.2,0.6-0.5c0-0.4-0.1-0.7-0.5-0.7C124.5,132.1,124.3,132.3,124.2,132.7z"
				/>
			<path d="M115.1,133.2c0.4-0.1,0.6-0.3,0.6-0.7s-0.3-0.6-0.7-0.5c-0.3,0-0.5,0.2-0.5,0.6C114.5,132.9,114.7,133.1,115.1,133.2z"/>
			<path d="M105.5,132c-0.4,0.1-0.7,0.2-0.7,0.6c0,0.4,0.3,0.6,0.7,0.6c0.3,0,0.5-0.3,0.5-0.6C106,132.2,105.7,132,105.5,132z"/>
			<path d="M141.8,136.6c0.1,0.4,0.2,0.6,0.6,0.6c0.4,0,0.6-0.3,0.6-0.7c0-0.3-0.3-0.5-0.6-0.5C142,136,141.8,136.2,141.8,136.6z"/>
			<path d="M132,136.6c0,0.4,0.2,0.6,0.6,0.6c0.4,0,0.6-0.3,0.6-0.6s-0.2-0.5-0.5-0.5C132.3,136,132.1,136.2,132,136.6z"/>
			<path d="M84,136.8c0.4,0,0.7-0.2,0.7-0.6c0-0.4-0.2-0.6-0.6-0.6c-0.3,0-0.5,0.2-0.6,0.5S83.6,136.7,84,136.8z"/>
			<path d="M74.8,136.1c-0.1-0.4-0.3-0.6-0.7-0.5c-0.4,0.1-0.5,0.4-0.5,0.7s0.3,0.5,0.6,0.5C74.6,136.7,74.8,136.5,74.8,136.1z"/>
			<path d="M122.3,136.4c0.1,0.5,0.3,0.7,0.7,0.6c0.3,0,0.5-0.2,0.5-0.6c0-0.4-0.2-0.6-0.6-0.6C122.5,135.8,122.4,136.2,122.3,136.4
				z"/>
			<path d="M113.2,137.1c0.5-0.1,0.6-0.3,0.6-0.7c0-0.3-0.2-0.5-0.6-0.5s-0.6,0.2-0.6,0.6C112.6,136.9,112.9,137,113.2,137.1z"/>
			<path d="M103.5,136.9c0.4-0.1,0.6-0.3,0.6-0.7s-0.3-0.6-0.7-0.5c-0.3,0-0.5,0.2-0.5,0.6C102.9,136.7,103.1,136.9,103.5,136.9z"/>
			<path d="M93.8,135.7c-0.4,0-0.7,0.2-0.7,0.6c0,0.4,0.2,0.6,0.6,0.6c0.3,0,0.5-0.2,0.6-0.5C94.4,136,94.2,135.8,93.8,135.7z"/>
			<path d="M96.9,138.2c0.1,0.4,0.3,0.6,0.7,0.5c0.3,0,0.5-0.2,0.5-0.6c0-0.4-0.2-0.6-0.6-0.6C97.1,137.6,97,137.9,96.9,138.2z"/>
			<path d="M87.8,138.8c0.4,0,0.6-0.2,0.7-0.6c0-0.4-0.2-0.6-0.6-0.6c-0.3,0-0.5,0.2-0.6,0.5C87.2,138.5,87.4,138.7,87.8,138.8z"/>
			<path d="M78.2,137.5c-0.4,0-0.6,0.2-0.6,0.6c0,0.4,0.2,0.6,0.6,0.6c0.3,0,0.5-0.2,0.5-0.5C78.8,137.7,78.6,137.5,78.2,137.5z"/>
			<path d="M136.6,137.9c-0.4,0-0.6,0.2-0.7,0.6c0,0.3,0.2,0.5,0.5,0.6c0.4,0,0.7-0.1,0.7-0.5C137.2,138.2,137,138,136.6,137.9z"/>
			<path d="M110.3,136.7c-0.4,0-0.6,0.2-0.6,0.6c0,0.4,0.3,0.6,0.6,0.6c0.3,0,0.5-0.2,0.6-0.5C110.9,137,110.7,136.8,110.3,136.7z"
				/>
			<path d="M101.2,137.3c-0.1-0.4-0.3-0.6-0.7-0.5c-0.4,0.1-0.5,0.4-0.5,0.7s0.3,0.5,0.6,0.5C101,137.9,101.2,137.7,101.2,137.3z"/>
			<path d="M90.2,137.2c0.1,0.4,0.3,0.6,0.7,0.6c0.4-0.1,0.6-0.3,0.5-0.7c0-0.3-0.3-0.5-0.6-0.5C90.3,136.6,90.2,136.8,90.2,137.2z"
				/>
			<path d="M81,137.8c0.4,0,0.6-0.3,0.6-0.7c0-0.3-0.2-0.5-0.5-0.5c-0.4,0-0.6,0.2-0.6,0.6C80.4,137.6,80.7,137.8,81,137.8z"/>
			<path d="M138.9,137.5c0,0.4,0.2,0.7,0.6,0.7c0.3,0,0.6-0.2,0.6-0.5c0.1-0.4-0.1-0.6-0.5-0.7C139.1,137,138.9,137.2,138.9,137.5z"
				/>
			<path d="M129.6,138.1c0.5,0,0.7-0.2,0.7-0.6c0-0.3-0.2-0.5-0.5-0.6c-0.4,0-0.7,0.1-0.7,0.5C129.1,137.8,129.3,138,129.6,138.1z"
				/>
			<path d="M119.4,137.5c0.1,0.4,0.2,0.6,0.6,0.6s0.6-0.3,0.5-0.7c0-0.3-0.3-0.5-0.6-0.5C119.6,136.9,119.5,137.1,119.4,137.5z"/>
			<path d="M108.7,134.4c0,0.4,0.2,0.6,0.6,0.6c0.3,0,0.6-0.2,0.6-0.5c0-0.4-0.1-0.6-0.5-0.7C109,133.8,108.8,134,108.7,134.4z"/>
			<path d="M99,134.5c0.1,0.4,0.3,0.6,0.7,0.5c0.3,0,0.5-0.3,0.5-0.6c0-0.4-0.2-0.6-0.6-0.6C99.2,133.9,99,134.1,99,134.5z"/>
			<path d="M89.8,134.9c0.4,0,0.7-0.2,0.7-0.6c0-0.4-0.2-0.6-0.6-0.6c-0.3,0-0.5,0.2-0.6,0.5C89.3,134.6,89.4,134.8,89.8,134.9z"/>
			<path d="M79.6,134.3c0.1,0.4,0.3,0.6,0.7,0.6c0.4,0,0.6-0.3,0.5-0.7c0-0.3-0.2-0.5-0.6-0.5C79.8,133.7,79.6,133.9,79.6,134.3z"/>
			<path d="M137.8,134.7c0,0.4,0.3,0.6,0.7,0.6c0.3,0,0.5-0.2,0.5-0.5c0-0.4-0.2-0.6-0.6-0.7C138.1,134.1,137.9,134.3,137.8,134.7z"
				/>
			<path d="M128.1,134.5c0,0.4,0.2,0.6,0.6,0.7c0.4,0,0.6-0.2,0.6-0.6c0-0.3-0.2-0.5-0.5-0.6C128.5,133.9,128.2,134.1,128.1,134.5z"
				/>
			<path d="M119,135.2c0.4,0,0.6-0.3,0.6-0.7c0-0.3-0.2-0.5-0.5-0.5c-0.4,0-0.6,0.2-0.6,0.6C118.4,135,118.6,135.2,119,135.2z"/>
			<path d="M112.3,132.9c-0.4,0-0.6,0.2-0.7,0.6c0,0.3,0.2,0.5,0.5,0.6c0.4,0,0.7-0.1,0.7-0.5C112.8,133.2,112.6,133,112.3,132.9z"
				/>
			<path d="M102.5,134c0.4,0,0.6-0.3,0.6-0.7c0-0.3-0.2-0.5-0.5-0.5c-0.4,0-0.6,0.2-0.6,0.6C101.9,133.8,102.1,134,102.5,134z"/>
			<path d="M92.7,134c0.4,0,0.7-0.2,0.7-0.6c0-0.4-0.3-0.6-0.6-0.6c-0.3,0-0.5,0.2-0.5,0.5C92.2,133.7,92.4,134,92.7,134z"/>
			<path d="M141.4,133.1c-0.4,0-0.7,0.2-0.7,0.6c0,0.4,0.2,0.6,0.6,0.6c0.3,0,0.5-0.2,0.6-0.5C142,133.4,141.8,133.2,141.4,133.1z"
				/>
			<path d="M131.6,133.1c-0.4,0.1-0.6,0.3-0.5,0.7c0,0.3,0.2,0.5,0.6,0.5c0.4,0,0.6-0.2,0.6-0.6
				C132.2,133.3,131.9,133.1,131.6,133.1z"/>
			<path d="M135.6,136.2c0.4-0.1,0.6-0.3,0.5-0.7c0-0.3-0.2-0.5-0.6-0.5c-0.4,0-0.6,0.2-0.6,0.6C134.9,136,135.2,136.2,135.6,136.2z
				"/>
			<path d="M125.2,135.6c0.1,0.4,0.3,0.6,0.7,0.5c0.3,0,0.5-0.2,0.5-0.6c0-0.4-0.2-0.6-0.6-0.6C125.4,135,125.3,135.3,125.2,135.6z"
				/>
			<path d="M115.5,135.4c0,0.4,0.2,0.7,0.6,0.7s0.6-0.2,0.6-0.6c0-0.3-0.2-0.5-0.5-0.6C115.8,134.8,115.6,135,115.5,135.4z"/>
			<path d="M106.4,134.9c-0.4,0.1-0.6,0.3-0.5,0.7c0,0.3,0.2,0.5,0.6,0.5s0.6-0.2,0.6-0.6C107,135,106.7,134.9,106.4,134.9z"/>
			<path d="M96.7,134.7c-0.4,0.1-0.7,0.3-0.6,0.7s0.4,0.5,0.7,0.5c0.3,0,0.5-0.3,0.5-0.6C97.2,134.9,97,134.7,96.7,134.7z"/>
			<path d="M87,134.7c-0.4,0.1-0.6,0.3-0.5,0.7c0,0.3,0.2,0.5,0.6,0.5s0.6-0.2,0.6-0.6C87.6,134.9,87.3,134.7,87,134.7z"/>
			<path d="M90.2,146.9c0.1,0.5,0.3,0.6,0.7,0.6c0.3,0,0.5-0.2,0.5-0.6c0-0.4-0.2-0.6-0.6-0.6C90.3,146.3,90.2,146.6,90.2,146.9z"/>
			<path d="M81.1,147.5c0.4-0.1,0.6-0.3,0.5-0.7c0-0.3-0.2-0.5-0.6-0.5s-0.6,0.2-0.6,0.6C80.4,147.3,80.7,147.5,81.1,147.5z"/>
			<path d="M71.3,147.4c0.4,0,0.6-0.2,0.6-0.6c0-0.4-0.3-0.6-0.6-0.6c-0.3,0-0.5,0.2-0.5,0.5C70.7,147.1,70.9,147.3,71.3,147.4z"/>
			<path d="M129.6,147.8c0.5-0.1,0.7-0.3,0.6-0.7c-0.1-0.3-0.3-0.5-0.6-0.5c-0.4,0-0.6,0.3-0.5,0.7
				C129.1,147.6,129.3,147.7,129.6,147.8z"/>
			<path d="M119.3,147.1c0,0.4,0.2,0.6,0.5,0.7c0.4,0.1,0.7-0.1,0.7-0.5c0-0.3-0.2-0.6-0.5-0.6C119.6,146.5,119.4,146.8,119.3,147.1
				z"/>
			<path d="M110.1,147.7c0.4,0,0.6-0.2,0.7-0.6c0-0.4-0.2-0.6-0.6-0.6c-0.3,0-0.5,0.2-0.6,0.5C109.6,147.3,109.7,147.6,110.1,147.7z
				"/>
			<path d="M99.8,147.1c0.1,0.4,0.3,0.6,0.7,0.6c0.4,0,0.5-0.4,0.5-0.7s-0.3-0.5-0.6-0.5C100.1,146.5,99.8,146.7,99.8,147.1z"/>
			<path d="M112.5,146.2c0.1,0.4,0.2,0.6,0.6,0.6s0.6-0.3,0.6-0.7c0-0.3-0.3-0.5-0.6-0.5C112.7,145.6,112.5,145.8,112.5,146.2z"/>
			<path d="M100.9,150c0.1,0.4,0.3,0.6,0.7,0.6c0.4-0.1,0.6-0.3,0.5-0.7c0-0.3-0.3-0.5-0.6-0.5C101.1,149.4,100.9,149.6,100.9,150z"
				/>
			<path d="M111.2,150.7c0.4,0,0.6-0.2,0.6-0.6c0-0.3-0.2-0.6-0.5-0.6c-0.4,0-0.6,0.1-0.7,0.5C110.5,150.4,110.8,150.6,111.2,150.7z
				"/>
			<path d="M120.3,150c0,0.4,0.2,0.7,0.5,0.7c0.4,0,0.7-0.2,0.6-0.6c0-0.3-0.2-0.5-0.5-0.6C120.5,149.4,120.4,149.8,120.3,150z"/>
			<path d="M72.2,149.2c-0.5,0.1-0.6,0.4-0.6,0.7s0.3,0.5,0.6,0.5c0.4,0,0.6-0.2,0.6-0.6C72.8,149.4,72.5,149.2,72.2,149.2z"/>
			<path d="M81.3,149.8c0.1,0.4,0.3,0.6,0.7,0.5c0.3,0,0.5-0.3,0.5-0.6c0-0.4-0.2-0.6-0.6-0.6C81.5,149.2,81.3,149.5,81.3,149.8z"/>
			<path d="M116.4,148.1c0.1,0.5,0.4,0.6,0.7,0.6c0.3-0.1,0.5-0.3,0.4-0.6c0-0.3-0.2-0.5-0.6-0.5
				C116.6,147.5,116.4,147.7,116.4,148.1z"/>
			<path d="M106.7,148c0,0.5,0.2,0.7,0.6,0.7c0.3,0,0.5-0.2,0.6-0.5c0-0.4-0.2-0.6-0.6-0.7C106.9,147.4,106.8,147.7,106.7,148z"/>
			<path d="M96.9,148c0.1,0.4,0.3,0.6,0.7,0.5c0.4-0.1,0.5-0.4,0.5-0.7s-0.3-0.5-0.6-0.5C97.2,147.4,96.9,147.6,96.9,148z"/>
			<path d="M130.6,149.7c-0.4,0.1-0.6,0.3-0.6,0.7c0,0.3,0.3,0.5,0.6,0.5c0.4,0,0.6-0.3,0.6-0.7
				C131.2,149.8,130.9,149.7,130.6,149.7z"/>
			<path d="M87.3,147.9c0.1,0.5,0.3,0.7,0.7,0.6c0.4-0.1,0.6-0.3,0.5-0.7c-0.1-0.3-0.3-0.5-0.6-0.5
				C87.4,147.3,87.3,147.6,87.3,147.9z"/>
			<path d="M77.5,147.9c0.1,0.4,0.3,0.6,0.7,0.6c0.4,0,0.6-0.3,0.5-0.7c0-0.3-0.2-0.5-0.6-0.5C77.8,147.3,77.5,147.5,77.5,147.9z"/>
			<path d="M139.7,150.2c0,0.4,0.2,0.6,0.6,0.6c0.3,0,0.5-0.2,0.6-0.5c0-0.4-0.2-0.6-0.6-0.6C140,149.7,139.8,149.9,139.7,150.2z"/>
			<path d="M91,150c0.1,0.4,0.3,0.6,0.7,0.5c0.4-0.1,0.6-0.3,0.5-0.7c-0.1-0.3-0.3-0.5-0.6-0.5C91.2,149.4,91,149.6,91,150z"/>
			<path d="M64.8,148.8c0,0.4,0.2,0.6,0.6,0.6s0.6-0.3,0.6-0.6s-0.2-0.5-0.5-0.6C65.1,148.2,64.8,148.4,64.8,148.8z"/>
			<path d="M75.3,148.2c-0.4,0-0.7,0.2-0.7,0.6c0,0.4,0.2,0.6,0.6,0.6c0.3,0,0.5-0.2,0.6-0.5C75.9,148.5,75.7,148.3,75.3,148.2z"/>
			<path d="M84.9,148.3c-0.4,0.1-0.6,0.3-0.5,0.7c0,0.3,0.2,0.5,0.6,0.5s0.6-0.2,0.6-0.6C85.5,148.5,85.3,148.3,84.9,148.3z"/>
			<path d="M94.7,148.3c-0.4,0.1-0.7,0.3-0.6,0.7s0.4,0.5,0.7,0.5c0.3,0,0.5-0.3,0.5-0.6C95.2,148.5,95,148.3,94.7,148.3z"/>
			<path d="M143.3,148.8c-0.3,0-0.6,0.1-0.6,0.5s0.1,0.7,0.5,0.7c0.3,0,0.6-0.2,0.6-0.5C143.9,149.1,143.7,148.9,143.3,148.8z"/>
			<path d="M105,149c-0.1-0.4-0.3-0.6-0.7-0.5c-0.3,0-0.5,0.2-0.5,0.6c0,0.4,0.2,0.6,0.6,0.6C104.8,149.6,105,149.4,105,149z"/>
			<path d="M136.4,148.8c0.5-0.1,0.7-0.4,0.6-0.7c0-0.3-0.3-0.5-0.6-0.5s-0.5,0.2-0.5,0.5C135.8,148.6,136.1,148.8,136.4,148.8z"/>
			<path d="M114.1,148.5c-0.4,0-0.6,0.2-0.6,0.6c0,0.3,0.2,0.5,0.6,0.5s0.6-0.2,0.6-0.6C114.7,148.7,114.4,148.5,114.1,148.5z"/>
			<path d="M123.8,149.8c0.4,0,0.6-0.2,0.6-0.6c0-0.3-0.2-0.5-0.5-0.6c-0.4,0-0.6,0.2-0.6,0.6C123.2,149.6,123.4,149.7,123.8,149.8z
				"/>
			<path d="M133.5,149.8c0.4,0,0.6-0.2,0.6-0.6c0-0.4-0.2-0.6-0.6-0.6c-0.3,0-0.5,0.2-0.5,0.6C132.9,149.6,133.2,149.8,133.5,149.8z
				"/>
			<path d="M126.1,148.2c0.1,0.4,0.3,0.6,0.7,0.6c0.3,0,0.5-0.3,0.5-0.6c0-0.4-0.3-0.6-0.7-0.6C126.3,147.7,126.1,147.9,126.1,148.2
				z"/>
			<path d="M138.7,147.3c0.1,0.5,0.3,0.7,0.7,0.6c0.3,0,0.5-0.3,0.5-0.6c0-0.4-0.3-0.6-0.7-0.5C138.9,146.8,138.7,147.1,138.7,147.3
				z"/>
			<path d="M67.8,147.8c0,0.4,0.3,0.6,0.6,0.6c0.3,0,0.5-0.2,0.5-0.5c0-0.4-0.2-0.6-0.6-0.6C68,147.1,67.9,147.4,67.8,147.8z"/>
			<path d="M134.9,145.3c0,0.4,0.2,0.6,0.6,0.6c0.3,0,0.5-0.2,0.6-0.5c0-0.3-0.1-0.6-0.4-0.6C135.3,144.7,135,144.8,134.9,145.3z"/>
			<path d="M125.3,145.3c0,0.4,0.2,0.6,0.6,0.6c0.3,0,0.5-0.2,0.5-0.6c0-0.4-0.2-0.6-0.6-0.6C125.5,144.7,125.3,144.9,125.3,145.3z"
				/>
			<path d="M105.6,145.2c0.1,0.4,0.3,0.6,0.7,0.5c0.3,0,0.5-0.2,0.5-0.6c0-0.4-0.2-0.6-0.6-0.6C105.9,144.6,105.7,144.8,105.6,145.2
				z"/>
			<path d="M96.6,144.4c-0.5,0-0.7,0.2-0.7,0.6c0,0.3,0.2,0.5,0.5,0.6c0.4,0,0.6-0.2,0.7-0.6C97.2,144.6,96.9,144.5,96.6,144.4z"/>
			<path d="M115.9,145.7c0.4,0,0.6-0.2,0.7-0.6c0-0.4-0.2-0.6-0.6-0.6c-0.3,0-0.5,0.2-0.6,0.5C115.3,145.4,115.5,145.7,115.9,145.7z
				"/>
			<path d="M86.8,145.6c0.4,0,0.6-0.3,0.6-0.7c0-0.3-0.2-0.5-0.5-0.5c-0.4,0-0.6,0.2-0.7,0.6C86.2,145.4,86.5,145.6,86.8,145.6z"/>
			<path d="M93.6,146.6c0.4,0,0.6-0.2,0.6-0.6c0-0.4-0.2-0.6-0.6-0.6c-0.3,0-0.5,0.2-0.5,0.5C93,146.3,93.2,146.6,93.6,146.6z"/>
			<path d="M103.3,146.6c0.4,0,0.6-0.2,0.6-0.6c0-0.3-0.2-0.6-0.5-0.6c-0.4,0-0.6,0.1-0.7,0.5C102.7,146.3,102.9,146.5,103.3,146.6z
				"/>
			<path d="M83.9,146.5c0.4,0,0.6-0.3,0.6-0.7c0-0.3-0.2-0.5-0.5-0.5c-0.4,0-0.6,0.2-0.7,0.6C83.3,146.3,83.6,146.5,83.9,146.5z"/>
			<path d="M73.6,145.9c0.1,0.4,0.3,0.6,0.7,0.6c0.4-0.1,0.6-0.3,0.5-0.7c0-0.3-0.3-0.5-0.6-0.5C73.8,145.3,73.6,145.5,73.6,145.9z"
				/>
			<path d="M122.8,146.8c0.4,0,0.6-0.2,0.6-0.6c0-0.3-0.2-0.5-0.5-0.6c-0.4,0-0.7,0.1-0.7,0.5C122.1,146.5,122.4,146.7,122.8,146.8z
				"/>
			<path d="M63.9,145.8c0.1,0.4,0.3,0.6,0.7,0.5c0.3,0,0.5-0.3,0.5-0.6c0-0.4-0.2-0.6-0.6-0.6C64.1,145.2,63.9,145.4,63.9,145.8z"/>
			<path d="M132.5,146.9c0.4-0.1,0.6-0.3,0.5-0.7c-0.1-0.3-0.3-0.5-0.6-0.5c-0.4,0-0.6,0.3-0.5,0.7
				C132,146.7,132.2,146.9,132.5,146.9z"/>
			<path d="M141.8,146.3c0,0.4,0.2,0.6,0.5,0.6c0.4,0,0.7-0.2,0.7-0.6c0-0.3-0.2-0.5-0.5-0.6C142,145.7,141.8,145.9,141.8,146.3z"/>
		</g>
	</g>
</g>
<g>
	<path class="st2" d="M7.2,43.4L16.3,2h7.1l-9.2,41.4H7.2z"/>
	<path class="st2" d="M25,43.4L34.2,2h6.6l3.4,23.7h0.1L49.5,2H56l-9.2,41.4h-6.2l-3.3-25.9h-0.1l-5.7,25.9H25z"/>
	<path class="st2" d="M56.5,43.4L65.7,2h19.8l-1.4,6.2H71.4L69,18.9h9.5l-1.4,6.2h-9.5l-4.1,18.3C63.5,43.4,56.5,43.4,56.5,43.4z"/>
	<path class="st2" d="M91.8,12.1C93.1,6.2,97.6,1.5,105,1.5c7.5,0,9.9,4.8,8.5,10.6l-4.7,21.3C107.5,39.2,103,44,95.6,44
		c-7.5,0-9.9-4.8-8.5-10.6L91.8,12.1z M94.2,33.2c-0.7,3.1-0.1,4.6,2.8,4.6s4.1-1.5,4.8-4.6l4.7-21c0.7-3.1,0.1-4.6-2.8-4.6
		s-4.1,1.5-4.8,4.6L94.2,33.2z"/>
	<path class="st2" d="M136.3,12.3c0.5-3.6-1.2-4.6-2.8-4.6c-2.3,0-3.8,1.5-4.4,4.1c-1.6,7.1,12.1,10.4,9.6,21.7
		c-1.5,6.8-6.9,10.6-13.6,10.6c-6.6,0-9.2-5.3-8.1-11.5l7-1c-0.6,4.2,0.6,6.2,2.9,6.2c2.5,0,4.4-1.3,4.9-3.8
		c1.8-8.2-12.2-10.4-9.5-22.2c1.5-6.6,6.3-10.3,13.3-10.3c5.8,0,8.3,4.2,7.6,10L136.3,12.3z"/>
</g>
<g>
	<path class="st2" d="M7.2,110.6l14-63.4h30.4l-2.1,9.5H30L26.4,73H41l-2.1,9.5H24.3l-6.2,28.1H7.2z"/>
	<path class="st2" d="M109.7,110.6H98.8l14-63.4h15.3c12.2,0,17.3,5.2,14.3,18.7c-2.3,10.2-7.1,14.3-11.2,16l2.9,28.7H123l-1.9-26.2
		c-1.4,0.2-3.7,0.3-5.6,0.3L109.7,110.6z M117.4,75.7h3.9c5.9,0,8.6-2.2,10.3-9.7s-0.1-9.7-6-9.7h-3.9L117.4,75.7z"/>
	<path class="st2" d="M75.5,47.2H64.6l-2.1,9.5h10.9L75.5,47.2z M87.1,47.2L85,56.7h10.9l2.1-9.5H87.1z M76.4,95.1
		c-1.1,4.7-3.3,6.9-7.3,6.9c-3.9,0-5.4-2.3-4.3-6.9l8-36H61.9L54,94.6c-2.4,10.9,2.6,16.9,13,16.9s18-6,20.4-16.9l7.9-35.5H84.4
		L76.4,95.1z"/>
</g>
</svg>
