<?xml version="1.0" encoding="utf-8"?>
<!-- Generator: Adobe Illustrator 19.1.0, SVG Export Plug-In . SVG Version: 6.00 Build 0)  -->
<svg version="1.1" id="Ebene_1" xmlns="http://www.w3.org/2000/svg" xmlns:xlink="http://www.w3.org/1999/xlink" x="0px" y="0px"
	 viewBox="0 0 150 150" style="enable-background:new 0 0 150 150;" xml:space="preserve">
<style type="text/css">
	.st0{fill:#FABB00;}
	.st1{fill:#F1B200;}
	.st2{fill:none;stroke:#F3B400;stroke-width:0.9243;stroke-miterlimit:10;}
	.st3{fill:none;stroke:#F3B400;stroke-width:0.9243;stroke-miterlimit:10;stroke-dasharray:1.4113,1.4113;}
	.st4{fill:none;stroke:#F3B400;stroke-width:0.9243;stroke-miterlimit:10;stroke-dasharray:1.277,1.277;}
	.st5{fill:none;stroke:#F3B400;stroke-width:0.9243;stroke-miterlimit:10;stroke-dasharray:1.9227,1.9227;}
	.st6{fill:none;stroke:#F3B400;stroke-width:0.9243;stroke-miterlimit:10;stroke-dasharray:1.5862,1.5862;}
	.st7{fill:none;stroke:#F3B400;stroke-width:0.9243;stroke-miterlimit:10;stroke-dasharray:1.4973,1.4973;}
	.st8{fill:none;stroke:#F3B400;stroke-width:0.9243;stroke-miterlimit:10;stroke-dasharray:1.5984,1.5984;}
	.st9{fill:none;stroke:#F3B400;stroke-width:0.9243;stroke-miterlimit:10;stroke-dasharray:1.4757,1.4757;}
	.st10{fill:none;stroke:#F3B400;stroke-width:0.9243;stroke-miterlimit:10;stroke-dasharray:1.4668,1.4668;}
	.st11{fill:none;stroke:#F3B400;stroke-width:0.9243;stroke-miterlimit:10;stroke-dasharray:1.5463,1.5463;}
	.st12{fill:none;stroke:#F3B400;stroke-width:0.9243;stroke-miterlimit:10;stroke-dasharray:1.4901,1.4901;}
	.st13{fill:none;stroke:#F3B400;stroke-width:0.9243;stroke-miterlimit:10;stroke-dasharray:1.5407,1.5407;}
	.st14{fill:none;stroke:#F3B400;stroke-width:0.9243;stroke-miterlimit:10;stroke-dasharray:1.525,1.525;}
	.st15{fill:none;stroke:#F3B400;stroke-width:0.9243;stroke-miterlimit:10;stroke-dasharray:1.4952,1.4952;}
	.st16{fill:none;stroke:#F3B400;stroke-width:0.9243;stroke-miterlimit:10;stroke-dasharray:1.5693,1.5693;}
	.st17{fill:none;stroke:#F3B400;stroke-width:0.9243;stroke-miterlimit:10;stroke-dasharray:1.5169,1.5169;}
	.st18{fill:none;stroke:#F3B400;stroke-width:0.9243;stroke-miterlimit:10;stroke-dasharray:1.7111,1.7111;}
	.st19{fill:none;stroke:#FFFFFF;stroke-width:0.6162;stroke-linecap:round;stroke-linejoin:round;stroke-miterlimit:10;}
	.st20{fill:#FFFFFF;}
	.st21{clip-path:url(#SVGID_2_);}
	.st22{stroke:#FFFFFF;stroke-miterlimit:10;}
	.st23{fill:none;stroke:#F1B200;stroke-width:0.6888;stroke-miterlimit:10;stroke-dasharray:3.1207;}
	.st24{stroke:#000000;stroke-width:0.8298;stroke-miterlimit:10;}
	.st25{opacity:0.9;fill:#FFFFFF;}
	.st26{clip-path:url(#SVGID_4_);}
	.st27{stroke:#FFFFFF;stroke-width:1.0877;stroke-miterlimit:10;}
	.st28{stroke:#000000;stroke-width:1.9035;stroke-miterlimit:10;}
	.st29{clip-path:url(#SVGID_6_);}
	.st30{stroke:#000000;stroke-width:1.3597;stroke-miterlimit:10;}
	.st31{fill:#FFFFFF;stroke:#000000;stroke-width:0.8637;stroke-miterlimit:10;}
	.st32{fill:#FFFFFF;stroke:#000000;stroke-width:1.2955;stroke-miterlimit:10;}
	.st33{clip-path:url(#SVGID_8_);fill:#F5B500;}
	.st34{clip-path:url(#SVGID_8_);fill:#FFFFFF;}
	.st35{fill:#0000FF;}
	.st36{fill:#F5B500;}
	.st37{clip-path:url(#SVGID_10_);fill:#FFFFFF;}
	.st38{clip-path:url(#SVGID_10_);fill:#F5B500;}
	.st39{clip-path:url(#SVGID_10_);}
	.st40{clip-path:url(#SVGID_12_);fill:#FFFFFF;}
	.st41{clip-path:url(#SVGID_12_);}
	.st42{clip-path:url(#SVGID_12_);fill:#F5B500;}
	.st43{clip-path:url(#SVGID_14_);fill:#FFFFFF;}
	.st44{clip-path:url(#SVGID_14_);fill:#F5B500;}
	.st45{clip-path:url(#SVGID_14_);}
	.st46{clip-path:url(#SVGID_16_);fill:#FFFFFF;}
	.st47{clip-path:url(#SVGID_16_);}
	.st48{clip-path:url(#SVGID_16_);fill:#F5B500;}
	.st49{clip-path:url(#SVGID_18_);fill:#F5B500;}
	.st50{clip-path:url(#SVGID_18_);}
	.st51{clip-path:url(#SVGID_18_);fill:#FFFFFF;}
	.st52{clip-path:url(#SVGID_20_);fill:#FFFFFF;}
	.st53{clip-path:url(#SVGID_20_);fill:#F5B500;}
	.st54{clip-path:url(#SVGID_22_);fill:#F5B500;}
	.st55{clip-path:url(#SVGID_22_);fill:#FFFFFF;}
	.st56{clip-path:url(#SVGID_24_);fill:#F5B500;}
	.st57{clip-path:url(#SVGID_24_);fill:#FFFFFF;}
	.st58{clip-path:url(#SVGID_26_);fill:#FFFFFF;}
	.st59{clip-path:url(#SVGID_26_);fill:#F5B500;}
	.st60{clip-path:url(#SVGID_26_);}
	.st61{clip-path:url(#SVGID_28_);fill:#F5B500;}
	.st62{clip-path:url(#SVGID_28_);}
	.st63{clip-path:url(#SVGID_28_);fill:#FFFFFF;}
	.st64{clip-path:url(#SVGID_30_);fill:#F5B500;}
	.st65{clip-path:url(#SVGID_30_);fill:#FFFFFF;}
	.st66{clip-path:url(#SVGID_32_);fill:#F5B500;}
	.st67{clip-path:url(#SVGID_32_);}
	.st68{clip-path:url(#SVGID_32_);fill:#FFFFFF;}
</style>
<g>
	<g>
		<rect y="-0.2" width="150" height="150.3"/>
	</g>
</g>
<g>
	<g>
		<path class="st0" d="M134.7,80.4h-5.2c-0.5,0-0.9-0.4-0.9-0.9c0-0.5,0.4-0.9,0.9-0.9h5.2c0.5,0,0.9,0.4,0.9,0.9
			C135.6,80,135.2,80.4,134.7,80.4z"/>
	</g>
	<g>
		<path class="st0" d="M134.7,85.1h-5.2c-0.5,0-0.9-0.4-0.9-0.9c0-0.5,0.4-0.9,0.9-0.9h5.2c0.5,0,0.9,0.4,0.9,0.9
			C135.6,84.7,135.2,85.1,134.7,85.1z"/>
	</g>
	<g>
		<path class="st0" d="M134.7,89.9h-5.2c-0.5,0-0.9-0.4-0.9-0.9c0-0.5,0.4-0.9,0.9-0.9h5.2c0.5,0,0.9,0.4,0.9,0.9
			C135.6,89.5,135.2,89.9,134.7,89.9z"/>
	</g>
	<g>
		<circle class="st0" cx="132.9" cy="119.6" r="15.3"/>
	</g>
	<g>
		<circle cx="132.7" cy="119.7" r="4.8"/>
	</g>
	<g>
		<circle class="st0" cx="30.7" cy="104.2" r="30.7"/>
	</g>
	<g>
		<circle cx="30.8" cy="104.3" r="11.9"/>
	</g>
	<g>
		<path class="st20" d="M144.7,88.2c-0.9,0-1.7-0.8-1.7-1.7c0-8.9-7.2-16.1-16.1-16.1c-0.9,0-1.7-0.8-1.7-1.7s0.8-1.7,1.7-1.7
			c10.8,0,19.6,8.8,19.6,19.6C146.4,87.4,145.7,88.2,144.7,88.2z"/>
	</g>
	<g>
		<path class="st20" d="M87,69.2c-0.7,0-1.4-0.5-1.6-1.2L69.7,21.4H14.2c-0.9,0-1.7-0.8-1.7-1.7s0.8-1.7,1.7-1.7H71
			c0.7,0,1.4,0.5,1.6,1.2l16,47.8c0.3,0.9-0.2,1.9-1.1,2.2C87.3,69.2,87.1,69.2,87,69.2z"/>
	</g>
	<g>
		<path class="st20" d="M10,70.1c-0.2,0-0.3,0-0.5-0.1c-0.9-0.3-1.4-1.2-1.1-2.1l15.2-48.6c0.3-0.9,1.2-1.4,2.1-1.1
			c0.9,0.3,1.4,1.2,1.1,2.1L11.6,68.9C11.4,69.6,10.7,70.1,10,70.1z"/>
	</g>
	<g>
		<path class="st20" d="M126.8,70.4H54.5c-0.9,0-1.7-0.8-1.7-1.7s0.8-1.7,1.7-1.7h72.3c0.9,0,1.7,0.8,1.7,1.7S127.7,70.4,126.8,70.4
			z"/>
	</g>
	<g>
		<path class="st20" d="M144.7,101.9c-0.9,0-1.7-0.8-1.7-1.7V86.3c0-0.9,0.8-1.7,1.7-1.7c0.9,0,1.7,0.8,1.7,1.7v13.9
			C146.4,101.2,145.7,101.9,144.7,101.9z"/>
	</g>
	<g>
		<path class="st20" d="M122.4,65.5c-0.9,0-1.7-0.8-1.7-1.7c0-6,4.9-10.9,10.9-10.9c0.9,0,1.7,0.8,1.7,1.7c0,0.9-0.8,1.7-1.7,1.7
			c-4.1,0-7.5,3.3-7.5,7.5C124.1,64.8,123.3,65.5,122.4,65.5z"/>
	</g>
	<g>
		<path class="st20" d="M122.4,89.9H97.3c-0.9,0-1.7-0.8-1.7-1.7s0.8-1.7,1.7-1.7h23.4V63.2c0-0.9,0.8-1.7,1.7-1.7s1.7,0.8,1.7,1.7
			v25C124.1,89.2,123.3,89.9,122.4,89.9z"/>
	</g>
	<g>
		<path class="st20" d="M111.2,113H69.6c-0.9,0-1.7-0.8-1.7-1.7s0.8-1.7,1.7-1.7h41.6c0.9,0,1.7,0.8,1.7,1.7S112.2,113,111.2,113z"
			/>
	</g>
</g>
</svg>
